<svg width="1367" height="968" viewBox="0 0 1367 968" fill="none" xmlns="http://www.w3.org/2000/svg">
<path d="M404.5 636C559.968 636 686 509.968 686 354.5C686 199.032 559.968 73 404.5 73C249.032 73 123 199.032 123 354.5C123 509.968 249.032 636 404.5 636Z" fill="#E9F4F7"/>
<path d="M893.5 866.668C1048.97 866.668 1175 740.636 1175 585.168C1175 429.7 1048.97 303.668 893.5 303.668C738.032 303.668 612 429.7 612 585.168C612 740.636 738.032 866.668 893.5 866.668Z" fill="#FEF6E7"/>
<path d="M127.654 126.585L788.793 126.755L788.792 130.755L127.653 130.585L127.654 126.585Z" fill="#F0DECF"/>
<path d="M813.692 552V556H98V552H813.692Z" fill="#F0DECF"/>
<path d="M813.692 732V736H98V732H813.692Z" fill="#F0DECF"/>
<path d="M157.5 64C147.283 64 139 72.2827 139 82.5C139 92.7173 147.283 101 157.5 101C167.717 101 176 92.7173 176 82.5C176 72.2827 167.717 64 157.5 64ZM157.5 68C165.508 68 172 74.4919 172 82.5C172 90.5081 165.508 97 157.5 97C149.492 97 143 90.5081 143 82.5C143 74.4919 149.492 68 157.5 68Z" fill="#F0DECF"/>
<path d="M226 66H192V100H226V66ZM222 70V96H196V70H222Z" fill="#F0DECF"/>
<path d="M772.528 34V38H100V795H821.028V799H96V34H772.528ZM1181 407.074V547.495H1177V407.074H1181Z" fill="#F0DECF"/>
<path fill-rule="evenodd" clip-rule="evenodd" d="M693.18 709.017L697.044 707.982C698.111 707.696 699.207 708.329 699.493 709.396L721.234 790.534C721.52 791.601 720.887 792.697 719.82 792.983L715.956 794.018C714.889 794.304 713.793 793.671 713.507 792.604L691.766 711.466C691.48 710.4 692.113 709.303 693.18 709.017Z" fill="#018FC0"/>
<path fill-rule="evenodd" clip-rule="evenodd" d="M693.18 709.017L697.044 707.982C698.111 707.696 699.207 708.329 699.493 709.396L701.823 718.089L694.095 720.16L691.766 711.466C691.48 710.4 692.113 709.303 693.18 709.017Z" fill="#EA697C"/>
<path fill-rule="evenodd" clip-rule="evenodd" d="M30 419H73C75.7614 419 78 421.239 78 424V661H25V424C25 421.239 27.2386 419 30 419Z" fill="#F7C066"/>
<path fill-rule="evenodd" clip-rule="evenodd" d="M56 419H72C74.7614 419 77 421.239 77 424V661H56V419Z" fill="#DDA549"/>
<path d="M126 439H85C81.134 439 78 442.134 78 446V663H133V446C133 442.134 129.866 439 126 439ZM126 443L126.176 443.005C127.751 443.096 129 444.402 129 446V659H82V446C82 444.343 83.3431 443 85 443H126Z" fill="#D7D5D5"/>
<path fill-rule="evenodd" clip-rule="evenodd" d="M110 441H126C128.761 441 131 443.239 131 446V661H110V441Z" fill="#D7D5D5"/>
<path fill-rule="evenodd" clip-rule="evenodd" d="M136 419H179C181.761 419 184 421.239 184 424V661H131V424C131 421.239 133.239 419 136 419Z" fill="#E9525B"/>
<path fill-rule="evenodd" clip-rule="evenodd" d="M172 419H179C181.761 419 184 421.239 184 424V661H172V419Z" fill="#D12F38"/>
<path fill-rule="evenodd" clip-rule="evenodd" d="M189 441H232C234.761 441 237 443.239 237 446V661H184V446C184 443.239 186.239 441 189 441Z" fill="#6F97F8"/>
<path d="M112 513H97C95.8954 513 95 513.895 95 515V631C95 632.105 95.8954 633 97 633H112C113.105 633 114 632.105 114 631V515C114 513.895 113.105 513 112 513ZM110 517V629H99V517H110Z" fill="#3CB49F"/>
<path d="M104.5 466C95.9396 466 89 472.94 89 481.5C89 490.06 95.9396 497 104.5 497C113.06 497 120 490.06 120 481.5C120 472.94 113.06 466 104.5 466ZM104.5 470C110.851 470 116 475.149 116 481.5C116 487.851 110.851 493 104.5 493C98.1487 493 93 487.851 93 481.5C93 475.149 98.1487 470 104.5 470Z" fill="#3CB49F"/>
<path d="M59 478H44C42.8954 478 42 478.895 42 480V631C42 632.105 42.8954 633 44 633H59C60.1046 633 61 632.105 61 631V480C61 478.895 60.1046 478 59 478ZM57 482V629H46V482H57Z" fill="white"/>
<path d="M60 446.5C61.1046 446.5 62 447.395 62 448.5C62 449.554 61.1841 450.418 60.1493 450.495L60 450.5H24C22.8954 450.5 22 449.605 22 448.5C22 447.446 22.8159 446.582 23.8507 446.505L24 446.5H60Z" fill="white"/>
<path d="M60 459.5C61.1046 459.5 62 460.395 62 461.5C62 462.554 61.1841 463.418 60.1493 463.495L60 463.5H24C22.8954 463.5 22 462.605 22 461.5C22 460.446 22.8159 459.582 23.8507 459.505L24 459.5H60Z" fill="white"/>
<path d="M155.5 475C156.554 475 157.418 475.816 157.495 476.851L157.5 477V622C157.5 623.105 156.605 624 155.5 624C154.446 624 153.582 623.184 153.505 622.149L153.5 622V477C153.5 475.895 154.395 475 155.5 475Z" fill="#F7C066"/>
<path d="M166.509 490C167.563 490.005 168.423 490.824 168.495 491.86L168.5 492.009L168 604.565C167.995 605.669 167.096 606.561 165.991 606.556C164.937 606.551 164.077 605.731 164.005 604.696L164 604.547L164.5 491.991C164.505 490.887 165.404 489.995 166.509 490Z" fill="#F7C066"/>
<path d="M144.509 490C145.563 490.005 146.423 490.824 146.495 491.86L146.5 492.009L146 604.565C145.995 605.669 145.096 606.561 143.991 606.556C142.937 606.551 142.077 605.731 142.005 604.696L142 604.547L142.5 491.991C142.505 490.887 143.404 489.995 144.509 490Z" fill="#F7C066"/>
<path d="M165 446.5C166.105 446.5 167 447.395 167 448.5C167 449.554 166.184 450.418 165.149 450.495L165 450.5H129C127.895 450.5 127 449.605 127 448.5C127 447.446 127.816 446.582 128.851 446.505L129 446.5H165Z" fill="#F7C066"/>
<path d="M165 459.5C166.105 459.5 167 460.395 167 461.5C167 462.554 166.184 463.418 165.149 463.495L165 463.5H129C127.895 463.5 127 462.605 127 461.5C127 460.446 127.816 459.582 128.851 459.505L129 459.5H165Z" fill="#F7C066"/>
<path d="M219 454.5C220.105 454.5 221 455.395 221 456.5C221 457.554 220.184 458.418 219.149 458.495L219 458.5H183C181.895 458.5 181 457.605 181 456.5C181 455.446 181.816 454.582 182.851 454.505L183 454.5H219Z" fill="white"/>
<path d="M211.5 487H208.5C201.596 487 196 492.596 196 499.5V629.5C196 636.404 201.596 642 208.5 642H211.5C218.404 642 224 636.404 224 629.5V499.5C224 492.596 218.404 487 211.5 487ZM208.5 491H211.5C216.194 491 220 494.806 220 499.5V629.5C220 634.194 216.194 638 211.5 638H208.5C203.806 638 200 634.194 200 629.5V499.5C200 494.806 203.806 491 208.5 491Z" fill="white"/>
<path d="M219 466.5C220.105 466.5 221 467.395 221 468.5C221 469.554 220.184 470.418 219.149 470.495L219 470.5H183C181.895 470.5 181 469.605 181 468.5C181 467.446 181.816 466.582 182.851 466.505L183 466.5H219Z" fill="white"/>
<path fill-rule="evenodd" clip-rule="evenodd" d="M225 441H232C234.761 441 237 443.239 237 446V661H225V441Z" fill="#406DD9"/>
<path d="M264 658.5C265.105 658.5 266 659.395 266 660.5C266 661.554 265.184 662.418 264.149 662.495L264 662.5H2C0.89543 662.5 0 661.605 0 660.5C0 659.446 0.815878 658.582 1.85074 658.505L2 658.5H264Z" fill="#583E40"/>
<path d="M298 677.5C299.105 677.5 300 678.395 300 679.5C300 680.554 299.184 681.418 298.149 681.495L298 681.5H36C34.8954 681.5 34 680.605 34 679.5C34 678.446 34.8159 677.582 35.8507 677.505L36 677.5H298Z" fill="#583E40"/>
<path fill-rule="evenodd" clip-rule="evenodd" d="M445.213 437L514.081 445.215L521.316 448.87C566.124 471.555 591.644 485.508 597.874 490.73C604.432 496.226 603.556 543.131 595.246 631.445L592.725 636.593C572.963 677.07 563.082 700.646 563.082 707.321L563.086 707.759C563.21 714.639 566.11 752.127 571.788 786.989L573.368 796.617L458.562 796.618C441.067 806.261 422.451 806.261 402.712 796.618L332.239 796.617L346.669 754.256L332.239 631.445C310.023 577.99 301.914 540.036 307.913 517.582C313.853 495.354 358.768 468.805 442.659 437.937L445.213 437Z" fill="#229581"/>
<path fill-rule="evenodd" clip-rule="evenodd" d="M332.239 631.445L386.091 743.548L392.866 769.773C393.91 776.846 397.68 780.383 404.176 780.383L413.393 800.93C409.87 799.813 406.31 798.375 402.712 796.618L332.239 796.617L346.669 754.256L332.239 631.445Z" fill="#0D594C"/>
<path fill-rule="evenodd" clip-rule="evenodd" d="M550.472 464C572.037 477.457 577.039 500.185 565.476 532.184C579.047 586.329 567.552 627.7 530.991 656.299L542.083 543.894L550.472 464Z" fill="#0D594C"/>
<path fill-rule="evenodd" clip-rule="evenodd" d="M445.213 437L454.106 479.861L508.547 597.146L509.662 660.589C459.246 616.986 436.666 576.302 441.922 538.536C414.71 501.587 415.513 468.046 444.331 437.912L445.213 437Z" fill="#0D594C"/>
<path d="M520 729C522.209 729 524 727.209 524 725C524 722.791 522.209 721 520 721C517.791 721 516 722.791 516 725C516 727.209 517.791 729 520 729Z" fill="#0D594C"/>
<path fill-rule="evenodd" clip-rule="evenodd" d="M704.317 755.266C716.138 755.266 735.963 766.906 735.963 774.14C735.963 778.962 735.12 782.448 733.434 784.597C736.497 790.146 734.482 797.128 728.933 800.191C727.461 801.003 725.829 801.482 724.151 801.594L696.799 803.421C691.92 803.421 685.231 800.875 676.73 795.783L664.701 798.449L653.339 800.958C532.516 827.582 464.37 840.894 448.901 840.894C432.754 840.894 418.085 821.438 404.895 782.528L405.796 782.666L406.871 782.82C407.608 782.923 408.385 783.024 409.201 783.124L409.82 783.198L411.1 783.344C421.733 784.514 432.849 784.762 443.283 783.506C455.807 781.999 466.046 778.44 473.19 772.347C475.888 770.046 478.138 767.824 479.931 765.695L664.457 765.696L666.765 764.845L668.295 764.289C684.979 758.274 696.986 755.266 704.317 755.266Z" fill="#FDB4A3"/>
<path fill-rule="evenodd" clip-rule="evenodd" d="M428.755 803.851L432.742 807.269C446.198 818.805 464.191 823.555 481.589 820.164C609.076 795.312 674.102 787.044 676.667 795.36L676.73 795.783L664.7 798.449L653.339 800.958C532.515 827.582 464.369 840.894 448.9 840.894C432.459 840.894 417.551 820.723 404.175 780.383L428.755 803.851Z" fill="#F69883"/>
<path fill-rule="evenodd" clip-rule="evenodd" d="M446.676 437.383C438.138 452.878 441.103 475.333 455.57 504.747C477.271 548.869 513.054 663.667 513.054 711.496C535.075 653.664 547.548 611.18 550.472 584.045C554.858 543.343 558.063 490.74 550.472 464L499.18 452.59L446.676 437.383Z" fill="white"/>
<path fill-rule="evenodd" clip-rule="evenodd" d="M484.998 383.428C477.122 404.48 464.348 422.465 446.676 437.383C465.209 482.69 490.753 505.143 523.308 504.742C572.141 504.142 548.567 460.863 544.816 446.326C542.315 436.635 544.693 419.308 551.95 394.344L496.445 377.099L484.998 383.428Z" fill="#FDB4A3"/>
<path fill-rule="evenodd" clip-rule="evenodd" d="M503.131 403.745L504.611 403.538C528.315 400.286 541.568 401.553 544.37 407.34L544.453 407.52C544.854 408.429 545.726 409.858 547.072 411.807L547.307 412.145L546.97 413.666C543.739 428.485 543.022 439.372 544.816 446.326C548.257 459.661 568.38 497.184 533.985 503.759C534.053 491.225 530.573 477.819 519.985 466.013L519.52 465.5C498.36 442.45 492.897 421.864 503.131 403.745Z" fill="#F69883"/>
<path fill-rule="evenodd" clip-rule="evenodd" d="M594 407.52L600.496 422.723L611.401 426.791L619.375 505.492L659.788 665.834C672.17 721.784 670.421 759.549 654.543 779.129C630.725 808.499 593.704 795.934 585.022 776.182C579.235 763.013 578.266 682.783 586.116 505.492C571.201 496.449 564.521 477.783 562.228 469.367C561.608 467.092 558.877 463.518 554.035 458.647L553.311 457.925C545.919 450.605 542.698 440.075 544.71 429.891L544.808 429.414L546.294 430.357C554.014 435.222 562.906 440.275 563.758 438.321C564.735 436.079 564.308 431.21 562.475 423.716L562.228 422.723L568.625 414.126L583.022 407.52H594Z" fill="#FDB4A3"/>
<path fill-rule="evenodd" clip-rule="evenodd" d="M544.349 429.094L546.294 430.357L548.14 431.509C555.368 435.976 562.974 440.121 563.758 438.321C563.872 438.059 563.967 437.761 564.043 437.426L566.51 439.203C565.633 444.435 567.173 450.262 571.131 456.686C577.069 466.322 597.337 469.846 597.337 473.591L597.259 479.304C597.18 487.669 597.367 501.855 600.213 504.888C603.979 508.901 599.291 722.961 581.683 717.229L581.339 717.108L581.34 712.752L581.371 698.052C581.505 652.755 582.115 595.858 586.116 505.492C571.201 496.449 564.521 477.783 562.228 469.368C560.957 464.704 553.839 458.239 546.501 451.641L545.994 450.166C545.512 448.737 545.105 447.446 544.816 446.326C543.751 442.199 543.571 436.686 544.276 429.789L544.349 429.094Z" fill="#F69883"/>
<path d="M557.5 340.999C589.533 340.999 615.5 310.107 615.5 271.999C615.5 233.891 589.533 202.999 557.5 202.999C525.467 202.999 499.5 233.891 499.5 271.999C499.5 310.107 525.467 340.999 557.5 340.999Z" fill="#583E40"/>
<path fill-rule="evenodd" clip-rule="evenodd" d="M598.288 335.494L598.188 336.081C596.623 344.934 598.271 354.633 603.133 365.179L603.435 365.825C603.901 366.813 603.793 367.977 603.153 368.863C601.055 371.766 596.758 372.727 590.262 371.747L589.592 375.218C584.28 402.482 580.033 417.718 576.854 420.924C573.542 424.264 560.347 424.264 537.271 420.924L478.998 398.427L473.813 382.047C464.918 353.872 460.419 339.14 460.314 337.851L460.322 337.069C460.445 329.415 461.774 267.708 465.526 267.708L468.683 267.672C479.348 267.526 515.814 266.929 578.082 265.882L599.594 278.954L599.695 283.269C600.254 308.995 599.785 326.403 598.288 335.494Z" fill="#FDB4A3"/>
<path fill-rule="evenodd" clip-rule="evenodd" d="M488.978 300.728C550.253 292.674 574.386 292.594 561.378 300.486L560.972 300.728C540.125 312.93 551.26 344.656 535.173 362.988C524.448 375.209 518.42 390.053 517.089 407.52L517.916 408.381C520.746 411.349 522.883 413.865 524.326 415.927L478.998 398.427L473.626 381.458C471.698 375.348 469.979 369.878 468.47 365.05L460.568 326.252L460.609 324.751L488.978 300.728Z" fill="#F69883"/>
<path d="M388.5 336.382C419.152 336.382 444 311.534 444 280.882C444 250.231 419.152 225.382 388.5 225.382C357.848 225.382 333 250.231 333 280.882C333 311.534 357.848 336.382 388.5 336.382Z" fill="#583E40"/>
<path fill-rule="evenodd" clip-rule="evenodd" d="M427.716 241.61C437.776 251.656 444 265.543 444 280.883C444 308.037 424.498 330.637 398.736 335.44C393.015 306.522 401.214 268.833 426.702 242.633L427.716 241.61Z" fill="#4F3638"/>
<path fill-rule="evenodd" clip-rule="evenodd" d="M501.724 194.862C576.329 184.019 606.678 222.545 605.368 258.332C604 295.713 562.51 310.999 523.785 332.668C518.116 325.296 511.092 321.664 503.045 323.477C485.299 327.474 483.718 357.968 510.664 357.968C512.727 368.891 502.172 382.377 478.998 398.427C455.973 387.076 425.772 367.024 414.24 321.797C402.709 276.57 427.118 205.705 501.724 194.862Z" fill="#583E40"/>
<path d="M587 339C589.209 339 591 335.866 591 332C591 328.134 589.209 325 587 325C584.791 325 583 328.134 583 332C583 335.866 584.791 339 587 339Z" fill="#583E40"/>
<path fill-rule="evenodd" clip-rule="evenodd" d="M571.758 319.264C581.157 310.137 587.144 306.104 589.718 307.166C594.07 308.961 592.175 317.131 584.224 320.066C580.914 321.287 577.562 322.127 574.169 322.586L573.385 322.685C572.288 322.814 571.294 322.03 571.165 320.933C571.092 320.314 571.312 319.698 571.758 319.264Z" fill="#583E40"/>
<path d="M510.98 408.926C511.64 408.041 512.893 407.857 513.779 408.517C520.885 413.813 531.227 417.697 544.805 420.123C545.893 420.318 546.616 421.357 546.422 422.444C546.228 423.531 545.189 424.255 544.102 424.061C529.961 421.534 519.057 417.438 511.389 411.725C510.503 411.065 510.32 409.812 510.98 408.926Z" fill="#583E40"/>
<path d="M501.216 330.422C501.535 329.364 502.65 328.765 503.708 329.084C512.71 331.796 515.936 338.137 512.947 347.184C512.6 348.233 511.469 348.802 510.42 348.456C509.371 348.109 508.802 346.978 509.149 345.929C511.437 339.004 509.386 334.972 502.554 332.914C501.496 332.595 500.897 331.48 501.216 330.422Z" fill="#583E40"/>
<path d="M566.843 380.368C567.744 379.729 568.992 379.941 569.631 380.842C573.202 385.876 577.418 386.788 583.039 383.706C584.007 383.175 585.223 383.53 585.754 384.498C586.285 385.467 585.93 386.682 584.962 387.213C577.579 391.261 571.128 389.866 566.369 383.156C565.73 382.255 565.942 381.007 566.843 380.368Z" fill="#E9525B"/>
<path d="M425.79 240.578C426.36 239.632 427.59 239.327 428.536 239.897C429.482 240.467 429.786 241.697 429.216 242.643C417.178 262.615 411.956 282.922 413.516 303.613C413.599 304.714 412.774 305.675 411.672 305.758C410.571 305.841 409.611 305.015 409.527 303.914C407.903 282.369 413.336 261.241 425.79 240.578Z" fill="white"/>
<path d="M595.946 390.383C589.388 390.383 576.239 396.665 555.933 409.297L554.675 410.082C554.083 410.452 553.576 410.941 553.186 411.517C551.637 413.803 552.234 416.912 554.52 418.461L554.814 418.655C560.091 422.042 567.474 422.238 576.923 419.445L577.442 419.29C593.707 414.383 609.5 404.869 609.5 399.861C609.5 394.144 605.196 390.383 595.946 390.383ZM596.318 394.385C602.937 394.455 605.329 396.395 605.491 399.51L605.498 399.752C605.46 399.843 605.378 399.985 605.253 400.159C604.94 400.595 604.433 401.136 603.756 401.745C602.283 403.069 600.122 404.611 597.497 406.193C591.558 409.77 584 413.133 576.292 415.459L575.783 415.611C567.348 418.104 561.104 417.939 556.996 415.302L556.743 415.135C556.307 414.84 556.188 414.218 556.497 413.761C556.575 413.645 556.677 413.548 556.795 413.474L558.048 412.692C577.632 400.509 590.455 394.383 595.946 394.383L596.318 394.385Z" fill="#583E40"/>
<path d="M596.818 405.85C590.744 408.071 580.717 418.082 566.252 436.121L564.412 438.43C563.95 439.012 563.625 439.684 563.457 440.403C562.829 443.092 564.5 445.781 567.189 446.409L567.531 446.485C573.639 447.754 580.648 445.376 588.601 439.544C602.549 429.315 614.572 414.741 612.856 410.005C610.92 404.66 605.57 402.649 596.818 405.85ZM609.034 411.205L609.053 411.257L609.055 411.242C609.048 411.349 609.017 411.512 608.955 411.721C608.801 412.246 608.495 412.938 608.048 413.755C607.075 415.529 605.513 417.75 603.519 420.167C599.001 425.644 592.86 431.46 586.236 436.318C579.109 441.544 573.148 443.567 568.369 442.574L568.075 442.508C567.561 442.388 567.227 441.85 567.353 441.313C567.386 441.169 567.451 441.035 567.543 440.919L569.377 438.619L570.271 437.507C583.743 420.807 593.203 411.431 598.191 409.607C604.863 407.166 607.858 408.205 609.034 411.205Z" fill="#583E40"/>
<path d="M603.754 420.717C598.116 422.779 588.843 432.019 575.452 448.675L574.108 450.355C573.595 450.999 573.25 451.755 573.1 452.56C572.595 455.274 574.386 457.885 577.101 458.39L577.444 458.449C582.966 459.329 589.238 457.096 596.315 451.917L597.086 451.346C609.655 441.942 620.285 428.972 618.706 424.612C616.897 419.618 611.884 417.744 603.754 420.717ZM614.893 425.836L614.881 425.916C614.867 425.991 614.845 426.084 614.813 426.192C614.674 426.661 614.397 427.286 613.99 428.025C613.099 429.644 611.665 431.675 609.835 433.886C605.683 438.903 600.038 444.235 593.952 448.689C587.655 453.298 582.361 455.182 578.098 454.503L577.807 454.453C577.29 454.356 576.931 453.834 577.032 453.291C577.062 453.13 577.131 452.979 577.233 452.851L578.573 451.178L579.861 449.582C592.051 434.565 600.62 426.122 605.128 424.473C611.074 422.299 613.745 423.138 614.829 425.68L614.893 425.836Z" fill="#583E40"/>
<path d="M1093 466H865V694H1093V466ZM1089 470V690H869V470H1089Z" fill="#F0DECF"/>
<path d="M1367 578H1139V806H1367V578ZM1363 582V802H1143V582H1363Z" fill="#F0DECF"/>
<path d="M1093 740H865V968H1093V740ZM1089 744V964H869V744H1089Z" fill="#F0DECF"/>
<path fill-rule="evenodd" clip-rule="evenodd" d="M847 448H1071V672H847V448Z" fill="#E9525B"/>
<path fill-rule="evenodd" clip-rule="evenodd" d="M1121 560H1345V784H1121V560Z" fill="#6F97F8"/>
<path fill-rule="evenodd" clip-rule="evenodd" d="M847 722H1071V946H847V722Z" fill="#F7C066"/>
<path d="M1347 0H769V408H1347V0ZM1343 4V404H773V4H1343Z" fill="#F0DECF"/>
<path d="M813.693 55.8301L1345 56L1345 60L813.691 59.8301L813.693 55.8301Z" fill="#F0DECF"/>
<path d="M430.669 584.708C431.688 584.437 432.732 585.004 433.072 585.985L433.116 586.128L471.077 729.04L471.153 729.083C476.065 731.853 477.929 735.475 475.989 739.514L475.873 739.747C473.974 743.437 468.835 747.213 460.393 751.341C443.865 759.423 425.021 762.025 403.907 759.169C402.813 759.021 402.045 758.013 402.194 756.919C402.342 755.824 403.349 755.057 404.444 755.205C424.802 757.959 442.85 755.467 458.635 747.748L459.583 747.278C466.726 743.697 470.988 740.498 472.316 737.917C473.354 735.9 472.384 734.169 468.462 732.179C468.005 731.947 467.657 731.55 467.485 731.071L467.435 730.909L429.25 587.155C428.966 586.087 429.602 584.992 430.669 584.708Z" fill="#0D594C"/>
<path d="M331.361 631.325C332.306 630.863 333.437 631.214 333.962 632.106L334.036 632.243L386.507 739.559C386.993 740.551 386.581 741.749 385.589 742.234C384.644 742.696 383.513 742.345 382.988 741.454L382.914 741.316L330.442 634C329.957 633.008 330.368 631.81 331.361 631.325Z" fill="#0D594C"/>
<path d="M472.875 744.634C473.297 743.614 474.467 743.128 475.487 743.55C489.311 749.265 488.163 759.577 473.19 772.347C466.046 778.44 455.807 781.999 443.283 783.506C432.849 784.762 421.733 784.514 411.1 783.344L409.82 783.199C408.36 783.026 407.013 782.846 405.796 782.666L404.603 782.482L403.823 782.352C402.736 782.158 402.012 781.118 402.207 780.031C402.401 778.944 403.44 778.22 404.528 778.415L404.994 778.493C405.31 778.545 405.67 778.602 406.072 778.663L406.381 778.709C407.899 778.933 409.628 779.158 411.537 779.368C421.891 780.507 432.719 780.749 442.805 779.535C454.617 778.113 464.15 774.8 470.595 769.303C483.627 758.189 484.366 751.549 473.959 747.247C472.938 746.825 472.453 745.655 472.875 744.634Z" fill="#0D594C"/>
<path d="M385.701 741.586C386.785 741.371 387.837 742.075 388.052 743.159L388.647 746.117C391.14 758.373 393.082 765.913 394.244 768.186L394.31 768.312L394.32 768.308L394.361 768.313L394.392 768.32C394.828 768.427 395.483 768.523 396.33 768.6C397.949 768.749 400.196 768.824 402.986 768.825L404.678 768.818C410.029 768.769 416.935 768.49 424.559 768.026L428.247 767.791C443.925 766.748 458.95 765.187 463.029 764.132C464.099 763.855 465.19 764.498 465.466 765.568C465.743 766.637 465.1 767.728 464.03 768.005L463.693 768.088C458.597 769.289 442.225 770.936 425.657 771.966L423.948 772.07C416.031 772.541 408.916 772.81 403.526 772.825L401.846 772.823C395.279 772.791 392.289 772.412 391.236 770.932C389.533 768.537 387.282 759.822 384.129 743.938C383.914 742.854 384.618 741.802 385.701 741.586Z" fill="#0D594C"/>
<path d="M345.538 752.054C346.612 751.799 347.69 752.463 347.946 753.538L348.261 754.844C352.278 771.213 357.138 780.986 362.511 784.1C363.467 784.653 363.793 785.877 363.239 786.833C362.685 787.789 361.461 788.114 360.506 787.56C353.735 783.636 348.37 772.626 344.054 754.462C343.799 753.388 344.463 752.309 345.538 752.054Z" fill="#0D594C"/>
<path d="M511.825 709.918C512.697 709.24 513.953 709.396 514.632 710.268C515.31 711.139 515.154 712.396 514.282 713.074C508.106 717.883 506.571 723.27 509.466 729.776L509.617 730.108C512.836 737.024 513.019 742.664 511.564 751.318L511.112 754.053C510.81 755.944 510.768 756.509 510.768 757.496C510.768 758.601 509.873 759.496 508.768 759.496C507.663 759.496 506.768 758.601 506.768 757.496L506.774 756.877C506.797 755.786 506.908 754.933 507.35 752.268L507.62 750.655C508.922 742.907 508.799 738.042 506.177 732.204L505.99 731.795C502.088 723.409 504.107 715.927 511.825 709.918Z" fill="#0D594C"/>
<path d="M560.547 704.867C560.977 703.85 562.15 703.374 563.168 703.804C564.137 704.214 564.614 705.298 564.286 706.279L564.231 706.425L557.783 721.673C557.352 722.69 556.179 723.166 555.161 722.736C554.193 722.326 553.715 721.242 554.043 720.261L554.098 720.115L560.547 704.867Z" fill="#0D594C"/>
<path d="M570.468 458.19C571.178 457.343 572.439 457.233 573.285 457.943C587.841 470.153 595.685 484.178 596.705 499.947C596.777 501.049 595.941 502 594.839 502.072C593.736 502.143 592.785 501.307 592.714 500.205C591.768 485.591 584.474 472.549 570.715 461.007C569.868 460.297 569.758 459.036 570.468 458.19Z" fill="#583E40"/>
<path d="M727.626 770.527C728.584 769.977 729.806 770.308 730.356 771.266C733.727 777.14 735.433 781.514 735.433 784.597C735.433 785.702 734.538 786.597 733.433 786.597C732.329 786.597 731.433 785.702 731.433 784.597C731.433 782.412 729.932 778.562 726.887 773.257C726.337 772.299 726.668 771.077 727.626 770.527Z" fill="#583E40"/>
<path d="M519.38 508.53C520.482 508.453 521.438 509.283 521.515 510.385L521.769 514.067C525.832 573.978 525.748 622.706 521.508 660.27C521.384 661.367 520.393 662.157 519.296 662.033C518.198 661.909 517.409 660.919 517.533 659.821C521.828 621.766 521.828 572.041 517.525 510.665C517.448 509.563 518.278 508.607 519.38 508.53Z" fill="#F0DECF"/>
<path d="M587.003 504.469C588.057 504.502 588.896 505.343 588.942 506.38L588.943 506.529L583.819 677.668C583.785 678.772 582.864 679.64 581.76 679.608C580.706 679.575 579.867 678.734 579.821 677.697L579.82 677.548L584.945 506.409C584.978 505.305 585.899 504.437 587.003 504.469Z" fill="#583E40"/>
<path d="M567.007 764L664.464 764.362C665.569 764.366 666.461 765.265 666.457 766.37C666.453 767.424 665.634 768.285 664.598 768.357L664.449 768.362L566.993 768C565.888 767.996 564.996 767.097 565 765.993C565.004 764.938 565.823 764.077 566.858 764.005L567.007 764Z" fill="#583E40"/>
<path d="M837.5 166.551V377.5H1183.91L837.5 166.551ZM842.5 175.449L1166.09 372.5H842.5V175.449Z" fill="#E9525B"/>
<path d="M872.5 342.5H837.5V377.5H872.5V342.5ZM867.499 347.5V372.5H842.499V347.5H867.499Z" fill="#E9525B"/>
<path fill-rule="evenodd" clip-rule="evenodd" d="M1209.76 254C1210 254 1210.25 254.011 1210.5 254.031C1212.54 254.194 1214.43 255.033 1215.81 256.351L1216.14 256.691C1216.44 257.013 1216.71 257.359 1216.95 257.729C1219.4 261.543 1218.31 266.445 1216.15 269.606C1215.47 270.6 1214.69 271.485 1213.85 272.288L1225.85 271.723C1227 271.723 1227.95 272.639 1228 273.81C1228.05 275.019 1227.13 276.045 1225.94 276.1L1206.84 277C1205.9 277 1205.07 276.387 1204.78 275.478C1204.48 274.532 1204.85 273.503 1205.67 272.969L1206.96 272.121C1209.12 270.688 1211.2 269.141 1212.59 267.113C1213.89 265.216 1214.67 262.217 1213.32 260.113C1212.7 259.145 1211.52 258.504 1210.16 258.396C1210.02 258.385 1209.89 258.381 1209.76 258.381C1208.88 258.381 1208.05 258.618 1207.4 259.051L1207.5 260.452C1207.59 261.656 1206.69 262.707 1205.5 262.795L1205.26 262.797L1205.16 262.791C1204.11 262.699 1203.27 261.864 1203.19 260.772L1203.01 258.289C1202.96 257.696 1203.16 257.109 1203.55 256.665C1205.06 254.972 1207.33 254 1209.76 254ZM1155.61 228C1155.91 228 1156.2 228.057 1156.48 228.174L1156.91 228.464L1156.99 228.422C1157.21 228.35 1157.44 228.318 1157.66 228.318C1158.6 228.318 1159.47 228.91 1159.77 229.837L1167.12 252.587C1168.11 252.842 1168.83 253.703 1168.79 254.746C1168.76 255.249 1168.54 255.682 1168.24 256.039L1169.89 261.166L1169.96 261.432L1170 261.697C1170.05 262.668 1169.44 263.591 1168.45 263.898C1168.23 263.967 1168 264 1167.78 264C1167.14 264 1166.53 263.724 1166.11 263.251C1165.92 263.034 1165.77 262.775 1165.67 262.483L1163.8 256.709L1146.83 255.971L1144.25 261.889C1143.9 262.716 1143.08 263.212 1142.22 263.212C1141.92 263.212 1141.63 263.158 1141.35 263.038C1140.22 262.566 1139.7 261.288 1140.18 260.183L1153.58 229.323C1153.94 228.496 1154.75 228 1155.61 228ZM1240.58 224C1241.59 224.127 1242.39 225.056 1242.43 226.114L1242.95 240.998C1244.93 238.946 1247.63 237.531 1250.47 237.531C1251.36 237.531 1252.26 237.671 1253.17 237.974C1254.85 238.539 1256.29 239.664 1257.31 241.183L1257.58 241.606C1257.95 242.214 1258.25 242.879 1258.48 243.591C1259.5 246.736 1258.99 250.26 1257.16 252.791C1256.54 253.645 1255.8 254.406 1254.97 255.065L1254.06 255.049C1254.36 255.058 1254.67 255.063 1254.97 255.065C1252.53 256.987 1249.28 258.045 1245.78 258.045C1244.94 258.045 1244.08 257.984 1243.23 257.859C1242.86 258.513 1242.17 258.969 1241.36 258.998L1241.28 259C1240.45 259 1239.72 258.541 1239.34 257.861C1239.18 257.571 1239.08 257.242 1239.07 256.891L1238 226.265C1237.99 225.826 1238.1 225.411 1238.32 225.06C1239.08 224.711 1239.83 224.358 1240.58 224ZM1273.91 243.796C1273.66 241.769 1272.16 239.6 1270.28 239.379L1269.96 239.36C1268.22 239.36 1266.68 241.016 1266.05 242.661C1265.23 244.801 1265.34 247.33 1265.45 249.773C1265.51 250.96 1264.59 251.97 1263.39 252.046H1263.34C1262.15 252.046 1261.15 251.222 1261.05 250.054L1259.01 226.371C1258.9 225.169 1259.8 224.113 1261.02 224.011L1261.24 224C1262.36 224 1263.31 224.87 1263.41 226L1264.39 237.377C1265.84 235.966 1267.76 235.013 1270.01 234.997C1274.55 235.026 1277.79 239.223 1278.29 243.263C1278.34 243.643 1278.36 244.022 1278.38 244.4C1278.44 246.549 1277.97 248.634 1277.36 250.543C1278.25 250.779 1278.93 251.551 1279 252.513C1279.07 253.715 1278.15 254.751 1276.94 254.83L1274.35 254.996L1274.21 255C1273.51 255 1272.85 254.677 1272.43 254.119C1271.99 253.525 1271.88 252.746 1272.14 252.055C1272.58 250.899 1273.04 249.675 1273.39 248.436C1273.83 246.88 1274.09 245.301 1273.91 243.796ZM1249.99 241C1247.71 241 1245.34 242.982 1244.3 245.263C1243.94 246.033 1243.68 246.847 1243.49 247.689L1243.36 248.326C1243.11 249.656 1243.02 251.045 1243 252.432L1244.13 251.94C1244.4 251.82 1244.69 251.76 1244.97 251.76C1245.77 251.76 1246.54 252.224 1246.92 253C1249.29 252.675 1251.6 251.622 1253.01 249.586C1254.01 248.135 1254.28 245.985 1253.7 244.108L1253.57 243.744C1253.55 243.679 1253.52 243.612 1253.49 243.543L1253.35 243.227C1252.96 242.453 1252.31 241.59 1251.22 241.207C1250.81 241.066 1250.4 241 1249.99 241ZM1186.76 249C1188 249 1189 249.894 1189 251C1189 252.106 1188 253 1186.76 253H1176.24C1175 253 1174 252.106 1174 251C1174 249.894 1175 249 1176.24 249H1186.76ZM1156.35 234L1149 252.385L1162 253L1156.35 234ZM1200.23 241L1200.32 241.002L1226.94 242.634C1228.15 242.709 1229.07 243.744 1229 244.95C1228.92 246.109 1227.96 247 1226.81 247L1226.67 246.996L1200.05 245.363C1198.85 245.289 1197.93 244.253 1198 243.047C1198.07 241.876 1199.04 241 1200.23 241ZM1184.84 241C1185.94 241 1186.88 241.834 1186.99 242.914C1187.1 244.075 1186.22 245.105 1185.01 245.215L1176.4 245.992L1176.19 246C1175.07 246 1174.12 245.181 1174.01 244.086C1173.9 242.925 1174.78 241.897 1175.99 241.789L1184.59 241.013C1184.68 241.004 1184.76 241 1184.84 241ZM1209.3 211C1210.53 211 1211.58 211.868 1211.65 213.01L1213 234.745C1213.07 235.92 1212.09 236.927 1210.81 236.996L1210.67 237C1209.45 237 1208.42 236.123 1208.35 234.986L1207 213.253C1206.93 212.078 1207.91 211.068 1209.19 211.002L1209.3 211ZM1239.79 224.51C1239.86 224.51 1239.93 224.514 1240 224.524C1239.34 224.85 1238.67 225.172 1238 225.49C1238.29 225 1238.78 224.643 1239.36 224.547L1239.61 224.522C1239.67 224.514 1239.73 224.51 1239.79 224.51Z" fill="#E9525B"/>
<path d="M1061.5 14.5C1062.83 14.5 1063.91 15.5315 1063.99 16.8356L1064 17L1064 62.5781C1074.35 63.4064 1081.49 70.7978 1085.94 83.5939C1089.57 94.0355 1091.42 107.589 1092.29 126.074L1092.48 130.337C1092.6 133.285 1092.68 136.212 1092.79 140.5L1092.99 149.002L1114.28 149L1115.06 144.902C1116.93 135.081 1118.18 129.677 1119.83 125.187C1122.17 118.84 1125.16 115.369 1129.56 115.609C1137.65 116.05 1142 126.815 1144.52 144.696C1144.71 146.11 1144.9 147.546 1145.06 149L1197 149C1198.38 149 1199.5 150.119 1199.5 151.5C1199.5 152.825 1198.47 153.91 1197.16 153.995L1197 154L1145.57 154C1145.85 157.115 1146.07 160.281 1146.23 163.446L1146.3 164.91C1146.36 166.35 1146.41 167.714 1146.44 168.987L1146.48 170.364L1146.5 171.98C1146.51 173.36 1145.39 174.485 1144.01 174.492C1142.69 174.498 1141.6 173.472 1141.51 172.168L1141.5 171.947L1141.49 171.421C1141.49 170.936 1141.48 170.373 1141.46 169.737C1141.42 167.915 1141.34 165.884 1141.23 163.696C1141.07 160.443 1140.85 157.191 1140.55 154L1118.42 154.002L1118.1 155.604C1116.11 165.746 1114.43 172.368 1112.22 177.958C1109.11 185.804 1105.16 190.539 1099.73 191.625C1096.71 192.227 1094.22 190.841 1092.54 188.003C1091.3 185.906 1090.42 182.939 1089.78 178.991L1089.69 178.471C1088.81 172.784 1088.44 166.683 1088.11 154.001L1064 154V241C1064 242.381 1062.88 243.5 1061.5 243.5C1060.17 243.5 1059.09 242.468 1059.01 241.164L1059 241V154L1039.44 154L1039.35 156.318C1038.71 171.685 1037.84 180.165 1035.98 188.69L1035.75 189.687C1032.31 204.492 1025.93 212.5 1015.34 212.5C1004.57 212.5 997.047 206.553 992.19 195.634C988.667 187.712 986.633 177.879 985.024 163.48L984.48 158.319C984.381 157.32 984.268 156.138 984.068 154.001L963.377 154.002L963.291 156.62C962.927 166.746 962.311 172.814 960.913 178.319C958.616 187.366 954.208 192.455 947 192.455C945.619 192.455 944.5 191.336 944.5 189.955C944.5 188.63 945.532 187.545 946.836 187.46L947 187.455C951.426 187.455 954.268 184.175 956.067 177.089L956.224 176.453C957.502 171.117 958.045 164.828 958.375 154.001L925 154C923.619 154 922.5 152.881 922.5 151.5C922.5 150.175 923.532 149.09 924.836 149.005L925 149L958.507 149.003L958.624 144.416C958.952 132.58 959.379 127.136 960.609 121.698C962.56 113.07 966.552 108.419 973.282 109.111C978.913 109.69 982.451 114.3 984.726 122.352L984.847 122.786C986.481 128.776 987.338 135.258 988.622 149L1034.61 149.001L1034.71 146.026C1034.76 144.331 1034.81 142.565 1034.87 140.722L1035.07 133.479C1035.77 110.413 1036.7 98.6538 1039.21 87.7979L1039.38 87.0754C1042.85 72.563 1049.06 64.0944 1059 62.7039L1059 17C1059 15.6193 1060.12 14.5 1061.5 14.5ZM1034.43 154.002H989.09L989.599 159.236L989.733 160.516C991.332 175.766 993.313 185.855 996.759 193.602C1000.87 202.855 1006.75 207.5 1015.34 207.5C1023.09 207.5 1028.03 201.2 1030.98 188.113L1031.09 187.619C1032.96 179.078 1033.8 170.404 1034.43 154.002ZM1113.32 154.001L1093.11 154.002L1093.21 157.637C1093.51 167.391 1093.87 172.669 1094.59 177.426L1094.75 178.442C1095.8 184.682 1097.24 187.022 1098.75 186.722C1105.1 185.452 1109.12 175.476 1113.32 154.001ZM965.486 122.801L965.373 123.312C964.232 128.607 963.866 134.417 963.542 147.639L963.509 149L983.6 149L983.233 145.181C982.191 134.614 981.38 129.075 980.023 124.102C978.237 117.559 975.88 114.404 972.77 114.085C969.194 113.717 966.949 116.332 965.486 122.801ZM1044.25 88.2371L1044.08 88.9384C1041.75 99.0145 1040.82 110.151 1040.14 131.377L1039.89 139.745L1039.74 145.054C1039.7 146.413 1039.66 147.728 1039.62 149.001L1059 149L1059 67.7877C1051.87 69.2132 1047.18 75.9483 1044.25 88.2371ZM1119.37 149L1140.03 148.999C1139.89 147.781 1139.73 146.578 1139.56 145.393L1139.42 144.365C1137.25 129.762 1133.55 120.834 1129.29 120.602C1126.27 120.437 1123.7 126.999 1120.49 143.15L1119.37 149ZM1064 67.6024L1064 149L1087.99 149.001L1087.76 139.4C1087.66 135.388 1087.57 132.598 1087.45 129.656L1087.34 127.243C1086.51 108.725 1084.71 95.2818 1081.22 85.2377C1077.42 74.3358 1071.88 68.4346 1064 67.6024Z" fill="#E9525B"/>
<path fill-rule="evenodd" clip-rule="evenodd" d="M515 865.363L728.622 922.923L789.192 857.944L632.363 819L515 865.363Z" fill="#F0DECF"/>
<path d="M701.243 716.503C702.045 716.294 702.864 716.774 703.073 717.575C703.27 718.33 702.857 719.1 702.139 719.362L702.001 719.406L697.894 720.477C697.092 720.687 696.273 720.206 696.064 719.405C695.867 718.65 696.281 717.88 696.998 717.618L697.136 717.575L701.243 716.503Z" fill="white"/>
<path d="M702.729 721.548C703.53 721.339 704.349 721.819 704.559 722.621C704.756 723.375 704.342 724.146 703.624 724.408L703.486 724.451L699.379 725.523C698.578 725.732 697.758 725.252 697.549 724.45C697.352 723.696 697.766 722.926 698.483 722.663L698.622 722.62L702.729 721.548Z" fill="white"/>
<path d="M716.465 888.82C717.159 889.604 717.126 890.78 716.418 891.524L716.294 891.644L705.326 901.354C704.499 902.086 703.235 902.01 702.503 901.183C701.809 900.399 701.842 899.223 702.55 898.479L702.674 898.359L713.642 888.649C714.469 887.917 715.733 887.993 716.465 888.82ZM711.941 874.963C712.587 875.79 712.479 876.966 711.72 877.664L711.594 877.77L690.23 894.434C689.359 895.113 688.103 894.958 687.423 894.087C686.778 893.259 686.886 892.084 687.645 891.386L687.77 891.28L709.134 874.616C710.005 873.937 711.262 874.092 711.941 874.963ZM687.477 878.794C688.087 879.648 687.931 880.818 687.143 881.484L687.013 881.584L676.163 889.34C675.265 889.983 674.016 889.775 673.373 888.876C672.763 888.023 672.92 886.853 673.708 886.187L673.837 886.086L684.687 878.33C685.586 877.688 686.835 877.896 687.477 878.794ZM750.513 858.674C751.207 859.458 751.175 860.633 750.466 861.378L750.342 861.497L721.669 886.885C720.842 887.617 719.578 887.54 718.845 886.713C718.152 885.929 718.184 884.754 718.893 884.01L719.017 883.89L747.69 858.503C748.517 857.77 749.781 857.847 750.513 858.674ZM671.858 873.593C672.432 874.471 672.226 875.634 671.412 876.266L671.278 876.361L658.094 884.976C657.17 885.58 655.93 885.321 655.326 884.396C654.752 883.518 654.958 882.355 655.773 881.723L655.906 881.628L669.09 873.013C670.014 872.409 671.254 872.668 671.858 873.593ZM711.409 861.687C712.019 862.541 711.862 863.711 711.075 864.376L710.945 864.477L691.736 878.209C690.837 878.851 689.588 878.643 688.945 877.745C688.335 876.891 688.492 875.721 689.28 875.055L689.409 874.955L708.619 861.223C709.517 860.581 710.767 860.788 711.409 861.687ZM737.646 854.913C738.291 855.741 738.183 856.917 737.424 857.614L737.299 857.721L716.64 873.835C715.769 874.514 714.512 874.359 713.833 873.488C713.187 872.66 713.295 871.485 714.054 870.787L714.18 870.681L734.839 854.567C735.71 853.887 736.966 854.042 737.646 854.913ZM711.352 847.786C711.926 848.664 711.72 849.827 710.905 850.459L710.772 850.554L679.135 871.227C678.211 871.831 676.971 871.571 676.367 870.646C675.793 869.768 675.999 868.606 676.814 867.974L676.947 867.878L708.583 847.205C709.508 846.601 710.748 846.861 711.352 847.786ZM726.012 851.248C726.622 852.102 726.465 853.272 725.678 853.938L725.548 854.038L715.397 861.295C714.499 861.937 713.25 861.729 712.607 860.831C711.997 859.977 712.154 858.807 712.942 858.141L713.071 858.04L723.222 850.784C724.121 850.142 725.37 850.35 726.012 851.248Z" fill="#583E40"/>
<path d="M1018 476H901C899.895 476 899 476.895 899 478V633C899 634.105 899.895 635 901 635H1018C1019.1 635 1020 634.105 1020 633V478C1020 476.895 1019.1 476 1018 476ZM1016 480V631H903V480H1016Z" fill="white"/>
<path d="M1003 493H950C948.895 493 948 493.895 948 495V533C948 534.105 948.895 535 950 535H1003C1004.1 535 1005 534.105 1005 533V495C1005 493.895 1004.1 493 1003 493ZM1001 497V531H952V497H1001Z" fill="white"/>
<path d="M1001.15 593.5C1002.26 593.5 1003.15 594.395 1003.15 595.5C1003.15 596.554 1002.34 597.418 1001.3 597.495L1001.15 597.5H955C953.895 597.5 953 596.605 953 595.5C953 594.446 953.816 593.582 954.851 593.505L955 593.5H1001.15Z" fill="white"/>
<path d="M996.154 604.5C997.259 604.5 998.154 605.395 998.154 606.5C998.154 607.554 997.338 608.418 996.304 608.495L996.154 608.5H960C958.895 608.5 958 607.605 958 606.5C958 605.446 958.816 604.582 959.851 604.505L960 604.5H996.154Z" fill="white"/>
<path d="M448.637 442.646C449.647 442.199 450.828 442.655 451.275 443.665C466.931 479.038 489.433 498.612 518.875 502.646L519.671 502.75L520.126 502.76C538.075 503.078 548.302 497.604 551.42 486.415L551.514 486.067C551.795 484.999 552.889 484.36 553.957 484.641C555.025 484.922 555.664 486.016 555.383 487.084C551.838 500.57 539.858 507.102 520.074 506.759L519.472 506.747L519.271 506.732C487.878 502.785 463.962 482.214 447.617 445.284C447.17 444.274 447.627 443.093 448.637 442.646Z" fill="#583E40"/>
<path d="M1233 606C1190 606 1155 635.01 1155 671L1155 671.592C1155.19 688.76 1163.39 704.8 1177.54 716.717L1178.18 717.247L1178.17 717.373C1177.36 723.643 1173.63 728.557 1166.81 732.24C1165.19 733.111 1165.51 735.515 1167.29 735.944L1167.87 736.083C1183.37 739.704 1194.93 738.072 1202.36 730.985L1202.5 730.846L1203.08 731.051C1212.48 734.303 1222.6 736 1233 736C1276 736 1311 706.99 1311 671C1311 635.01 1276 606 1233 606ZM1233 610C1273.94 610 1307 637.402 1307 671C1307 704.598 1273.94 732 1233 732C1222.4 732 1212.12 730.161 1202.67 726.652C1201.91 726.369 1201.05 726.575 1200.5 727.174L1200.25 727.435C1194.66 733.296 1185.74 735.243 1173.34 733.115L1172.97 733.05L1173.14 732.924C1178.71 728.673 1181.8 723.176 1182.27 716.514C1182.32 715.857 1182.04 715.22 1181.52 714.809C1167.21 703.376 1159 687.713 1159 671C1159 637.402 1192.06 610 1233 610Z" fill="white"/>
<path d="M1196.5 660C1202.85 660 1208 665.149 1208 671.5C1208 677.851 1202.85 683 1196.5 683C1190.15 683 1185 677.851 1185 671.5C1185 665.149 1190.15 660 1196.5 660ZM1233.5 660C1239.85 660 1245 665.149 1245 671.5C1245 677.851 1239.85 683 1233.5 683C1227.15 683 1222 677.851 1222 671.5C1222 665.149 1227.15 660 1233.5 660ZM1270.5 660C1276.85 660 1282 665.149 1282 671.5C1282 677.851 1276.85 683 1270.5 683C1264.15 683 1259 677.851 1259 671.5C1259 665.149 1264.15 660 1270.5 660ZM1196.5 664C1192.36 664 1189 667.358 1189 671.5C1189 675.642 1192.36 679 1196.5 679C1200.64 679 1204 675.642 1204 671.5C1204 667.358 1200.64 664 1196.5 664ZM1233.5 664C1229.36 664 1226 667.358 1226 671.5C1226 675.642 1229.36 679 1233.5 679C1237.64 679 1241 675.642 1241 671.5C1241 667.358 1237.64 664 1233.5 664ZM1270.5 664C1266.36 664 1263 667.358 1263 671.5C1263 675.642 1266.36 679 1270.5 679C1274.64 679 1278 675.642 1278 671.5C1278 667.358 1274.64 664 1270.5 664Z" fill="white"/>
<path d="M929.377 476C930.431 476 931.295 476.816 931.371 477.851L931.377 478V631.803C931.377 632.908 930.482 633.803 929.377 633.803C928.323 633.803 927.459 632.987 927.382 631.952L927.377 631.803V478C927.377 476.895 928.272 476 929.377 476Z" fill="white"/>
<path d="M911.843 489.636C912.897 489.636 913.761 490.452 913.837 491.486L913.843 491.636V633C913.843 634.104 912.947 635 911.843 635C910.788 635 909.925 634.184 909.848 633.149L909.843 633V491.636C909.843 490.531 910.738 489.636 911.843 489.636Z" fill="white"/>
<path d="M928.249 841.115C928.957 839.68 930.958 839.63 931.755 840.966L931.836 841.115L943.126 863.991L968.372 867.66C969.91 867.884 970.582 869.669 969.682 870.845L969.587 870.961L969.481 871.071L951.212 888.878L955.525 914.023C955.788 915.557 954.291 916.75 952.892 916.249L952.757 916.196L952.623 916.131L930.042 904.259L907.462 916.131C906.083 916.856 904.487 915.8 904.53 914.315L904.54 914.17L904.56 914.023L908.871 888.877L890.604 871.071C889.493 869.988 889.996 868.151 891.412 867.726L891.562 867.688L891.713 867.66L916.958 863.991L928.249 841.115ZM930.042 846.519L920.08 866.705C919.813 867.246 919.318 867.635 918.735 867.769L918.574 867.799L896.297 871.035L912.417 886.748C912.806 887.127 913.021 887.644 913.021 888.178L913.014 888.356L912.993 888.518L909.187 910.704L929.112 900.23C929.588 899.979 930.141 899.934 930.645 900.093L930.812 900.154L930.973 900.23L950.897 910.704L947.092 888.518C947.001 887.983 947.131 887.439 947.444 887.007L947.555 886.867L947.668 886.748L963.786 871.035L941.511 867.799C940.973 867.721 940.496 867.429 940.182 866.997L940.083 866.849L940.005 866.705L930.042 846.519ZM1000.25 780.115C1000.96 778.68 1002.96 778.63 1003.76 779.966L1003.84 780.115L1015.13 802.991L1040.37 806.66C1041.91 806.884 1042.58 808.669 1041.68 809.845L1041.59 809.961L1041.48 810.071L1023.21 827.878L1027.53 853.023C1027.79 854.557 1026.29 855.75 1024.89 855.249L1024.76 855.196L1024.62 855.131L1002.04 843.259L979.462 855.131C978.083 855.856 976.487 854.8 976.53 853.315L976.54 853.17L976.56 853.023L980.871 827.877L962.604 810.071C961.493 808.988 961.996 807.151 963.412 806.726L963.562 806.688L963.713 806.66L988.958 802.991L1000.25 780.115ZM1002.04 785.519L992.08 805.705C991.813 806.246 991.318 806.635 990.735 806.769L990.574 806.799L968.297 810.035L984.417 825.748C984.806 826.127 985.021 826.644 985.021 827.178L985.014 827.356L984.993 827.518L981.187 849.704L1001.11 839.23C1001.59 838.979 1002.14 838.934 1002.65 839.093L1002.81 839.154L1002.97 839.23L1022.9 849.704L1019.09 827.518C1019 826.983 1019.13 826.439 1019.44 826.007L1019.56 825.867L1019.67 825.748L1035.79 810.035L1013.51 806.799C1012.97 806.721 1012.5 806.429 1012.18 805.997L1012.08 805.849L1012 805.705L1002.04 785.519ZM913.249 752.115C913.957 750.68 915.958 750.63 916.755 751.966L916.836 752.115L928.126 774.991L953.372 778.66C954.91 778.884 955.582 780.669 954.682 781.845L954.587 781.961L954.481 782.071L936.212 799.878L940.525 825.023C940.788 826.557 939.291 827.75 937.892 827.249L937.757 827.196L937.623 827.131L915.042 815.259L892.462 827.131C891.083 827.856 889.487 826.8 889.53 825.315L889.54 825.17L889.56 825.023L893.871 799.877L875.604 782.071C874.493 780.988 874.996 779.151 876.412 778.726L876.562 778.688L876.713 778.66L901.958 774.991L913.249 752.115ZM915.042 757.519L905.08 777.705C904.813 778.246 904.318 778.635 903.735 778.769L903.574 778.799L881.297 782.035L897.417 797.748C897.806 798.127 898.021 798.644 898.021 799.178L898.014 799.356L897.993 799.518L894.187 821.704L914.112 811.23C914.588 810.979 915.141 810.934 915.645 811.093L915.812 811.154L915.973 811.23L935.897 821.704L932.092 799.518C932.001 798.983 932.131 798.439 932.444 798.007L932.555 797.867L932.668 797.748L948.786 782.035L926.511 778.799C925.973 778.721 925.496 778.429 925.182 777.997L925.083 777.849L925.005 777.705L915.042 757.519Z" fill="white"/>
<path d="M286.53 96V100H243.95V96H286.53Z" fill="#F0DECF"/>
<path d="M634.171 828.9L566.06 865.156C564.043 866.231 565.115 869.303 567.363 868.889L689.363 846.401C691.472 846.012 691.573 843.027 689.495 842.496L635.606 828.728C635.123 828.605 634.611 828.666 634.171 828.9ZM635.366 832.795L679.683 844.117L579.356 862.61L635.366 832.795Z" fill="#C7B1A7"/>
<path d="M643.707 831.828C644.704 831.353 645.897 831.777 646.372 832.774C646.825 833.724 646.462 834.851 645.565 835.367L645.426 835.44L637.786 839.077C637.458 839.233 637.095 839.297 636.736 839.262L636.556 839.237L626.895 837.418C625.81 837.214 625.096 836.168 625.3 835.083C625.495 834.046 626.457 833.349 627.488 833.465L627.636 833.487L636.655 835.184L643.707 831.828Z" fill="#C7B1A7"/>
</svg>
