<svg width="397" height="396" viewBox="0 0 397 396" fill="none" xmlns="http://www.w3.org/2000/svg">
<g clip-path="url(#clip0_0_8)">
<path opacity="0.45" d="M39.85 0H0.75V39.1H39.85V0Z" fill="#006C9C" stroke="white" stroke-width="0.5" stroke-dasharray="2 2"/>
<path opacity="0.4" d="M39.85 39.6H0.75V78.7H39.85V39.6Z" fill="#006C9C" stroke="white" stroke-width="0.5" stroke-dasharray="2 2"/>
<path opacity="0.45" d="M39.85 79.2H0.75V118.3H39.85V79.2Z" fill="#006C9C" stroke="white" stroke-width="0.5" stroke-dasharray="2 2"/>
<path opacity="0.4" d="M39.85 118.8H0.75V157.9H39.85V118.8Z" fill="#006C9C" stroke="white" stroke-width="0.5" stroke-dasharray="2 2"/>
<path opacity="0.35" d="M39.85 158.4H0.75V197.5H39.85V158.4Z" fill="#006C9C" stroke="white" stroke-width="0.5" stroke-dasharray="2 2"/>
<path opacity="0.3" d="M39.85 198H0.75V237.1H39.85V198Z" fill="#006C9C" stroke="white" stroke-width="0.5" stroke-dasharray="2 2"/>
<path opacity="0.25" d="M39.85 237.6H0.75V276.7H39.85V237.6Z" fill="#006C9C" stroke="white" stroke-width="0.5" stroke-dasharray="2 2"/>
<path opacity="0.2" d="M39.85 277.2H0.75V316.3H39.85V277.2Z" fill="#006C9C" stroke="white" stroke-width="0.5" stroke-dasharray="2 2"/>
<path opacity="0.15" d="M39.85 316.8H0.75V355.9H39.85V316.8Z" fill="#006C9C" stroke="white" stroke-width="0.5" stroke-dasharray="2 2"/>
<path opacity="0.15" d="M39.85 356.4H0.75V395.5H39.85V356.4Z" fill="#006C9C" stroke="white" stroke-width="0.5" stroke-dasharray="2 2"/>
<path opacity="0.5" d="M79.4496 0H40.3496V39.1H79.4496V0Z" fill="#006C9C" stroke="white" stroke-width="0.5" stroke-dasharray="2 2"/>
<path opacity="0.55" d="M79.4496 39.6H40.3496V78.7H79.4496V39.6Z" fill="#006C9C" stroke="white" stroke-width="0.5" stroke-dasharray="2 2"/>
<path opacity="0.5" d="M79.4496 79.2H40.3496V118.3H79.4496V79.2Z" fill="#006C9C" stroke="white" stroke-width="0.5" stroke-dasharray="2 2"/>
<path opacity="0.45" d="M79.4496 118.8H40.3496V157.9H79.4496V118.8Z" fill="#006C9C" stroke="white" stroke-width="0.5" stroke-dasharray="2 2"/>
<path opacity="0.4" d="M79.4496 158.4H40.3496V197.5H79.4496V158.4Z" fill="#006C9C" stroke="white" stroke-width="0.5" stroke-dasharray="2 2"/>
<path opacity="0.35" d="M79.4496 198H40.3496V237.1H79.4496V198Z" fill="#006C9C" stroke="white" stroke-width="0.5" stroke-dasharray="2 2"/>
<path opacity="0.3" d="M79.4496 237.6H40.3496V276.7H79.4496V237.6Z" fill="#006C9C" stroke="white" stroke-width="0.5" stroke-dasharray="2 2"/>
<path opacity="0.25" d="M79.4496 277.2H40.3496V316.3H79.4496V277.2Z" fill="#006C9C" stroke="white" stroke-width="0.5" stroke-dasharray="2 2"/>
<path opacity="0.2" d="M79.4496 316.8H40.3496V355.9H79.4496V316.8Z" fill="#006C9C" stroke="white" stroke-width="0.5" stroke-dasharray="2 2"/>
<path opacity="0.15" d="M79.4496 356.4H40.3496V395.5H79.4496V356.4Z" fill="#006C9C" stroke="white" stroke-width="0.5" stroke-dasharray="2 2"/>
<path opacity="0.65" d="M119.049 0H79.9492V39.1H119.049V0Z" fill="#006C9C" stroke="white" stroke-width="0.5" stroke-dasharray="2 2"/>
<path opacity="0.6" d="M119.049 39.6H79.9492V78.7H119.049V39.6Z" fill="#006C9C" stroke="white" stroke-width="0.5" stroke-dasharray="2 2"/>
<path opacity="0.55" d="M119.049 79.2H79.9492V118.3H119.049V79.2Z" fill="#006C9C" stroke="white" stroke-width="0.5" stroke-dasharray="2 2"/>
<path opacity="0.5" d="M119.049 118.8H79.9492V157.9H119.049V118.8Z" fill="#006C9C" stroke="white" stroke-width="0.5" stroke-dasharray="2 2"/>
<path opacity="0.45" d="M119.049 158.4H79.9492V197.5H119.049V158.4Z" fill="#006C9C" stroke="white" stroke-width="0.5" stroke-dasharray="2 2"/>
<path opacity="0.4" d="M119.049 198H79.9492V237.1H119.049V198Z" fill="#006C9C" stroke="white" stroke-width="0.5" stroke-dasharray="2 2"/>
<path opacity="0.35" d="M119.049 237.6H79.9492V276.7H119.049V237.6Z" fill="#006C9C" stroke="white" stroke-width="0.5" stroke-dasharray="2 2"/>
<path opacity="0.3" d="M119.049 277.2H79.9492V316.3H119.049V277.2Z" fill="#006C9C" stroke="white" stroke-width="0.5" stroke-dasharray="2 2"/>
<path opacity="0.25" d="M119.049 316.8H79.9492V355.9H119.049V316.8Z" fill="#006C9C" stroke="white" stroke-width="0.5" stroke-dasharray="2 2"/>
<path opacity="0.2" d="M119.049 356.4H79.9492V395.5H119.049V356.4Z" fill="#006C9C" stroke="white" stroke-width="0.5" stroke-dasharray="2 2"/>
<path opacity="0.7" d="M158.651 0H119.551V39.1H158.651V0Z" fill="#006C9C" stroke="white" stroke-width="0.5" stroke-dasharray="2 2"/>
<path opacity="0.65" d="M158.651 39.6H119.551V78.7H158.651V39.6Z" fill="#006C9C" stroke="white" stroke-width="0.5" stroke-dasharray="2 2"/>
<path opacity="0.6" d="M158.651 79.2H119.551V118.3H158.651V79.2Z" fill="#006C9C" stroke="white" stroke-width="0.5" stroke-dasharray="2 2"/>
<path opacity="0.55" d="M158.651 118.8H119.551V157.9H158.651V118.8Z" fill="#006C9C" stroke="white" stroke-width="0.5" stroke-dasharray="2 2"/>
<path opacity="0.5" d="M158.651 158.4H119.551V197.5H158.651V158.4Z" fill="#006C9C" stroke="white" stroke-width="0.5" stroke-dasharray="2 2"/>
<path opacity="0.45" d="M158.651 198H119.551V237.1H158.651V198Z" fill="#006C9C" stroke="white" stroke-width="0.5" stroke-dasharray="2 2"/>
<path opacity="0.4" d="M158.651 237.6H119.551V276.7H158.651V237.6Z" fill="#006C9C" stroke="white" stroke-width="0.5" stroke-dasharray="2 2"/>
<path opacity="0.35" d="M158.651 277.2H119.551V316.3H158.651V277.2Z" fill="#006C9C" stroke="white" stroke-width="0.5" stroke-dasharray="2 2"/>
<path opacity="0.3" d="M158.651 316.8H119.551V355.9H158.651V316.8Z" fill="#006C9C" stroke="white" stroke-width="0.5" stroke-dasharray="2 2"/>
<path opacity="0.25" d="M158.651 356.4H119.551V395.5H158.651V356.4Z" fill="#006C9C" stroke="white" stroke-width="0.5" stroke-dasharray="2 2"/>
<path opacity="0.8" d="M198.25 0H159.15V39.1H198.25V0Z" fill="#006C9C" stroke="white" stroke-width="0.5" stroke-dasharray="2 2"/>
<path opacity="0.7" d="M198.25 39.6H159.15V78.7H198.25V39.6Z" fill="#006C9C" stroke="white" stroke-width="0.5" stroke-dasharray="2 2"/>
<path opacity="0.65" d="M198.25 79.2H159.15V118.3H198.25V79.2Z" fill="#006C9C" stroke="white" stroke-width="0.5" stroke-dasharray="2 2"/>
<path opacity="0.6" d="M198.25 118.8H159.15V157.9H198.25V118.8Z" fill="#006C9C" stroke="white" stroke-width="0.5" stroke-dasharray="2 2"/>
<path opacity="0.55" d="M198.25 158.4H159.15V197.5H198.25V158.4Z" fill="#006C9C" stroke="white" stroke-width="0.5" stroke-dasharray="2 2"/>
<path opacity="0.5" d="M198.25 198H159.15V237.1H198.25V198Z" fill="#006C9C" stroke="white" stroke-width="0.5" stroke-dasharray="2 2"/>
<path opacity="0.45" d="M198.25 237.6H159.15V276.7H198.25V237.6Z" fill="#006C9C" stroke="white" stroke-width="0.5" stroke-dasharray="2 2"/>
<path opacity="0.4" d="M198.25 277.2H159.15V316.3H198.25V277.2Z" fill="#006C9C" stroke="white" stroke-width="0.5" stroke-dasharray="2 2"/>
<path opacity="0.35" d="M198.25 316.8H159.15V355.9H198.25V316.8Z" fill="#006C9C" stroke="white" stroke-width="0.5" stroke-dasharray="2 2"/>
<path opacity="0.3" d="M198.25 356.4H159.15V395.5H198.25V356.4Z" fill="#006C9C" stroke="white" stroke-width="0.5" stroke-dasharray="2 2"/>
<path opacity="0.9" d="M237.85 0H198.75V39.1H237.85V0Z" fill="#006C9C" stroke="white" stroke-width="0.5" stroke-dasharray="2 2"/>
<path opacity="0.85" d="M237.85 39.6H198.75V78.7H237.85V39.6Z" fill="#006C9C" stroke="white" stroke-width="0.5" stroke-dasharray="2 2"/>
<path opacity="0.8" d="M237.85 79.2H198.75V118.3H237.85V79.2Z" fill="#006C9C" stroke="white" stroke-width="0.5" stroke-dasharray="2 2"/>
<path opacity="0.7" d="M237.85 118.8H198.75V157.9H237.85V118.8Z" fill="#006C9C" stroke="white" stroke-width="0.5" stroke-dasharray="2 2"/>
<path opacity="0.65" d="M237.85 158.4H198.75V197.5H237.85V158.4Z" fill="#006C9C" stroke="white" stroke-width="0.5" stroke-dasharray="2 2"/>
<path opacity="0.6" d="M237.85 198H198.75V237.1H237.85V198Z" fill="#006C9C" stroke="white" stroke-width="0.5" stroke-dasharray="2 2"/>
<path opacity="0.55" d="M237.85 237.6H198.75V276.7H237.85V237.6Z" fill="#006C9C" stroke="white" stroke-width="0.5" stroke-dasharray="2 2"/>
<path opacity="0.5" d="M237.85 277.2H198.75V316.3H237.85V277.2Z" fill="#006C9C" stroke="white" stroke-width="0.5" stroke-dasharray="2 2"/>
<path opacity="0.45" d="M237.85 316.8H198.75V355.9H237.85V316.8Z" fill="#006C9C" stroke="white" stroke-width="0.5" stroke-dasharray="2 2"/>
<path opacity="0.4" d="M237.85 356.4H198.75V395.5H237.85V356.4Z" fill="#006C9C" stroke="white" stroke-width="0.5" stroke-dasharray="2 2"/>
<path opacity="0.95" d="M277.45 0H238.35V39.1H277.45V0Z" fill="#006C9C" stroke="white" stroke-width="0.5" stroke-dasharray="2 2"/>
<path opacity="0.9" d="M277.45 39.6H238.35V78.7H277.45V39.6Z" fill="#006C9C" stroke="white" stroke-width="0.5" stroke-dasharray="2 2"/>
<path opacity="0.85" d="M277.45 79.2H238.35V118.3H277.45V79.2Z" fill="#006C9C" stroke="white" stroke-width="0.5" stroke-dasharray="2 2"/>
<path opacity="0.8" d="M277.45 118.8H238.35V157.9H277.45V118.8Z" fill="#006C9C" stroke="white" stroke-width="0.5" stroke-dasharray="2 2"/>
<path opacity="0.7" d="M277.45 158.4H238.35V197.5H277.45V158.4Z" fill="#006C9C" stroke="white" stroke-width="0.5" stroke-dasharray="2 2"/>
<path opacity="0.65" d="M277.45 198H238.35V237.1H277.45V198Z" fill="#006C9C" stroke="white" stroke-width="0.5" stroke-dasharray="2 2"/>
<path opacity="0.6" d="M277.45 237.6H238.35V276.7H277.45V237.6Z" fill="#006C9C" stroke="white" stroke-width="0.5" stroke-dasharray="2 2"/>
<path opacity="0.55" d="M277.45 277.2H238.35V316.3H277.45V277.2Z" fill="#006C9C" stroke="white" stroke-width="0.5" stroke-dasharray="2 2"/>
<path opacity="0.5" d="M277.45 316.8H238.35V355.9H277.45V316.8Z" fill="#006C9C" stroke="white" stroke-width="0.5" stroke-dasharray="2 2"/>
<path opacity="0.45" d="M277.45 356.4H238.35V395.5H277.45V356.4Z" fill="#006C9C" stroke="white" stroke-width="0.5" stroke-dasharray="2 2"/>
<path d="M317.049 0H277.949V39.1H317.049V0Z" fill="#006C9C" stroke="white" stroke-width="0.5" stroke-dasharray="2 2"/>
<path opacity="0.95" d="M317.049 39.6H277.949V78.7H317.049V39.6Z" fill="#006C9C" stroke="white" stroke-width="0.5" stroke-dasharray="2 2"/>
<path opacity="0.9" d="M317.049 79.2H277.949V118.3H317.049V79.2Z" fill="#006C9C" stroke="white" stroke-width="0.5" stroke-dasharray="2 2"/>
<path opacity="0.85" d="M317.049 118.8H277.949V157.9H317.049V118.8Z" fill="#006C9C" stroke="white" stroke-width="0.5" stroke-dasharray="2 2"/>
<path opacity="0.8" d="M317.049 158.4H277.949V197.5H317.049V158.4Z" fill="#006C9C" stroke="white" stroke-width="0.5" stroke-dasharray="2 2"/>
<path opacity="0.7" d="M317.049 198H277.949V237.1H317.049V198Z" fill="#006C9C" stroke="white" stroke-width="0.5" stroke-dasharray="2 2"/>
<path opacity="0.65" d="M317.049 237.6H277.949V276.7H317.049V237.6Z" fill="#006C9C" stroke="white" stroke-width="0.5" stroke-dasharray="2 2"/>
<path opacity="0.6" d="M317.049 277.2H277.949V316.3H317.049V277.2Z" fill="#006C9C" stroke="white" stroke-width="0.5" stroke-dasharray="2 2"/>
<path opacity="0.55" d="M317.049 316.8H277.949V355.9H317.049V316.8Z" fill="#006C9C" stroke="white" stroke-width="0.5" stroke-dasharray="2 2"/>
<path opacity="0.5" d="M317.049 356.4H277.949V395.5H317.049V356.4Z" fill="#006C9C" stroke="white" stroke-width="0.5" stroke-dasharray="2 2"/>
<path d="M356.651 0H317.551V39.1H356.651V0Z" fill="#006C9C" stroke="white" stroke-width="0.5" stroke-dasharray="2 2"/>
<path d="M356.651 39.6H317.551V78.7H356.651V39.6Z" fill="#006C9C" stroke="white" stroke-width="0.5" stroke-dasharray="2 2"/>
<path opacity="0.95" d="M356.651 79.2H317.551V118.3H356.651V79.2Z" fill="#006C9C" stroke="white" stroke-width="0.5" stroke-dasharray="2 2"/>
<path opacity="0.9" d="M356.651 118.8H317.551V157.9H356.651V118.8Z" fill="#006C9C" stroke="white" stroke-width="0.5" stroke-dasharray="2 2"/>
<path opacity="0.85" d="M356.651 158.4H317.551V197.5H356.651V158.4Z" fill="#006C9C" stroke="white" stroke-width="0.5" stroke-dasharray="2 2"/>
<path opacity="0.8" d="M356.651 198H317.551V237.1H356.651V198Z" fill="#006C9C" stroke="white" stroke-width="0.5" stroke-dasharray="2 2"/>
<path opacity="0.7" d="M356.651 237.6H317.551V276.7H356.651V237.6Z" fill="#006C9C" stroke="white" stroke-width="0.5" stroke-dasharray="2 2"/>
<path opacity="0.65" d="M356.651 277.2H317.551V316.3H356.651V277.2Z" fill="#006C9C" stroke="white" stroke-width="0.5" stroke-dasharray="2 2"/>
<path opacity="0.6" d="M356.651 316.8H317.551V355.9H356.651V316.8Z" fill="#006C9C" stroke="white" stroke-width="0.5" stroke-dasharray="2 2"/>
<path opacity="0.55" d="M356.651 356.4H317.551V395.5H356.651V356.4Z" fill="#006C9C" stroke="white" stroke-width="0.5" stroke-dasharray="2 2"/>
<path d="M396.25 0H357.15V39.1H396.25V0Z" fill="#006C9C" stroke="white" stroke-width="0.5" stroke-dasharray="2 2"/>
<path d="M396.25 39.6H357.15V78.7H396.25V39.6Z" fill="#006C9C" stroke="white" stroke-width="0.5" stroke-dasharray="2 2"/>
<path d="M396.25 79.2H357.15V118.3H396.25V79.2Z" fill="#006C9C" stroke="white" stroke-width="0.5" stroke-dasharray="2 2"/>
<path opacity="0.95" d="M396.25 118.8H357.15V157.9H396.25V118.8Z" fill="#006C9C" stroke="white" stroke-width="0.5" stroke-dasharray="2 2"/>
<path opacity="0.9" d="M396.25 158.4H357.15V197.5H396.25V158.4Z" fill="#006C9C" stroke="white" stroke-width="0.5" stroke-dasharray="2 2"/>
<path opacity="0.85" d="M396.25 198H357.15V237.1H396.25V198Z" fill="#006C9C" stroke="white" stroke-width="0.5" stroke-dasharray="2 2"/>
<path opacity="0.8" d="M396.25 237.6H357.15V276.7H396.25V237.6Z" fill="#006C9C" stroke="white" stroke-width="0.5" stroke-dasharray="2 2"/>
<path opacity="0.7" d="M396.25 277.2H357.15V316.3H396.25V277.2Z" fill="#006C9C" stroke="white" stroke-width="0.5" stroke-dasharray="2 2"/>
<path opacity="0.65" d="M396.25 316.8H357.15V355.9H396.25V316.8Z" fill="#006C9C" stroke="white" stroke-width="0.5" stroke-dasharray="2 2"/>
<path opacity="0.5" d="M396.25 356.4H357.15V395.5H396.25V356.4Z" fill="#006C9C" stroke="white" stroke-width="0.5" stroke-dasharray="2 2"/>
<path opacity="0.7" d="M204.492 308.61H192.507C190.301 308.61 188.512 310.399 188.512 312.605V319.596C188.512 321.803 190.301 323.591 192.507 323.591H204.492C206.699 323.591 208.487 321.803 208.487 319.596V312.605C208.487 310.399 206.699 308.61 204.492 308.61Z" fill="white"/>
<path d="M195.337 312.405C195.456 312.725 195.569 312.981 195.676 313.174C195.782 313.367 195.919 313.524 196.086 313.644C196.251 313.757 196.461 313.813 196.715 313.813C197.114 313.813 197.397 313.691 197.564 313.444C197.73 313.197 197.813 312.852 197.813 312.405C197.813 312.285 197.799 312.079 197.774 311.786L198.523 311.646C198.569 311.906 198.593 312.176 198.593 312.455C198.593 313.141 198.433 313.697 198.113 314.123C197.794 314.549 197.334 314.762 196.735 314.762C196.202 314.762 195.786 314.592 195.486 314.253C195.187 313.913 194.917 313.434 194.677 312.815L195.337 312.405ZM195.117 318.597C195.123 318.505 195.127 318.355 195.127 318.148C195.127 317.596 195.11 317.032 195.077 316.46C195.05 315.888 195.007 315.384 194.947 314.952C194.873 314.366 194.773 313.853 194.647 313.414C194.528 312.967 194.378 312.542 194.198 312.136L195.047 311.646C195.407 312.405 195.662 313.471 195.816 314.842C195.916 315.741 195.966 316.797 195.966 318.008C195.966 318.275 195.962 318.471 195.956 318.597H195.117ZM201.072 318.168C200.779 318.168 200.509 318.098 200.263 317.958C200.017 317.811 199.82 317.616 199.674 317.369C199.527 317.122 199.454 316.86 199.454 316.58C199.454 316.293 199.527 316.031 199.674 315.791C199.82 315.544 200.017 315.351 200.263 315.212C200.509 315.065 200.779 314.992 201.072 314.992C201.365 314.992 201.635 315.065 201.881 315.212C202.127 315.351 202.324 315.544 202.471 315.791C202.616 316.031 202.69 316.293 202.69 316.58C202.69 316.86 202.616 317.122 202.471 317.369C202.324 317.616 202.127 317.811 201.881 317.958C201.635 318.098 201.365 318.168 201.072 318.168ZM201.072 317.379C201.292 317.379 201.475 317.306 201.622 317.159C201.767 317.006 201.841 316.813 201.841 316.58C201.841 316.347 201.767 316.157 201.622 316.011C201.475 315.858 201.292 315.781 201.072 315.781C200.853 315.781 200.666 315.858 200.513 316.011C200.366 316.157 200.293 316.347 200.293 316.58C200.293 316.813 200.366 317.006 200.513 317.159C200.666 317.306 200.853 317.379 201.072 317.379Z" fill="#005EA6"/>
<path opacity="0.7" d="M204.492 347.56H192.507C190.301 347.56 188.513 349.349 188.513 351.555V358.546C188.513 360.753 190.301 362.541 192.507 362.541H204.492C206.699 362.541 208.487 360.753 208.487 358.546V351.555C208.487 349.349 206.699 347.56 204.492 347.56Z" fill="white"/>
<path d="M196.016 357.098C196.016 356.552 195.999 355.992 195.966 355.42C195.939 354.848 195.899 354.342 195.847 353.902C195.773 353.316 195.673 352.804 195.547 352.364C195.427 351.918 195.277 351.492 195.097 351.086L195.946 350.596C196.306 351.355 196.562 352.421 196.715 353.792C196.808 354.631 196.855 355.687 196.855 356.958V357.548H196.016V357.098ZM200.243 357.118C199.95 357.118 199.681 357.048 199.434 356.908C199.188 356.762 198.992 356.566 198.845 356.319C198.699 356.072 198.625 355.81 198.625 355.53C198.625 355.243 198.699 354.981 198.845 354.741C198.992 354.494 199.188 354.302 199.434 354.162C199.681 354.015 199.95 353.942 200.243 353.942C200.537 353.942 200.806 354.015 201.052 354.162C201.299 354.302 201.495 354.494 201.641 354.741C201.788 354.981 201.861 355.243 201.861 355.53C201.861 355.81 201.788 356.072 201.641 356.319C201.495 356.566 201.299 356.762 201.052 356.908C200.806 357.048 200.537 357.118 200.243 357.118ZM200.243 356.329C200.463 356.329 200.646 356.256 200.792 356.109C200.939 355.957 201.012 355.763 201.012 355.53C201.012 355.297 200.939 355.108 200.792 354.961C200.646 354.808 200.463 354.731 200.243 354.731C200.023 354.731 199.837 354.808 199.684 354.961C199.538 355.108 199.464 355.297 199.464 355.53C199.464 355.763 199.538 355.957 199.684 356.109C199.837 356.256 200.023 356.329 200.243 356.329Z" fill="#005EA6"/>
<path opacity="0.7" d="M204.493 189.761H192.508C190.301 189.761 188.513 191.549 188.513 193.756V200.747C188.513 202.953 190.301 204.742 192.508 204.742H204.493C206.699 204.742 208.487 202.953 208.487 200.747V193.756C208.487 191.549 206.699 189.761 204.493 189.761Z" fill="white"/>
<path d="M196.325 194.005C195.753 194.644 195.291 195.296 194.937 195.962C194.591 196.622 194.418 197.218 194.418 197.75C194.418 198.103 194.492 198.379 194.637 198.579C194.791 198.772 194.991 198.869 195.237 198.869C195.45 198.862 195.62 198.752 195.746 198.539C195.873 198.319 195.933 198.02 195.926 197.64L196.675 197.52C196.702 197.947 196.772 198.28 196.884 198.519C197.004 198.752 197.168 198.869 197.374 198.869C197.86 198.869 198.103 198.502 198.103 197.77C198.103 197.038 197.827 196.342 197.274 195.683C196.729 195.024 195.99 194.344 195.057 193.645L195.566 192.816C196.565 193.615 197.371 194.417 197.983 195.223C198.596 196.029 198.902 196.908 198.902 197.86C198.902 198.479 198.762 198.959 198.482 199.298C198.203 199.638 197.843 199.808 197.404 199.808C197.004 199.808 196.662 199.638 196.375 199.298C196.089 198.959 195.94 198.406 195.926 197.64L196.675 197.52C196.669 198.352 196.532 198.942 196.265 199.288C196.006 199.628 195.65 199.798 195.197 199.798C194.711 199.798 194.322 199.618 194.028 199.258C193.742 198.892 193.599 198.416 193.599 197.83C193.599 197.763 193.606 197.65 193.619 197.491C193.673 196.844 193.912 196.142 194.338 195.383C194.771 194.617 195.277 193.915 195.856 193.276L196.325 194.005ZM201.483 199.318C201.189 199.318 200.919 199.248 200.674 199.108C200.427 198.962 200.23 198.766 200.084 198.519C199.938 198.273 199.865 198.01 199.865 197.73C199.865 197.444 199.938 197.181 200.084 196.941C200.23 196.695 200.427 196.502 200.674 196.362C200.919 196.215 201.189 196.142 201.483 196.142C201.775 196.142 202.045 196.215 202.292 196.362C202.537 196.502 202.734 196.695 202.881 196.941C203.027 197.181 203.101 197.444 203.101 197.73C203.101 198.01 203.027 198.273 202.881 198.519C202.734 198.766 202.537 198.962 202.292 199.108C202.045 199.248 201.775 199.318 201.483 199.318ZM201.483 198.529C201.702 198.529 201.885 198.456 202.032 198.309C202.178 198.157 202.252 197.963 202.252 197.73C202.252 197.497 202.178 197.308 202.032 197.161C201.885 197.008 201.702 196.931 201.483 196.931C201.263 196.931 201.076 197.008 200.923 197.161C200.777 197.308 200.704 197.497 200.704 197.73C200.704 197.963 200.777 198.157 200.923 198.309C201.076 198.456 201.263 198.529 201.483 198.529Z" fill="#005EA6"/>
<path opacity="0.7" d="M204.492 149.811H192.507C190.301 149.811 188.513 151.599 188.513 153.806V160.797C188.513 163.003 190.301 164.792 192.507 164.792H204.492C206.699 164.792 208.487 163.003 208.487 160.797V153.806C208.487 151.599 206.699 149.811 204.492 149.811Z" fill="white"/>
<path d="M193.959 159.609C194.219 158.837 194.584 158.141 195.058 157.521C195.53 156.895 196.052 156.37 196.626 155.943C197.205 155.517 197.79 155.191 198.383 154.965L198.543 155.913C198.044 156.1 197.547 156.383 197.055 156.762C196.569 157.135 196.119 157.594 195.707 158.141C195.293 158.687 194.964 159.296 194.718 159.968L193.959 159.609ZM197.744 156.243C197.231 156.503 196.751 156.632 196.306 156.632C195.939 156.632 195.617 156.553 195.337 156.393C195.064 156.233 194.851 156.023 194.698 155.764C194.544 155.497 194.468 155.211 194.468 154.905C194.468 154.605 194.541 154.308 194.688 154.016C194.834 153.716 195.051 153.463 195.337 153.257C195.63 153.05 195.972 152.924 196.366 152.877C196.412 152.87 196.486 152.867 196.586 152.867C196.858 152.867 197.118 152.917 197.365 153.017C197.61 153.11 197.807 153.217 197.954 153.337L197.614 154.016C197.335 153.849 197.021 153.766 196.676 153.766C196.582 153.766 196.509 153.769 196.456 153.776C196.116 153.809 195.84 153.936 195.627 154.156C195.413 154.368 195.307 154.612 195.307 154.885C195.307 155.117 195.4 155.311 195.587 155.464C195.78 155.617 196.029 155.694 196.336 155.694C196.721 155.694 197.128 155.577 197.554 155.344L197.744 156.243ZM201.073 159.369C200.779 159.369 200.51 159.299 200.264 159.159C200.017 159.012 199.821 158.817 199.675 158.57C199.528 158.323 199.455 158.061 199.455 157.781C199.455 157.494 199.528 157.232 199.675 156.992C199.821 156.745 200.017 156.553 200.264 156.413C200.51 156.266 200.779 156.193 201.073 156.193C201.366 156.193 201.635 156.266 201.882 156.413C202.128 156.553 202.324 156.745 202.471 156.992C202.617 157.232 202.691 157.494 202.691 157.781C202.691 158.061 202.617 158.323 202.471 158.57C202.324 158.817 202.128 159.012 201.882 159.159C201.635 159.299 201.366 159.369 201.073 159.369ZM201.073 158.58C201.293 158.58 201.475 158.507 201.622 158.36C201.768 158.207 201.842 158.014 201.842 157.781C201.842 157.548 201.768 157.359 201.622 157.212C201.475 157.059 201.293 156.982 201.073 156.982C200.853 156.982 200.667 157.059 200.514 157.212C200.367 157.359 200.294 157.548 200.294 157.781C200.294 158.014 200.367 158.207 200.514 158.36C200.667 158.507 200.853 158.58 201.073 158.58Z" fill="#005EA6"/>
<path opacity="0.7" d="M204.493 110.86H192.508C190.301 110.86 188.513 112.649 188.513 114.855V121.846C188.513 124.053 190.301 125.841 192.508 125.841H204.493C206.699 125.841 208.487 124.053 208.487 121.846V114.855C208.487 112.649 206.699 110.86 204.493 110.86Z" fill="white"/>
<path d="M199.007 114.445C198.76 114.832 198.468 115.404 198.128 116.163C197.789 116.915 197.479 117.718 197.199 118.57C196.926 119.422 196.75 120.181 196.67 120.847H195.83C195.771 120.188 195.601 119.436 195.322 118.59C195.048 117.738 194.739 116.932 194.393 116.173C194.046 115.414 193.747 114.838 193.494 114.445L194.283 113.866C194.536 114.286 194.825 114.888 195.152 115.674C195.478 116.46 195.777 117.305 196.051 118.211C196.331 119.117 196.53 119.956 196.65 120.728H195.851C195.984 119.949 196.191 119.103 196.47 118.191C196.75 117.279 197.05 116.433 197.369 115.654C197.689 114.868 197.971 114.273 198.218 113.866L199.007 114.445ZM201.487 120.418C201.193 120.418 200.924 120.348 200.678 120.208C200.431 120.061 200.235 119.866 200.089 119.619C199.942 119.372 199.869 119.11 199.869 118.83C199.869 118.543 199.942 118.281 200.089 118.041C200.235 117.794 200.431 117.601 200.678 117.462C200.924 117.315 201.193 117.242 201.487 117.242C201.78 117.242 202.049 117.315 202.296 117.462C202.542 117.601 202.738 117.794 202.885 118.041C203.031 118.281 203.105 118.543 203.105 118.83C203.105 119.11 203.031 119.372 202.885 119.619C202.738 119.866 202.542 120.061 202.296 120.208C202.049 120.348 201.78 120.418 201.487 120.418ZM201.487 119.629C201.707 119.629 201.89 119.556 202.036 119.409C202.182 119.256 202.256 119.063 202.256 118.83C202.256 118.597 202.182 118.407 202.036 118.261C201.89 118.108 201.707 118.031 201.487 118.031C201.267 118.031 201.081 118.108 200.928 118.261C200.781 118.407 200.708 118.597 200.708 118.83C200.708 119.063 200.781 119.256 200.928 119.409C201.081 119.556 201.267 119.629 201.487 119.629Z" fill="#005EA6"/>
<path opacity="0.7" d="M204.493 70.9102H192.508C190.301 70.9102 188.513 72.6988 188.513 74.9051V81.8963C188.513 84.1026 190.301 85.8912 192.508 85.8912H204.493C206.699 85.8912 208.487 84.1026 208.487 81.8963V74.9051C208.487 72.6988 206.699 70.9102 204.493 70.9102Z" fill="white"/>
<path d="M193.494 80.4283C193.74 80.0421 194.033 79.4728 194.373 78.7204C194.713 77.9614 195.018 77.1557 195.292 76.3035C195.572 75.4513 195.751 74.6922 195.83 74.0264H196.67C196.73 74.6855 196.896 75.4413 197.169 76.2935C197.449 77.1391 197.762 77.9414 198.108 78.7005C198.454 79.4595 198.753 80.0355 199.007 80.4283L198.218 81.0075C197.964 80.5881 197.675 79.9855 197.349 79.1998C197.023 78.4141 196.72 77.5686 196.44 76.663C196.167 75.7575 195.971 74.9185 195.851 74.1462H196.65C196.516 74.9252 196.311 75.7709 196.031 76.683C195.751 77.5952 195.452 78.4441 195.132 79.2298C194.812 80.0088 194.529 80.6014 194.283 81.0075L193.494 80.4283ZM201.487 80.4682C201.193 80.4682 200.924 80.3983 200.678 80.2585C200.431 80.112 200.235 79.9156 200.089 79.6692C199.942 79.4228 199.869 79.1599 199.869 78.8802C199.869 78.5939 199.942 78.3309 200.089 78.0912C200.235 77.8448 200.431 77.6518 200.678 77.512C200.924 77.3654 201.193 77.2922 201.487 77.2922C201.78 77.2922 202.049 77.3654 202.296 77.512C202.542 77.6518 202.738 77.8448 202.885 78.0912C203.031 78.3309 203.105 78.5939 203.105 78.8802C203.105 79.1599 203.031 79.4228 202.885 79.6692C202.738 79.9156 202.542 80.112 202.296 80.2585C202.049 80.3983 201.78 80.4682 201.487 80.4682ZM201.487 79.6792C201.707 79.6792 201.89 79.606 202.036 79.4595C202.182 79.3064 202.256 79.1132 202.256 78.8802C202.256 78.6472 202.182 78.4575 202.036 78.311C201.89 78.1578 201.707 78.0812 201.487 78.0812C201.267 78.0812 201.081 78.1578 200.928 78.311C200.781 78.4575 200.708 78.6472 200.708 78.8802C200.708 79.1132 200.781 79.3064 200.928 79.4595C201.081 79.606 201.267 79.6792 201.487 79.6792Z" fill="#005EA6"/>
<path opacity="0.7" d="M204.493 31.96H192.508C190.301 31.96 188.513 33.7486 188.513 35.9549V42.9461C188.513 45.1524 190.301 46.941 192.508 46.941H204.493C206.699 46.941 208.487 45.1524 208.487 42.9461V35.9549C208.487 33.7486 206.699 31.96 204.493 31.96Z" fill="white"/>
<path d="M197.454 42.1566C197.287 41.7838 197.148 41.2045 197.035 40.4188C196.922 39.6331 196.842 38.8275 196.795 38.0019C196.775 37.4892 196.688 37.0131 196.535 36.5737C196.389 36.1275 196.146 35.9045 195.806 35.9045C195.66 35.9045 195.52 35.9644 195.387 36.0843C195.254 36.2041 195.144 36.3606 195.057 36.5537C194.977 36.7467 194.937 36.9465 194.937 37.1529C194.937 37.3926 195.02 37.5791 195.187 37.7122C195.354 37.8453 195.59 37.912 195.896 37.912C196.189 37.912 196.423 37.872 196.595 37.7921C196.768 37.7122 196.892 37.6423 196.965 37.5824C197.045 37.5158 197.092 37.4758 197.105 37.4625L197.434 38.3714C197.261 38.5045 197.038 38.6178 196.765 38.711C196.492 38.8041 196.193 38.8508 195.866 38.8508C195.347 38.8508 194.93 38.7077 194.618 38.4213C194.305 38.1284 194.148 37.7189 194.148 37.1929C194.148 36.86 194.221 36.5237 194.368 36.1841C194.515 35.8446 194.715 35.5649 194.967 35.3452C195.227 35.1255 195.517 35.0156 195.836 35.0156C196.296 35.0156 196.648 35.1854 196.895 35.525C197.148 35.8646 197.314 36.2241 197.394 36.6036C197.474 36.9764 197.541 37.4226 197.594 37.9419C197.661 38.641 197.757 39.3469 197.884 40.0593C198.017 40.7651 198.156 41.2977 198.303 41.6572L197.454 42.1566ZM200.882 41.5174C200.589 41.5174 200.32 41.4475 200.073 41.3077C199.826 41.1612 199.631 40.9648 199.484 40.7184C199.337 40.472 199.264 40.2091 199.264 39.9294C199.264 39.6431 199.337 39.3801 199.484 39.1404C199.631 38.894 199.826 38.701 200.073 38.5611C200.32 38.4146 200.589 38.3414 200.882 38.3414C201.175 38.3414 201.444 38.4146 201.691 38.5611C201.938 38.701 202.133 38.894 202.28 39.1404C202.427 39.3801 202.5 39.6431 202.5 39.9294C202.5 40.2091 202.427 40.472 202.28 40.7184C202.133 40.9648 201.938 41.1612 201.691 41.3077C201.444 41.4475 201.175 41.5174 200.882 41.5174ZM200.882 40.7284C201.102 40.7284 201.284 40.6552 201.431 40.5087C201.578 40.3556 201.651 40.1624 201.651 39.9294C201.651 39.6964 201.578 39.5067 201.431 39.3601C201.284 39.207 201.102 39.1304 200.882 39.1304C200.662 39.1304 200.475 39.207 200.323 39.3601C200.176 39.5067 200.103 39.6964 200.103 39.9294C200.103 40.1624 200.176 40.3556 200.323 40.5087C200.475 40.6552 200.662 40.7284 200.882 40.7284Z" fill="#005EA6"/>
<path opacity="0.7" d="M204.492 268.66H192.507C190.301 268.66 188.513 270.448 188.513 272.655V279.646C188.513 281.852 190.301 283.641 192.507 283.641H204.492C206.699 283.641 208.487 281.852 208.487 279.646V272.655C208.487 270.448 206.699 268.66 204.492 268.66Z" fill="white"/>
<path d="M197.322 272.086C197.376 272.693 197.459 273.125 197.572 273.385C197.686 273.645 197.855 273.774 198.081 273.774C198.241 273.774 198.361 273.687 198.441 273.515C198.527 273.335 198.57 273.098 198.57 272.806C198.57 272.533 198.534 272.219 198.461 271.867L199.19 271.697C199.289 272.103 199.339 272.499 199.339 272.885C199.339 273.432 199.234 273.874 199.02 274.214C198.807 274.546 198.497 274.713 198.091 274.713C197.659 274.713 197.319 274.496 197.072 274.064C196.827 273.625 196.677 273.005 196.623 272.206L197.322 272.086ZM194.595 272.436C194.755 272.915 194.925 273.275 195.105 273.515C195.285 273.747 195.521 273.864 195.814 273.864C196.074 273.864 196.273 273.747 196.413 273.515C196.56 273.282 196.633 272.955 196.633 272.536C196.633 272.396 196.63 272.286 196.623 272.206L197.322 272.086C197.329 272.166 197.332 272.283 197.332 272.436C197.332 272.888 197.269 273.298 197.142 273.665C197.022 274.024 196.85 274.307 196.623 274.513C196.403 274.72 196.153 274.823 195.874 274.823C195.428 274.823 195.065 274.663 194.785 274.344C194.506 274.024 194.243 273.545 193.996 272.905L194.595 272.436ZM194.376 278.648C194.383 278.555 194.386 278.405 194.386 278.199C194.386 277.646 194.37 277.083 194.336 276.511C194.31 275.939 194.266 275.435 194.206 275.003C194.133 274.417 194.033 273.904 193.906 273.465C193.786 273.018 193.637 272.593 193.457 272.186L194.306 271.697C194.665 272.456 194.922 273.522 195.075 274.893C195.175 275.712 195.225 276.768 195.225 278.059C195.225 278.326 195.222 278.521 195.215 278.648H194.376ZM201.814 278.219C201.521 278.219 201.251 278.149 201.005 278.009C200.759 277.862 200.562 277.666 200.416 277.42C200.269 277.173 200.196 276.91 200.196 276.631C200.196 276.344 200.269 276.081 200.416 275.842C200.562 275.595 200.759 275.402 201.005 275.262C201.251 275.116 201.521 275.043 201.814 275.043C202.107 275.043 202.377 275.116 202.623 275.262C202.869 275.402 203.066 275.595 203.213 275.842C203.358 276.081 203.432 276.344 203.432 276.631C203.432 276.91 203.358 277.173 203.213 277.42C203.066 277.666 202.869 277.862 202.623 278.009C202.377 278.149 202.107 278.219 201.814 278.219ZM201.814 277.43C202.034 277.43 202.217 277.357 202.364 277.21C202.509 277.057 202.583 276.863 202.583 276.631C202.583 276.398 202.509 276.208 202.364 276.061C202.217 275.909 202.034 275.832 201.814 275.832C201.595 275.832 201.408 275.909 201.255 276.061C201.108 276.208 201.035 276.398 201.035 276.631C201.035 276.863 201.108 277.057 201.255 277.21C201.408 277.357 201.595 277.43 201.814 277.43Z" fill="#005EA6"/>
<path opacity="0.7" d="M204.492 229.71H192.507C190.301 229.71 188.513 231.499 188.513 233.705V240.696C188.513 242.902 190.301 244.691 192.507 244.691H204.492C206.699 244.691 208.487 242.902 208.487 240.696V233.705C208.487 231.499 206.699 229.71 204.492 229.71Z" fill="white"/>
<path d="M194.858 233.765C195.051 234.531 195.363 235.083 195.797 235.423C196.229 235.755 196.722 235.922 197.275 235.922C197.595 235.922 197.914 235.872 198.234 235.772C198.559 235.672 198.856 235.546 199.123 235.393L199.352 236.212C198.759 236.558 198.19 236.731 197.645 236.731C197.245 236.731 196.889 236.644 196.576 236.471C196.262 236.299 196.013 236.075 195.827 235.802C195.647 235.53 195.547 235.253 195.527 234.973C195.5 234.607 195.57 234.257 195.737 233.925C195.903 233.592 196.142 233.325 196.456 233.126C196.776 232.919 197.128 232.816 197.515 232.816C197.814 232.816 198.097 232.876 198.364 232.996C198.629 233.116 198.896 233.282 199.163 233.495L198.813 234.164C198.639 234.051 198.44 233.958 198.214 233.885C197.994 233.805 197.777 233.765 197.565 233.765C197.205 233.765 196.906 233.868 196.666 234.074C196.426 234.274 196.306 234.521 196.306 234.813C196.306 235.12 196.409 235.373 196.616 235.573C196.822 235.765 197.115 235.862 197.495 235.862C197.954 235.862 198.497 235.705 199.123 235.393L199.352 236.212C199.093 236.379 198.786 236.514 198.434 236.621C198.087 236.721 197.73 236.771 197.365 236.771C196.666 236.771 196.033 236.568 195.467 236.162C194.901 235.755 194.485 235.096 194.219 234.184L194.858 233.765ZM194.558 239.248C194.558 238.702 194.542 238.142 194.509 237.57C194.482 236.998 194.442 236.491 194.389 236.052C194.315 235.466 194.215 234.953 194.089 234.514C193.969 234.067 193.819 233.642 193.64 233.235L194.489 232.746C194.848 233.505 195.104 234.571 195.258 235.942C195.35 236.781 195.397 237.837 195.397 239.108V239.697H194.558V239.248ZM201.701 239.268C201.409 239.268 201.139 239.198 200.892 239.058C200.647 238.911 200.45 238.716 200.303 238.469C200.157 238.222 200.084 237.96 200.084 237.68C200.084 237.393 200.157 237.131 200.303 236.891C200.45 236.644 200.647 236.451 200.892 236.312C201.139 236.165 201.409 236.092 201.701 236.092C201.995 236.092 202.265 236.165 202.51 236.312C202.757 236.451 202.954 236.644 203.1 236.891C203.247 237.131 203.319 237.393 203.319 237.68C203.319 237.96 203.247 238.222 203.1 238.469C202.954 238.716 202.757 238.911 202.51 239.058C202.265 239.198 201.995 239.268 201.701 239.268ZM201.701 238.479C201.921 238.479 202.105 238.406 202.251 238.259C202.398 238.106 202.471 237.913 202.471 237.68C202.471 237.447 202.398 237.257 202.251 237.111C202.105 236.958 201.921 236.881 201.701 236.881C201.482 236.881 201.296 236.958 201.142 237.111C200.996 237.257 200.922 237.447 200.922 237.68C200.922 237.913 200.996 238.106 201.142 238.259C201.296 238.406 201.482 238.479 201.701 238.479Z" fill="#005EA6"/>
<path d="M198.5 272.656C239.318 272.656 272.407 239.567 272.407 198.749C272.407 157.932 239.318 124.843 198.5 124.843C157.683 124.843 124.594 157.932 124.594 198.749C124.594 239.567 157.683 272.656 198.5 272.656Z" stroke="white"/>
<path opacity="0.7" d="M85.6429 189.761H73.658C71.4517 189.761 69.6631 191.549 69.6631 193.756V200.747C69.6631 202.953 71.4517 204.742 73.658 204.742H85.6429C87.8493 204.742 89.6379 202.953 89.6379 200.747V193.756C89.6379 191.549 87.8493 189.761 85.6429 189.761Z" fill="white"/>
<path d="M76.4872 193.556C76.607 193.876 76.7203 194.132 76.8268 194.325C76.9333 194.518 77.0699 194.675 77.2362 194.794C77.4027 194.907 77.6125 194.964 77.8655 194.964C78.265 194.964 78.548 194.841 78.7144 194.595C78.8809 194.348 78.9641 194.002 78.9641 193.556C78.9641 193.436 78.9508 193.229 78.9241 192.937L79.6732 192.797C79.7198 193.057 79.7431 193.326 79.7431 193.606C79.7431 194.292 79.5833 194.847 79.2637 195.274C78.9441 195.7 78.4847 195.913 77.8854 195.913C77.3528 195.913 76.9366 195.743 76.637 195.404C76.3374 195.064 76.0677 194.585 75.828 193.965L76.4872 193.556ZM76.2675 199.748C76.2742 199.655 76.2775 199.505 76.2775 199.299C76.2775 198.746 76.2609 198.183 76.2275 197.611C76.201 197.039 76.1576 196.535 76.0977 196.103C76.0245 195.516 75.9246 195.004 75.7981 194.565C75.6782 194.118 75.5284 193.693 75.3486 193.286L76.1976 192.797C76.5571 193.556 76.8135 194.622 76.9666 195.993C77.0665 196.892 77.1164 197.947 77.1164 199.159C77.1164 199.426 77.1131 199.621 77.1064 199.748H76.2675ZM82.223 199.319C81.93 199.319 81.6604 199.249 81.414 199.109C81.1676 198.962 80.9712 198.766 80.8247 198.52C80.6782 198.273 80.605 198.01 80.605 197.731C80.605 197.444 80.6782 197.181 80.8247 196.942C80.9712 196.695 81.1676 196.502 81.414 196.362C81.6604 196.216 81.93 196.143 82.223 196.143C82.5159 196.143 82.7855 196.216 83.0319 196.362C83.2783 196.502 83.4747 196.695 83.6212 196.942C83.7677 197.181 83.8409 197.444 83.8409 197.731C83.8409 198.01 83.7677 198.273 83.6212 198.52C83.4747 198.766 83.2783 198.962 83.0319 199.109C82.7855 199.249 82.5159 199.319 82.223 199.319ZM82.223 198.53C82.4427 198.53 82.6257 198.457 82.7723 198.31C82.9188 198.157 82.992 197.963 82.992 197.731C82.992 197.498 82.9188 197.308 82.7723 197.161C82.6257 197.009 82.4427 196.932 82.223 196.932C82.0032 196.932 81.8168 197.009 81.6637 197.161C81.5171 197.308 81.4439 197.498 81.4439 197.731C81.4439 197.963 81.5171 198.157 81.6637 198.31C81.8168 198.457 82.0032 198.53 82.223 198.53Z" fill="#005EA6"/>
<path opacity="0.7" d="M46.6917 189.761H34.7069C32.5005 189.761 30.7119 191.549 30.7119 193.756V200.747C30.7119 202.953 32.5005 204.742 34.7069 204.742H46.6917C48.8981 204.742 50.6867 202.953 50.6867 200.747V193.756C50.6867 191.549 48.8981 189.761 46.6917 189.761Z" fill="white"/>
<path d="M38.2157 199.299C38.2157 198.752 38.1991 198.193 38.1658 197.621C38.1392 197.049 38.0993 196.542 38.0459 196.103C37.9727 195.516 37.8728 195.004 37.7463 194.565C37.6265 194.118 37.4766 193.693 37.2969 193.286L38.1458 192.797C38.5053 193.556 38.7617 194.622 38.9148 195.993C39.0081 196.832 39.0547 197.887 39.0547 199.159V199.748H38.2157V199.299ZM42.4432 199.319C42.1502 199.319 41.8806 199.249 41.6342 199.109C41.3879 198.962 41.1915 198.766 41.0449 198.52C40.8985 198.273 40.8252 198.01 40.8252 197.731C40.8252 197.444 40.8985 197.181 41.0449 196.942C41.1915 196.695 41.3879 196.502 41.6342 196.362C41.8806 196.216 42.1502 196.143 42.4432 196.143C42.7362 196.143 43.0059 196.216 43.2522 196.362C43.4985 196.502 43.695 196.695 43.8414 196.942C43.9879 197.181 44.0611 197.444 44.0611 197.731C44.0611 198.01 43.9879 198.273 43.8414 198.52C43.695 198.766 43.4985 198.962 43.2522 199.109C43.0059 199.249 42.7362 199.319 42.4432 199.319ZM42.4432 198.53C42.6629 198.53 42.8461 198.457 42.9925 198.31C43.139 198.157 43.2122 197.963 43.2122 197.731C43.2122 197.498 43.139 197.308 42.9925 197.161C42.8461 197.009 42.6629 196.932 42.4432 196.932C42.2234 196.932 42.0371 197.009 41.8839 197.161C41.7375 197.308 41.6642 197.498 41.6642 197.731C41.6642 197.963 41.7375 198.157 41.8839 198.31C42.0371 198.457 42.2234 198.53 42.4432 198.53Z" fill="#005EA6"/>
<path opacity="0.7" d="M323.342 189.761H311.357C309.151 189.761 307.362 191.549 307.362 193.756V200.747C307.362 202.953 309.151 204.742 311.357 204.742H323.342C325.548 204.742 327.337 202.953 327.337 200.747V193.756C327.337 191.549 325.548 189.761 323.342 189.761Z" fill="white"/>
<path d="M312.344 199.278C312.59 198.891 312.884 198.322 313.223 197.57C313.563 196.811 313.868 196.005 314.142 195.153C314.422 194.301 314.602 193.542 314.68 192.876H315.52C315.58 193.535 315.746 194.291 316.02 195.143C316.299 195.989 316.612 196.791 316.959 197.55C317.304 198.309 317.604 198.885 317.857 199.278L317.068 199.857C316.815 199.437 316.525 198.835 316.2 198.049C315.873 197.263 315.57 196.418 315.291 195.512C315.017 194.607 314.821 193.768 314.701 192.996H315.5C315.367 193.775 315.161 194.621 314.881 195.532C314.602 196.444 314.302 197.293 313.982 198.079C313.663 198.858 313.379 199.45 313.133 199.857L312.344 199.278ZM320.337 199.318C320.044 199.318 319.774 199.248 319.528 199.108C319.282 198.961 319.085 198.765 318.939 198.519C318.792 198.272 318.719 198.009 318.719 197.73C318.719 197.443 318.792 197.18 318.939 196.941C319.085 196.694 319.282 196.501 319.528 196.361C319.774 196.215 320.044 196.142 320.337 196.142C320.63 196.142 320.9 196.215 321.146 196.361C321.392 196.501 321.589 196.694 321.736 196.941C321.881 197.18 321.955 197.443 321.955 197.73C321.955 198.009 321.881 198.272 321.736 198.519C321.589 198.765 321.392 198.961 321.146 199.108C320.9 199.248 320.63 199.318 320.337 199.318ZM320.337 198.529C320.557 198.529 320.74 198.456 320.887 198.309C321.032 198.156 321.106 197.962 321.106 197.73C321.106 197.497 321.032 197.307 320.887 197.16C320.74 197.008 320.557 196.931 320.337 196.931C320.118 196.931 319.931 197.008 319.778 197.16C319.631 197.307 319.558 197.497 319.558 197.73C319.558 197.962 319.631 198.156 319.778 198.309C319.931 198.456 320.118 198.529 320.337 198.529Z" fill="#005EA6"/>
<path opacity="0.7" d="M362.293 189.761H350.308C348.102 189.761 346.313 191.549 346.313 193.756V200.747C346.313 202.953 348.102 204.742 350.308 204.742H362.293C364.499 204.742 366.288 202.953 366.288 200.747V193.756C366.288 191.549 364.499 189.761 362.293 189.761Z" fill="white"/>
<path d="M355.254 199.957C355.088 199.585 354.948 199.005 354.835 198.219C354.722 197.433 354.642 196.628 354.595 195.802C354.575 195.29 354.488 194.814 354.336 194.374C354.189 193.928 353.946 193.705 353.607 193.705C353.46 193.705 353.32 193.765 353.187 193.885C353.054 194.005 352.944 194.162 352.857 194.354C352.778 194.547 352.738 194.747 352.738 194.954C352.738 195.193 352.821 195.38 352.987 195.513C353.154 195.646 353.39 195.713 353.696 195.713C353.989 195.713 354.223 195.673 354.396 195.593C354.568 195.513 354.692 195.443 354.765 195.383C354.845 195.316 354.892 195.276 354.905 195.263L355.234 196.172C355.062 196.305 354.838 196.419 354.565 196.512C354.293 196.604 353.993 196.651 353.666 196.651C353.147 196.651 352.731 196.509 352.418 196.222C352.105 195.929 351.949 195.52 351.949 194.993C351.949 194.661 352.022 194.324 352.168 193.985C352.315 193.645 352.515 193.366 352.768 193.146C353.027 192.926 353.317 192.816 353.637 192.816C354.096 192.816 354.448 192.986 354.695 193.326C354.948 193.665 355.115 194.025 355.195 194.404C355.274 194.777 355.341 195.223 355.394 195.743C355.461 196.442 355.557 197.148 355.684 197.86C355.817 198.566 355.957 199.098 356.103 199.458L355.254 199.957ZM358.682 199.318C358.39 199.318 358.12 199.248 357.873 199.108C357.626 198.961 357.431 198.766 357.284 198.519C357.137 198.272 357.064 198.01 357.064 197.73C357.064 197.443 357.137 197.181 357.284 196.941C357.431 196.694 357.626 196.502 357.873 196.362C358.12 196.215 358.39 196.142 358.682 196.142C358.975 196.142 359.244 196.215 359.491 196.362C359.738 196.502 359.934 196.694 360.08 196.941C360.227 197.181 360.3 197.443 360.3 197.73C360.3 198.01 360.227 198.272 360.08 198.519C359.934 198.766 359.738 198.961 359.491 199.108C359.244 199.248 358.975 199.318 358.682 199.318ZM358.682 198.529C358.902 198.529 359.085 198.456 359.231 198.309C359.378 198.156 359.451 197.963 359.451 197.73C359.451 197.497 359.378 197.308 359.231 197.161C359.085 197.008 358.902 196.931 358.682 196.931C358.462 196.931 358.276 197.008 358.123 197.161C357.976 197.308 357.903 197.497 357.903 197.73C357.903 197.963 357.976 198.156 358.123 198.309C358.276 198.456 358.462 198.529 358.682 198.529Z" fill="#005EA6"/>
<path opacity="0.7" d="M283.393 189.761H271.408C269.201 189.761 267.413 191.549 267.413 193.756V200.747C267.413 202.953 269.201 204.742 271.408 204.742H283.393C285.599 204.742 287.388 202.953 287.388 200.747V193.756C287.388 191.549 285.599 189.761 283.393 189.761Z" fill="white"/>
<path d="M277.907 193.346C277.661 193.732 277.368 194.304 277.028 195.064C276.689 195.816 276.379 196.619 276.1 197.47C275.826 198.322 275.65 199.081 275.57 199.748H274.73C274.671 199.088 274.502 198.336 274.222 197.49C273.948 196.639 273.639 195.833 273.293 195.074C272.947 194.314 272.647 193.738 272.394 193.346L273.183 192.766C273.436 193.186 273.726 193.788 274.052 194.574C274.378 195.36 274.677 196.205 274.951 197.111C275.231 198.017 275.43 198.856 275.55 199.628H274.751C274.884 198.849 275.091 198.003 275.37 197.091C275.65 196.179 275.95 195.333 276.269 194.554C276.589 193.768 276.872 193.173 277.118 192.766L277.907 193.346ZM280.387 199.318C280.094 199.318 279.824 199.248 279.578 199.108C279.331 198.962 279.135 198.766 278.989 198.519C278.842 198.272 278.769 198.01 278.769 197.73C278.769 197.443 278.842 197.181 278.989 196.941C279.135 196.694 279.331 196.502 279.578 196.362C279.824 196.215 280.094 196.142 280.387 196.142C280.68 196.142 280.949 196.215 281.196 196.362C281.442 196.502 281.639 196.694 281.785 196.941C281.931 197.181 282.005 197.443 282.005 197.73C282.005 198.01 281.931 198.272 281.785 198.519C281.639 198.766 281.442 198.962 281.196 199.108C280.949 199.248 280.68 199.318 280.387 199.318ZM280.387 198.529C280.607 198.529 280.79 198.456 280.936 198.309C281.082 198.157 281.156 197.963 281.156 197.73C281.156 197.497 281.082 197.308 280.936 197.161C280.79 197.008 280.607 196.931 280.387 196.931C280.167 196.931 279.981 197.008 279.828 197.161C279.681 197.308 279.608 197.497 279.608 197.73C279.608 197.963 279.681 198.157 279.828 198.309C279.981 198.456 280.167 198.529 280.387 198.529Z" fill="#005EA6"/>
<path opacity="0.7" d="M244.442 189.761H232.457C230.251 189.761 228.462 191.549 228.462 193.756V200.747C228.462 202.953 230.251 204.742 232.457 204.742H244.442C246.648 204.742 248.437 202.953 248.437 200.747V193.756C248.437 191.549 246.648 189.761 244.442 189.761Z" fill="white"/>
<path d="M233.908 199.558C234.168 198.786 234.533 198.09 235.007 197.471C235.479 196.844 236.002 196.319 236.575 195.893C237.154 195.466 237.739 195.14 238.333 194.914L238.492 195.863C237.993 196.049 237.497 196.332 237.004 196.711C236.518 197.084 236.068 197.543 235.656 198.09C235.243 198.636 234.913 199.245 234.667 199.917L233.908 199.558ZM237.693 196.192C237.18 196.452 236.701 196.582 236.255 196.582C235.889 196.582 235.566 196.502 235.286 196.342C235.013 196.182 234.8 195.972 234.647 195.713C234.493 195.446 234.418 195.16 234.418 194.854C234.418 194.554 234.49 194.258 234.637 193.965C234.783 193.665 235 193.413 235.286 193.206C235.579 192.999 235.922 192.873 236.315 192.826C236.361 192.819 236.435 192.816 236.535 192.816C236.808 192.816 237.067 192.866 237.314 192.966C237.56 193.059 237.756 193.166 237.903 193.286L237.564 193.965C237.284 193.798 236.97 193.715 236.625 193.715C236.531 193.715 236.458 193.718 236.405 193.725C236.065 193.758 235.789 193.885 235.576 194.105C235.362 194.318 235.256 194.561 235.256 194.834C235.256 195.067 235.349 195.26 235.536 195.413C235.729 195.566 235.979 195.643 236.285 195.643C236.671 195.643 237.077 195.526 237.504 195.293L237.693 196.192ZM241.022 199.318C240.729 199.318 240.459 199.248 240.213 199.108C239.967 198.962 239.77 198.766 239.624 198.519C239.477 198.273 239.404 198.01 239.404 197.73C239.404 197.444 239.477 197.181 239.624 196.941C239.77 196.695 239.967 196.502 240.213 196.362C240.459 196.215 240.729 196.142 241.022 196.142C241.315 196.142 241.585 196.215 241.831 196.362C242.077 196.502 242.274 196.695 242.42 196.941C242.566 197.181 242.64 197.444 242.64 197.73C242.64 198.01 242.566 198.273 242.42 198.519C242.274 198.766 242.077 198.962 241.831 199.108C241.585 199.248 241.315 199.318 241.022 199.318ZM241.022 198.529C241.242 198.529 241.425 198.456 241.572 198.309C241.717 198.157 241.791 197.963 241.791 197.73C241.791 197.497 241.717 197.308 241.572 197.161C241.425 197.008 241.242 196.931 241.022 196.931C240.802 196.931 240.616 197.008 240.463 197.161C240.316 197.308 240.243 197.497 240.243 197.73C240.243 197.963 240.316 198.157 240.463 198.309C240.616 198.456 240.802 198.529 241.022 198.529Z" fill="#005EA6"/>
<path opacity="0.7" d="M164.543 189.761H152.558C150.352 189.761 148.563 191.549 148.563 193.756V200.747C148.563 202.953 150.352 204.742 152.558 204.742H164.543C166.75 204.742 168.538 202.953 168.538 200.747V193.756C168.538 191.549 166.75 189.761 164.543 189.761Z" fill="white"/>
<path d="M154.908 193.816C155.101 194.582 155.413 195.134 155.847 195.474C156.279 195.806 156.772 195.973 157.325 195.973C157.644 195.973 157.964 195.923 158.284 195.823C158.609 195.723 158.906 195.596 159.173 195.444L159.402 196.262C158.809 196.609 158.24 196.782 157.694 196.782C157.295 196.782 156.938 196.695 156.626 196.522C156.312 196.349 156.062 196.126 155.877 195.853C155.697 195.58 155.597 195.304 155.577 195.024C155.55 194.658 155.62 194.308 155.787 193.975C155.953 193.643 156.192 193.376 156.506 193.176C156.825 192.97 157.178 192.867 157.565 192.867C157.864 192.867 158.147 192.927 158.413 193.047C158.679 193.166 158.946 193.333 159.212 193.546L158.863 194.215C158.689 194.102 158.489 194.008 158.264 193.935C158.044 193.856 157.827 193.816 157.615 193.816C157.255 193.816 156.955 193.918 156.716 194.125C156.476 194.325 156.356 194.572 156.356 194.864C156.356 195.171 156.459 195.424 156.666 195.623C156.871 195.816 157.165 195.913 157.545 195.913C158.004 195.913 158.546 195.756 159.173 195.444L159.402 196.262C159.143 196.429 158.836 196.565 158.483 196.672C158.137 196.772 157.78 196.822 157.415 196.822C156.716 196.822 156.082 196.619 155.517 196.213C154.951 195.806 154.534 195.147 154.269 194.235L154.908 193.816ZM154.608 199.299C154.608 198.752 154.591 198.193 154.558 197.621C154.531 197.049 154.491 196.542 154.439 196.103C154.365 195.516 154.265 195.004 154.139 194.565C154.019 194.118 153.869 193.693 153.689 193.286L154.538 192.797C154.898 193.556 155.154 194.622 155.307 195.993C155.4 196.832 155.447 197.887 155.447 199.159V199.748H154.608V199.299ZM161.751 199.319C161.459 199.319 161.189 199.249 160.942 199.109C160.697 198.962 160.5 198.766 160.353 198.52C160.207 198.273 160.133 198.01 160.133 197.731C160.133 197.444 160.207 197.181 160.353 196.942C160.5 196.695 160.697 196.502 160.942 196.362C161.189 196.216 161.459 196.143 161.751 196.143C162.045 196.143 162.315 196.216 162.56 196.362C162.807 196.502 163.004 196.695 163.15 196.942C163.296 197.181 163.369 197.444 163.369 197.731C163.369 198.01 163.296 198.273 163.15 198.52C163.004 198.766 162.807 198.962 162.56 199.109C162.315 199.249 162.045 199.319 161.751 199.319ZM161.751 198.53C161.971 198.53 162.155 198.457 162.301 198.31C162.447 198.157 162.52 197.963 162.52 197.731C162.52 197.498 162.447 197.308 162.301 197.161C162.155 197.009 161.971 196.932 161.751 196.932C161.532 196.932 161.346 197.009 161.192 197.161C161.046 197.308 160.972 197.498 160.972 197.731C160.972 197.963 161.046 198.157 161.192 198.31C161.346 198.457 161.532 198.53 161.751 198.53Z" fill="#005EA6"/>
<path opacity="0.7" d="M125.592 189.761H113.607C111.401 189.761 109.612 191.549 109.612 193.756V200.747C109.612 202.953 111.401 204.742 113.607 204.742H125.592C127.798 204.742 129.587 202.953 129.587 200.747V193.756C129.587 191.549 127.798 189.761 125.592 189.761Z" fill="white"/>
<path d="M118.422 193.186C118.476 193.793 118.559 194.225 118.671 194.485C118.785 194.744 118.955 194.874 119.181 194.874C119.341 194.874 119.46 194.787 119.54 194.615C119.627 194.435 119.67 194.198 119.67 193.905C119.67 193.633 119.634 193.319 119.56 192.967L120.289 192.797C120.389 193.203 120.439 193.599 120.439 193.985C120.439 194.532 120.333 194.974 120.12 195.314C119.907 195.646 119.597 195.813 119.191 195.813C118.758 195.813 118.419 195.596 118.172 195.164C117.926 194.724 117.777 194.105 117.723 193.306L118.422 193.186ZM115.695 193.536C115.855 194.015 116.025 194.375 116.205 194.615C116.384 194.847 116.621 194.964 116.914 194.964C117.173 194.964 117.373 194.847 117.513 194.615C117.66 194.382 117.733 194.055 117.733 193.636C117.733 193.496 117.73 193.386 117.723 193.306L118.422 193.186C118.429 193.266 118.432 193.383 118.432 193.536C118.432 193.988 118.369 194.398 118.242 194.764C118.122 195.124 117.949 195.407 117.723 195.613C117.503 195.82 117.253 195.923 116.974 195.923C116.528 195.923 116.165 195.763 115.885 195.444C115.605 195.124 115.343 194.645 115.096 194.005L115.695 193.536ZM115.475 199.748C115.482 199.655 115.485 199.505 115.485 199.299C115.485 198.746 115.469 198.183 115.436 197.611C115.41 197.039 115.366 196.535 115.306 196.103C115.233 195.516 115.133 195.004 115.006 194.565C114.886 194.118 114.736 193.693 114.557 193.286L115.406 192.797C115.765 193.556 116.022 194.622 116.175 195.993C116.274 196.812 116.324 197.867 116.324 199.159C116.324 199.426 116.321 199.621 116.314 199.748H115.475ZM122.914 199.319C122.62 199.319 122.351 199.249 122.105 199.109C121.858 198.962 121.662 198.766 121.516 198.52C121.369 198.273 121.296 198.01 121.296 197.731C121.296 197.444 121.369 197.181 121.516 196.942C121.662 196.695 121.858 196.502 122.105 196.362C122.351 196.216 122.62 196.143 122.914 196.143C123.207 196.143 123.476 196.216 123.723 196.362C123.969 196.502 124.166 196.695 124.312 196.942C124.458 197.181 124.532 197.444 124.532 197.731C124.532 198.01 124.458 198.273 124.312 198.52C124.166 198.766 123.969 198.962 123.723 199.109C123.476 199.249 123.207 199.319 122.914 199.319ZM122.914 198.53C123.134 198.53 123.317 198.457 123.463 198.31C123.609 198.157 123.683 197.963 123.683 197.731C123.683 197.498 123.609 197.308 123.463 197.161C123.317 197.009 123.134 196.932 122.914 196.932C122.694 196.932 122.508 197.009 122.355 197.161C122.208 197.308 122.135 197.498 122.135 197.731C122.135 197.963 122.208 198.157 122.355 198.31C122.508 198.457 122.694 198.53 122.914 198.53Z" fill="#005EA6"/>
</g>
<defs>
<clipPath id="clip0_0_8">
<rect width="395.5" height="395.5" fill="white" transform="translate(0.75)"/>
</clipPath>
</defs>
</svg>
