<svg width="1267" height="871" viewBox="0 0 1267 871" fill="none" xmlns="http://www.w3.org/2000/svg">
<path d="M348.903 563C504.371 563 630.403 436.968 630.403 281.5C630.403 126.032 504.371 0 348.903 0C193.435 0 67.4028 126.032 67.4028 281.5C67.4028 436.968 193.435 563 348.903 563Z" fill="#E9F4F7"/>
<path d="M837.903 793.668C993.371 793.668 1119.4 667.636 1119.4 512.168C1119.4 356.7 993.371 230.668 837.903 230.668C682.435 230.668 556.403 356.7 556.403 512.168C556.403 667.636 682.435 793.668 837.903 793.668Z" fill="#FEF6E7"/>
<path d="M359.903 50.6685C166.327 50.6685 9.40283 207.593 9.40283 401.168C9.40283 594.744 166.327 751.668 359.903 751.668C553.479 751.668 710.403 594.744 710.403 401.168C710.403 207.593 553.479 50.6685 359.903 50.6685ZM359.903 54.6685C551.27 54.6685 706.403 209.802 706.403 401.168C706.403 592.535 551.27 747.668 359.903 747.668C168.536 747.668 13.4028 592.535 13.4028 401.168C13.4028 209.802 168.536 54.6685 359.903 54.6685Z" fill="#F0DECF"/>
<path d="M85.8783 778.668L8.28907 834.724C-0.664416 841.193 -2.67883 853.695 3.78974 862.648C7.54998 867.853 13.5805 870.936 20.0015 870.936H1133.53C1144.57 870.936 1153.53 861.981 1153.53 850.936C1153.53 844.793 1150.71 838.99 1145.87 835.199L1073.8 778.668H85.8783Z" fill="#E9F4F7"/>
<path d="M690.403 776.616C691.507 776.616 692.403 777.511 692.403 778.616C692.403 779.67 691.587 780.534 690.552 780.611L690.403 780.616L15.403 780.668C14.2984 780.668 13.4028 779.773 13.4028 778.669C13.4028 777.614 14.2186 776.75 15.2534 776.674L15.4027 776.668L690.403 776.616Z" fill="#2E363A"/>
<path fill-rule="evenodd" clip-rule="evenodd" d="M374.558 326.99L523.403 340.844C587.298 383.391 623.731 412.783 632.7 429.02C646.155 453.377 638.055 569.939 632.7 623.632L633.522 624.278C642.664 631.571 646.149 637.881 643.978 643.21L643.878 643.445C640.217 651.745 656.062 647.516 658.489 652.388C660.889 657.206 662.613 672.038 672.391 672.367L672.723 672.373C679.438 672.373 783.056 688.816 983.577 721.704V777.618L624.235 778.281C607.636 778.312 591.61 772.264 579.175 761.293L578.652 760.826V777.618L199.759 777.622L196.458 778.659C177.83 784.472 164.325 787.999 158.931 787.999C129.308 787.999 110.651 746.287 117.672 723.832C124.693 701.376 191.682 417.93 216.855 402.31C233.469 392 285.156 367.29 371.918 328.18L374.558 326.99Z" fill="#4757A4"/>
<path fill-rule="evenodd" clip-rule="evenodd" d="M380.409 332.575C381.266 333.993 380.811 335.838 379.393 336.695L365.907 344.865L358.498 349.374L348.586 355.442L336.051 363.211L335.834 363.339C335.71 363.408 335.619 363.451 335.516 363.491L335.128 363.626L335.041 363.649L334.945 363.666C334.802 363.687 334.592 363.699 334.15 363.725L333.866 363.695C333.703 363.675 333.582 363.651 333.446 363.601L333.333 363.555L332.353 363.96L331.016 364.54C326.668 366.467 319.27 370.068 308.261 375.666L302.347 378.687C279.765 390.26 267.259 396.962 253.741 405C248.994 407.823 245.128 410.919 242.21 414.392C228.243 431.017 218.075 453.918 208.777 485.965L207.941 488.877L207.14 491.725L206.335 494.643C205.052 499.332 203.726 504.388 202.214 510.3L197.822 527.606L196.628 532.241C196.361 533.27 196.102 534.26 195.844 535.235L195.348 537.104L194.811 539.103L194.286 541.028C193.94 542.289 193.6 543.504 193.265 544.684L190.754 553.46L188.68 560.745L186.774 567.48C171.853 620.373 164.682 650.05 159.081 684.523C153.16 720.967 151.115 754.763 153.395 787.502C151.282 787.124 149.237 786.53 147.264 785.75C145.218 753.696 147.234 720.653 152.895 685.196L153.159 683.56C159.284 645.859 167.25 613.941 184.979 551.832L187.246 543.908C188.06 541.071 188.896 538.026 189.796 534.637L191.158 529.431L196.151 509.794C198.762 499.558 200.82 491.859 203.015 484.293L203.644 482.145C212.988 450.479 223.313 427.558 237.616 410.532C241.01 406.493 245.389 402.985 250.675 399.843L253.193 398.354L256.503 396.424C267.8 389.889 279.464 383.685 297.924 374.212L305.521 370.328L311.252 367.43L315.402 365.356C322.918 361.623 327.936 359.273 330.847 358.088L331.457 357.842L332.007 357.628L332.542 357.432C333.385 357.135 333.999 356.991 334.561 356.996L334.681 356.999L340.055 353.656L348.709 348.326L361.543 340.496C365.946 337.82 370.84 334.854 376.29 331.56C377.708 330.703 379.552 331.157 380.409 332.575ZM394.69 344.208C395.594 345.597 395.201 347.455 393.812 348.359L391.982 349.545L388.004 352.104L383.132 355.213C360.916 369.345 325.394 391.423 316.446 397.255L315.631 397.789C308.885 402.257 302.868 406.462 297.053 410.799C280.981 422.784 265.479 436.533 245.927 456.341C239.774 462.574 232.921 477.384 225.94 498.141C221.253 512.076 217.314 526.008 213.304 541.641L212.858 543.385C205.03 574.112 191.574 648.896 188.263 679.098L187.529 686.029L197.324 683.192L209.093 679.826L215.037 678.138L253.138 667.373L266.988 663.431C293.307 655.907 309.903 650.936 328.828 644.889L331.433 644.053L333.562 643.354L335.121 642.831C349.089 638.1 361.563 632.653 383.967 622.002L393.234 617.586L398.315 615.183L401.988 613.462C421.425 604.399 433.667 599.425 448.155 594.963C449.739 594.476 451.418 595.364 451.905 596.948C452.393 598.531 451.504 600.21 449.921 600.698L448.273 601.211L446.581 601.749L444.882 602.302C430.77 606.95 417.715 612.597 395.764 623.026L384.919 628.192C361.386 639.354 348.807 644.729 333.285 649.76L329.085 651.105L324.032 652.706C301.797 659.713 280.893 665.784 240.697 677.127L207.232 686.595L199.515 688.805L192.202 690.918C190.981 691.273 189.75 691.631 188.496 691.997C187.956 692.154 187.408 692.153 186.901 692.02L185.656 704.083L184.519 715.333C184.205 718.484 183.905 721.521 183.62 724.446L196.512 719.903L218.01 712.266L225.628 709.592L230.359 707.953C235.496 706.185 239.973 704.685 244.851 703.094L248.279 701.986L251.257 701.044L253.845 700.242C258.91 698.687 264.436 697.074 272.039 694.913L287.573 690.518C310.087 684.111 321.438 680.497 334.696 675.258L338.173 673.873L340.744 672.838C361.209 664.566 379.423 656.302 413.145 640.303L440.425 627.339C451.271 622.205 458.515 618.833 466.95 614.987C468.458 614.3 470.237 614.964 470.924 616.472C471.612 617.98 470.947 619.759 469.439 620.446L461.249 624.206L454.853 627.179L448.443 630.188C444.94 631.839 441.077 633.667 436.631 635.779L415.84 645.665C378.915 663.185 360.484 671.48 337.426 680.63L334.679 681.708L333.088 682.32L330.977 683.118C319.905 687.259 308.864 690.689 290.023 696.059L273.059 700.861L266.137 702.847L263.626 703.578C257.676 705.319 253.019 706.752 247.992 708.381L242.976 710.025L238.254 711.601L235.849 712.416C229.681 714.513 222.853 716.907 213.209 720.331L189.785 728.645L185.612 730.105C184.744 730.408 183.831 730.288 183.098 729.855L182.262 738.723L181.73 744.56C180.695 756.094 179.994 765.071 179.6 771.683L179.466 774.064L179.379 775.833L179.318 777.251L179.351 777.258C179.46 777.286 179.577 777.327 179.719 777.382L180.234 777.594L180.886 778.21L181.126 778.45C181.462 778.802 181.5 778.942 181.607 779.335L181.71 779.864C181.734 780.006 181.738 780.068 181.737 780.156L181.736 780.23C181.736 780.343 181.731 780.446 181.722 780.557L181.706 780.729C181.686 780.914 181.654 781.157 181.607 781.482L181.331 783.191L179.468 783.714C177.331 784.309 175.322 784.848 173.448 785.327C173.411 785.12 173.381 784.9 173.355 784.662L173.322 784.327L173.293 783.948L173.268 783.521C173.155 781.218 173.255 777.408 173.584 771.781L173.771 768.761C174.82 752.695 177.395 724.912 181.787 683.271L182.2 679.367C185.366 649.493 199.065 573.22 207.044 541.904L207.942 538.401C211.831 523.343 215.686 509.809 220.253 496.228L221.032 493.934L221.829 491.633L222.374 490.087C228.912 471.681 235.318 458.548 241.657 452.126L243.526 450.238L245.402 448.356L247.288 446.478C264.463 429.429 278.717 416.987 293.466 405.989C299.007 401.857 304.72 397.848 311.045 393.633L312.318 392.787C321.07 386.991 371.188 355.921 390.54 343.329C391.929 342.426 393.787 342.819 394.69 344.208ZM251.979 765.661C253.624 765.861 254.795 767.357 254.595 769.002L253.545 777.621H247.5L248.639 768.277C248.839 766.632 250.334 765.461 251.979 765.661ZM278.182 755.114L278.358 755.123C280.01 755.256 281.241 756.702 281.108 758.354L279.559 777.621H273.539L275.128 757.873C275.256 756.28 276.605 755.079 278.182 755.114ZM298.231 752.572L298.407 752.581C300.059 752.714 301.29 754.161 301.157 755.812L299.402 777.621H293.382L295.176 755.331C295.305 753.739 296.654 752.537 298.231 752.572ZM326.833 738.84L327.009 738.85C328.661 738.985 329.89 740.433 329.755 742.084L326.923 776.682C326.896 777.015 326.815 777.331 326.69 777.622H321.176C320.988 777.185 320.902 776.698 320.943 776.192L323.775 741.595C323.905 740.003 325.256 738.803 326.833 738.84ZM387.635 720.266L387.811 720.269C389.466 720.344 390.748 721.746 390.673 723.401L388.232 777.62H382.226L384.679 723.131C384.751 721.535 386.058 720.287 387.635 720.266ZM478.818 691.96C480.474 692.014 481.773 693.4 481.719 695.056L479.137 774.907C479.097 776.158 478.295 777.206 477.191 777.62H475.088C473.915 777.182 473.098 776.033 473.14 774.713L475.722 694.862C475.774 693.265 477.065 692 478.641 691.96H478.818ZM360.992 727.237C362.602 727.627 363.591 729.249 363.201 730.859L360.304 742.695L360.115 743.512C359.734 745.192 359.528 746.328 359.384 747.552L359.315 748.206L358.668 758.354L358.392 762.459C358.124 766.368 357.818 770.596 357.501 774.484C357.367 776.135 355.919 777.365 354.268 777.23C352.616 777.096 351.386 775.648 351.521 773.997L351.888 769.283L352.186 765.193C352.823 756.232 353.314 747.892 353.352 747.521L353.425 746.847C353.608 745.298 353.872 743.88 354.356 741.783L354.902 739.511L357.37 729.446C357.76 727.836 359.382 726.847 360.992 727.237ZM453.964 700.856C455.604 701.093 456.741 702.614 456.504 704.254L455.304 712.413L450.752 742.493L450.676 743.051L450.568 743.996L450.495 744.696L450.401 745.697C450.273 747.169 450.172 748.784 450.069 750.93L449.144 773.61C449.073 775.265 447.673 776.549 446.018 776.478C444.362 776.407 443.078 775.007 443.15 773.352L443.992 752.503L444.077 750.614L444.183 748.585L444.248 747.513C444.348 745.965 444.46 744.663 444.603 743.345L444.739 742.18L444.929 740.842L445.525 736.866C446.728 728.933 448.978 714.387 450.566 703.396C450.803 701.756 452.324 700.619 453.964 700.856ZM415.579 711.595L415.756 711.602C417.409 711.712 418.659 713.142 418.549 714.795L414.662 772.935C414.552 774.588 413.122 775.839 411.469 775.728C409.816 775.618 408.565 774.188 408.675 772.535L412.562 714.395C412.669 712.801 414.002 711.581 415.579 711.595ZM486.475 665.311C487.13 666.833 486.427 668.597 484.905 669.252L483.117 670.024L475.362 673.416L456.398 681.874C427.119 694.898 411.546 701.085 392.776 706.514L384.8 708.81C381.434 709.775 377.893 710.785 374.053 711.876L344.455 720.262L330.851 724.145C305.363 731.457 289.528 736.247 271.343 742.176L267.54 743.424L263.696 744.701C235.648 754.074 210.841 763.673 187.5 774.408C185.994 775.1 184.213 774.441 183.521 772.936C182.828 771.431 183.487 769.649 184.993 768.957C210.139 757.391 236.939 747.145 267.564 737.1L273.04 735.317C293.057 728.846 311.107 723.499 343.739 714.228L374.476 705.518L384.662 702.608L389.38 701.25L392.27 700.413L393.945 699.917C411.195 694.761 426.478 688.618 454.096 676.331L473.426 667.712L476.93 666.172L479.818 664.914L482.534 663.74C484.056 663.086 485.821 663.789 486.475 665.311ZM505.658 672.88L505.835 672.886C507.488 672.988 508.747 674.411 508.645 676.065L507.111 700.728L506.929 703.933L506.81 706.321L506.75 707.72C506.705 708.854 506.672 709.918 506.648 711.003L506.616 712.818L506.507 744.517L506.455 754.07C506.43 758.075 506.401 762.067 506.367 765.891C506.352 767.548 504.997 768.879 503.341 768.865C501.684 768.85 500.353 767.495 500.367 765.838L500.509 744.096C500.589 727.59 500.608 713.152 500.618 712.48L500.659 710.47L500.7 709.025L500.773 707.043C500.822 705.851 500.885 704.576 500.964 703.128L501.307 697.34L502.656 675.697C502.754 674.102 504.081 672.875 505.658 672.88ZM681.519 686.397C682.516 687.72 682.252 689.601 680.929 690.598L679.618 691.593L678.746 692.263L677.451 693.27C665.152 702.907 654.858 713.095 636.599 732.82L627.185 743.017L623.969 746.479C615.768 755.272 610.422 760.74 604.104 766.755C602.904 767.897 601.005 767.85 599.863 766.65C598.72 765.45 598.767 763.551 599.967 762.409L602.037 760.424L603.824 758.685L604.892 757.634C610.347 752.24 615.877 746.413 624.341 737.257L632.221 728.716C652.397 706.922 663.017 696.583 677.318 685.806C678.641 684.809 680.522 685.074 681.519 686.397ZM707.981 747.492C708.312 749.115 707.264 750.7 705.641 751.031C699.773 752.228 695.107 754.491 689.393 758.594L688.532 759.221L687.185 760.239L683.816 762.831C681.612 764.535 679.472 766.202 678.966 766.585C677.646 767.586 675.764 767.327 674.763 766.006C673.762 764.686 674.021 762.804 675.342 761.803L682.877 755.98L684.647 754.635L685.279 754.165C691.9 749.329 697.427 746.583 704.442 745.152C706.065 744.821 707.65 745.868 707.981 747.492ZM724.066 693.08C724.737 694.595 724.052 696.367 722.537 697.037C677.362 717.031 649.188 735.994 625.569 765.439C624.533 766.732 622.645 766.939 621.352 765.902C620.06 764.866 619.852 762.977 620.889 761.685C645.207 731.368 674.132 711.899 720.109 691.551C721.624 690.88 723.396 691.565 724.066 693.08ZM712.643 728.422C713.128 730.006 712.237 731.684 710.653 732.169C697.926 736.07 686.788 741.594 673.279 750.214L671.34 751.462L669.666 752.553L667.929 753.7C666.547 754.617 665.086 755.597 663.497 756.671L653.021 763.807C651.651 764.74 649.785 764.385 648.853 763.015C647.921 761.645 648.276 759.779 649.646 758.847L659.492 752.137L661.504 750.778L664.202 748.973L666.363 747.544C667.3 746.93 668.209 746.339 669.108 745.76L670.966 744.575C684.493 736.014 695.877 730.422 708.895 726.433C710.479 725.947 712.157 726.838 712.643 728.422ZM563.039 667.558C564.695 667.61 565.995 668.995 565.943 670.651L563.114 760.521C563.062 762.177 561.677 763.477 560.021 763.425C558.365 763.373 557.065 761.988 557.117 760.332L559.946 670.462C559.996 668.865 561.285 667.599 562.862 667.558H563.039ZM533.21 669.361C534.866 669.403 536.178 670.777 536.138 672.434L534.129 757.633C534.09 759.29 532.715 760.601 531.059 760.564C529.402 760.523 528.091 759.148 528.13 757.492L530.14 672.292C530.179 670.636 531.554 669.325 533.21 669.361ZM472.769 639.836C473.355 641.386 472.575 643.117 471.025 643.704L466.57 645.399C439.704 655.68 415.425 666.015 373.572 684.6L348.481 695.757L342.089 698.588L338.037 700.376L332.197 702.943C269.963 730.23 230.643 745.25 185.289 757.804C183.692 758.246 182.039 757.31 181.597 755.713C181.155 754.116 182.091 752.463 183.688 752.021C231.051 738.912 271.866 723.061 339.677 693.094L376.575 676.704L387.213 672.004L392.921 669.495C424.251 655.751 445.165 647.077 468.901 638.092C470.451 637.506 472.182 638.287 472.769 639.836ZM649.192 659.599C650.748 660.168 651.549 661.89 650.981 663.446L647.989 671.836L647.767 672.439C646.88 674.783 646.066 676.605 645.074 678.391C643.023 682.079 640.162 685.645 635.177 690.722L634.796 691.1C633.402 692.447 631.996 693.389 629.366 694.89L627.583 695.901L626.671 696.435C624.789 697.561 623.822 698.314 622.942 699.336L622.602 699.737L622.262 700.154L621.931 700.575C620.515 702.415 619.289 704.503 617.295 708.262L616.085 710.551L615.397 711.832L614.906 712.729C613.557 715.166 612.547 716.76 611.257 718.467L610.368 719.627L608.642 721.859L607.309 723.565C601.164 731.371 597.708 735.033 595.189 736.081L595.033 736.142L591.965 742.406C591.231 743.891 589.432 744.501 587.946 743.767C586.461 743.034 585.851 741.235 586.585 739.749L590.102 732.586L590.329 732.144C590.543 731.756 590.719 731.484 590.987 731.194C591.6 730.533 592.469 730.103 593.438 730.162L593.519 730.169L593.822 729.906L594.135 729.617L594.484 729.282L594.87 728.897L595.379 728.371L595.971 727.737L596.404 727.263C598.696 724.725 601.84 720.88 605.951 715.529L606.623 714.645C607.906 712.92 608.935 711.198 610.615 708.056L612.258 704.954L612.978 703.617L613.485 702.695C615.212 699.585 616.475 697.683 618.191 695.66L618.396 695.42C620.078 693.467 621.684 692.344 625.206 690.349L626.314 689.723L626.949 689.358L627.587 688.982C629.094 688.08 629.963 687.442 630.766 686.649L630.896 686.518C635.536 681.793 638.081 678.621 639.829 675.476C640.6 674.09 641.255 672.649 641.974 670.79L642.271 670.004L645.345 661.388C645.913 659.831 647.636 659.031 649.192 659.599ZM536.091 360.572L537.429 361.79L539.035 363.288L540.304 364.489L542.637 366.702L544.438 368.39L545.219 369.111C547.359 371.077 548.908 372.395 550.656 373.736L552.017 374.764L553.139 375.598L553.863 376.129C557.487 378.778 561.239 381.33 567.063 385.153L575.855 390.897L579.128 393.055L581.065 394.345C591.547 401.357 597.451 405.845 603.949 411.845C616.26 423.213 622.731 442.651 625.209 468.959L625.327 470.246L625.439 471.523L625.543 472.795C626.404 483.577 626.55 493.879 626.35 509.694L626.221 520.308L626.215 522.531L626.225 523.913C626.23 524.348 626.237 524.766 626.246 525.184L626.494 534.663L626.657 541.28L626.76 545.639C627.631 583.246 627.939 616.337 627.629 648.196C627.608 650.344 626.816 651.946 625.161 654.135L624.396 655.124C623.195 656.668 622.097 657.866 620.076 659.878L617.745 662.182L617.117 662.812C614.4 665.561 613.099 667.171 611.983 669.25L611.421 670.313L611.143 670.854L610.852 671.432C609.234 674.693 608.066 677.76 605.945 683.941L605.245 685.993C600.72 699.303 597.331 705.65 589.452 712.51C588.628 713.228 587.45 713.542 586.263 713.078C585.447 712.759 584.979 712.252 584.638 711.647C584.536 711.465 584.458 711.294 584.39 711.115L584.297 710.848L584.186 710.48L584.153 710.406C583.603 709.079 584.076 707.529 585.297 706.741L585.454 706.646C585.976 706.352 586.55 706.231 587.107 706.265L587.361 706.292L587.433 706.223C592.785 701.034 595.562 695.638 599.154 685.258L600.757 680.581L601.527 678.384L601.922 677.279C603.532 672.828 604.686 670.192 606.479 666.82L606.697 666.411C608.346 663.341 610.133 661.261 614.156 657.291L615.788 655.681L616.632 654.833C617.762 653.686 618.525 652.85 619.243 651.965L620.171 650.783L620.499 650.35C621.31 649.252 621.624 648.604 621.629 648.138L621.675 642.81L621.7 639.178L621.727 633.704C621.843 603.814 621.436 572.434 620.549 536.95L620.232 524.482L620.215 522.586L620.227 519.498C620.238 518.179 620.257 516.596 620.283 514.611L620.361 508.718L620.399 505.057L620.423 501.291C620.474 488.788 620.188 479.887 619.296 470.176L619.236 469.522C616.884 444.559 610.827 426.362 599.878 416.253L598.929 415.383L597.887 414.447L597.204 413.844C590.942 408.351 584.45 403.713 572.515 395.881L563.735 390.146L560.898 388.275L559.124 387.094C554.567 384.046 551.339 381.766 547.812 379.11L547.001 378.495L546.185 377.86L545.651 377.434L544.853 376.781C543.163 375.377 541.403 373.782 538.913 371.437L534.421 367.186L533.497 366.325L532.555 365.463C532.399 365.322 532.242 365.18 532.081 365.035C530.848 363.928 530.747 362.031 531.854 360.799C532.962 359.566 534.858 359.465 536.091 360.572ZM389.896 604.011C390.528 605.543 389.799 607.297 388.268 607.929L384.777 609.372L377.204 612.515L372.418 614.511C366.095 617.152 359.984 619.726 353.824 622.337L328.555 633.095C314.665 638.979 308.024 641.53 300.735 643.659L299.14 644.115L298.004 644.43L296.278 644.888C291.024 646.25 284.925 647.515 273.145 649.763L250.524 654.064L242.443 655.618C228.2 658.372 216.587 660.709 199.078 664.332C197.456 664.668 195.868 663.625 195.532 662.003C195.197 660.38 196.24 658.793 197.862 658.457L207.839 656.401L217.055 654.523L224.622 653.002C233.822 651.166 242.633 649.458 253.734 647.342L274.361 643.421L278.551 642.609C288.431 640.674 293.281 639.559 298.428 638.08L300.052 637.603L301.404 637.189L302.764 636.756C308.239 634.979 314.213 632.633 324.308 628.376L349.889 617.488L357.845 614.122L362.632 612.106L368.654 609.581C374.22 607.253 379.935 604.878 385.978 602.383C387.51 601.751 389.264 602.48 389.896 604.011ZM404.594 356.213C405.769 357.381 405.776 359.28 404.608 360.456L402.811 362.272L400.066 365.069L398.663 366.509C396.305 368.934 393.844 371.493 391.205 374.259L385.599 380.164L370.796 395.869C348.903 419.037 335.489 432.339 320.291 445.26L317.613 447.512L307.29 456.034C301.812 460.534 296.631 464.771 295.766 465.491C276.027 481.923 264.368 494.211 253.663 511.569C242.519 529.64 235.059 550.714 230.55 575.107C226.823 595.268 225.18 616.834 224.833 643.324C224.811 644.981 223.451 646.306 221.794 646.286C220.137 646.263 218.812 644.902 218.832 643.246C219.185 616.445 220.852 594.563 224.65 574.016C229.285 548.94 236.989 527.175 248.556 508.42C259.501 490.673 271.388 478.055 291.067 461.597L307.839 447.813L313.016 443.532L315.27 441.649L317.38 439.857L318.851 438.591L320.315 437.32C334.112 425.276 347.206 412.131 367.874 390.223L381.642 375.616L383.968 373.161C390.162 366.635 395.351 361.263 400.351 356.228C401.519 355.052 403.418 355.046 404.594 356.213ZM405.632 384.752C406.721 386 406.593 387.895 405.345 388.985L384.673 406.989L381.737 409.563L377.303 413.476L375.631 414.96C372.34 417.89 369.352 420.587 366.484 423.219L365.769 423.876C339.867 447.718 322.115 468.233 305.054 495.57C299.572 504.354 295.219 513.837 291.448 524.777L291.06 525.914C288.33 533.994 286.386 541.02 283.063 554.361L280.173 566.008L279.286 569.526L278.722 571.72C278.059 574.28 277.472 576.457 276.78 578.948C276.068 581.508 275.358 583.954 274.636 586.324L274.014 588.339L273.421 590.219L272.676 592.536C270.669 598.695 268.465 604.853 264.887 614.442L258.504 631.483L257.587 633.973L256.512 636.929C256.393 637.26 256.273 637.593 256.151 637.931C255.591 639.49 253.872 640.3 252.313 639.74C250.754 639.179 249.944 637.461 250.505 635.902L251.604 632.865L252.617 630.105L253.518 627.675L259.485 611.756L261.264 606.955L262.122 604.614C264.606 597.805 266.308 592.839 268.011 587.428L268.542 585.728C269.254 583.431 269.951 581.065 270.65 578.588L271.587 575.208L272.334 572.428C273.247 568.982 274.207 565.166 275.769 558.853L277.597 551.484L278.835 546.585C281.137 537.583 282.824 531.665 284.938 525.3L285.376 523.993C289.376 512.156 294.028 501.905 299.964 492.393C317.104 464.93 334.951 444.204 360.659 420.427L361.706 419.461C367.044 414.548 372.736 409.467 379.969 403.133L401.399 384.466C402.647 383.376 404.542 383.504 405.632 384.752ZM412.117 394.024C413.546 394.861 414.026 396.699 413.188 398.129L403.225 415.182L397.812 424.509C396.002 427.64 394.455 430.331 393.157 432.603L391.257 435.945L390.223 437.783L389.949 438.303L389.745 438.679L389.543 439.037L389.401 439.26L389.255 439.456C389.2 439.525 389.145 439.578 388.873 439.843L388.722 439.958L388.51 440.107L388.179 440.284L387.648 440.469L386.801 440.553L386.748 440.533L385.584 442.141L383.773 444.685L382.202 446.924C381.099 448.504 379.884 450.26 378.555 452.197L375.568 456.571C374.015 458.855 372.377 461.593 370.656 464.76C367.916 469.801 365.028 475.808 361.878 482.912L360.895 485.148L359.496 488.42L350.049 510.921C348.43 514.753 347.127 517.79 346.566 518.969L346.064 519.994L345.696 520.732C344.099 523.905 342.432 526.86 339.668 531.495L335.502 538.427L334.252 540.531C331.098 545.874 329.324 549.187 327.555 553.091L326.622 555.173L325.821 556.982L325.011 558.836C319.837 570.743 316.503 579.946 313.804 589.463L313.616 590.131C312.776 593.128 311.975 596.232 311.117 599.786L310.485 602.445L305.171 625.737C304.796 627.351 303.184 628.356 301.57 627.981C299.956 627.606 298.952 625.994 299.326 624.38L304.794 600.431L305.286 598.371L305.719 596.598C306.434 593.699 307.121 591.072 307.838 588.513L308.227 587.14C311.312 576.399 315.215 565.977 321.536 551.847L321.943 550.94C324.105 546.129 326.186 542.318 330.377 535.307L334.485 528.471L335.373 526.976L336.286 525.422C338.214 522.116 339.513 519.719 340.828 517.046L341.227 516.223L341.549 515.518L342.2 514.036C345.332 506.816 353.206 487.741 355.59 482.302L356.398 480.47L357.194 478.684C360.097 472.218 362.794 466.661 365.384 461.895C367.193 458.565 368.931 455.661 370.606 453.198L373.587 448.831L375.472 446.094C381.087 437.972 384.39 433.514 385.864 431.989C386.159 431.684 386.426 431.442 386.715 431.238C386.821 431.164 386.93 431.094 387.044 431.03L387.19 430.953L391.813 422.9L395.389 416.723C398.218 411.849 401.55 406.134 405.417 399.526L408.012 395.095C408.85 393.666 410.688 393.186 412.117 394.024ZM423.07 402.84C424.602 403.293 425.5 404.861 425.141 406.397L418.895 428.068L416.267 437.061L415.163 440.784C415.068 441.101 414.976 441.406 414.888 441.698L414.487 443.02C410.183 457.086 406.277 468.22 402.364 477.054C395.715 492.066 388.908 504.726 379.233 520.686L377.563 523.425L362.569 547.649C356.631 557.347 351.622 565.886 346.629 574.949L345.535 576.947L344.764 578.379C341.407 584.67 338.62 590.69 333.444 602.45L330.53 609.065L329.353 611.712L328.201 614.271C327.651 615.483 327.125 616.626 326.558 617.844C325.859 619.346 324.074 619.996 322.572 619.297C321.07 618.598 320.419 616.813 321.118 615.311L322.511 612.288L323.831 609.363L326.701 602.878L329.593 596.318L331.286 592.522L332.535 589.756C335.444 583.366 337.603 578.983 340.205 574.188L340.654 573.365C345.433 564.639 350.184 556.467 355.688 547.408L358.435 542.918L372.133 520.801L372.711 519.859C383.014 503.004 390.034 490.078 396.878 474.624C400.501 466.443 404.161 456.11 408.174 443.136L409.085 440.159C410.202 436.46 411.944 430.499 413.677 424.52L419.343 404.866C419.812 403.277 421.481 402.37 423.07 402.84ZM440.151 419.282C441.715 419.828 442.541 421.538 441.995 423.103L435.276 442.319L428.973 460.239L425.521 470.002C421.994 479.955 418.744 489.061 415.722 497.462L410.345 512.328L409.713 514.061L397.322 547.82L396.286 550.706C393.359 558.978 391.679 565.025 381.119 602.788C380.672 604.384 379.017 605.316 377.422 604.869C375.826 604.423 374.894 602.768 375.34 601.172L382.234 576.56C387.115 559.219 388.543 554.56 390.824 548.157L393.227 541.541L403.585 513.35L406.856 504.356L410.78 493.473L414.54 482.973C420.766 465.534 427.917 445.253 436.33 421.127C436.876 419.563 438.586 418.737 440.151 419.282ZM468.108 412.122C469.691 412.609 470.581 414.287 470.094 415.871L465.618 430.526L465.586 430.663L465.628 430.782C465.73 431.105 465.799 431.463 465.84 431.9L465.861 432.172L465.875 432.488L465.879 432.813L465.875 433.162C465.742 439.117 462.321 457.601 453.568 497.124L451.495 506.431L450.375 511.356C447.987 521.711 445.485 531.673 441.398 547.259L433.778 576.141L432.453 581.22L431.25 585.883C430.987 586.909 430.724 587.941 430.454 589.002C430.045 590.607 428.412 591.578 426.806 591.169C425.201 590.76 424.23 589.127 424.639 587.522L426.707 579.475L428.838 571.331L434.642 549.362L436.672 541.616L438.045 536.329C441.317 523.658 443.455 514.858 445.705 504.83L447.679 495.964L449.459 487.88L450.973 480.919C457.383 451.256 459.899 436.972 459.885 432.965L459.877 432.636L459.829 432.545C459.419 431.724 459.404 430.938 459.617 429.901L459.806 429.003C459.98 428.344 460.701 426.012 464.359 414.109C464.845 412.525 466.524 411.636 468.108 412.122ZM492.371 435.611C493.979 436.012 494.957 437.641 494.555 439.248L489.488 459.595L488.053 465.468C485.881 474.467 485.389 477.263 484.825 481.75L484.326 485.889C483.891 489.712 482.15 505.242 481.141 513.615L480.346 520.133L479.471 527.133L478.888 531.71C477.096 545.682 474.911 561.871 472.196 581.156C471.965 582.797 470.448 583.94 468.807 583.709C467.166 583.478 466.024 581.96 466.255 580.32L467.957 568.132L469.614 556.063L470.847 546.902C472.202 536.75 473.371 527.663 474.391 519.401L475.505 510.202L477.26 494.965C477.891 489.406 478.397 484.9 478.464 484.352L478.94 480.463C479.866 473.221 480.745 469.792 488.734 437.795C489.135 436.187 490.764 435.209 492.371 435.611ZM511.414 413.573C513.01 413.634 514.268 414.931 514.3 416.508L514.298 416.646L513.251 443.127L512.507 463.298C512.362 467.505 512.256 470.89 512.219 472.779L512.205 473.752C512.169 479.29 512.976 518.555 513.25 536.061C513.276 537.718 511.954 539.082 510.298 539.109C508.641 539.133 507.277 537.812 507.251 536.155L506.343 485.162C506.266 480.445 506.214 476.721 506.205 474.703L506.205 473.714C506.227 470.293 506.795 454.847 507.335 440.834L508.302 416.458C508.365 414.802 509.758 413.511 511.414 413.573ZM546.011 389.833C551.199 396.907 556.18 402.919 561.825 409.103L563.014 410.397L566.391 413.982L573.97 422C574.568 422.636 575.106 423.212 575.558 423.699L576.483 424.708C589.998 439.693 596.505 453.642 601.632 482.736C601.92 484.368 600.83 485.924 599.199 486.212C597.567 486.499 596.011 485.41 595.724 483.778L595.426 482.115L595.135 480.536L594.834 478.957C590.151 454.751 584.265 442.535 572.784 429.572L572.028 428.726C569.793 426.249 560.528 416.555 558.309 414.146C552.148 407.458 546.775 401.02 541.173 393.382C540.193 392.046 540.482 390.169 541.818 389.189C543.154 388.209 545.031 388.497 546.011 389.833ZM533.43 400.751L537.924 478.595C538.02 480.25 536.756 481.668 535.102 481.763C533.448 481.859 532.03 480.595 531.934 478.941L527.44 401.097C527.345 399.443 528.608 398.025 530.262 397.929C531.916 397.834 533.335 399.097 533.43 400.751ZM549.957 418.116L566.993 476.405C567.457 477.996 566.545 479.662 564.955 480.126C563.364 480.591 561.698 479.679 561.234 478.088L544.198 419.8C543.733 418.209 544.646 416.543 546.236 416.078C547.826 415.614 549.492 416.526 549.957 418.116Z" fill="#5463AC"/>
<path opacity="0.5" fill-rule="evenodd" clip-rule="evenodd" d="M444.403 396.094L491.046 425.03L520.403 391.099L500.066 376.505L488.015 396.094L467.242 376.505L460.715 374L444.403 396.094Z" fill="#21396E"/>
<path opacity="0.5" fill-rule="evenodd" clip-rule="evenodd" d="M596.706 624.232C602.402 709.792 625.426 756.19 665.779 763.427H579.368L584.679 659.416L596.706 624.232Z" fill="#21396E"/>
<path opacity="0.5" fill-rule="evenodd" clip-rule="evenodd" d="M522.25 659.416C527.612 686.008 515.769 703.401 486.72 711.595C443.147 723.885 396.83 778.668 335.185 778.668C294.088 778.668 249.49 778.623 201.391 778.532C235.179 768.453 271.307 756.83 309.775 743.665C348.243 730.499 405.558 710.142 481.721 682.593C487.084 679.032 489.972 675.366 490.387 671.596C490.801 667.826 491.008 665.941 491.008 665.941C498.849 663.479 504.73 661.839 508.651 661.02C512.571 660.201 517.104 659.667 522.25 659.416Z" fill="#21396E"/>
<path opacity="0.5" fill-rule="evenodd" clip-rule="evenodd" d="M339.971 476.34L346.204 612.679L281.118 630.495L339.971 476.34Z" fill="#21396E"/>
<path fill-rule="evenodd" clip-rule="evenodd" d="M516.25 511.668H605.25L594.454 652.373C594.21 655.552 592.102 658.282 589.088 659.323C583.216 661.35 573.769 662.364 560.75 662.364L559.291 662.36C547.022 662.286 538.062 661.274 532.411 659.323C529.397 658.282 527.289 655.552 527.045 652.373L516.25 511.668Z" fill="#E2E0E0"/>
<path fill-rule="evenodd" clip-rule="evenodd" d="M605.25 511.668L594.454 652.373C594.211 655.552 592.102 658.282 589.089 659.323C583.216 661.35 573.77 662.364 560.75 662.364C551.287 662.364 550.075 612.258 557.115 512.048L605.25 511.668Z" fill="white"/>
<path fill-rule="evenodd" clip-rule="evenodd" d="M518.403 496.668H602.403C605.717 496.668 608.403 499.355 608.403 502.668V511.668H512.403V502.668C512.403 499.355 515.089 496.668 518.403 496.668Z" fill="#80424C"/>
<path fill-rule="evenodd" clip-rule="evenodd" d="M528.25 481.668H592.25C595.563 481.668 598.25 484.355 598.25 487.668V496.668H522.25V487.668C522.25 484.355 524.936 481.668 528.25 481.668Z" fill="#80424C"/>
<path fill-rule="evenodd" clip-rule="evenodd" d="M568.25 496.668H602.25C605.563 496.668 608.25 499.355 608.25 502.668V511.668H562.25V502.668C562.25 499.355 564.936 496.668 568.25 496.668Z" fill="#8E545E"/>
<path fill-rule="evenodd" clip-rule="evenodd" d="M578.25 481.668H592.25C595.563 481.668 598.25 484.355 598.25 487.668V496.668H572.25V487.668C572.25 484.355 574.936 481.668 578.25 481.668Z" fill="#8E545E"/>
<path d="M598.249 494.668C599.354 494.668 600.249 495.564 600.249 496.668C600.249 497.723 599.434 498.587 598.399 498.663L598.249 498.668H540.592C539.487 498.668 538.592 497.773 538.592 496.668C538.592 495.614 539.408 494.75 540.443 494.674L540.592 494.668H598.249Z" fill="#5F2932"/>
<path d="M608.06 509.168C609.165 509.168 610.06 510.064 610.06 511.168C610.06 512.223 609.245 513.087 608.21 513.163L608.06 513.168H524.403C523.298 513.168 522.403 512.273 522.403 511.168C522.403 510.114 523.219 509.25 524.254 509.174L524.403 509.168H608.06Z" fill="#5F2932"/>
<path fill-rule="evenodd" clip-rule="evenodd" d="M511.847 303.993C510.502 312.656 509.829 320.322 509.829 326.99L506.63 361.951L489.585 395.473L453.731 381.802L396.146 329.487L385.547 306.153C407.753 266.131 420.975 230.912 425.213 200.497L484.092 189.867L520.598 261.884L511.847 303.993Z" fill="#FDB4A3"/>
<path fill-rule="evenodd" clip-rule="evenodd" d="M429.06 211.249C429.969 258.412 439.179 286.02 456.691 294.073C482.959 306.153 531.743 323.056 540.88 306.153C550.018 289.249 569.6 249.053 577.103 226.022C582.104 210.668 588.44 190.865 596.11 166.613C606.431 135.99 594.389 116.199 559.987 107.239C525.584 98.2795 480.66 93.8588 425.214 93.9772L438.849 173.938C432.135 164.881 423.258 160.352 412.217 160.352C395.655 160.352 386.564 201.608 403.552 206.428C414.877 209.642 423.38 211.249 429.06 211.249Z" fill="#FDB4A3"/>
<path d="M506.801 257.412C507.679 256.741 508.934 256.908 509.605 257.785C517.942 268.674 528.146 273.071 540.48 271.145C541.571 270.974 542.594 271.721 542.764 272.812C542.935 273.903 542.188 274.926 541.097 275.097C527.276 277.256 515.633 272.239 506.429 260.216C505.758 259.339 505.924 258.084 506.801 257.412Z" fill="#583E40"/>
<path fill-rule="evenodd" clip-rule="evenodd" d="M424.496 210.561C431.445 213.843 434.106 221.045 432.479 232.168L432.403 232.668C429.73 249.78 438.263 274.714 443.523 284.394C447.03 290.848 469.273 299.762 510.252 311.136L486.971 314.491C475.775 316.104 468.007 326.488 469.621 337.683C469.73 338.441 469.881 339.192 470.074 339.932L470.227 340.485C474.507 355.193 489.285 361.953 489.58 394.479L489.585 395.472L453.731 381.802L396.146 329.487L385.547 306.153C405.108 270.898 417.698 239.37 423.316 211.57L424.496 210.561Z" fill="#F69883"/>
<path fill-rule="evenodd" clip-rule="evenodd" d="M449.084 385.705L491.27 425.03L516.834 381.23L498.705 368.158L487.962 385.705L469.444 368.158L463.626 365.915L449.084 385.705Z" fill="#D8D8D8"/>
<path fill-rule="evenodd" clip-rule="evenodd" d="M606.084 530.904C611.998 533.271 612.523 536.115 612.523 538.711C612.523 541.306 603.148 547.906 597.341 549.556C591.533 551.206 563.19 579.479 563.19 579.479L564.374 578.796C583.56 567.765 595.116 562.64 599.042 563.421C605.051 564.618 609.015 574.046 603.956 578.497L603.572 578.829C601.167 580.872 596.917 583.883 590.822 587.86L590.55 588.037L590.707 587.949C596.985 584.446 601.067 583.402 602.955 584.817C607.07 587.9 609.684 593.652 609.684 596.356C609.684 598.158 607.028 600.793 601.716 604.259C606.713 609.545 605.821 615.081 599.042 620.868L598.402 621.405C587.477 630.438 553.561 652.031 546.46 655.178C540.139 657.98 514.307 658.102 491.008 665.941C494.523 647.382 489.954 623.275 477.303 593.62L476.476 591.702C475.821 590.194 474.957 588.834 473.933 587.643L474.868 587.336C482.841 584.694 487.207 582.611 487.967 581.085C489.479 578.048 493.953 552.448 496.671 551.206L496.821 551.133C498.851 550.098 505.921 544.737 518.028 535.05L520.864 572.971L536.528 563.593C554.822 552.604 566.151 545.64 570.514 542.703L570.992 542.378C578.435 537.267 600.17 528.537 606.084 530.904ZM590.359 588.162L590.549 588.038L590.35 588.15C587.59 589.71 584.416 591.734 580.83 594.22L583.23 592.717C585.83 591.082 588.206 589.563 590.359 588.162Z" fill="#FDB4A3"/>
<path d="M339.132 473.084C339.519 472.05 340.672 471.525 341.706 471.912C342.691 472.28 343.215 473.343 342.928 474.337L342.879 474.486L285.449 628.04L285.677 627.996C299.908 625.15 354.443 610.156 447.789 583.378L456.833 580.782C465.518 578.287 474.707 582.617 478.31 590.904C493.276 625.321 497.673 652.602 491.36 672.799C489.421 679.004 484.717 683.96 478.622 686.222C287.693 757.071 201.669 784.616 178.215 784.616C177.11 784.616 176.215 783.721 176.215 782.616C176.215 781.512 177.11 780.616 178.215 780.616C200.938 780.616 287.056 753.041 477.231 682.472C482.165 680.641 485.972 676.628 487.542 671.606C493.514 652.503 489.261 626.118 474.642 592.499C471.839 586.054 464.693 582.686 457.938 584.626L438.453 590.216C339.724 618.488 288.337 632.429 282.419 632.495C281.064 632.51 280.102 631.208 280.476 629.935L280.523 629.794L339.132 473.084Z" fill="#21396E"/>
<path d="M281.941 628.547C283.017 628.296 284.093 628.964 284.344 630.039C284.584 631.066 283.986 632.093 282.996 632.403L282.851 632.442L206.375 650.311C205.3 650.563 204.224 649.894 203.973 648.819C203.733 647.792 204.331 646.765 205.321 646.456L205.465 646.416L281.941 628.547Z" fill="#21396E"/>
<path d="M584.791 668.154C585.844 668.213 586.661 669.076 586.679 670.114L586.676 670.263L580.649 777.73C580.587 778.833 579.643 779.677 578.54 779.615C577.487 779.556 576.671 778.693 576.652 777.656L576.655 777.506L582.683 670.039C582.742 668.986 583.605 668.169 584.642 668.151L584.791 668.154Z" fill="#21396E"/>
<path fill-rule="evenodd" clip-rule="evenodd" d="M469.445 367.85C452.074 380.6 444.123 397.325 445.591 418.025C402.054 374.86 377.402 345.872 371.636 331.062C376.668 315.831 381.306 307.528 385.548 306.153L469.445 367.85Z" fill="white"/>
<path fill-rule="evenodd" clip-rule="evenodd" d="M498.705 368.158C511.284 380.832 517.573 394.828 517.573 410.147C524.837 397.191 526.765 373.915 523.357 340.317L510.053 326.397L504.969 340.317L498.705 368.158Z" fill="white"/>
<path d="M553.799 203.853L553.948 203.86C555.049 203.951 555.867 204.918 555.775 206.019C554.8 217.718 554.737 226.638 555.246 236.844L555.414 239.928C555.487 241.177 555.603 243.168 555.637 243.803L555.696 244.967C555.736 245.815 555.762 246.538 555.774 247.197L555.782 247.748L555.791 248.852L554.861 249.448C545.686 255.329 537.063 254.353 529.645 246.576C528.882 245.777 528.912 244.511 529.711 243.748C530.511 242.986 531.777 243.016 532.539 243.815C538.258 249.811 544.344 250.824 551.337 246.901L551.759 246.658L551.73 245.809C551.721 245.596 551.711 245.373 551.7 245.14L551.365 239.201C550.729 227.908 550.729 218.399 551.789 205.687C551.876 204.636 552.761 203.843 553.799 203.853Z" fill="#2E363A"/>
<path fill-rule="evenodd" clip-rule="evenodd" d="M505.642 169.35L507.282 168.43L508.897 167.537C525.014 158.69 534.674 155.491 537.878 157.942C543.487 162.232 537.569 173.335 524.909 174.499C518.951 175.047 513.105 174.868 507.37 173.962L506.415 173.805C505.109 173.579 504.233 172.338 504.458 171.032C504.581 170.322 505.015 169.705 505.642 169.35Z" fill="#2E363A"/>
<path fill-rule="evenodd" clip-rule="evenodd" d="M598.42 185.224L597.314 184.058L596.516 183.224C585.425 171.703 578.218 166.51 574.896 167.646C569.13 169.616 571.048 180.063 581.17 184.309C585.935 186.308 590.8 187.694 595.767 188.468L596.596 188.592C597.733 188.753 598.786 187.987 598.948 186.882C599.036 186.281 598.843 185.672 598.42 185.224Z" fill="#2E363A"/>
<path fill-rule="evenodd" clip-rule="evenodd" d="M402.878 272.543C402.464 252.067 395.004 227.13 380.497 197.733C358.737 153.638 362.921 76.4798 422.986 63.2363C438.571 31.1077 466.405 20.9504 506.489 32.7642L508.873 33.4689C547.448 44.9116 568.685 53.0501 572.586 57.8843L573.273 55.893C576.201 47.3611 577.664 42.3117 577.664 40.7447C577.664 38.217 609.993 61.844 614.813 77.9094L619.68 71.0241C644.268 97.2901 641.363 129.828 610.965 168.637L589.002 189.085L596.036 166.345L595.706 166.064C592.725 163.464 587.932 157.55 581.324 148.322C571.504 148.147 563.503 146.297 557.322 142.772L555.104 142.461C538.111 140.017 527.043 137.084 521.9 133.661C507.02 156.347 490.352 167.554 471.895 167.283L462.657 195.579C459.869 204.118 451.405 209.445 442.53 208.303L442.175 208.254L438.849 173.938C428.417 162.822 417.571 160.291 406.312 166.345C389.424 175.425 389.424 210.561 424.496 210.561L417.878 238.743L402.878 272.543Z" fill="#2E363A"/>
<path fill-rule="evenodd" clip-rule="evenodd" d="M527.101 203.886C529.82 204.365 532.608 201.447 533.327 197.368C534.047 193.289 532.425 189.593 529.706 189.114C526.986 188.634 524.198 191.552 523.479 195.632C522.76 199.711 524.381 203.406 527.101 203.886Z" fill="#2E363A"/>
<path fill-rule="evenodd" clip-rule="evenodd" d="M572.101 211.886C574.82 212.365 577.608 209.447 578.327 205.368C579.047 201.289 577.425 197.593 574.706 197.114C571.986 196.634 569.198 199.552 568.479 203.632C567.76 207.711 569.381 211.406 572.101 211.886Z" fill="#2E363A"/>
<path fill-rule="evenodd" clip-rule="evenodd" d="M825.009 504.668H1199.32C1204.84 504.668 1209.32 509.146 1209.32 514.668C1209.32 515.955 1209.07 517.229 1208.59 518.421L1097.4 793.033H691.403L801.836 520.286C805.658 510.846 814.824 504.668 825.009 504.668Z" fill="#B6D4E5"/>
<path fill-rule="evenodd" clip-rule="evenodd" d="M501.403 764.032H732.403V793.032H526.403C512.596 793.032 501.403 781.84 501.403 768.032V764.032Z" fill="#B6D4E5"/>
<path d="M410.787 178.303C415.686 173.404 423.629 173.404 428.527 178.303C429.309 179.084 429.309 180.35 428.527 181.131C427.746 181.912 426.48 181.912 425.699 181.131C422.362 177.794 416.953 177.794 413.616 181.131C410.279 184.468 410.279 189.878 413.616 193.214C414.397 193.995 414.397 195.262 413.616 196.043C412.835 196.824 411.568 196.824 410.787 196.043C405.889 191.144 405.889 183.201 410.787 178.303Z" fill="#583E40"/>
<path fill-rule="evenodd" clip-rule="evenodd" d="M846.009 505H1220.32C1225.85 505 1230.32 509.477 1230.32 515C1230.32 516.286 1230.07 517.561 1229.59 518.753L1127 772.124C1121.8 784.962 1109.34 793.364 1095.49 793.364H727.241C721.718 793.364 717.241 788.887 717.241 783.364C717.241 782.078 717.489 780.804 717.972 779.611L822.836 520.618C826.659 511.178 835.825 505 846.009 505Z" fill="#E9F0F6"/>
<path d="M639.022 471.787C640.125 471.737 641.06 472.59 641.111 473.693L641.211 475.995C642.706 512.285 640.767 559.097 635.395 616.447L634.804 622.649L635.124 622.874C642.769 628.285 646.66 633.665 646.531 639.135L646.52 639.439C645.972 650.223 637.238 665.824 620.747 680.795C619.929 681.538 618.665 681.477 617.922 680.659C617.18 679.841 617.241 678.576 618.059 677.834C633.825 663.52 642.036 648.852 642.525 639.236C642.735 635.105 639.198 630.406 631.585 625.292C630.975 624.882 630.639 624.17 630.71 623.438L631.24 617.909C636.842 558.667 638.799 510.651 637.115 473.876C637.065 472.773 637.918 471.838 639.022 471.787Z" fill="#21396E"/>
<path d="M641.735 648.243C647.536 648.036 652.359 648.448 656.218 649.497C662.617 651.235 665.117 657.942 665.117 670.151C665.117 673.541 663.195 676.971 659.615 680.865C657.943 682.683 656.067 684.459 653.35 686.849L649.74 690.002C642.209 696.625 640.207 698.909 640.529 700.563L640.562 700.701C640.858 701.765 640.235 702.868 639.171 703.163C638.106 703.459 637.004 702.836 636.708 701.772C635.973 699.126 637.35 696.453 640.391 693.195C641.516 691.989 642.874 690.699 644.648 689.12L645.87 688.044L649.51 684.893C652.799 682.037 654.887 680.097 656.67 678.158C659.631 674.937 661.117 672.286 661.117 670.151C661.117 659.579 659.206 654.454 655.169 653.357C651.743 652.426 647.307 652.047 641.877 652.241C640.774 652.28 639.847 651.417 639.807 650.313C639.768 649.209 640.631 648.282 641.735 648.243Z" fill="#21396E"/>
<path d="M663.815 669.776C664.022 668.691 665.069 667.979 666.154 668.186L668.518 668.635C689.266 672.555 706.528 675.327 720.297 676.95C721.394 677.08 722.179 678.074 722.049 679.171C721.92 680.268 720.926 681.052 719.829 680.923C705.434 679.226 687.295 676.29 665.405 672.116C664.32 671.909 663.608 670.861 663.815 669.776Z" fill="#21396E"/>
<path d="M432.19 230.68C433.288 230.562 434.274 231.357 434.392 232.455L434.611 234.453C438.235 266.804 444.125 285.564 451.735 290.384C460.005 295.621 473.269 300.298 491.482 304.361C492.56 304.602 493.239 305.671 492.998 306.749C492.758 307.827 491.689 308.506 490.611 308.265C471.987 304.111 458.33 299.295 449.595 293.763C440.357 287.912 434.156 267.742 430.414 232.882C430.297 231.784 431.091 230.798 432.19 230.68Z" fill="#583E40"/>
<path fill-rule="evenodd" clip-rule="evenodd" d="M966.418 677C981.632 677 996.197 664.688 998.951 649.5C1001.7 634.312 991.603 622 976.389 622C961.175 622 946.609 634.312 943.856 649.5C941.102 664.688 951.204 677 966.418 677Z" fill="#B6D4E5"/>
<path fill-rule="evenodd" clip-rule="evenodd" d="M530.677 590.986L531.932 591.833C544.742 600.548 549.885 607.862 549.885 624.232C549.885 635.487 556.349 642.905 552.984 651.65L551.181 652.688C549.131 653.852 547.505 654.715 546.46 655.178C540.139 657.98 514.307 658.102 491.008 665.941C494.523 647.382 489.954 623.275 477.303 593.62L476.476 591.702C475.821 590.194 474.957 588.834 473.933 587.643L474.868 587.336L476.212 586.884C483.332 584.456 487.251 582.523 487.967 581.085C489.479 578.048 493.953 552.448 496.671 551.206L496.821 551.133L496.996 551.04C499.237 549.805 506.248 544.476 518.028 535.051L520.864 572.971C518.758 579.089 522.029 585.094 530.677 590.986Z" fill="#F69883"/>
<path d="M552.901 551.331C553.84 550.749 555.073 551.039 555.655 551.977C556.208 552.869 555.974 554.027 555.145 554.639L555.009 554.731L513.457 580.491C512.518 581.073 511.285 580.784 510.703 579.845C510.15 578.954 510.384 577.796 511.213 577.184L511.349 577.092L552.901 551.331Z" fill="#583E40"/>
<path d="M591.016 585.298C591.965 584.733 593.193 585.043 593.758 585.992C594.295 586.894 594.042 588.047 593.201 588.645L593.064 588.734L570.445 602.214C569.496 602.779 568.268 602.469 567.703 601.52C567.165 600.618 567.419 599.465 568.259 598.868L568.397 598.778L591.016 585.298Z" fill="#583E40"/>
<path d="M600.724 603.223C601.695 602.696 602.909 603.056 603.436 604.027C603.938 604.951 603.635 606.097 602.767 606.659L602.632 606.739L583.356 617.2C582.385 617.727 581.171 617.367 580.644 616.397C580.142 615.472 580.445 614.327 581.313 613.765L581.448 613.685L600.724 603.223Z" fill="#583E40"/>
<path d="M589.672 564.113C590.665 563.63 591.863 564.042 592.346 565.035C592.807 565.981 592.454 567.112 591.562 567.635L591.424 567.709L554.83 585.536C553.837 586.02 552.64 585.607 552.157 584.614C551.696 583.668 552.048 582.538 552.941 582.014L553.079 581.94L589.672 564.113Z" fill="#583E40"/>
<path d="M384.915 304.255C385.962 303.906 387.095 304.472 387.445 305.52C387.794 306.568 387.228 307.7 386.18 308.05C379.84 310.165 375.624 316.3 373.599 326.777C373.39 327.861 372.341 328.57 371.256 328.361C370.172 328.151 369.462 327.102 369.672 326.018C371.945 314.255 377.004 306.894 384.915 304.255Z" fill="#D8D8D8"/>
<path d="M878.904 529C868.204 529 856.434 536.594 852.615 545.963L852.519 546.203C849.639 553.558 852.553 559.911 859.455 562.109L859.541 562.135L859.502 562.164C851.12 568.21 844.653 575.913 841.328 584.071C841.222 584.331 841.119 584.592 841.02 584.852L840.892 585.191L840.755 585.569L840.634 585.912L840.536 586.199L840.365 586.722L840.195 587.274L840.045 587.789L839.894 588.342L839.794 588.734L839.678 589.214L839.598 589.572L839.526 589.913C838.191 596.386 839.186 602.298 842.287 607.023L842.356 607.126L842.282 607.131C832.037 607.839 821.233 615.138 817.605 624.037C813.787 633.406 819.365 641 830.066 641C840.766 641 852.536 633.406 856.355 624.037L856.471 623.746C857.412 621.322 857.738 618.977 857.462 616.834L857.761 616.902C860.351 617.472 863.135 617.763 866.078 617.763L866.484 617.762C872.452 617.708 878.697 616.471 884.816 614.184L885.142 614.06L885.096 614.137C884.513 615.097 884.017 616.076 883.614 617.066C879.795 626.435 885.373 634.029 896.074 634.029C906.774 634.029 918.544 626.435 922.363 617.066C926.182 607.698 920.603 600.104 909.903 600.104L909.537 600.107C908.682 600.12 907.816 600.182 906.938 600.291L907.175 600.062C912.157 595.2 915.986 589.738 918.296 584.071L918.491 583.583C918.809 582.77 919.092 581.961 919.341 581.155L919.463 580.751L919.711 580.826C921.289 581.28 923.034 581.515 924.911 581.515C935.612 581.515 947.382 573.92 951.2 564.552C955.019 555.184 949.44 547.589 938.74 547.589L938.471 547.591C930.193 547.69 921.151 552.324 915.805 558.964L915.76 559.02L915.603 558.84L915.412 558.627L915.001 558.187L914.663 557.844L914.284 557.477L913.974 557.19L913.641 556.894L913.297 556.601L912.987 556.346L912.55 556.004L912.235 555.768L911.871 555.505L911.592 555.311L911.402 555.182L911.068 554.962L910.654 554.701L910.218 554.438L910.128 554.385L909.686 554.134L909.381 553.967L908.892 553.71L908.346 553.44L908.018 553.285L907.564 553.079C907.374 552.995 907.192 552.917 907.007 552.841L906.493 552.633L905.966 552.433L905.503 552.266L905.142 552.142L904.574 551.957L903.995 551.782L903.751 551.711L903.258 551.576L902.706 551.434L902.474 551.378L901.856 551.236L901.281 551.115L900.729 551.008L900.187 550.912L899.554 550.812L899.055 550.74L898.526 550.672L898.17 550.63L897.9 550.601L897.374 550.549L897.013 550.518L896.624 550.487L896.003 550.447L895.531 550.423L895.154 550.407L894.858 550.397L894.326 550.385L893.882 550.379L893.578 550.378L893.004 550.381L892.454 550.391C891.353 550.417 890.246 550.484 889.132 550.589L888.719 550.63L888.723 550.625C889.825 549.123 890.715 547.557 891.365 545.963C895.183 536.594 889.605 529 878.904 529Z" fill="#B6D4E5"/>
<path d="M880.305 529C890.376 529 895.624 536.057 892.028 544.762C891.211 546.739 889.995 548.665 888.44 550.468C887.834 551.17 888.222 551.902 889.133 551.776C891.187 551.492 893.222 551.336 895.226 551.312L895.811 551.309L896.11 551.31L896.555 551.316L897.091 551.328L897.381 551.338L897.759 551.354L898.23 551.378L898.855 551.418L899.241 551.447L899.598 551.478L900.13 551.529L900.395 551.558L900.75 551.599L901.28 551.667L901.777 551.737L902.412 551.836L902.951 551.931L903.502 552.036L904.076 552.155L904.699 552.296L904.92 552.35L905.478 552.491L905.972 552.625L906.208 552.692L906.79 552.866L907.36 553.049L907.716 553.17L908.179 553.334L908.706 553.533L909.227 553.74C909.403 553.813 909.584 553.889 909.768 553.969L910.229 554.176L910.552 554.327L911.101 554.595L911.591 554.848L911.891 555.01L912.34 555.263L912.86 555.571L913.274 555.829L913.609 556.047L913.795 556.171L914.073 556.363L914.439 556.624L914.751 556.854L915.191 557.195L915.498 557.444L915.842 557.733L916.176 558.026L916.484 558.308L916.864 558.671L917.2 559.008L917.616 559.448L917.65 559.486C918.057 559.931 918.442 560.392 918.804 560.868C919.206 561.396 920.363 561.138 920.872 560.407C925.74 553.409 935.096 548.399 943.546 548.399C953.617 548.399 958.866 555.456 955.27 564.161C951.674 572.866 940.595 579.923 930.524 579.923C928.093 579.923 925.899 579.512 924.029 578.723C923.345 578.435 922.244 579.013 922.061 579.758C921.675 581.33 921.149 582.925 920.486 584.53C917.84 590.935 913.206 597.07 907.129 602.354C906.262 603.107 906.689 604.054 907.784 603.808C909.565 603.407 911.334 603.202 913.053 603.202C923.124 603.202 928.373 610.258 924.777 618.964C921.181 627.669 910.102 634.725 900.031 634.725C889.96 634.725 884.712 627.669 888.307 618.964C888.984 617.326 889.934 615.723 891.126 614.195C891.79 613.344 891.022 612.611 889.946 613.069C882.785 616.118 875.36 617.751 868.329 617.751C864.41 617.751 860.772 617.241 857.504 616.249C856.613 615.979 855.372 616.939 855.627 617.701C856.471 620.225 856.274 623.165 855.005 626.238C851.409 634.943 840.33 642 830.259 642C820.189 642 814.94 634.943 818.536 626.238C822.132 617.533 833.211 610.476 843.281 610.476C843.622 610.476 843.958 610.484 844.289 610.5C845.316 610.55 846.32 609.441 845.809 608.823C841.691 603.848 840.276 597.255 841.89 589.958L841.971 589.603L842.086 589.129L842.186 588.745L842.337 588.197L842.486 587.691L842.657 587.145L842.829 586.627L842.926 586.347L843.046 586.009L843.184 585.635L843.313 585.296C843.411 585.045 843.514 584.787 843.62 584.53C847.162 575.956 854.263 567.895 863.451 561.775C864.276 561.226 864.324 560.323 863.538 560.163C855.87 558.601 852.482 552.212 855.559 544.762C859.155 536.057 870.234 529 880.305 529Z" fill="white"/>
<path fill-rule="evenodd" clip-rule="evenodd" d="M869.306 612C887.246 612 906.981 599.464 913.386 584C919.79 568.536 910.439 556 892.499 556C874.56 556 854.825 568.536 848.42 584C842.016 599.464 851.367 612 869.306 612Z" fill="#719CFD"/>
<path fill-rule="evenodd" clip-rule="evenodd" d="M893.181 557C901.235 557 907.531 559.545 911.403 563.746C911.084 565 910.655 566.281 910.111 567.582C903.783 582.725 884.313 595 866.625 595C858.571 595 852.275 592.455 848.403 588.254C848.722 587 849.151 585.719 849.695 584.418C856.023 569.275 875.493 557 893.181 557Z" fill="#B9CDFF"/>
<path fill-rule="evenodd" clip-rule="evenodd" d="M900.702 629C907.202 629 914.352 624.299 916.672 618.5C918.993 612.701 915.605 608 909.105 608C902.605 608 895.455 612.701 893.134 618.5C890.814 624.299 894.202 629 900.702 629Z" fill="#F6BE67"/>
<path fill-rule="evenodd" clip-rule="evenodd" d="M869.702 556C876.202 556 883.352 551.299 885.672 545.5C887.993 539.701 884.605 535 878.105 535C871.605 535 864.455 539.701 862.134 545.5C859.814 551.299 863.202 556 869.702 556Z" fill="#3CB49F"/>
<path fill-rule="evenodd" clip-rule="evenodd" d="M831.702 635C838.202 635 845.352 630.299 847.672 624.5C849.993 618.701 846.605 614 840.105 614C833.605 614 826.455 618.701 824.134 624.5C821.814 630.299 825.202 635 831.702 635Z" fill="#4757A4"/>
<path fill-rule="evenodd" clip-rule="evenodd" d="M932.702 574C939.202 574 946.352 569.299 948.672 563.5C950.993 557.701 947.605 553 941.105 553C934.605 553 927.455 557.701 925.134 563.5C922.814 569.299 926.202 574 932.702 574Z" fill="#E9525B"/>
<path d="M430.467 65.429C430.745 64.3598 431.836 63.7182 432.906 63.9958C470.275 73.6998 495.972 93.358 509.828 122.929C510.297 123.929 509.866 125.119 508.866 125.588C507.866 126.057 506.675 125.626 506.206 124.626C492.882 96.1911 468.169 77.2856 431.9 67.8674C430.831 67.5898 430.189 66.4981 430.467 65.429Z" fill="white"/>
<path d="M885.136 669C888.614 669 891.103 670.485 892.15 672.796C894.993 670.559 898.554 669.097 901.933 669.005L902.27 669H929.403L919.294 693.701C917.999 696.867 915.214 699.686 911.933 701.5C913.671 703.256 914.174 705.952 913.031 708.994L912.911 709.299L902.802 734H875.67C872.192 734 869.703 732.515 868.656 730.204C865.812 732.441 862.251 733.903 858.873 733.995L858.535 734H831.403L841.511 709.299C842.807 706.133 845.592 703.314 848.873 701.5C847.134 699.744 846.632 697.048 847.775 694.006L847.895 693.701L858.004 669H885.136Z" fill="#B6D4E5"/>
<path d="M889.136 669C892.614 669 895.103 670.485 896.15 672.796C898.993 670.559 902.554 669.097 905.933 669.005L906.27 669H933.403L923.294 693.701C921.999 696.867 919.214 699.686 915.933 701.5C917.671 703.256 918.174 705.952 917.031 708.994L916.911 709.299L906.802 734H879.67C876.192 734 873.703 732.515 872.656 730.204C869.812 732.441 866.251 733.903 862.873 733.995L862.535 734H835.403L845.511 709.299C846.807 706.133 849.592 703.314 852.873 701.5C851.134 699.744 850.632 697.048 851.775 694.006L851.895 693.701L862.004 669H889.136Z" fill="white"/>
<path d="M908.017 703H885.294L876.828 723.348C875.557 726.403 877.229 728.892 880.569 728.997L880.789 729H903.512L911.977 708.652C913.248 705.597 911.577 703.108 908.237 703.003L908.017 703Z" fill="#229581"/>
<path d="M880.403 703H858.166C854.827 703 851.12 705.424 849.772 708.454L849.688 708.652L841.403 729H863.64L863.858 728.997C867.139 728.894 870.715 726.51 872.034 723.546L872.118 723.348L880.403 703Z" fill="#229581"/>
<path d="M926.403 674H904.166C900.827 674 897.12 676.424 895.772 679.454L895.688 679.652L887.403 700H909.64L909.858 699.997C913.139 699.894 916.715 697.51 918.034 694.546L918.118 694.348L926.403 674Z" fill="#229581"/>
<path d="M887.017 674H864.294L855.828 694.348C854.557 697.403 856.229 699.892 859.569 699.997L859.789 700H882.512L890.977 679.652L891.056 679.454C892.175 676.49 890.504 674.106 887.237 674.003L887.017 674Z" fill="#229581"/>
<path d="M1170.26 572.808C1167.19 567.695 1158.9 567.696 1151.73 572.811L1151.52 572.968C1147.91 575.603 1145.23 579.114 1143.96 582.645L1143.9 582.822L1131.55 586.622L1131.49 586.457C1130.27 583.419 1127.29 581.559 1123.24 581.56L1122.94 581.563C1122.55 581.572 1122.14 581.598 1121.74 581.642L1121.54 581.665L1120.22 561.84L1120.36 561.731C1126.65 556.586 1129.42 548.971 1126.54 544.165C1123.48 539.052 1115.19 539.054 1108.02 544.169L1107.73 544.38C1107.15 544.807 1106.59 545.258 1106.06 545.73L1105.93 545.845L1094.19 544.381L1094.24 544.177C1095.86 537.853 1092.36 532.999 1085.77 533C1078.54 533.001 1070.33 538.865 1067.42 546.098C1064.52 553.33 1068.03 559.192 1075.26 559.191L1075.49 559.189C1079.71 559.115 1084.35 557.054 1088.05 553.773L1088.27 553.571L1099.93 555.024L1099.89 555.148C1099.13 557.957 1099.35 560.612 1100.59 562.688L1100.68 562.84C1102.46 565.648 1105.91 566.902 1109.96 566.424L1110.16 566.398L1111.47 586.127L1111.39 586.191C1108.48 588.52 1106.15 591.498 1104.89 594.657L1104.8 594.868C1102.91 599.773 1103.97 604.115 1107.29 606.288L1107.43 606.377L1101.78 618.496L1101.75 618.504C1099.88 619.155 1098.01 620.127 1096.25 621.388C1089.08 626.503 1085.75 634.794 1088.81 639.908C1091.87 645.021 1100.17 645.019 1107.33 639.904C1114.5 634.789 1117.83 626.498 1114.77 621.385L1114.65 621.201C1113.89 620.001 1112.81 619.077 1111.48 618.459L1111.25 618.355L1116.42 607.275L1116.45 607.267C1122.17 605.83 1127.81 601.346 1130.51 595.925L1130.66 595.619L1144.35 591.406L1144.3 591.331C1147.36 596.444 1155.65 596.442 1162.82 591.327C1169.99 586.212 1173.32 577.921 1170.26 572.808Z" fill="#B6D4E5"/>
<path d="M1172.26 572.808C1169.19 567.695 1160.9 567.696 1153.73 572.811L1153.52 572.968C1149.91 575.603 1147.23 579.114 1145.96 582.645L1145.9 582.822L1133.55 586.622L1133.49 586.457C1132.27 583.419 1129.29 581.559 1125.24 581.56L1124.94 581.563C1124.55 581.572 1124.14 581.598 1123.74 581.642L1123.54 581.665L1122.22 561.84L1122.36 561.731C1128.65 556.586 1131.42 548.971 1128.54 544.165C1125.48 539.052 1117.19 539.054 1110.02 544.169L1109.73 544.38C1109.15 544.807 1108.59 545.258 1108.06 545.73L1107.93 545.845L1096.19 544.381L1096.24 544.177C1097.86 537.853 1094.36 532.999 1087.77 533C1080.54 533.001 1072.33 538.865 1069.42 546.098C1066.52 553.33 1070.03 559.192 1077.26 559.191L1077.49 559.189C1081.71 559.115 1086.35 557.054 1090.05 553.773L1090.27 553.571L1101.93 555.024L1101.89 555.148C1101.13 557.957 1101.35 560.612 1102.59 562.688L1102.68 562.84C1104.46 565.648 1107.91 566.902 1111.96 566.424L1112.16 566.398L1113.47 586.127L1113.39 586.191C1110.48 588.52 1108.15 591.498 1106.89 594.657L1106.8 594.868C1104.91 599.773 1105.97 604.115 1109.29 606.288L1109.43 606.377L1103.78 618.496L1103.75 618.504C1101.88 619.155 1100.01 620.127 1098.25 621.388C1091.08 626.503 1087.75 634.794 1090.81 639.908C1093.87 645.021 1102.17 645.019 1109.33 639.904C1116.5 634.789 1119.83 626.498 1116.77 621.385L1116.65 621.201C1115.89 620.001 1114.81 619.077 1113.48 618.459L1113.25 618.355L1118.42 607.275L1118.45 607.267C1124.17 605.83 1129.81 601.346 1132.51 595.925L1132.66 595.619L1146.35 591.406L1146.3 591.331C1149.36 596.444 1157.65 596.442 1164.82 591.327C1171.99 586.212 1175.32 577.921 1172.26 572.808Z" fill="white"/>
<path d="M1157.38 582.036C1158.4 581.72 1159.2 582.194 1159.16 583.094C1159.11 583.964 1158.3 584.913 1157.32 585.262L1157.21 585.297L1119.18 596.996C1118.26 597.279 1117.51 596.928 1117.41 596.182L1117.41 596.098L1114.57 553.481L1077.72 548.881C1076.85 548.773 1076.51 547.967 1076.93 547.059L1076.98 546.961C1077.46 546.046 1078.53 545.383 1079.42 545.44L1079.51 545.449L1117.27 550.163C1117.79 550.229 1118.15 550.56 1118.22 551.047L1118.23 551.147L1121.03 593.216L1157.38 582.036Z" fill="#B9CDFF"/>
<path d="M1120.07 593.64C1120.96 593.7 1121.36 594.467 1120.99 595.376L1120.94 595.477L1105.67 628.218C1105.23 629.17 1104.12 629.892 1103.19 629.83C1102.29 629.77 1101.9 629.003 1102.27 628.095L1102.31 627.993L1117.59 595.253C1118.03 594.3 1119.14 593.578 1120.07 593.64Z" fill="#B9CDFF"/>
<path fill-rule="evenodd" clip-rule="evenodd" d="M1105.53 560.6C1107.9 564.553 1114.31 564.552 1119.85 560.599C1125.39 556.645 1127.96 550.236 1125.59 546.283C1123.23 542.33 1116.82 542.33 1111.28 546.284C1105.74 550.237 1103.16 556.647 1105.53 560.6Z" fill="#719CFD"/>
<path fill-rule="evenodd" clip-rule="evenodd" d="M1115.12 544.538C1109.04 548.877 1106.22 555.912 1108.81 560.25C1109.84 561.96 1111.55 562.996 1113.62 563.358C1110.14 564.017 1107.03 563.098 1105.53 560.6C1103.16 556.647 1105.74 550.237 1111.28 546.284C1112.86 545.152 1114.52 544.344 1116.13 543.86C1115.79 544.073 1115.45 544.299 1115.12 544.538Z" fill="#547ACE"/>
<path fill-rule="evenodd" clip-rule="evenodd" d="M1118.52 553.446C1118.15 556.212 1119.16 558.139 1120.76 557.751C1122.37 557.363 1123.97 554.806 1124.33 552.04C1124.7 549.274 1123.7 547.346 1122.1 547.735C1120.49 548.123 1118.89 550.68 1118.52 553.446Z" fill="#B9CDFF"/>
<path fill-rule="evenodd" clip-rule="evenodd" d="M1149.21 589.229C1151.58 593.182 1157.99 593.182 1163.53 589.228C1169.07 585.275 1171.64 578.865 1169.27 574.912C1166.91 570.959 1160.5 570.959 1154.96 574.913C1149.42 578.866 1146.85 585.276 1149.21 589.229Z" fill="#3CB49F"/>
<path fill-rule="evenodd" clip-rule="evenodd" d="M1158.8 573.167C1152.72 577.506 1149.9 584.541 1152.5 588.879C1153.52 590.589 1155.23 591.625 1157.3 591.987C1153.82 592.646 1150.71 591.727 1149.21 589.229C1146.85 585.276 1149.42 578.866 1154.96 574.913C1156.54 573.781 1158.2 572.973 1159.81 572.489C1159.47 572.702 1159.14 572.928 1158.8 573.167Z" fill="#229581"/>
<path fill-rule="evenodd" clip-rule="evenodd" d="M1162.2 582.075C1161.84 584.841 1162.84 586.768 1164.44 586.38C1166.05 585.992 1167.65 583.435 1168.02 580.669C1168.38 577.903 1167.38 575.975 1165.78 576.364C1164.17 576.752 1162.57 579.309 1162.2 582.075Z" fill="#50C4B0"/>
<path fill-rule="evenodd" clip-rule="evenodd" d="M1093.77 637.765C1096.14 641.718 1102.55 641.718 1108.09 637.764C1113.63 633.811 1116.2 627.402 1113.83 623.448C1111.47 619.495 1105.06 619.496 1099.52 623.449C1093.98 627.403 1091.4 633.812 1093.77 637.765Z" fill="#F6BE67"/>
<path fill-rule="evenodd" clip-rule="evenodd" d="M1103.36 621.703C1097.28 626.042 1094.46 633.077 1097.05 637.416C1098.08 639.126 1099.79 640.162 1101.86 640.524C1098.38 641.183 1095.27 640.263 1093.77 637.765C1091.4 633.812 1093.98 627.403 1099.52 623.449C1101.1 622.317 1102.76 621.51 1104.37 621.026C1104.03 621.238 1103.69 621.464 1103.36 621.703Z" fill="#D19C49"/>
<path fill-rule="evenodd" clip-rule="evenodd" d="M1106.76 630.611C1106.4 633.377 1107.4 635.305 1109 634.916C1110.61 634.528 1112.21 631.971 1112.57 629.205C1112.94 626.439 1111.94 624.512 1110.34 624.9C1108.73 625.288 1107.13 627.845 1106.76 630.611Z" fill="#F9D8A4"/>
<path fill-rule="evenodd" clip-rule="evenodd" d="M1078.48 556.234C1084.07 556.233 1090.42 551.701 1092.66 546.11C1094.91 540.519 1092.19 535.988 1086.6 535.988C1081.01 535.988 1074.66 540.521 1072.42 546.111C1070.17 551.702 1072.89 556.234 1078.48 556.234Z" fill="#F6BE67"/>
<path fill-rule="evenodd" clip-rule="evenodd" d="M1074.79 542.655C1072.33 548.791 1075.31 553.765 1081.44 553.764C1083.86 553.764 1086.41 552.992 1088.76 551.68C1085.85 554.423 1082.01 556.233 1078.48 556.234C1072.89 556.234 1070.17 551.702 1072.42 546.111C1073.06 544.511 1074.04 542.997 1075.24 541.651C1075.08 541.982 1074.93 542.316 1074.79 542.655Z" fill="#D19C49"/>
<path fill-rule="evenodd" clip-rule="evenodd" d="M1085.48 544.018C1087.38 545.45 1089.96 545.558 1091.23 544.259C1092.5 542.96 1091.99 540.746 1090.08 539.314C1088.18 537.883 1085.6 537.775 1084.33 539.074C1083.06 540.373 1083.57 542.587 1085.48 544.018Z" fill="#F9D8A4"/>
<path fill-rule="evenodd" clip-rule="evenodd" d="M1115.92 604.765C1121.51 604.765 1127.86 600.233 1130.1 594.642C1132.35 589.051 1129.63 584.519 1124.04 584.52C1118.45 584.52 1112.1 589.052 1109.86 594.643C1107.61 600.234 1110.33 604.766 1115.92 604.765Z" fill="#E9525B"/>
<path fill-rule="evenodd" clip-rule="evenodd" d="M1112.23 591.186C1109.77 597.322 1112.75 602.297 1118.88 602.296C1121.3 602.296 1123.85 601.524 1126.2 600.212C1123.29 602.955 1119.45 604.765 1115.92 604.765C1110.33 604.766 1107.61 600.234 1109.86 594.643C1110.5 593.042 1111.48 591.529 1112.68 590.183C1112.52 590.513 1112.37 590.848 1112.23 591.186Z" fill="#CB3E47"/>
<path fill-rule="evenodd" clip-rule="evenodd" d="M1122.92 592.55C1124.82 593.982 1127.4 594.089 1128.67 592.79C1129.94 591.491 1129.43 589.278 1127.52 587.846C1125.62 586.414 1123.04 586.307 1121.77 587.606C1120.5 588.905 1121.01 591.119 1122.92 592.55Z" fill="#E98086"/>
<path d="M1122.4 144H670.403V456H1122.4V144ZM1118.4 148V452H674.403V148H1118.4Z" fill="#F0DECF"/>
<path d="M1118.45 194.5V198.5H724.324V194.5H1118.45Z" fill="#F0DECF"/>
<path fill-rule="evenodd" clip-rule="evenodd" d="M871.903 221H1217.9C1244.69 221 1266.4 242.714 1266.4 269.5C1266.4 296.286 1244.69 318 1217.9 318H871.903C845.117 318 823.403 296.286 823.403 269.5C823.403 242.714 845.117 221 871.903 221Z" fill="#E9525B"/>
<path fill-rule="evenodd" clip-rule="evenodd" d="M792.903 338H1138.9C1165.69 338 1187.4 359.714 1187.4 386.5C1187.4 413.286 1165.69 435 1138.9 435H792.903C766.117 435 744.403 413.286 744.403 386.5C744.403 359.714 766.117 338 792.903 338Z" fill="#F6BE67"/>
<path d="M1106.8 404C1107.82 404 1108.63 403.695 1109.24 403.084C1109.85 402.474 1110.33 401.38 1110.66 399.804C1110.8 399.124 1110.97 398.143 1111.16 396.86C1111.35 395.577 1111.53 394.534 1111.69 393.731C1111.85 392.927 1112.12 391.915 1112.5 390.694C1113.4 387.927 1114.4 385.586 1115.49 383.67C1116.58 381.753 1117.64 380.15 1118.66 378.86C1119.69 377.569 1120.6 376.391 1121.4 375.324C1122.21 374.258 1122.61 373.4 1122.61 372.751C1122.61 371.685 1122.27 370.92 1121.58 370.456C1120.9 369.993 1119.79 369.761 1118.27 369.761H1102.39C1101.13 369.761 1100.15 369.915 1099.45 370.224C1098.75 370.534 1098.4 371.221 1098.4 372.288C1098.4 373.292 1098.73 374.03 1099.39 374.501C1100.05 374.973 1101.05 375.209 1102.39 375.209H1115.14C1113.14 377.681 1111.41 380.166 1109.96 382.661C1108.5 385.157 1107.29 387.591 1106.32 389.964C1105.35 392.336 1104.65 394.372 1104.22 396.072C1103.79 397.772 1103.58 399.116 1103.58 400.105C1103.58 401.388 1103.87 402.358 1104.46 403.015C1105.05 403.672 1105.83 404 1106.8 404ZM1127.18 404C1128.19 404 1129.07 403.693 1129.81 403.079C1130.56 402.464 1130.93 401.619 1130.93 400.542C1130.93 399.602 1130.56 398.802 1129.81 398.142C1129.07 397.482 1128.16 397.152 1127.11 397.152C1126.05 397.152 1125.17 397.486 1124.45 398.153C1123.73 398.821 1123.36 399.617 1123.36 400.542C1123.36 401.634 1123.74 402.483 1124.5 403.09C1125.25 403.697 1126.15 404 1127.18 404ZM1144.97 404C1147.53 404 1149.75 403.549 1151.64 402.647C1153.53 401.744 1154.96 400.496 1155.94 398.902C1156.92 397.307 1157.4 395.53 1157.4 393.57C1157.4 392.232 1157.18 391.015 1156.72 389.918C1156.26 388.822 1155.59 387.857 1154.69 387.025C1153.8 386.193 1152.67 385.52 1151.31 385.007C1152.91 384.244 1154.11 383.264 1154.92 382.067C1155.73 380.869 1156.13 379.508 1156.13 377.983C1156.13 376.786 1155.9 375.654 1155.44 374.588C1154.97 373.523 1154.26 372.566 1153.3 371.718C1152.34 370.871 1151.14 370.206 1149.7 369.723C1148.26 369.241 1146.59 369 1144.68 369C1142.43 369 1140.45 369.412 1138.77 370.237C1137.08 371.061 1135.8 372.162 1134.93 373.538C1134.05 374.915 1133.62 376.381 1133.62 377.937C1133.62 381.157 1135.26 383.513 1138.54 385.007C1134.47 386.562 1132.44 389.432 1132.44 393.617C1132.44 395.577 1132.92 397.346 1133.88 398.925C1134.84 400.504 1136.27 401.744 1138.15 402.647C1140.04 403.549 1142.31 404 1144.97 404ZM1144.95 383.457C1143.49 383.457 1142.31 382.999 1141.39 382.083C1140.47 381.168 1140.01 380.022 1140.01 378.645C1140.01 377.154 1140.45 375.935 1141.35 374.987C1142.25 374.039 1143.43 373.565 1144.9 373.565C1145.87 373.565 1146.73 373.784 1147.47 374.221C1148.22 374.659 1148.81 375.258 1149.22 376.02C1149.63 376.781 1149.84 377.64 1149.84 378.596C1149.84 379.309 1149.72 379.961 1149.49 380.552C1149.25 381.144 1148.92 381.654 1148.49 382.083C1148.06 382.513 1147.55 382.849 1146.95 383.092C1146.35 383.335 1145.68 383.457 1144.95 383.457ZM1144.54 399.435C1143.41 399.435 1142.39 399.181 1141.47 398.674C1140.55 398.167 1139.83 397.449 1139.29 396.52C1138.76 395.591 1138.49 394.518 1138.49 393.301C1138.49 391.397 1139.06 389.914 1140.19 388.853C1141.32 387.792 1142.72 387.261 1144.4 387.261C1145.58 387.261 1146.64 387.503 1147.59 387.987C1148.55 388.47 1149.28 389.165 1149.81 390.07C1150.33 390.975 1150.6 392.037 1150.6 393.254C1150.6 394.472 1150.33 395.549 1149.81 396.485C1149.28 397.421 1148.56 398.147 1147.64 398.662C1146.73 399.177 1145.69 399.435 1144.54 399.435Z" fill="white"/>
<path d="M871.903 229C849.535 229 831.403 247.132 831.403 269.5C831.403 291.868 849.535 310 871.903 310C894.27 310 912.403 291.868 912.403 269.5C912.403 247.132 894.27 229 871.903 229ZM871.903 233C892.061 233 908.403 249.342 908.403 269.5C908.403 289.658 892.061 306 871.903 306C851.744 306 835.403 289.658 835.403 269.5C835.403 249.342 851.744 233 871.903 233Z" fill="white"/>
<path d="M792.903 346C770.535 346 752.403 364.132 752.403 386.5C752.403 408.868 770.535 427 792.903 427C815.27 427 833.403 408.868 833.403 386.5C833.403 364.132 815.27 346 792.903 346ZM792.903 350C813.061 350 829.403 366.342 829.403 386.5C829.403 406.658 813.061 423 792.903 423C772.744 423 756.403 406.658 756.403 386.5C756.403 366.342 772.744 350 792.903 350Z" fill="white"/>
<path d="M793.359 394C805.829 394 817.08 400.875 822.874 411.641L823.089 412.047L823.747 413.311L822.767 414.346C815.167 422.369 804.631 427 793.359 427C782.275 427 771.902 422.523 764.333 414.745L763.951 414.347L762.971 413.312L763.629 412.048C769.356 401.049 780.732 394 793.359 394ZM793.359 398C783.007 398 773.611 403.378 768.293 411.937L768.05 412.334L767.875 412.63L767.958 412.712C774.455 419.012 783.06 422.716 792.281 422.984L792.825 422.996L793.359 423C802.807 423 811.676 419.394 818.382 413.073L818.842 412.63L818.655 412.312C813.537 403.798 804.426 398.334 794.297 398.015L793.821 398.004L793.359 398ZM793.359 360C801.919 360 808.859 366.94 808.859 375.5C808.859 384.06 801.919 391 793.359 391C784.798 391 777.859 384.06 777.859 375.5C777.859 366.94 784.798 360 793.359 360ZM793.359 364C787.007 364 781.859 369.149 781.859 375.5C781.859 381.851 787.007 387 793.359 387C799.71 387 804.859 381.851 804.859 375.5C804.859 369.149 799.71 364 793.359 364Z" fill="white"/>
<path d="M871.903 277C884.374 277 895.625 283.875 901.419 294.641L901.633 295.047L902.292 296.311L901.311 297.346C893.712 305.369 883.175 310 871.903 310C860.819 310 850.446 305.523 842.878 297.745L842.495 297.347L841.515 296.312L842.173 295.048C847.9 284.049 859.276 277 871.903 277ZM871.903 281C861.551 281 852.156 286.378 846.837 294.937L846.595 295.334L846.419 295.631L846.503 295.712C852.999 302.012 861.605 305.716 870.826 305.984L871.369 305.996L871.903 306C881.352 306 890.22 302.394 896.927 296.073L897.304 295.712L897.386 295.629L897.199 295.312C892.081 286.798 882.97 281.334 872.841 281.015L872.366 281.004L871.903 281ZM871.903 243C880.463 243 887.403 249.94 887.403 258.5C887.403 267.06 880.463 274 871.903 274C863.343 274 856.403 267.06 856.403 258.5C856.403 249.94 863.343 243 871.903 243ZM871.903 247C865.552 247 860.403 252.149 860.403 258.5C860.403 264.851 865.552 270 871.903 270C878.254 270 883.403 264.851 883.403 258.5C883.403 252.149 878.254 247 871.903 247Z" fill="white"/>
<path d="M1135.4 238H942.403C934.671 238 928.403 244.268 928.403 252C928.403 259.732 934.671 266 942.403 266H1135.4C1143.13 266 1149.4 259.732 1149.4 252C1149.4 244.268 1143.13 238 1135.4 238ZM942.403 242H1135.4C1140.93 242 1145.4 246.477 1145.4 252C1145.4 257.523 1140.93 262 1135.4 262H942.403C936.88 262 932.403 257.523 932.403 252C932.403 246.477 936.88 242 942.403 242Z" fill="white"/>
<path d="M1056.4 355H863.403C855.671 355 849.403 361.268 849.403 369C849.403 376.732 855.671 383 863.403 383H1056.4C1064.13 383 1070.4 376.732 1070.4 369C1070.4 361.268 1064.13 355 1056.4 355ZM863.403 359H1056.4C1061.93 359 1066.4 363.477 1066.4 369C1066.4 374.523 1061.93 379 1056.4 379H863.403C857.88 379 853.403 374.523 853.403 369C853.403 363.477 857.88 359 863.403 359Z" fill="white"/>
<path d="M1047.11 397.5C1048.22 397.5 1049.11 398.395 1049.11 399.5C1049.11 400.554 1048.3 401.418 1047.26 401.495L1047.11 401.5H851.403C850.298 401.5 849.403 400.605 849.403 399.5C849.403 398.446 850.219 397.582 851.254 397.505L851.403 397.5H1047.11Z" fill="white"/>
<path d="M987.113 413.5C988.218 413.5 989.113 414.395 989.113 415.5C989.113 416.554 988.297 417.418 987.262 417.495L987.113 417.5H851.403C850.298 417.5 849.403 416.605 849.403 415.5C849.403 414.446 850.219 413.582 851.254 413.505L851.403 413.5H987.113Z" fill="white"/>
<path d="M1126.11 280.5C1127.22 280.5 1128.11 281.395 1128.11 282.5C1128.11 283.554 1127.3 284.418 1126.26 284.495L1126.11 284.5H930.403C929.298 284.5 928.403 283.605 928.403 282.5C928.403 281.446 929.219 280.582 930.254 280.505L930.403 280.5H1126.11Z" fill="white"/>
<path d="M1066.11 296.5C1067.22 296.5 1068.11 297.395 1068.11 298.5C1068.11 299.554 1067.3 300.418 1066.26 300.495L1066.11 300.5H930.403C929.298 300.5 928.403 299.605 928.403 298.5C928.403 297.446 929.219 296.582 930.254 296.505L930.403 296.5H1066.11Z" fill="white"/>
<path d="M1189.55 287C1192.03 287 1194.19 286.549 1196.02 285.647C1197.85 284.744 1199.24 283.496 1200.19 281.902C1201.14 280.307 1201.61 278.53 1201.61 276.57C1201.61 275.232 1201.39 274.015 1200.95 272.918C1200.5 271.822 1199.85 270.857 1198.98 270.025C1198.11 269.193 1197.02 268.52 1195.7 268.007C1197.25 267.244 1198.42 266.264 1199.2 265.067C1199.98 263.869 1200.37 262.508 1200.37 260.983C1200.37 259.786 1200.15 258.654 1199.7 257.588C1199.25 256.523 1198.56 255.566 1197.63 254.718C1196.7 253.871 1195.53 253.206 1194.14 252.723C1192.74 252.241 1191.12 252 1189.27 252C1187.09 252 1185.17 252.412 1183.54 253.237C1181.9 254.061 1180.66 255.162 1179.81 256.538C1178.97 257.915 1178.54 259.381 1178.54 260.937C1178.54 264.157 1180.13 266.513 1183.31 268.007C1179.37 269.562 1177.4 272.432 1177.4 276.617C1177.4 278.577 1177.87 280.346 1178.8 281.925C1179.73 283.504 1181.11 284.744 1182.94 285.647C1184.77 286.549 1186.98 287 1189.55 287ZM1189.91 266.457C1188.46 266.457 1187.27 265.999 1186.35 265.083C1185.43 264.168 1184.97 263.022 1184.97 261.645C1184.97 260.154 1185.42 258.935 1186.31 257.987C1187.21 257.039 1188.39 256.565 1189.86 256.565C1190.83 256.565 1191.69 256.784 1192.44 257.221C1193.19 257.659 1193.77 258.258 1194.18 259.02C1194.59 259.781 1194.8 260.64 1194.8 261.596C1194.8 262.309 1194.68 262.961 1194.45 263.552C1194.22 264.144 1193.88 264.654 1193.45 265.083C1193.03 265.513 1192.51 265.849 1191.91 266.092C1191.31 266.335 1190.64 266.457 1189.91 266.457ZM1189.51 282.435C1188.52 282.435 1187.62 282.181 1186.82 281.674C1186.01 281.167 1185.38 280.449 1184.91 279.52C1184.44 278.591 1184.21 277.518 1184.21 276.301C1184.21 274.397 1184.71 272.914 1185.7 271.853C1186.69 270.792 1187.91 270.261 1189.38 270.261C1190.41 270.261 1191.34 270.503 1192.17 270.987C1193.01 271.47 1193.65 272.165 1194.11 273.07C1194.57 273.975 1194.8 275.037 1194.8 276.254C1194.8 277.472 1194.57 278.549 1194.11 279.485C1193.65 280.421 1193.02 281.147 1192.22 281.662C1191.41 282.177 1190.51 282.435 1189.51 282.435ZM1206.56 287C1207.46 287 1208.25 286.693 1208.92 286.079C1209.59 285.464 1209.93 284.619 1209.93 283.542C1209.93 282.602 1209.59 281.802 1208.92 281.142C1208.25 280.482 1207.44 280.152 1206.49 280.152C1205.54 280.152 1204.74 280.486 1204.09 281.153C1203.45 281.821 1203.12 282.617 1203.12 283.542C1203.12 284.634 1203.46 285.483 1204.14 286.09C1204.82 286.697 1205.62 287 1206.56 287ZM1223.92 287C1225.78 287 1227.48 286.708 1229.02 286.124C1230.55 285.54 1231.88 284.73 1233 283.694C1234.12 282.658 1234.97 281.478 1235.54 280.154C1236.12 278.83 1236.4 277.459 1236.4 276.042C1236.4 274.858 1236.19 273.756 1235.77 272.736C1235.34 271.716 1234.71 270.785 1233.86 269.944C1233.02 269.103 1231.98 268.355 1230.75 267.701C1232.03 266.642 1233.01 265.555 1233.7 264.442C1234.38 263.328 1234.72 261.992 1234.72 260.435C1234.72 259.251 1234.49 258.145 1234.02 257.117C1233.54 256.089 1232.84 255.185 1231.91 254.407C1230.98 253.628 1229.89 253.032 1228.63 252.619C1227.37 252.206 1225.97 252 1224.44 252C1222.69 252 1221.11 252.245 1219.69 252.736C1218.27 253.227 1217.09 253.877 1216.13 254.687C1215.18 255.497 1214.46 256.35 1213.96 257.245C1213.46 258.141 1213.21 258.994 1213.21 259.804C1213.21 260.645 1213.48 261.319 1214.01 261.825C1214.53 262.331 1215.11 262.584 1215.74 262.584C1216.28 262.584 1216.75 262.491 1217.16 262.304C1217.57 262.117 1217.86 261.86 1218.01 261.533C1218.28 260.925 1218.58 260.279 1218.9 259.593C1219.22 258.908 1219.57 258.347 1219.93 257.911C1220.29 257.475 1220.78 257.125 1221.41 256.86C1222.03 256.595 1222.82 256.463 1223.78 256.463C1225.2 256.463 1226.33 256.895 1227.16 257.759C1228 258.624 1228.41 259.656 1228.41 260.855C1228.41 262.428 1227.89 263.636 1226.84 264.477C1225.79 265.318 1224.55 265.738 1223.1 265.738H1222.13C1221.01 265.738 1220.16 265.968 1219.6 266.428C1219.03 266.887 1218.75 267.491 1218.75 268.238C1218.75 269.002 1218.98 269.597 1219.45 270.026C1219.93 270.454 1220.6 270.668 1221.46 270.668C1221.65 270.668 1222.08 270.637 1222.74 270.575C1223.4 270.512 1223.89 270.481 1224.21 270.481C1226 270.481 1227.41 270.999 1228.41 272.035C1229.42 273.071 1229.93 274.5 1229.93 276.322C1229.93 277.553 1229.63 278.636 1229.04 279.57C1228.45 280.505 1227.7 281.209 1226.79 281.685C1225.89 282.16 1224.95 282.397 1223.97 282.397C1222.27 282.397 1220.95 281.872 1220.01 280.82C1219.07 279.769 1218.19 278.16 1217.37 275.995C1217.25 275.637 1216.98 275.329 1216.57 275.072C1216.16 274.815 1215.74 274.687 1215.29 274.687C1214.41 274.687 1213.68 274.963 1213.08 275.516C1212.49 276.069 1212.2 276.798 1212.2 277.701C1212.2 278.402 1212.45 279.29 1212.94 280.364C1213.44 281.439 1214.17 282.479 1215.14 283.484C1216.11 284.488 1217.34 285.326 1218.84 285.995C1220.34 286.665 1222.03 287 1223.92 287Z" fill="white"/>
<path d="M709.138 88.7771C698.921 88.7771 690.638 97.0598 690.638 107.277C690.638 117.494 698.921 125.777 709.138 125.777C719.355 125.777 727.638 117.494 727.638 107.277C727.638 97.0598 719.355 88.7771 709.138 88.7771ZM709.138 92.7771C717.146 92.7771 723.638 99.269 723.638 107.277C723.638 115.285 717.146 121.777 709.138 121.777C701.13 121.777 694.638 115.285 694.638 107.277C694.638 99.269 701.13 92.7771 709.138 92.7771Z" fill="#F0DECF"/>
<path d="M777.638 90.7771H743.638V124.777H777.638V90.7771ZM773.638 94.777V120.777H747.638V94.777H773.638Z" fill="#F0DECF"/>
<path d="M838.168 120.777V124.777H795.588V120.777H838.168Z" fill="#F0DECF"/>
</svg>
