<svg width="1221" height="839" viewBox="0 0 1221 839" fill="none" xmlns="http://www.w3.org/2000/svg">
<path d="M810.5 0C647.852 0 516 131.852 516 294.5C516 457.148 647.852 589 810.5 589C973.148 589 1105 457.148 1105 294.5C1105 131.852 973.148 0 810.5 0ZM810.5 4C970.939 4 1101 134.061 1101 294.5C1101 454.939 970.939 585 810.5 585C650.061 585 520 454.939 520 294.5C520 134.061 650.061 4 810.5 4Z" fill="#F0DECF"/>
<path d="M810.5 541C946.638 541 1057 430.638 1057 294.5C1057 158.362 946.638 48 810.5 48C674.362 48 564 158.362 564 294.5C564 430.638 674.362 541 810.5 541Z" fill="#E9F4F7"/>
<path d="M307.5 708C443.638 708 554 597.638 554 461.5C554 325.362 443.638 215 307.5 215C171.362 215 61 325.362 61 461.5C61 597.638 171.362 708 307.5 708Z" fill="#F9F5E8"/>
<path d="M241.768 100C128.55 100 36.7681 191.782 36.7681 305C36.7681 418.218 128.55 510 241.768 510C354.986 510 446.768 418.218 446.768 305C446.768 191.782 354.986 100 241.768 100ZM241.768 104C352.777 104 442.768 193.991 442.768 305C442.768 416.009 352.777 506 241.768 506C130.759 506 40.7681 416.009 40.7681 305C40.7681 193.991 130.759 104 241.768 104Z" fill="#F0DECF"/>
<path fill-rule="evenodd" clip-rule="evenodd" d="M874.746 488.308L893.751 498.379C894.752 498.91 895.983 498.57 896.576 497.625L896.673 497.454L896.689 497.422L897.588 498.599C898.863 500.267 901.196 500.662 902.943 499.541L903.121 499.42L903.436 499.828C905.663 502.711 909.642 503.542 912.826 501.824L913.052 501.697L909.668 495.215C904.267 484.922 901.37 479.706 900.978 479.567L900.858 479.566C899.8 479.6 891.798 479.979 876.851 480.702L874.746 488.308Z" fill="#F69883"/>
<path fill-rule="evenodd" clip-rule="evenodd" d="M895.802 461.747L915.775 482.27L925.225 502.552C925.805 503.796 925.264 505.273 924.016 505.851C923.872 505.918 923.723 505.97 923.569 506.009L921.702 506.473C918.708 507.217 915.54 506.414 913.266 504.334L893.434 486.194L875.969 488.557C873.874 490.076 871.017 497.279 870.825 498.285C870.091 502.124 872.255 505.943 875.944 507.32L895.907 514.773C901.022 516.682 904.591 521.128 905.487 526.266L905.542 526.602C905.787 528.229 904.668 529.746 903.041 529.992C902.718 530.04 902.389 530.036 902.068 529.978L873.148 524.758C872.432 524.629 871.586 524.428 870.611 524.156L870.186 524.035C864.92 522.515 859.388 522.151 853.969 522.969L850.915 523.43L850.917 523.408L823.568 537.643L672.647 665.469L623.769 574.552C738.349 526.154 798.023 500.563 802.788 497.779L833.42 474.091C843.934 465.961 856.325 460.591 869.459 458.473L880.506 456.692C886.126 455.786 891.837 457.673 895.802 461.747Z" fill="#FDB4A3"/>
<path fill-rule="evenodd" clip-rule="evenodd" d="M899.582 595.56C902.292 595.372 905.002 593.85 907.712 590.995V581.704L901.716 584.726L899.582 595.56Z" fill="#4F576C"/>
<path fill-rule="evenodd" clip-rule="evenodd" d="M890.094 504.081H918.282V568.914C918.282 572.028 915.758 574.552 912.644 574.552H895.731C892.618 574.552 890.094 572.028 890.094 568.914V504.081Z" fill="#4F576C"/>
<path fill-rule="evenodd" clip-rule="evenodd" d="M876 503.845C876 485.662 890.741 470.921 908.924 470.921H911.733C920.798 470.921 925.33 476.207 925.33 486.777C925.33 497.348 917.368 508.419 901.446 519.99C884.482 517.054 876 511.672 876 503.845Z" fill="#D12F38"/>
<path fill-rule="evenodd" clip-rule="evenodd" d="M913.635 574.429C916.345 574.24 919.055 572.718 921.764 569.864V560.572L915.769 563.594L913.635 574.429Z" fill="#4F576C"/>
<path fill-rule="evenodd" clip-rule="evenodd" d="M918.282 506.766L925.329 497.271V559.145C925.329 562.984 924.094 566.722 921.806 569.805C921.163 570.671 919.939 570.853 919.072 570.209C918.575 569.841 918.282 569.259 918.282 568.64V506.766Z" fill="#697084"/>
<path fill-rule="evenodd" clip-rule="evenodd" d="M876 525.223H904.188V590.056C904.188 593.17 901.664 595.694 898.551 595.694H881.638C878.524 595.694 876 593.17 876 590.056V525.223Z" fill="#4F576C"/>
<path fill-rule="evenodd" clip-rule="evenodd" d="M904.188 527.907L911.236 518.412V582.005C911.236 584.728 910.359 587.379 908.737 589.565L907.712 590.946C907.069 591.813 905.845 591.994 904.978 591.351C904.481 590.982 904.188 590.4 904.188 589.781V527.907Z" fill="#697084"/>
<path fill-rule="evenodd" clip-rule="evenodd" d="M914.759 484.071C916.815 481.514 920.554 481.107 923.111 483.163C924.514 484.29 925.33 485.993 925.33 487.793V520.065L904.188 546.364V514.092C904.188 503.173 907.918 492.581 914.759 484.071Z" fill="#E9525B"/>
<path fill-rule="evenodd" clip-rule="evenodd" d="M890.094 497.221C882.31 497.221 876 503.531 876 511.315V546.364H904.188V511.315C904.188 503.531 897.878 497.221 890.094 497.221Z" fill="#D12F38"/>
<path fill-rule="evenodd" clip-rule="evenodd" d="M876 503.845H890.094V539.081H876V503.845Z" fill="#D12F38"/>
<path fill-rule="evenodd" clip-rule="evenodd" d="M880.983 503.845H885.111C888.302 503.845 891.362 502.578 893.618 500.321C894.424 499.515 894.424 498.208 893.618 497.402C893.231 497.015 892.706 496.798 892.158 496.798H888.03C884.839 496.798 881.78 498.065 879.523 500.321C878.717 501.127 878.717 502.434 879.523 503.24C879.911 503.628 880.436 503.845 880.983 503.845Z" fill="#D12F38"/>
<path fill-rule="evenodd" clip-rule="evenodd" d="M886.878 552.721C889.588 552.532 892.298 551.01 895.008 548.156V538.864L889.012 541.886L886.878 552.721Z" fill="#F69883"/>
<path fill-rule="evenodd" clip-rule="evenodd" d="M893.617 500.262C894.433 499.46 895.745 499.471 896.547 500.287C896.927 500.674 897.141 501.196 897.141 501.739V532.154L890.094 539.081V508.666C890.094 505.505 891.363 502.477 893.617 500.262Z" fill="#E9525B"/>
<path fill-rule="evenodd" clip-rule="evenodd" d="M890.094 533.641L897.141 526.714V543.885C897.141 545.397 896.534 546.845 895.455 547.905L893.617 549.712C892.801 550.514 891.49 550.502 890.688 549.686C890.307 549.299 890.094 548.778 890.094 548.234V533.641Z" fill="#FDB4A3"/>
<path fill-rule="evenodd" clip-rule="evenodd" d="M876 533.641H890.094V547.631C890.094 550.708 887.627 553.216 884.551 553.268L881.732 553.315C878.713 553.366 876.209 551.034 876.012 548.054L876 547.678V533.641Z" fill="#F69883"/>
<path fill-rule="evenodd" clip-rule="evenodd" d="M886.814 470.626V465.684C886.814 462.476 887.909 459.364 889.917 456.862L892.777 453.298L908.75 451.864L905.331 473.512L886.814 470.626Z" fill="#F69883"/>
<path fill-rule="evenodd" clip-rule="evenodd" d="M890.094 497.221C886.365 497.221 883.341 494.197 883.341 490.467C883.341 488.928 883.866 487.435 884.831 486.236L888.311 481.906C893.894 474.961 902.325 470.921 911.236 470.921C914.966 470.921 917.989 473.945 917.989 477.675C917.989 479.214 917.464 480.707 916.499 481.906L913.019 486.236C907.436 493.181 899.005 497.221 890.094 497.221Z" fill="#D12F38"/>
<path fill-rule="evenodd" clip-rule="evenodd" d="M900.264 472.1C900.264 464.74 902.778 457.6 907.389 451.864C908.775 450.14 911.296 449.866 913.019 451.252C913.965 452.012 914.515 453.16 914.515 454.373V464.753C914.515 467.308 914.177 470.277 913.5 473.662L913.361 474.344C911.783 481.868 905.303 487.343 897.653 487.669L897.299 487.681L896.684 487.688L894.431 487.684C890.305 487.677 886.948 484.396 886.818 480.301L886.814 480.055V467.452C886.814 463.738 889.825 460.728 893.539 460.728C897.253 460.728 900.264 463.738 900.264 467.452V472.1Z" fill="#FDB4A3"/>
<path fill-rule="evenodd" clip-rule="evenodd" d="M906.099 447.229C910.747 447.229 914.515 450.996 914.515 455.644V458.607L902.93 452.967L906.099 447.229Z" fill="#F69883"/>
<path fill-rule="evenodd" clip-rule="evenodd" d="M893.54 460.728C897.858 460.728 902.012 459.073 905.147 456.103L908.331 453.086C909.692 451.797 909.75 449.649 908.461 448.288C907.821 447.612 906.93 447.229 905.998 447.229C900.618 447.229 895.535 449.691 892.2 453.912L890.984 455.451C889.869 456.863 890.109 458.911 891.52 460.026C892.095 460.481 892.807 460.728 893.54 460.728Z" fill="#F69883"/>
<path d="M911.477 465.955C912.029 465.955 912.477 465.009 912.477 463.841C912.477 462.674 912.029 461.727 911.477 461.727C910.924 461.727 910.477 462.674 910.477 463.841C910.477 465.009 910.924 465.955 911.477 465.955Z" fill="#583E40"/>
<path d="M906.531 472.012C907.084 472.012 907.531 471.066 907.531 469.898C907.531 468.731 907.084 467.784 906.531 467.784C905.979 467.784 905.531 468.731 905.531 469.898C905.531 471.066 905.979 472.012 906.531 472.012Z" fill="#583E40"/>
<path d="M912.311 469.019C912.719 469.09 912.992 469.479 912.92 469.887C912.53 472.118 911.871 473.807 910.918 474.952C909.945 476.121 908.524 476.893 906.685 477.278C906.279 477.363 905.882 477.103 905.797 476.698C905.712 476.292 905.972 475.895 906.378 475.81C907.905 475.49 909.025 474.882 909.765 473.992C910.526 473.078 911.094 471.624 911.443 469.629C911.508 469.255 911.84 468.994 912.209 469.008L912.311 469.019Z" fill="#583E40"/>
<path fill-rule="evenodd" clip-rule="evenodd" d="M900.265 474.818L902.93 465.955V460.727C909.078 459.291 914.196 457.272 918.283 454.67C919.153 448.043 915.844 444.426 908.356 443.82C897.124 442.911 888.847 446.553 890.095 452.917C885.525 455.635 884.367 459.779 886.62 465.348L886.815 480.916L893.618 476.544L892.478 473.317C891.988 471.932 892.565 470.395 893.845 469.674C895.092 468.972 896.67 469.354 897.456 470.55L900.265 474.818Z" fill="#583E40"/>
<path fill-rule="evenodd" clip-rule="evenodd" d="M875.944 507.32L895.907 514.773C901.021 516.682 904.591 521.128 905.487 526.266L905.542 526.602C905.787 528.229 904.668 529.746 903.041 529.992C902.718 530.04 902.389 530.036 902.067 529.978L873.147 524.758C872.431 524.629 871.586 524.428 870.611 524.156L870.185 524.035C866.185 522.88 862.032 522.393 857.891 522.583L871.896 504.013C872.814 505.487 874.211 506.673 875.944 507.32Z" fill="#FDB4A3"/>
<path fill-rule="evenodd" clip-rule="evenodd" d="M387.243 258.469C379.595 224.184 370.015 193.301 358.506 165.821C341.242 124.6 355.528 70.9113 403.176 58.1734C420.027 24.809 455.579 18.6355 509.831 39.6529C591.209 71.179 607.565 153.369 551.333 184.855C513.845 205.846 459.149 230.384 387.243 258.469Z" fill="#80424C"/>
<path fill-rule="evenodd" clip-rule="evenodd" d="M488.458 318.605V301.007V253.251L394.961 235.469L369.458 286.337L449.423 403.469L459.285 397.909L488.458 318.605Z" fill="#FDB4A3"/>
<path fill-rule="evenodd" clip-rule="evenodd" d="M407.185 195.27C414.134 198.551 415.559 205.484 413.931 216.606L413.856 217.107C411.183 234.218 447.478 284.094 488.457 295.469L468.423 298.93C457.228 300.543 449.46 310.927 451.073 322.122C451.182 322.88 451.334 323.63 451.527 324.371L451.68 324.924C455.96 339.632 470.738 346.392 471.033 378.918L471.038 379.911L439.909 406.795L377.599 313.926L367 290.591C386.561 255.337 400.387 224.079 406.005 196.279L407.185 195.27Z" fill="#F69883"/>
<path fill-rule="evenodd" clip-rule="evenodd" d="M353.18 298.712L402.609 295.469L414.265 319.96L450.493 397.78L488.277 317.023L492.166 319.507C555.092 359.769 589.168 384.634 594.395 394.1C606.967 416.87 599.398 525.844 594.395 576.041L595.162 576.645C596.662 577.842 597.999 579.01 599.173 580.151C601.984 567.61 606.935 562.158 614.023 563.793C625.205 566.373 684.466 675.816 681.338 679.682L679.914 681.45C676.758 685.314 671.882 690.543 661.749 693.529C650.151 696.946 646.58 709.814 636.278 710.228L635.766 710.238C625.068 710.238 612.487 721.24 607.066 722.354L606.659 722.431C602.822 723.096 594.228 723.071 580.88 722.354L580.151 720.317C566.936 719.016 554.408 713.591 544.379 704.739L543.891 704.303V720.002L189.845 720.005L186.761 720.975C181.059 722.755 170.345 723.582 154.619 723.456L153.757 723.449C126.254 723.171 104.183 700.64 104.458 673.123C104.504 668.726 105.13 664.354 106.322 660.12L109.426 649.116C159.753 471.109 191.884 377.779 205.819 369.128C221.344 359.49 269.642 336.389 350.713 299.824L353.18 298.712Z" fill="#717569"/>
<path fill-rule="evenodd" clip-rule="evenodd" d="M543.457 470C551.516 622.653 564.692 701.289 582.984 705.908C601.277 710.527 618.949 708.368 636 699.433L636.518 710.216L636.278 710.228L635.766 710.238C625.067 710.238 612.486 721.24 607.065 722.354L606.658 722.431L606.259 722.495C602.243 723.094 593.783 723.047 580.879 722.354L580.15 720.317C566.936 719.016 554.407 713.591 544.379 704.739L543.89 704.303V720.002L542.973 720.001L543.457 470Z" fill="#626658"/>
<path fill-rule="evenodd" clip-rule="evenodd" d="M279.458 476.469C290.154 494.175 293.719 514.846 290.154 538.481C284.806 573.934 332.926 638.269 427.151 619.189C386.06 652.023 366.686 685.648 369.031 720.063H239.839V715.469C251.235 718.126 261.108 716.792 269.458 711.469C274.337 711.125 277.319 709.167 278.404 705.595L282.013 678.017L262.574 603.589L250.458 593.626V589.469L279.458 476.469Z" fill="#626658"/>
<path d="M542.957 460.469C544.011 460.469 544.875 461.285 544.952 462.319L544.957 462.469V701.469C544.957 702.573 544.062 703.469 542.957 703.469C541.903 703.469 541.039 702.653 540.962 701.618L540.957 701.469V462.469C540.957 461.364 541.852 460.469 542.957 460.469Z" fill="#2E363A"/>
<path d="M277.52 475.972C277.795 474.902 278.885 474.257 279.955 474.532C280.976 474.794 281.61 475.799 281.427 476.82L281.395 476.966L252.395 589.966C252.12 591.036 251.03 591.681 249.96 591.406C248.939 591.144 248.305 590.139 248.489 589.117L248.52 588.972L277.52 475.972Z" fill="#2E363A"/>
<path d="M451.261 395.469C452.314 395.425 453.212 396.203 453.333 397.233L453.345 397.382L458.001 505.322C458.308 512.455 457.866 519.6 456.682 526.641L455.683 532.584C439.542 628.851 431.457 685.256 431.457 701.469C431.457 702.573 430.562 703.469 429.457 703.469C428.352 703.469 427.457 702.573 427.457 701.469C427.457 684.589 435.874 626.209 452.737 525.977C453.812 519.589 454.25 513.11 454.047 506.637L454.004 505.495L449.349 397.555C449.301 396.451 450.157 395.518 451.261 395.469Z" fill="#2E363A"/>
<path d="M232.011 619.519C233.088 619.273 234.161 619.946 234.407 621.022L236.418 629.766C240.158 645.952 244.447 664.119 249.286 684.268L249.592 685.52C252.307 696.442 255.365 703.691 258.63 707.184C261.536 710.293 264.39 710.257 268.121 706.906C268.943 706.168 270.207 706.236 270.946 707.058C271.684 707.879 271.616 709.144 270.794 709.882C265.512 714.625 260.174 714.693 255.708 709.916C251.796 705.731 248.46 697.744 245.557 685.866L243.514 677.347C238.57 656.675 234.235 638.198 230.508 621.915C230.261 620.838 230.935 619.766 232.011 619.519Z" fill="#2E363A"/>
<path d="M216.246 635.267L219.913 652.789C220.712 656.576 221.418 659.862 222.112 663.011L222.957 666.801C226.008 680.325 228.774 690.758 231.547 698.657L231.728 699.169C234.994 708.341 238.165 713.302 240.347 713.465L240.458 713.469C241.562 713.469 242.458 714.364 242.458 715.469C242.458 716.574 241.562 717.469 240.458 717.469C232.58 717.469 226.608 701.144 219.114 667.944L218.369 664.613C217.517 660.764 216.658 656.757 215.642 651.918L212.333 636.096L211.446 631.967C209.804 624.436 208.7 620.108 207.826 617.918C204.815 610.382 196.976 609.322 183.26 615.329C182.248 615.772 181.069 615.311 180.625 614.299C180.182 613.287 180.643 612.108 181.655 611.664L182.58 611.267C197.577 604.931 207.56 606.469 211.54 616.434L211.726 616.919C212.834 619.914 214.157 625.414 216.246 635.267Z" fill="#2E363A"/>
<path fill-rule="evenodd" clip-rule="evenodd" d="M508.212 572.457C507.478 576.296 509.642 580.114 513.331 581.492L533.294 588.944C538.409 590.854 541.978 595.3 542.874 600.438L542.929 600.774C543.174 602.4 542.055 603.918 540.428 604.163C540.105 604.212 539.776 604.207 539.455 604.149L510.535 598.93C509.819 598.8 508.973 598.6 507.998 598.328L507.573 598.207C502.307 596.686 496.775 596.322 491.356 597.141L488.302 597.602L488.668 593.359C488.886 590.666 488.957 589.287 488.881 589.223L475.762 574.983L509.229 569.639C508.752 570.503 508.404 571.451 508.212 572.457Z" fill="#F69883"/>
<path fill-rule="evenodd" clip-rule="evenodd" d="M542.04 662.029C544.75 661.841 547.46 660.319 550.17 657.464V648.173L544.174 651.195L542.04 662.029Z" fill="#4F576C"/>
<path fill-rule="evenodd" clip-rule="evenodd" d="M532.552 570.55H560.74V635.384C560.74 638.497 558.216 641.021 555.103 641.021H538.189C535.076 641.021 532.552 638.497 532.552 635.384V570.55Z" fill="#4F576C"/>
<path d="M518.457 570.314C518.457 552.131 533.197 537.39 551.381 537.39H554.19C563.255 537.39 567.787 542.675 567.787 553.246C567.787 563.816 559.825 574.887 543.903 586.459C526.939 583.523 518.457 578.141 518.457 570.314Z" fill="#F8B853"/>
<path fill-rule="evenodd" clip-rule="evenodd" d="M556.093 640.898C558.803 640.709 561.513 639.187 564.222 636.333V627.042L558.227 630.064L556.093 640.898Z" fill="#4F576C"/>
<path fill-rule="evenodd" clip-rule="evenodd" d="M560.74 573.235L567.787 563.739V625.613C567.787 629.453 566.552 633.19 564.264 636.274C563.621 637.14 562.397 637.321 561.53 636.678C561.033 636.31 560.74 635.727 560.74 635.109V573.235Z" fill="#697084"/>
<path fill-rule="evenodd" clip-rule="evenodd" d="M518.457 591.691H546.645V656.525C546.645 659.638 544.121 662.163 541.008 662.163H524.095C520.981 662.163 518.457 659.638 518.457 656.525V591.691Z" fill="#4F576C"/>
<path fill-rule="evenodd" clip-rule="evenodd" d="M546.646 594.376L553.693 584.88V648.474C553.693 651.197 552.817 653.847 551.194 656.034L550.169 657.415C549.526 658.281 548.302 658.463 547.435 657.819C546.938 657.451 546.646 656.869 546.646 656.25V594.376Z" fill="#697084"/>
<path fill-rule="evenodd" clip-rule="evenodd" d="M557.216 550.54C559.272 547.983 563.011 547.576 565.568 549.632C566.971 550.759 567.787 552.462 567.787 554.262V586.533L546.646 612.833V580.561C546.646 569.642 550.375 559.05 557.216 550.54Z" fill="#F6BE67"/>
<path d="M532.551 563.689C524.767 563.689 518.457 570 518.457 577.784V612.833H546.645V577.784C546.645 570 540.335 563.689 532.551 563.689Z" fill="#F8B853"/>
<path d="M518.457 570.314H532.551V605.549H518.457V570.314Z" fill="#F8B853"/>
<path fill-rule="evenodd" clip-rule="evenodd" d="M523.441 570.314H527.569C530.76 570.314 533.82 569.046 536.076 566.79C536.882 565.984 536.882 564.677 536.076 563.871C535.689 563.484 535.164 563.267 534.616 563.267H530.488C527.298 563.267 524.238 564.534 521.981 566.79C521.175 567.596 521.175 568.903 521.981 569.709C522.369 570.096 522.894 570.314 523.441 570.314Z" fill="#6088E8"/>
<path fill-rule="evenodd" clip-rule="evenodd" d="M529.336 619.189C532.046 619.001 534.756 617.479 537.466 614.624V605.333L531.47 608.355L529.336 619.189Z" fill="#F69883"/>
<path fill-rule="evenodd" clip-rule="evenodd" d="M536.075 566.73C536.891 565.928 538.203 565.94 539.005 566.756C539.385 567.143 539.599 567.664 539.599 568.208V598.623L532.552 605.55V575.135C532.552 571.974 533.821 568.946 536.075 566.73Z" fill="#F6BE67"/>
<path fill-rule="evenodd" clip-rule="evenodd" d="M532.552 600.11L539.599 593.183V610.353C539.599 611.865 538.992 613.314 537.913 614.374L536.075 616.18C535.259 616.982 533.948 616.971 533.146 616.155C532.765 615.768 532.552 615.246 532.552 614.703V600.11Z" fill="#FDB4A3"/>
<path fill-rule="evenodd" clip-rule="evenodd" d="M518.457 600.109H532.551V614.1C532.551 617.176 530.084 619.685 527.008 619.737L524.189 619.784C521.17 619.834 518.666 617.503 518.469 614.523L518.457 614.147V600.109Z" fill="#F69883"/>
<path fill-rule="evenodd" clip-rule="evenodd" d="M529.272 537.095V532.153C529.272 528.945 530.367 525.833 532.375 523.331L535.235 519.767L551.208 518.333L547.789 539.981L529.272 537.095Z" fill="#F69883"/>
<path d="M532.551 563.69C528.822 563.69 525.798 560.666 525.798 556.936C525.798 555.397 526.324 553.904 527.288 552.705L530.768 548.375C536.351 541.43 544.782 537.39 553.693 537.39C557.423 537.39 560.446 540.414 560.446 544.144C560.446 545.683 559.921 547.176 558.957 548.375L555.476 552.705C549.893 559.65 541.462 563.69 532.551 563.69Z" fill="#F8B853"/>
<path fill-rule="evenodd" clip-rule="evenodd" d="M542.722 538.569C542.722 531.209 545.236 524.069 549.847 518.333C551.233 516.609 553.754 516.335 555.477 517.72C556.423 518.481 556.973 519.628 556.973 520.841V531.222C556.973 533.776 556.635 536.746 555.958 540.131L555.819 540.813C554.241 548.337 547.761 553.812 540.111 554.138L539.757 554.15L539.142 554.156L536.889 554.153C532.763 554.146 529.406 550.865 529.276 546.77L529.272 546.523V533.921C529.272 530.207 532.283 527.196 535.997 527.196C539.711 527.196 542.722 530.207 542.722 533.921V538.569Z" fill="#FDB4A3"/>
<path fill-rule="evenodd" clip-rule="evenodd" d="M548.557 513.697C553.205 513.697 556.973 517.465 556.973 522.113V525.075L545.388 519.436L548.557 513.697Z" fill="#F69883"/>
<path fill-rule="evenodd" clip-rule="evenodd" d="M535.997 527.196C540.315 527.196 544.469 525.541 547.604 522.572L550.789 519.555C552.149 518.266 552.207 516.118 550.918 514.757C550.278 514.081 549.387 513.697 548.455 513.697C543.075 513.697 537.991 516.16 534.657 520.381L533.441 521.92C532.326 523.331 532.566 525.38 533.977 526.495C534.552 526.949 535.264 527.196 535.997 527.196Z" fill="#F69883"/>
<path d="M553.935 532.424C554.487 532.424 554.935 531.478 554.935 530.31C554.935 529.142 554.487 528.196 553.935 528.196C553.382 528.196 552.935 529.142 552.935 530.31C552.935 531.478 553.382 532.424 553.935 532.424Z" fill="#583E40"/>
<path d="M548.988 538.481C549.541 538.481 549.988 537.535 549.988 536.367C549.988 535.199 549.541 534.253 548.988 534.253C548.436 534.253 547.988 535.199 547.988 536.367C547.988 537.535 548.436 538.481 548.988 538.481Z" fill="#583E40"/>
<path d="M554.768 535.488C555.176 535.559 555.449 535.948 555.377 536.356C554.987 538.587 554.328 540.276 553.375 541.42C552.402 542.59 550.981 543.362 549.142 543.747C548.737 543.832 548.339 543.572 548.254 543.166C548.17 542.761 548.429 542.363 548.835 542.279C550.362 541.959 551.482 541.35 552.222 540.461C552.983 539.547 553.551 538.093 553.9 536.098C553.965 535.724 554.297 535.463 554.666 535.477L554.768 535.488Z" fill="#583E40"/>
<path fill-rule="evenodd" clip-rule="evenodd" d="M542.722 541.287L545.387 532.424V527.196C551.535 525.76 556.653 523.741 560.74 521.139C561.61 514.512 558.301 510.895 550.813 510.289C539.582 509.38 531.304 513.022 532.552 519.386C527.982 522.104 526.824 526.248 529.077 531.817L529.272 547.384L536.075 543.012L534.935 539.786C534.445 538.401 535.022 536.864 536.302 536.143C537.549 535.44 539.127 535.823 539.913 537.018L542.722 541.287Z" fill="#583E40"/>
<path fill-rule="evenodd" clip-rule="evenodd" d="M253.188 597.469L273.946 593.518C379.264 573.449 436.196 562.164 444.74 559.662L482.187 545.375C494.103 540.829 506.889 539.023 519.598 540.09L533.423 541.251C537.974 541.633 542.052 544.211 544.35 548.157L559.639 574.412L563.997 596.935C564.207 598.019 563.498 599.069 562.414 599.278C562.288 599.303 562.161 599.315 562.034 599.315H559.518C556.433 599.315 553.553 597.769 551.849 595.198L537.019 572.831L519.499 570.912C513.089 570.209 506.622 571.552 501.021 574.746L499.871 575.402C495.486 577.904 493.109 582.844 493.866 587.813L493.918 588.124C494.767 592.876 491.766 597.467 487.073 598.596L456.776 605.884L279.392 693.469C279.264 677.276 277.232 662.147 273.296 648.08C269.361 634.013 262.658 617.142 253.188 597.469Z" fill="#FDB4A3"/>
<path d="M208.088 604.051C225.261 587.91 239.633 583.385 250.923 591.163C258.425 596.331 266.862 618.47 273.721 647.425L274.139 649.207C280.624 677.11 283.395 701.451 279.859 706.601C279.234 707.511 277.989 707.743 277.078 707.118C276.213 706.524 275.961 705.37 276.474 704.476L276.561 704.337C279.107 700.629 276.345 676.368 270.243 650.112L269.841 648.401C263.248 620.578 254.967 598.805 248.654 594.457C239.309 588.019 226.793 591.96 210.827 606.966C210.022 607.722 208.757 607.683 208 606.878C207.244 606.073 207.283 604.808 208.088 604.051Z" fill="#2E363A"/>
<path fill-rule="evenodd" clip-rule="evenodd" d="M488.031 597.469L520.778 580.747L532.816 585.97C539.612 588.92 547.48 587.775 553.15 583.042L553.457 582.78L531.146 565.469H510.21L484.457 580.747L488.031 597.469Z" fill="#FDB4A3"/>
<path fill-rule="evenodd" clip-rule="evenodd" d="M403.458 295.594L400.635 341.469L351.458 299.919L361.6 282.469L403.458 295.594Z" fill="#818676"/>
<path fill-rule="evenodd" clip-rule="evenodd" d="M403.182 295.469L414.458 319.852L405.253 324.15L400.458 341.469L403.182 295.469Z" fill="#626658"/>
<path fill-rule="evenodd" clip-rule="evenodd" d="M454.429 284.066L468.534 288.538L469.984 289.085C487.739 295.708 500.858 297.876 509.339 295.588C518.049 293.238 534.088 246.205 557.457 154.488C547.418 138.402 524.376 127.062 488.332 120.469C478.108 141.617 463.183 152.297 443.558 152.509L443.05 153.654C436.58 168.183 431.879 176.223 428.946 177.774L424.037 154.488C413.224 148.614 403.666 149.658 395.362 157.62C382.908 169.562 398.484 192.612 407.224 191.08L406.135 195.016C395.667 232.856 417.003 272.199 454.429 284.066Z" fill="#FDB4A3"/>
<path d="M471.784 240.412C472.661 239.741 473.917 239.907 474.588 240.784C482.924 251.674 493.129 256.071 505.463 254.144C506.554 253.974 507.577 254.72 507.747 255.812C507.918 256.903 507.171 257.926 506.08 258.096C492.259 260.256 480.616 255.239 471.412 243.216C470.741 242.339 470.907 241.083 471.784 240.412Z" fill="#583E40"/>
<path d="M520.856 192.007C521.957 192.099 522.775 193.065 522.683 194.166C521.674 206.269 521.642 215.397 522.209 226.052L522.546 231.95C522.627 233.468 522.673 234.615 522.687 235.623L522.699 236.999L521.769 237.595C512.594 243.476 503.971 242.5 496.553 234.723C495.79 233.924 495.82 232.658 496.62 231.895C497.419 231.133 498.685 231.163 499.447 231.962C505.166 237.958 511.252 238.971 518.246 235.048L518.667 234.805L518.661 234.572C518.644 234.079 518.621 233.539 518.591 232.93L518.274 227.348C517.637 216.055 517.637 206.546 518.697 193.834C518.785 192.783 519.669 191.99 520.707 192L520.856 192.007Z" fill="#2E363A"/>
<path fill-rule="evenodd" clip-rule="evenodd" d="M473.219 159.206L474.859 158.285L476.474 157.392C492.591 148.545 502.251 145.347 505.455 147.797C511.064 152.088 505.146 163.19 492.487 164.355C486.528 164.903 480.682 164.724 474.947 163.818L473.993 163.66C472.686 163.435 471.81 162.193 472.035 160.887C472.158 160.177 472.592 159.56 473.219 159.206Z" fill="#80424C"/>
<path fill-rule="evenodd" clip-rule="evenodd" d="M556.716 177.769L555.935 176.413L555.369 175.442L554.798 174.472C547.235 161.705 541.918 155.556 538.845 156.025C533.38 156.859 533.28 167.48 541.543 173.579C545.432 176.45 549.517 178.74 553.798 180.448L554.513 180.727C555.496 181.102 556.564 180.551 556.899 179.497C557.081 178.924 557.014 178.29 556.716 177.769Z" fill="#80424C"/>
<path fill-rule="evenodd" clip-rule="evenodd" d="M494.678 193.742C497.397 194.221 500.185 191.303 500.904 187.224C501.624 183.145 500.002 179.449 497.283 178.97C494.563 178.49 491.776 181.408 491.056 185.487C490.337 189.567 491.959 193.262 494.678 193.742Z" fill="#2E363A"/>
<path fill-rule="evenodd" clip-rule="evenodd" d="M535.792 200.824C538.512 201.303 541.299 198.385 542.019 194.306C542.738 190.227 541.116 186.531 538.397 186.052C535.677 185.572 532.89 188.49 532.171 192.569C531.451 196.649 533.073 200.344 535.792 200.824Z" fill="#2E363A"/>
<path d="M516.597 564.032C521.035 562.978 525.702 563.649 529.658 565.9L530.038 566.122L549.094 577.59C550.321 578.329 551.239 579.487 551.678 580.85C552.68 583.963 550.969 587.3 547.855 588.302C547.737 588.34 547.615 588.367 547.491 588.383C537.503 589.636 528.754 587.916 521.326 583.207L521.001 582.996L490.395 599.236C489.465 599.729 488.323 599.415 487.769 598.542L487.691 598.406C487.198 597.477 487.511 596.335 488.385 595.781L488.52 595.702L520.185 578.902C520.848 578.55 521.652 578.6 522.267 579.029C528.992 583.726 537.007 585.55 546.404 584.484L546.777 584.439L546.905 584.381C547.694 583.985 548.119 583.091 547.911 582.22L547.87 582.075C547.746 581.688 547.502 581.352 547.176 581.114L547.032 581.017L527.976 569.55C524.95 567.729 521.352 567.121 517.904 567.839L517.521 567.924L500.926 571.866C499.851 572.122 498.773 571.457 498.518 570.383C498.274 569.357 498.868 568.328 499.858 568.014L500.001 567.975L516.597 564.032Z" fill="#583E40"/>
<path d="M524.645 552.841C529.356 552.584 533.989 554.089 537.646 557.055L537.986 557.337L563.058 578.65C565.162 580.439 565.417 583.594 563.629 585.698C563.102 586.318 562.432 586.8 561.677 587.102C558.264 588.468 553.291 588.793 546.687 588.155C545.587 588.049 544.782 587.071 544.888 585.972C544.995 584.872 545.972 584.067 547.072 584.173C553.096 584.756 557.493 584.468 560.191 583.388C560.342 583.328 560.476 583.232 560.581 583.108C560.911 582.719 560.893 582.152 560.558 581.785L560.467 581.698L535.395 560.385C532.569 557.982 528.958 556.715 525.259 556.819L524.863 556.835L501.566 558.107C500.463 558.167 499.52 557.321 499.46 556.219C499.403 555.166 500.17 554.259 501.199 554.126L501.348 554.113L524.645 552.841Z" fill="#583E40"/>
<path fill-rule="evenodd" clip-rule="evenodd" d="M488.457 306.469L493.378 337.469L505.457 327.954L488.457 306.469Z" fill="#818676"/>
<path fill-rule="evenodd" clip-rule="evenodd" d="M492.457 331.469H481.457L488.319 306.469L492.457 331.469Z" fill="#626658"/>
<path d="M873.746 455.888C874.702 455.336 875.926 455.663 876.478 456.62C877.004 457.53 876.732 458.683 875.879 459.268L875.747 459.352L865.62 465.202C864.663 465.755 863.44 465.427 862.888 464.471C862.361 463.56 862.633 462.407 863.487 461.822L863.619 461.738L873.746 455.888Z" fill="#583E40"/>
<path d="M605.877 563.716C613.022 559.791 619.664 563.26 625.29 573.178L625.5 573.553L638.721 596.469C639.273 597.426 638.945 598.649 637.988 599.201C637.077 599.727 635.924 599.454 635.34 598.601L635.256 598.468L622.019 575.524C617.272 566.979 612.706 564.529 607.803 567.222C602.729 570.009 600.692 574.884 601.706 582.281L601.771 582.724L652.634 664.412C653.189 665.302 652.958 666.46 652.129 667.074L651.993 667.167C651.103 667.721 649.945 667.49 649.331 666.662L649.238 666.526L598.16 584.493C598.021 584.269 597.927 584.02 597.884 583.759C596.343 574.334 599.002 567.492 605.877 563.716Z" fill="#2E363A"/>
<path d="M593.223 576.155C593.493 575.084 594.581 574.435 595.652 574.706C596.674 574.964 597.312 575.966 597.132 576.989L597.101 577.135L580.879 641.387C580.609 642.458 579.521 643.107 578.45 642.837C577.428 642.579 576.79 641.576 576.97 640.554L577.001 640.408L593.223 576.155Z" fill="#2E363A"/>
<path d="M598.566 619.752C599.555 619.26 600.755 619.662 601.248 620.651L605.072 628.358C617.321 653.144 626.24 672.178 631.833 685.472L632.251 686.471C635.331 693.853 637.348 699.406 638.31 703.17C638.824 705.184 639.053 706.736 638.974 707.907C638.849 709.745 637.851 711.14 636 711.14C631.86 711.14 624.842 714.794 615.257 722.16C614.381 722.833 613.125 722.668 612.452 721.793C611.779 720.917 611.944 719.661 612.82 718.988C622.378 711.643 629.65 707.696 634.889 707.195L634.982 707.186L634.975 707.047C634.933 706.481 634.806 705.719 634.586 704.781L634.434 704.16L634.269 703.536C633.333 700.11 631.513 695.129 628.815 688.625L628.144 687.019C622.025 672.475 611.864 650.941 597.667 622.434C597.175 621.445 597.577 620.245 598.566 619.752Z" fill="#2E363A"/>
<path d="M645.422 608.811C646.345 608.205 647.585 608.464 648.191 609.387C679.242 656.77 688.834 682.942 675.362 688.832C664.144 693.737 655.017 699.891 647.965 707.288C647.203 708.087 645.937 708.118 645.138 707.355C644.338 706.593 644.308 705.327 645.07 704.528C652.506 696.728 662.074 690.276 673.76 685.167C683.193 681.043 674.089 656.205 644.845 611.58C644.24 610.656 644.498 609.416 645.422 608.811Z" fill="#2E363A"/>
<path d="M405.835 159.306C410.833 157.046 416.131 158.267 421.467 162.709C422.316 163.416 422.431 164.677 421.725 165.526C421.018 166.375 419.757 166.49 418.908 165.783C414.659 162.246 410.938 161.389 407.483 162.951C404.165 164.451 402.663 168.29 403.187 174.943C403.274 176.044 402.452 177.007 401.351 177.094C400.249 177.181 399.286 176.358 399.2 175.257C398.557 167.103 400.699 161.628 405.835 159.306Z" fill="#2E363A"/>
<path fill-rule="evenodd" clip-rule="evenodd" d="M91.447 725.768H790.447L768.885 756.116H69.8848L91.447 725.768Z" fill="#719CFE"/>
<path fill-rule="evenodd" clip-rule="evenodd" d="M64.2786 764.006H953.279L931.716 794.354H42.7163L64.2786 764.006Z" fill="#E9525B"/>
<path fill-rule="evenodd" clip-rule="evenodd" d="M37.1101 802.245H576.11L554.548 832.593H15.5479L37.1101 802.245Z" fill="#F6BE67"/>
<path d="M401.586 58.3022C401.975 57.2686 403.129 56.7464 404.163 57.1358C426.738 65.6415 443.025 76.4377 452.988 89.5742C453.656 90.4543 453.484 91.7088 452.604 92.3763C451.723 93.0438 450.469 92.8715 449.801 91.9914C440.348 79.5271 424.677 69.1396 402.752 60.8789C401.719 60.4895 401.197 59.3359 401.586 58.3022Z" fill="white"/>
<path d="M1217.94 719.5C1219.04 719.5 1219.94 720.395 1219.94 721.5C1219.94 722.554 1219.12 723.418 1218.09 723.495L1217.94 723.5H83.9365C82.832 723.5 81.9365 722.605 81.9365 721.5C81.9365 720.446 82.7524 719.582 83.7873 719.505L83.9365 719.5H1217.94Z" fill="#D8EAEF"/>
<path fill-rule="evenodd" clip-rule="evenodd" d="M775.582 755.676C778.292 755.488 781.002 753.966 783.712 751.111V741.82L777.716 744.842L775.582 755.676Z" fill="#4F576C"/>
<path fill-rule="evenodd" clip-rule="evenodd" d="M766.094 664.197H794.282V729.031C794.282 732.144 791.758 734.668 788.644 734.668H771.731C768.618 734.668 766.094 732.144 766.094 729.031V664.197Z" fill="#4F576C"/>
<path fill-rule="evenodd" clip-rule="evenodd" d="M752 663.961C752 645.778 766.741 631.037 784.924 631.037H787.733C796.798 631.037 801.33 636.322 801.33 646.893C801.33 657.463 793.368 668.534 777.446 680.106C760.482 677.17 752 671.788 752 663.961Z" fill="#6088E8"/>
<path fill-rule="evenodd" clip-rule="evenodd" d="M789.635 734.545C792.345 734.356 795.055 732.835 797.764 729.98V720.688L791.769 723.711L789.635 734.545Z" fill="#4F576C"/>
<path fill-rule="evenodd" clip-rule="evenodd" d="M794.282 666.882L801.329 657.386V719.26C801.329 723.1 800.094 726.837 797.806 729.92C797.163 730.787 795.939 730.968 795.072 730.325C794.575 729.956 794.282 729.374 794.282 728.756V666.882Z" fill="#697084"/>
<path fill-rule="evenodd" clip-rule="evenodd" d="M752 685.338H780.188V750.172C780.188 753.285 777.664 755.81 774.551 755.81H757.638C754.524 755.81 752 753.285 752 750.172V685.338Z" fill="#4F576C"/>
<path fill-rule="evenodd" clip-rule="evenodd" d="M780.188 688.023L787.236 678.527V742.121C787.236 744.844 786.359 747.494 784.737 749.681L783.712 751.062C783.069 751.928 781.845 752.109 780.978 751.466C780.481 751.098 780.188 750.516 780.188 749.897V688.023Z" fill="#697084"/>
<path fill-rule="evenodd" clip-rule="evenodd" d="M790.759 644.187C792.815 641.629 796.554 641.223 799.111 643.279C800.514 644.406 801.33 646.109 801.33 647.909V680.18L780.188 706.48V674.208C780.188 663.289 783.918 652.697 790.759 644.187Z" fill="#719CFE"/>
<path fill-rule="evenodd" clip-rule="evenodd" d="M766.094 657.336C758.31 657.336 752 663.647 752 671.431V706.48H780.188V671.431C780.188 663.647 773.878 657.336 766.094 657.336Z" fill="#6088E8"/>
<path fill-rule="evenodd" clip-rule="evenodd" d="M752 663.961H766.094V699.196H752V663.961Z" fill="#6088E8"/>
<path fill-rule="evenodd" clip-rule="evenodd" d="M756.983 663.961H761.111C764.302 663.961 767.362 662.693 769.618 660.437C770.424 659.631 770.424 658.324 769.618 657.518C769.231 657.131 768.706 656.914 768.158 656.914H764.03C760.839 656.914 757.78 658.181 755.523 660.437C754.717 661.243 754.717 662.55 755.523 663.356C755.911 663.743 756.436 663.961 756.983 663.961Z" fill="#6088E8"/>
<path fill-rule="evenodd" clip-rule="evenodd" d="M762.878 712.836C765.588 712.648 768.298 711.126 771.008 708.271V698.98L765.012 702.002L762.878 712.836Z" fill="#F69883"/>
<path fill-rule="evenodd" clip-rule="evenodd" d="M769.617 660.377C770.433 659.575 771.745 659.587 772.547 660.403C772.927 660.79 773.141 661.311 773.141 661.855V692.27L766.094 699.197V668.782C766.094 665.621 767.363 662.593 769.617 660.377Z" fill="#719CFE"/>
<path fill-rule="evenodd" clip-rule="evenodd" d="M766.094 693.756L773.141 686.83V704C773.141 705.512 772.534 706.961 771.455 708.021L769.617 709.827C768.801 710.629 767.49 710.618 766.688 709.802C766.307 709.415 766.094 708.893 766.094 708.35V693.756Z" fill="#FDB4A3"/>
<path fill-rule="evenodd" clip-rule="evenodd" d="M752 693.756H766.094V707.747C766.094 710.823 763.627 713.332 760.551 713.384L757.732 713.431C754.713 713.481 752.209 711.15 752.012 708.17L752 707.794V693.756Z" fill="#F69883"/>
<path fill-rule="evenodd" clip-rule="evenodd" d="M762.814 630.742V625.799C762.814 622.592 763.909 619.48 765.917 616.978L768.777 613.414L784.75 611.979L781.331 633.628L762.814 630.742Z" fill="#F69883"/>
<path fill-rule="evenodd" clip-rule="evenodd" d="M766.094 657.336C762.365 657.336 759.341 654.313 759.341 650.583C759.341 649.044 759.866 647.551 760.831 646.352L764.311 642.022C769.894 635.077 778.325 631.037 787.236 631.037C790.966 631.037 793.989 634.061 793.989 637.791C793.989 639.33 793.464 640.823 792.499 642.022L789.019 646.352C783.436 653.297 775.005 657.336 766.094 657.336Z" fill="#6088E8"/>
<path fill-rule="evenodd" clip-rule="evenodd" d="M776.264 632.216C776.264 624.856 778.778 617.716 783.389 611.98C784.775 610.256 787.296 609.982 789.019 611.367C789.965 612.127 790.515 613.275 790.515 614.488V624.869C790.515 627.423 790.177 630.393 789.5 633.778L789.361 634.46C787.783 641.984 781.303 647.458 773.653 647.785L773.299 647.797L772.684 647.803L770.431 647.8C766.305 647.793 762.948 644.512 762.818 640.417L762.814 640.17V627.568C762.814 623.854 765.825 620.843 769.539 620.843C773.253 620.843 776.264 623.854 776.264 627.568V632.216Z" fill="#FDB4A3"/>
<path fill-rule="evenodd" clip-rule="evenodd" d="M782.099 607.344C786.747 607.344 790.515 611.112 790.515 615.759V618.722L778.93 613.083L782.099 607.344Z" fill="#F69883"/>
<path fill-rule="evenodd" clip-rule="evenodd" d="M769.54 620.843C773.858 620.843 778.012 619.188 781.147 616.218L784.331 613.201C785.692 611.912 785.75 609.764 784.461 608.404C783.821 607.727 782.93 607.344 781.998 607.344C776.618 607.344 771.535 609.806 768.2 614.027L766.984 615.566C765.869 616.978 766.109 619.026 767.52 620.142C768.095 620.596 768.807 620.843 769.54 620.843Z" fill="#F69883"/>
<path d="M787.477 626.071C788.029 626.071 788.477 625.125 788.477 623.957C788.477 622.789 788.029 621.843 787.477 621.843C786.924 621.843 786.477 622.789 786.477 623.957C786.477 625.125 786.924 626.071 787.477 626.071Z" fill="#583E40"/>
<path d="M782.531 632.128C783.084 632.128 783.531 631.182 783.531 630.014C783.531 628.846 783.084 627.9 782.531 627.9C781.979 627.9 781.531 628.846 781.531 630.014C781.531 631.182 781.979 632.128 782.531 632.128Z" fill="#583E40"/>
<path d="M788.311 629.135C788.719 629.206 788.992 629.595 788.92 630.003C788.53 632.234 787.871 633.923 786.918 635.067C785.945 636.237 784.524 637.009 782.685 637.394C782.279 637.479 781.882 637.219 781.797 636.813C781.712 636.408 781.972 636.01 782.378 635.926C783.905 635.606 785.025 634.997 785.765 634.108C786.526 633.194 787.094 631.74 787.443 629.744C787.508 629.37 787.84 629.11 788.209 629.124L788.311 629.135Z" fill="#583E40"/>
<path fill-rule="evenodd" clip-rule="evenodd" d="M776.265 634.934L778.93 626.071V620.843C785.078 619.407 790.196 617.388 794.283 614.786C795.153 608.159 791.844 604.542 784.356 603.936C773.124 603.027 764.847 606.669 766.095 613.033C761.525 615.751 760.367 619.895 762.62 625.464L762.815 641.031L769.618 636.659L768.478 633.433C767.988 632.048 768.565 630.511 769.845 629.79C771.092 629.087 772.67 629.47 773.456 630.665L776.265 634.934Z" fill="#583E40"/>
<path d="M1190.77 757.739C1191.87 757.739 1192.77 758.634 1192.77 759.739C1192.77 760.793 1191.95 761.657 1190.92 761.733L1190.77 761.739H56.7681C55.6635 761.739 54.7681 760.843 54.7681 759.739C54.7681 758.684 55.5839 757.821 56.6188 757.744L56.7681 757.739H1190.77Z" fill="#D8EAEF"/>
<path d="M1163.17 796.584C1164.27 796.584 1165.17 797.479 1165.17 798.584C1165.17 799.638 1164.35 800.502 1163.32 800.578L1163.17 800.584H29.1685C28.0639 800.584 27.1685 799.689 27.1685 798.584C27.1685 797.53 27.9843 796.666 29.0192 796.589L29.1685 796.584H1163.17Z" fill="#D8EAEF"/>
<path d="M1136 834.823C1137.1 834.823 1138 835.718 1138 836.823C1138 837.877 1137.18 838.741 1136.15 838.817L1136 838.823H2C0.89543 838.823 0 837.927 0 836.823C0 835.768 0.815878 834.905 1.85074 834.828L2 834.823H1136Z" fill="#D8EAEF"/>
<path d="M1134.5 668.494L1138.5 668.506L1138 836.829L1134 836.817L1134.5 668.494Z" fill="#4F576C"/>
<path d="M1216.19 552.864L1220.19 552.876L1219.69 721.198L1215.69 721.186L1216.19 552.864Z" fill="#4F576C"/>
<path fill-rule="evenodd" clip-rule="evenodd" d="M1146.72 681.105V694.605L1136.5 709V695.5L1146.72 681.105ZM1146.72 654.105V667.605L1136.5 682V668.5L1146.72 654.105ZM1156.95 653.21V666.71L1146.72 681.105V667.605L1156.95 653.21ZM1167.17 652.315V665.815L1156.95 680.21V666.71L1167.17 652.315ZM1167.17 625.315V638.815L1156.95 653.21V639.71L1167.17 625.315ZM1177.4 624.419V637.919L1167.17 652.315V638.815L1177.4 624.419ZM1187.62 623.524V637.024L1177.4 651.419V637.919L1187.62 623.524ZM1187.62 596.524V610.024L1177.4 624.419V610.919L1187.62 596.524ZM1197.84 595.629V609.129L1187.62 623.524V610.024L1197.84 595.629ZM1208.07 594.734V608.234L1197.84 622.629V609.129L1208.07 594.734ZM1208.07 567.734V581.234L1197.84 595.629V582.129L1208.07 567.734ZM1218.29 566.839V580.339L1208.07 594.734V581.234L1218.29 566.839Z" fill="#4F576C"/>
<path fill-rule="evenodd" clip-rule="evenodd" d="M1146.72 667.605V681.105L1136.5 695.5V682L1146.72 667.605ZM1156.95 666.71V680.21L1146.72 694.605V681.105L1156.95 666.71ZM1156.95 639.71V653.21L1146.72 667.605V654.105L1156.95 639.71ZM1167.17 638.815V652.315L1156.95 666.71V653.21L1167.17 638.815ZM1177.4 637.919V651.419L1167.17 665.815V652.315L1177.4 637.919ZM1177.4 610.919V624.419L1167.17 638.815V625.315L1177.4 610.919ZM1187.62 610.024V623.524L1177.4 637.919V624.419L1187.62 610.024ZM1197.84 609.129V622.629L1187.62 637.024V623.524L1197.84 609.129ZM1197.84 582.129V595.629L1187.62 610.024V596.524L1197.84 582.129ZM1208.07 581.234V594.734L1197.84 609.129V595.629L1208.07 581.234ZM1218.29 580.339V593.839L1208.07 608.234V594.734L1218.29 580.339ZM1218.29 553.339V566.839L1208.07 581.234V567.734L1218.29 553.339Z" fill="#E8E8E8"/>
<path d="M401.462 296.336C401.595 294.336 404.23 293.778 405.188 295.464L405.262 295.606L416.266 318.614L453.155 396.614C453.628 397.612 453.201 398.804 452.203 399.277C451.252 399.726 450.125 399.361 449.612 398.463L449.539 398.324L412.653 320.332L404.945 304.215L402.453 341.602C402.383 342.654 401.511 343.461 400.474 343.469L400.325 343.464C399.272 343.394 398.465 342.523 398.458 341.485L398.462 341.336L401.462 296.336Z" fill="#2E363A"/>
<path d="M486.532 305.929C487.104 303.885 490.008 304.042 490.414 306.05L490.441 306.213L494.441 337.213C494.582 338.308 493.809 339.311 492.713 339.452C491.668 339.587 490.707 338.888 490.499 337.872L490.474 337.725L487.732 316.478L483.383 332.008C483.099 333.023 482.081 333.635 481.063 333.429L480.918 333.395C479.903 333.11 479.291 332.092 479.497 331.075L479.532 330.929L486.532 305.929Z" fill="#2E363A"/>
<path fill-rule="evenodd" clip-rule="evenodd" d="M444.431 611.981L279.392 693.469C279.284 679.884 277.837 667.047 275.049 654.959L275.781 655.865C286.601 669.128 295.66 674.192 302.959 671.058L308.119 668.871C324.041 662.16 369.478 643.197 444.431 611.981Z" fill="#F69883"/>
<path fill-rule="evenodd" clip-rule="evenodd" d="M826.065 535.497V536.343L823.567 537.643L672.646 665.469L652.12 627.288L631.688 585.843C661.298 621.268 682.635 635.287 695.698 627.9C708.761 620.513 752.217 589.712 826.065 535.497Z" fill="#F69883"/>
<path d="M725.842 215.389C741.082 215.389 753.436 203.035 753.436 187.796C753.436 172.557 741.082 160.203 725.842 160.203C710.603 160.203 698.249 172.557 698.249 187.796C698.249 203.035 710.603 215.389 725.842 215.389Z" fill="#E9525B"/>
<path d="M725.842 312.216C741.082 312.216 753.436 299.862 753.436 284.623C753.436 269.383 741.082 257.029 725.842 257.029C710.603 257.029 698.249 269.383 698.249 284.623C698.249 299.862 710.603 312.216 725.842 312.216Z" fill="#719CFE"/>
<path d="M725.842 409.043C741.082 409.043 753.436 396.689 753.436 381.449C753.436 366.21 741.082 353.856 725.842 353.856C710.603 353.856 698.249 366.21 698.249 381.449C698.249 396.689 710.603 409.043 725.842 409.043Z" fill="#F6BE67"/>
<path d="M922.332 167.296H781.668C774.672 167.296 769 172.967 769 179.964C769 186.96 774.672 192.631 781.668 192.631H922.332C929.328 192.631 935 186.96 935 179.964C935 172.967 929.328 167.296 922.332 167.296ZM781.668 171.296H922.332C927.119 171.296 931 175.177 931 179.964C931 184.751 927.119 188.631 922.332 188.631H781.668C776.881 188.631 773 184.751 773 179.964C773 175.177 776.881 171.296 781.668 171.296Z" fill="#F0DECF"/>
<path d="M905.778 203.506V207.506H771V203.506H905.778Z" fill="#F0DECF"/>
<path d="M922.332 264.123H781.668C774.672 264.123 769 269.794 769 276.79C769 283.786 774.672 289.458 781.668 289.458H922.332C929.328 289.458 935 283.786 935 276.79C935 269.794 929.328 264.123 922.332 264.123ZM781.668 268.123H922.332C927.119 268.123 931 272.003 931 276.79C931 281.577 927.119 285.458 922.332 285.458H781.668C776.881 285.458 773 281.577 773 276.79C773 272.003 776.881 268.123 781.668 268.123Z" fill="#F0DECF"/>
<path d="M905.778 300.333V304.333H771V300.333H905.778Z" fill="#F0DECF"/>
<path d="M922.332 361.123H781.668C774.672 361.123 769 366.794 769 373.79C769 380.786 774.672 386.458 781.668 386.458H922.332C929.328 386.458 935 380.786 935 373.79C935 366.794 929.328 361.123 922.332 361.123ZM781.668 365.123H922.332C927.119 365.123 931 369.003 931 373.79C931 378.577 927.119 382.458 922.332 382.458H781.668C776.881 382.458 773 378.577 773 373.79C773 369.003 776.881 365.123 781.668 365.123Z" fill="#F0DECF"/>
<path d="M905.778 397.333V401.333H771V397.333H905.778Z" fill="#F0DECF"/>
<path d="M322 158V162H56V158H322Z" fill="#F0DECF"/>
<path d="M197.438 118C189.154 118 182.438 124.716 182.438 133C182.438 141.284 189.154 148 197.438 148C205.723 148 212.438 141.284 212.438 133C212.438 124.716 205.723 118 197.438 118ZM197.438 122C203.514 122 208.438 126.925 208.438 133C208.438 139.075 203.514 144 197.438 144C191.363 144 186.438 139.075 186.438 133C186.438 126.925 191.363 122 197.438 122Z" fill="#F0DECF"/>
<path d="M251.832 119.576H224.196V147.212H251.832V119.576ZM247.832 123.575V143.212H228.195V123.575H247.832Z" fill="#F0DECF"/>
<path d="M299.098 143.212V147.212H265.55V143.212H299.098Z" fill="#F0DECF"/>
</svg>
