<svg width="1193" height="936" viewBox="0 0 1193 936" fill="none" xmlns="http://www.w3.org/2000/svg">
<path d="M630.5 929C785.968 929 912 802.968 912 647.5C912 492.032 785.968 366 630.5 366C475.032 366 349 492.032 349 647.5C349 802.968 475.032 929 630.5 929Z" fill="#F9F5E8"/>
<path d="M911.5 563C1066.97 563 1193 436.968 1193 281.5C1193 126.032 1066.97 0 911.5 0C756.032 0 630 126.032 630 281.5C630 436.968 756.032 563 911.5 563Z" fill="#E9F4F7"/>
<path d="M813.5 51C619.924 51 463 207.924 463 401.5C463 595.076 619.924 752 813.5 752C1007.08 752 1164 595.076 1164 401.5C1164 207.924 1007.08 51 813.5 51ZM813.5 55C1004.87 55 1160 210.133 1160 401.5C1160 592.867 1004.87 748 813.5 748C622.133 748 467 592.867 467 401.5C467 210.133 622.133 55 813.5 55Z" fill="#F0DECF"/>
<path fill-rule="evenodd" clip-rule="evenodd" d="M444.482 408.006C431.482 391.987 423.816 380.815 421.482 374.489C417.982 365 384.58 330.957 371.918 293.461C358.855 277.97 350.015 268.498 345.397 265.045C338.471 259.866 336.326 272.361 340.862 280.995C343.885 286.751 347.082 290.907 350.452 293.461L360.006 311.257L365.919 334.353L322.843 335.917C302.601 346.039 292.479 351.796 292.479 353.19C292.479 355.281 294.048 358.879 298.461 361.939C299.759 367.994 302.556 371.015 306.854 371.001C311.152 370.988 315.038 370.167 318.512 368.538C324.979 369.323 329.782 369.323 332.92 368.538L345.356 373.28L345.397 374.489C332.93 374.857 323.389 377.329 316.775 381.904C306.854 388.766 314.182 394.638 318.512 394.638C321.399 394.638 327.567 393.274 337.016 390.545H344.066C358.621 408.626 369.766 419.055 377.5 421.833C389.101 426 398.428 440.796 405.991 446.796C411.033 450.796 423.864 437.866 444.482 408.006Z" fill="#FDB4A3"/>
<path fill-rule="evenodd" clip-rule="evenodd" d="M322.843 335.917L365.919 334.353L367.904 341.879C368.185 342.947 367.548 344.041 366.48 344.323C366 344.449 365.491 344.393 365.051 344.165L359.931 341.516L360.751 344.273C373.968 388.917 378.665 414.376 374.84 420.649C367.39 416.736 357.306 406.919 344.59 391.194L344.066 390.545H337.016L335.92 390.86L333.774 391.464C326.312 393.533 321.282 394.591 318.686 394.637L318.512 394.638C314.182 394.638 306.854 388.766 316.775 381.904C323.259 377.418 332.557 374.955 344.667 374.513L345.397 374.489L345.356 373.28L332.92 368.538C329.782 369.323 324.979 369.323 318.512 368.538C315.038 370.167 311.152 370.988 306.854 371.001C302.556 371.015 299.759 367.994 298.461 361.939C294.048 358.879 292.479 355.281 292.479 353.19C292.479 351.879 301.432 346.708 319.337 337.677L322.843 335.917Z" fill="#F69883"/>
<path d="M328.106 348.792L328.936 348.321L366.769 357.611C368.056 357.927 368.843 359.227 368.527 360.514C368.224 361.748 367.018 362.522 365.785 362.307L365.624 362.273L329.626 353.433L329.512 353.495C323.641 356.617 314.039 360.044 300.637 363.822L299.104 364.252C297.827 364.607 296.504 363.859 296.149 362.582C295.794 361.305 296.541 359.982 297.818 359.627L299.316 359.208C312.646 355.45 322.071 352.07 327.517 349.118L328.106 348.792Z" fill="#2E363A"/>
<path fill-rule="evenodd" clip-rule="evenodd" d="M386.323 409.81C371.812 394.333 361.567 380.312 355.589 367.747C346.622 348.9 326.274 349.978 326.274 332.268C326.274 320.462 336.283 322.885 356.299 339.539C373.978 348.491 382.817 352.967 382.817 352.967C382.817 352.967 387.545 355.311 397 360" fill="#FDB4A3"/>
<path d="M356.746 370.712C357.976 370.219 359.373 370.817 359.866 372.047C364.136 382.703 369.835 390.208 376.938 394.643L377.366 394.906L378.632 395.669L377.321 413.013C377.221 414.335 376.068 415.325 374.746 415.225C373.48 415.129 372.517 414.067 372.527 412.815L372.534 412.651L373.625 398.219L373.526 398.155C366.047 393.184 360.104 385.271 355.675 374.483L355.411 373.832C354.918 372.602 355.515 371.205 356.746 370.712Z" fill="#2E363A"/>
<path fill-rule="evenodd" clip-rule="evenodd" d="M892.135 360C982.203 402.624 1034.42 431.899 1048.8 447.827C1070.37 471.719 1063.19 490.474 1054.31 532.93C1045.43 575.386 1016.82 761.067 1008.23 770.05C1002.5 776.038 995.714 778.385 987.863 777.091L994.995 851.091C996.404 865.717 988.259 879.594 974.802 885.493C934.487 903.164 888.68 912 837.381 912C785.963 912 734.359 903.123 682.571 885.37L680.882 884.788C664.987 879.281 655.51 862.978 658.588 846.441L686.586 696.264C686.98 694.168 687.28 692.578 687.486 691.493C689.541 680.689 684.173 647.325 671.383 591.398C633.85 633.473 603.823 654.511 581.303 654.511C559.437 654.511 501.191 590.817 406.564 463.43L403.685 459.55C400.15 454.78 400.008 448.298 403.332 443.377C409.258 434.607 415.596 427.133 422.348 420.954C428.608 415.226 435.723 410.154 443.694 405.739L444.695 405.19C450.019 402.303 456.597 403.167 460.995 407.333L464.87 410.998C527.591 470.265 562.574 499.899 569.819 499.899C576.4 499.899 597.906 475.45 634.335 426.551C646.936 409.636 664.563 397.139 684.695 390.847L783.387 360H892.135Z" fill="#229581"/>
<path d="M707.969 438.003C708.243 436.933 709.333 436.288 710.403 436.563C711.425 436.825 712.059 437.829 711.876 438.851L711.844 438.997L704.632 467.122C701.252 480.303 700.655 494.039 702.874 507.457L703.03 508.371L707.988 536.676C708.178 537.764 707.451 538.801 706.363 538.991C705.324 539.173 704.332 538.518 704.079 537.512L704.047 537.366L699.09 509.061C696.645 495.105 697.136 480.795 700.527 467.045L700.757 466.129L707.969 438.003Z" fill="#0D594C"/>
<path fill-rule="evenodd" clip-rule="evenodd" d="M783.798 405.363L823.002 443.664L881.072 407.336L850.966 400.347L837.049 408.727L824.5 419.708L815.711 408.727L800.397 391.234L783.798 405.363Z" fill="#177666"/>
<path fill-rule="evenodd" clip-rule="evenodd" d="M593.983 638.358C599.916 640.68 607.345 641.803 616.271 641.726C603.095 650.25 591.439 654.511 581.304 654.511C561.493 654.511 511.819 602.229 432.284 497.664L440.983 505.643C533.461 590.392 584.46 634.63 593.983 638.358Z" fill="#177666"/>
<path fill-rule="evenodd" clip-rule="evenodd" d="M786.684 670.1L789.164 672.172L789.103 673.756C789.094 674.023 789.084 674.292 789.075 674.563C789.012 676.423 789.815 678.201 791.24 679.384L791.438 679.541L793.402 681.031C857.577 729.527 921.788 761.365 986.035 776.545L987.239 776.827L987.435 777.267L987.924 777.719L994.995 851.092C996.404 865.717 988.259 879.594 974.802 885.493C945.209 898.464 912.657 906.675 877.145 910.125C880.691 902.722 884.471 895.595 888.482 888.741C920.842 833.451 803.385 728.118 788.982 707.156C779.483 693.331 778.632 681.095 786.426 670.447L786.684 670.1ZM958.461 527.998L958.982 528L945.984 656.581L939.982 659.409L939.982 667.233C936.455 665.429 930.518 664.575 922.17 664.673C917.256 661.826 910.7 658.621 902.5 655.056C921.591 627.172 933.689 593.588 933.387 571.825C932.987 542.964 941.173 528.357 957.945 528.004L958.461 527.998Z" fill="#177666"/>
<path d="M567.654 498.505C568.48 497.771 569.744 497.846 570.477 498.672L573.787 502.409C588.49 519.067 599.09 531.866 605.6 540.824C606.25 541.718 606.052 542.969 605.158 543.618C604.265 544.267 603.014 544.069 602.365 543.176L601.787 542.386C594.829 532.92 583.391 519.227 567.487 501.328C566.754 500.503 566.828 499.239 567.654 498.505Z" fill="#0D594C"/>
<path d="M569.637 497.509C587.903 494.308 604.326 496.197 618.851 503.198C619.846 503.678 620.264 504.873 619.784 505.868C619.304 506.863 618.109 507.281 617.114 506.801C603.375 500.179 587.799 498.387 570.328 501.449C569.24 501.64 568.203 500.912 568.012 499.825C567.822 498.737 568.549 497.7 569.637 497.509Z" fill="#0D594C"/>
<path fill-rule="evenodd" clip-rule="evenodd" d="M760.58 658.83L712.175 514.009C709.269 505.314 700.568 499.934 691.49 501.22L597.479 514.539C592.011 515.314 588.206 520.374 588.981 525.843C589.089 526.605 589.285 527.353 589.564 528.07L640.924 659.898C643.767 667.195 650.796 672 658.628 672H751.096C756.619 672 761.096 667.523 761.096 662C761.096 660.923 760.922 659.852 760.58 658.83Z" fill="#B6D4E5"/>
<path fill-rule="evenodd" clip-rule="evenodd" d="M757.58 660.83L709.175 516.009C706.269 507.314 697.568 501.934 688.49 503.22L594.479 516.539C589.011 517.314 585.206 522.374 585.981 527.843C586.089 528.605 586.285 529.353 586.564 530.07L637.924 661.898C640.767 669.195 647.796 674 655.628 674H748.096C753.619 674 758.096 669.523 758.096 664C758.096 662.923 757.922 661.852 757.58 660.83Z" fill="#E9F0F6"/>
<path fill-rule="evenodd" clip-rule="evenodd" d="M671.493 606C663.886 606 656.603 599.956 655.226 592.5C653.849 585.044 658.9 579 666.507 579C674.114 579 681.397 585.044 682.774 592.5C684.151 599.956 679.1 606 671.493 606Z" fill="#B6D4E5"/>
<path fill-rule="evenodd" clip-rule="evenodd" d="M726.11 557L757.861 578.814L797.994 618.505L809.018 622.661C796.581 634.343 790.165 651.789 789.769 675L775.74 662.453L728.638 652.964L703.253 644.942L683.717 628.551C680.709 625.97 680.306 621.482 682.761 618.41L682.928 618.208L706.507 632.491L726.11 635.804L704.6 627.663L682.928 611.572L682.713 611.454C679.958 609.878 678.734 606.543 679.815 603.559L679.906 603.325L681.12 600.333L673.994 592.027C672.221 589.96 671.59 587.149 672.309 584.523C672.406 584.168 672.568 583.834 672.786 583.538C673.728 582.262 675.493 581.953 676.807 582.802L676.962 582.909L703.253 602.318L732.187 610.811C732.266 610.834 732.348 610.846 732.431 610.846C732.91 610.846 733.298 610.458 733.298 609.979C733.298 609.335 732.92 608.756 732.341 608.494L732.204 608.44L703.253 598.372L680.786 577.265C679.024 575.61 678.472 573.037 679.399 570.805C679.478 570.615 679.574 570.432 679.687 570.259C680.658 568.774 682.614 568.319 684.133 569.191L684.3 569.294L710.526 586.443L736.162 588.722L726.11 557Z" fill="#FDB4A3"/>
<path d="M680.346 599.902C680.922 599.025 682.07 598.749 682.975 599.244L683.116 599.328L703.981 613.034L730.597 621.086C731.606 621.391 732.197 622.422 731.97 623.435L731.932 623.579C731.627 624.588 730.596 625.179 729.583 624.952L729.439 624.914L702.27 616.695L680.92 602.672C679.997 602.065 679.74 600.825 680.346 599.902Z" fill="#583E40"/>
<path d="M735.315 581.127C736.3 580.758 737.393 581.216 737.83 582.154L737.89 582.298L740.89 590.298C741.278 591.332 740.754 592.485 739.72 592.873C738.735 593.242 737.642 592.784 737.206 591.847L737.145 591.702L734.145 583.702C733.757 582.668 734.281 581.515 735.315 581.127Z" fill="#583E40"/>
<path fill-rule="evenodd" clip-rule="evenodd" d="M788.785 360.308V348.046L820.049 281.104L878.874 265.985L894.433 295.519L897.486 360.308L825.096 419.708C816.496 418.283 809.649 413.404 804.555 405.072C799.462 396.74 794.205 381.819 788.785 360.308Z" fill="#FDB4A3"/>
<path fill-rule="evenodd" clip-rule="evenodd" d="M730.34 186.927C725.488 211.549 733.331 227.587 753.868 235.041L781.804 199.977L760.032 173.153L730.34 186.927Z" fill="#2E363A"/>
<path fill-rule="evenodd" clip-rule="evenodd" d="M853.703 330.618C811.908 347.837 781.837 352.142 763.49 343.533C749.054 304.652 742.6 275.956 744.127 257.446C745.654 238.936 746.893 210.374 747.846 171.76C772.579 143.182 810.392 132.865 861.286 140.807C912.179 148.749 923.56 210.881 895.428 327.203L853.703 330.618Z" fill="#FDB4A3"/>
<path fill-rule="evenodd" clip-rule="evenodd" d="M888.761 274.05L894.433 295.519L897.486 360.308L843.929 404.252L843.135 404.354C864.598 369.872 834.279 350.661 817.545 353.826L817.043 353.929C805.963 356.365 796.71 354.335 789.283 347.837C794.602 346.596 799.773 345.938 804.798 345.865L805.738 345.858C811.057 345.858 817.311 343.432 824.5 338.578L830.088 336.01C846.773 328.374 856.931 324.062 860.561 323.074C864.58 321.979 867.501 315.261 869.324 302.919C885.523 295.519 876.862 279.809 888.761 274.05Z" fill="#F69883"/>
<path fill-rule="evenodd" clip-rule="evenodd" d="M793.771 397.03L823.002 443.664L873.552 394.134L844.041 404.354L836.653 408.64L824.868 419.092L815.998 408.64L798.555 386.767L793.771 397.03Z" fill="#D8D8D8"/>
<path fill-rule="evenodd" clip-rule="evenodd" d="M815.711 408.487C804.71 396.634 793.726 398.711 782.757 414.717L781.915 412.284C773.108 386.631 769.926 370.37 772.371 363.501L772.449 363.289C774.159 358.833 778.438 355.893 783.211 355.893H788.785L815.711 408.487Z" fill="white"/>
<path fill-rule="evenodd" clip-rule="evenodd" d="M897.486 358.817L836.653 408.573L837.013 408.375C840.14 406.691 862.887 395.344 874.592 414.716C898.185 395.845 903.447 377.966 904.868 366.534L904.91 366.19C905.341 362.574 902.759 359.294 899.143 358.864C898.885 358.833 898.624 358.817 898.364 358.817H897.486Z" fill="white"/>
<path d="M803.777 294.547C804.542 293.464 806.039 293.206 807.122 293.97C808.205 294.735 808.463 296.232 807.699 297.315C799.427 309.034 787.568 313.911 772.502 311.842C771.189 311.662 770.271 310.451 770.451 309.138C770.631 307.825 771.842 306.907 773.155 307.087C786.48 308.917 796.561 304.771 803.777 294.547Z" fill="#2E363A"/>
<path d="M755.376 253.008C757.855 253.008 759.864 249.88 759.864 246.021C759.864 242.162 757.855 239.034 755.376 239.034C752.898 239.034 750.889 242.162 750.889 246.021C750.889 249.88 752.898 253.008 755.376 253.008Z" fill="#2E363A"/>
<path d="M802.247 252.01C804.726 252.01 806.735 248.882 806.735 245.023C806.735 241.164 804.726 238.036 802.247 238.036C799.769 238.036 797.76 241.164 797.76 245.023C797.76 248.882 799.769 252.01 802.247 252.01Z" fill="#2E363A"/>
<path d="M775.331 246.331C775.711 245.061 777.049 244.34 778.318 244.72C779.588 245.1 780.309 246.438 779.929 247.708L778.601 252.125C774.652 265.193 771.708 274.33 769.754 279.576L769.556 280.104L769.63 280.2C773.157 284.692 777.238 285.659 782.476 283.309L782.779 283.169C783.979 282.607 785.408 283.123 785.971 284.323C786.534 285.523 786.017 286.952 784.817 287.515C776.87 291.243 769.954 289.25 764.864 281.812C764.412 281.152 764.319 280.31 764.616 279.567L764.886 278.878C766.961 273.503 770.451 262.632 775.331 246.331Z" fill="#2E363A"/>
<path fill-rule="evenodd" clip-rule="evenodd" d="M825.883 222.084L824.067 221.589L822.281 221.115C804.48 216.452 794.353 215.824 791.901 219.231C787.606 225.197 796.169 234.997 808.659 232.703C814.538 231.623 820.121 229.826 825.409 227.311L826.288 226.885C827.487 226.292 828.011 224.772 827.457 223.489C827.156 222.792 826.578 222.276 825.883 222.084Z" fill="#2E363A"/>
<path fill-rule="evenodd" clip-rule="evenodd" d="M740.451 221.887L742.018 221.502C758.334 217.542 767.605 217.011 769.83 219.909C773.603 224.822 766.285 232.731 755.456 230.731C750.358 229.789 745.51 228.264 740.911 226.157L740.146 225.801C739.103 225.305 738.635 224.059 739.103 223.018C739.357 222.452 739.852 222.037 740.451 221.887Z" fill="#2E363A"/>
<path fill-rule="evenodd" clip-rule="evenodd" d="M747.992 195.144C726.653 205.128 715.984 191.115 715.984 153.108L729.763 157.316C729.904 143.104 732.207 132.392 736.671 125.181L747.992 138.252C746.437 128.417 749.883 119.754 758.331 112.263C780.746 117.576 804.225 120.202 828.769 120.141L830.407 120.133C868.113 119.857 910.207 133.771 921.131 147.25C932.056 160.729 936.012 207.676 931.641 220.817L929.193 228.068C924.146 242.906 913.046 275.176 895.892 324.879C887.481 305.513 885.104 288.57 888.761 274.05C902.511 271.278 908.725 262.912 907.402 248.951C905.417 228.01 876.923 233.162 876.923 245.523L874.872 263.301C869.742 263.301 865.374 259.57 864.571 254.504L861.372 234.313C853.267 230.758 848.031 222.745 848.031 213.895C848.031 208.435 848.031 204.633 848.031 202.489C848.031 201.746 855.754 197.929 871.2 191.037C869.764 190.265 847.508 200.212 846.045 199.531C834.384 194.098 819.519 190.709 806.178 190.981L803.813 191.037C789.144 191.433 770.537 192.802 747.992 195.144Z" fill="#2E363A"/>
<path d="M866.959 302.433C867.184 301.127 868.426 300.25 869.732 300.476C871.038 300.701 871.914 301.943 871.689 303.249C869.772 314.361 866.211 321.684 860.76 325.114L860.287 325.403C854.862 328.636 839.003 335.52 812.413 346.209C811.184 346.703 809.786 346.107 809.292 344.877C808.797 343.647 809.393 342.249 810.623 341.755L816.139 339.529C839.847 329.929 853.956 323.724 858.204 321.051C862.25 318.505 865.251 312.334 866.959 302.433Z" fill="#2E363A"/>
<path d="M804.24 622.819C806.339 620.305 809.759 619.325 812.871 620.345L816.233 621.449C869.64 639.029 904.9 652.639 922.12 662.34L922.695 662.667L923.223 662.665C936.337 662.637 943.843 665.003 945.522 670.473L945.587 670.697C947.339 677.089 955.443 683.118 968.325 686.587C969.392 686.874 970.024 687.972 969.737 689.038C969.449 690.105 968.352 690.737 967.285 690.449C953.173 686.65 943.927 679.771 941.73 671.754C940.835 668.49 934.406 666.53 922.194 666.672C921.834 666.676 921.48 666.583 921.168 666.403C904.335 656.653 867.781 642.544 811.626 624.146C810.07 623.636 808.36 624.126 807.31 625.383C800.295 633.783 795.899 641.042 794.105 647.106L793.933 647.711C792.464 653.086 791.501 662.084 791.074 674.63C791.03 675.927 791.617 677.164 792.649 677.949C857.912 727.614 923.172 759.974 988.433 775.051C989.509 775.3 990.18 776.374 989.931 777.45C989.683 778.526 988.609 779.197 987.532 778.949C921.688 763.736 855.919 731.124 790.227 681.133C788.163 679.562 786.988 677.087 787.076 674.495L787.158 672.306C787.649 660.11 788.676 651.355 790.269 645.972C792.243 639.301 796.905 631.602 804.24 622.819Z" fill="#0D594C"/>
<path d="M959.162 526.008C960.262 526.107 961.073 527.08 960.974 528.18C957.227 569.733 952.893 612.607 947.972 656.802C947.859 657.815 947.003 658.581 945.984 658.581L945.583 658.587C941.087 658.734 940.637 661.446 944.716 669.055C945.238 670.029 944.871 671.241 943.898 671.763C942.924 672.285 941.712 671.919 941.19 670.945L940.848 670.293C936.301 661.463 937.188 655.671 943.882 654.719L944.182 654.68L944.521 651.632C949.049 610.707 953.07 570.921 956.587 532.275L956.99 527.821C957.085 526.77 957.975 525.983 959.013 526L959.162 526.008Z" fill="#0D594C"/>
<path d="M460.505 423.652C461.249 422.836 462.514 422.778 463.33 423.522C464.146 424.266 464.204 425.531 463.46 426.348C448.141 443.148 433.275 454.973 418.838 461.808C417.84 462.28 416.647 461.854 416.175 460.856C415.702 459.857 416.128 458.665 417.127 458.192C431.043 451.604 445.511 440.096 460.505 423.652Z" fill="#0D594C"/>
<path d="M409.568 443.586C410.308 442.846 411.484 442.807 412.269 443.469L412.397 443.586L419.397 450.586C420.178 451.367 420.178 452.633 419.397 453.414C418.657 454.154 417.481 454.193 416.695 453.531L416.568 453.414L409.568 446.414C408.787 445.633 408.787 444.367 409.568 443.586Z" fill="#0D594C"/>
<path d="M416.665 438.495C417.453 437.806 418.628 437.845 419.368 438.558L419.488 438.683L426.488 446.683C427.215 447.514 427.131 448.778 426.299 449.505C425.512 450.194 424.336 450.155 423.596 449.442L423.477 449.317L416.477 441.317C415.75 440.486 415.834 439.222 416.665 438.495Z" fill="#0D594C"/>
<path d="M421.568 432.586C422.308 431.846 423.484 431.807 424.269 432.469L424.397 432.586L433.397 441.586C434.178 442.367 434.178 443.633 433.397 444.414C432.657 445.154 431.481 445.193 430.695 444.531L430.568 444.414L421.568 435.414C420.787 434.633 420.787 433.367 421.568 432.586Z" fill="#0D594C"/>
<path d="M429.645 424.513C430.422 423.813 431.598 423.836 432.348 424.539L432.469 424.662L441.469 434.662C442.208 435.483 442.141 436.748 441.32 437.487C440.543 438.187 439.367 438.164 438.617 437.461L438.496 437.338L429.496 427.338C428.757 426.517 428.823 425.252 429.645 424.513Z" fill="#0D594C"/>
<path d="M438.645 416.513C439.422 415.813 440.598 415.836 441.348 416.539L441.469 416.662L450.469 426.662C451.208 427.483 451.141 428.748 450.32 429.487C449.543 430.187 448.367 430.164 447.617 429.461L447.496 429.338L438.496 419.338C437.757 418.517 437.823 417.252 438.645 416.513Z" fill="#0D594C"/>
<path d="M447.568 409.586C448.308 408.846 449.484 408.807 450.269 409.469L450.397 409.586L459.397 418.586C460.178 419.367 460.178 420.633 459.397 421.414C458.657 422.154 457.481 422.193 456.695 421.531L456.568 421.414L447.568 412.414C446.787 411.633 446.787 410.367 447.568 409.586Z" fill="#0D594C"/>
<path opacity="0.8" d="M0 269.312L365 194.939V330.254L0 372.939V269.312Z" fill="#719CFE"/>
<path opacity="0.8" d="M42 408.23L380 380V516L42 515.035V408.23Z" fill="#F7C066"/>
<path opacity="0.8" d="M42 555.939L380 567.998V703.939L42 662.698V555.939Z" fill="#E9525B"/>
<path opacity="0.8" d="M42 704L380 756.536V893L42 811.169V704Z" fill="#4757A4"/>
<path d="M379.412 88.4656L40.5537 179.186C30.255 181.943 22 192.59 22 203.135V820.744C22 831.289 30.255 841.935 40.5537 844.693L379.412 935.413C390.289 938.325 399 929.029 399 915.264V108.614C399 94.8493 390.289 85.5536 379.412 88.4656ZM395 108.614V915.264C395 926.669 388.425 933.685 380.446 931.549L41.5882 840.829C33.0308 838.538 26 829.47 26 820.744V203.135C26 194.409 33.0308 185.341 41.5882 183.05L380.446 92.3295C388.425 90.1933 395 97.2091 395 108.614Z" fill="#F0DECF"/>
<path d="M396.547 140.991L397.453 144.887L70.4529 220.887L69.5474 216.991L396.547 140.991Z" fill="#F0DECF"/>
<path d="M822.992 440C824.046 439.996 824.913 440.808 824.994 441.843L825 441.992L825.186 487.487C825.19 488.591 824.299 489.49 823.194 489.495C822.14 489.499 821.273 488.687 821.192 487.652L821.186 487.503L821 442.008C820.996 440.904 821.887 440.005 822.992 440Z" fill="#0D594C"/>
<path fill-rule="evenodd" clip-rule="evenodd" d="M684.887 841.415L718.434 850.945L715.547 865.53L682 856L684.887 841.415Z" fill="#0E5E50"/>
<path d="M80.6251 266.336L20.6251 277.787C16.9204 278.494 14 282.027 14 285.8V346.929C14 350.945 17.2954 353.87 21.2598 353.351L81.2598 345.491C85.0427 344.996 88 341.418 88 337.46V272.739C88 268.538 84.6533 265.567 80.6251 266.336ZM84 272.739V337.46C84 339.459 82.4801 341.297 80.7402 341.525L20.7402 349.385C19.1817 349.589 18 348.54 18 346.929V285.8C18 283.946 19.5567 282.063 21.3749 281.716L81.3749 270.265C82.8696 269.98 84 270.983 84 272.739Z" fill="white"/>
<path d="M59.9266 574.004C56.0904 573.869 53 577.002 53 580.926V642.055C53 645.873 55.9255 649.262 59.638 649.67L117.91 656.127C121.837 656.566 124.987 653.377 124.987 649.224V583.713C124.987 579.667 122.013 576.217 118.203 576.08L59.9266 574.004ZM59.7858 578.002L118.06 580.077C119.612 580.133 120.987 581.728 120.987 583.713V649.224C120.987 651.1 119.789 652.312 118.353 652.152L60.0765 645.694C58.4228 645.512 57 643.864 57 642.055V580.926C57 579.223 58.258 577.948 59.7858 578.002Z" fill="white"/>
<path d="M122.098 420.028L65.5266 425.36C61.8893 425.702 59 428.924 59 432.607V490.347C59 494.127 62.039 497.124 65.7828 496.996L122.354 495.057C126.069 494.93 129 491.663 129 487.803V426.67C129 422.713 125.914 419.669 122.098 420.028ZM125 426.67V487.803C125 489.57 123.709 491.009 122.217 491.06L65.6458 492.998C64.1823 493.048 63 491.882 63 490.347V432.607C63 430.975 64.332 429.49 65.9019 429.342L122.473 424.011C123.865 423.88 125 424.999 125 426.67Z" fill="white"/>
<path d="M344.176 399.067L165.449 415.896C155.197 416.862 147 426.645 147 437.745C147 448.959 155.377 457.631 165.765 456.964L344.491 445.49C354.848 444.825 363 433.782 363 420.959C363 408.031 354.68 398.078 344.176 399.067ZM359 420.959C359 431.847 352.255 440.983 344.235 441.498L165.509 452.972C157.52 453.485 151 446.735 151 437.745C151 428.641 157.701 420.643 165.824 419.879L344.551 403.049C352.423 402.308 359 410.175 359 420.959Z" fill="white"/>
<path d="M294.932 485.001C296.036 484.963 296.961 485.828 297 486.932C297.035 487.985 296.249 488.877 295.218 488.988L295.069 488.999L149.069 493.999C147.965 494.037 147.039 493.172 147 492.068C146.965 491.015 147.751 490.124 148.783 490.012L148.932 490.001L294.932 485.001Z" fill="white"/>
<path d="M360.896 460.003C361.999 459.945 362.94 460.793 362.997 461.896C363.052 462.949 362.282 463.854 361.252 463.984L361.104 463.997L149.104 474.997C148.001 475.055 147.06 474.207 147.003 473.104C146.948 472.051 147.718 471.146 148.748 471.016L148.896 471.003L360.896 460.003Z" fill="white"/>
<path d="M59 733.104V790.964C59 794.551 61.7437 798.024 65.242 798.874L121.807 812.809C125.709 813.783 129 810.982 129 806.855V744.581C129 740.768 126.217 737.229 122.622 736.615L66.0416 727.091C62.2144 726.456 59 729.21 59 733.104ZM65.3869 731.037L121.954 740.559C123.562 740.833 125 742.662 125 744.581V806.855C125 808.46 124.07 809.251 122.77 808.927L66.1927 794.989C64.4774 794.572 63 792.702 63 790.964V733.104C63 731.671 64.0071 730.808 65.3869 731.037Z" fill="white"/>
<path d="M147 761.977C147 773.05 154.899 783.687 164.884 786.005L344.206 825.692C354.746 827.884 363 818.211 363 804.535C363 790.966 354.984 778.385 344.732 776.46L165.977 744.252C155.509 742.445 147 750.504 147 761.977ZM165.297 748.194L344.009 780.394C352.118 781.917 359 792.719 359 804.535C359 815.958 352.676 823.368 345.045 821.781L166.069 782.171C157.818 780.419 151 771.344 151 761.977C151 752.88 157.39 746.829 165.297 748.194Z" fill="white"/>
<path d="M147.064 816.496C147.33 815.476 148.337 814.845 149.358 815.032L149.504 815.064L295.504 853.064C296.573 853.343 297.214 854.435 296.936 855.504C296.67 856.524 295.663 857.155 294.642 856.968L294.496 856.935L148.496 818.935C147.427 818.657 146.786 817.565 147.064 816.496Z" fill="white"/>
<path d="M147.055 797.532C147.302 796.507 148.297 795.858 149.321 796.026L149.468 796.055L361.468 847.055C362.542 847.314 363.203 848.394 362.944 849.468C362.698 850.493 361.703 851.142 360.679 850.974L360.532 850.945L148.532 799.945C147.458 799.686 146.797 798.606 147.055 797.532Z" fill="white"/>
<path d="M314.125 221.77L126.125 257.651C115.49 259.681 107 270.627 107 282.177C107 293.981 115.89 302.315 126.818 300.556L314.818 270.302C325.547 268.576 334 256.32 334 242.953C334 229.355 325.173 219.662 314.125 221.77ZM330 242.953C330 254.504 322.783 264.969 314.182 266.353L126.182 296.607C117.78 297.959 111 291.604 111 282.177C111 272.496 118.18 263.24 126.875 261.581L314.875 225.699C323.157 224.119 330 231.634 330 242.953Z" fill="white"/>
<path d="M143.326 598.595C143.326 610.378 151.683 620.608 162.173 621.393L344.762 635.474C355.499 636.327 363.913 625.213 363.913 611.03C363.913 596.92 355.617 584.98 344.994 584.567L162.395 577.683C151.806 577.296 143.326 586.733 143.326 598.595ZM162.249 581.68L344.841 588.564C352.989 588.881 359.913 598.847 359.913 611.03C359.913 623.136 353.108 632.124 345.074 631.487L162.476 617.404C154.187 616.784 147.326 608.386 147.326 598.595C147.326 588.88 154.065 581.381 162.249 581.68Z" fill="white"/>
<path d="M262.396 317.114C263.491 316.97 264.495 317.741 264.639 318.836C264.777 319.882 264.08 320.844 263.064 321.055L262.917 321.08L109.261 341.274C108.166 341.418 107.161 340.647 107.017 339.551C106.88 338.506 107.576 337.543 108.592 337.333L108.74 337.308L262.396 317.114Z" fill="white"/>
<path d="M145.554 654.649L294.791 671.783C295.888 671.909 296.676 672.901 296.55 673.998C296.43 675.046 295.52 675.811 294.484 675.769L294.335 675.757L145.097 658.622C144 658.496 143.212 657.505 143.338 656.407C143.459 655.36 144.368 654.595 145.405 654.637L145.554 654.649Z" fill="white"/>
<path d="M332.208 284.084C333.301 283.923 334.318 284.679 334.478 285.771C334.632 286.815 333.951 287.788 332.938 288.014L332.791 288.041L109.291 320.95C108.198 321.111 107.182 320.356 107.021 319.263C106.868 318.22 107.549 317.247 108.562 317.02L108.708 316.993L332.208 284.084Z" fill="white"/>
<path d="M145.366 633.987L145.515 633.995L362.587 654.65C363.687 654.755 364.494 655.731 364.389 656.83C364.289 657.88 363.395 658.663 362.358 658.641L362.209 658.632L145.136 637.977C144.036 637.873 143.23 636.897 143.334 635.797C143.434 634.747 144.328 633.965 145.366 633.987Z" fill="white"/>
<path d="M887.876 243.64C897.955 243.119 903.144 247.947 902.148 257.235C902.007 258.553 900.824 259.506 899.506 259.365C898.188 259.224 897.234 258.041 897.376 256.723C898.04 250.525 895.389 248.058 888.124 248.434C886.8 248.502 885.672 247.485 885.603 246.161C885.535 244.837 886.553 243.709 887.876 243.64Z" fill="#2E363A"/>
</svg>
