<svg width="1118" height="1016" viewBox="0 0 1118 1016" fill="none" xmlns="http://www.w3.org/2000/svg">
<path d="M697.143 37.6464L659.636 15.9917L622.129 37.6464V80.9558L659.636 102.611L697.143 80.9558V37.6464ZM659.636 20.6095L693.143 39.9555V78.6455L659.636 97.9915L626.129 78.6455V39.9555L659.636 20.6095Z" fill="#F0DECF"/>
<path d="M730.382 11.4093C732.532 10.162 735.285 10.8935 736.533 13.0431C737.742 15.1276 737.091 17.7802 735.09 19.0763L734.899 19.1938L655.794 65.0929C654.095 66.079 651.961 65.8452 650.517 64.5382L650.354 64.3826L615.762 29.791L515.037 80.9383C512.889 82.0294 510.277 81.231 509.094 79.161L508.988 78.9633C507.897 76.8145 508.695 74.2025 510.765 73.0201L510.963 72.9135L614.599 20.2892C616.268 19.4415 618.28 19.7187 619.656 20.9653L619.818 21.1195L654.27 55.5709L730.382 11.4093Z" fill="#E9525B"/>
<path d="M708.813 3.71934C709.233 1.34174 711.447 -0.268397 713.817 0.0371562L714.026 0.0691175L740.616 4.75762C742.994 5.17685 744.604 7.39133 744.298 9.7612L744.266 9.97067L739.578 36.5605C739.146 39.008 736.812 40.6423 734.365 40.2107C731.987 39.7915 730.377 37.577 730.683 35.2071L730.715 34.9976L734.621 12.8398L712.463 8.93239C710.086 8.51315 708.476 6.29868 708.781 3.9288L708.813 3.71934Z" fill="#E9525B"/>
<path d="M350.5 252.501C156.924 252.501 0 409.425 0 603.001C0 796.577 156.924 953.501 350.5 953.501C544.076 953.501 701 796.577 701 603.001C701 409.425 544.076 252.501 350.5 252.501ZM350.5 256.501C541.867 256.501 697 411.634 697 603.001C697 794.368 541.867 949.501 350.5 949.501C159.133 949.501 4 794.368 4 603.001C4 411.634 159.133 256.501 350.5 256.501Z" fill="#F0DECF"/>
<path d="M1049 623.501V946.501H526V625.501H530V942.501H1045V627.501H926.388V623.501H1049Z" fill="#F0DECF"/>
<path d="M613.477 230.145L946.896 336.698L823.785 554.713L495.457 449.304L613.477 230.145Z" fill="#6F97F8"/>
<path d="M620.541 247.644L516.515 440.816L816.961 537.273L925.482 345.095L620.541 247.644Z" fill="#4757A4"/>
<path d="M591.46 352.21C591.901 350.96 593.235 350.281 594.493 350.635L594.649 350.685L855.724 442.869C857.026 443.329 857.709 444.757 857.249 446.059C856.808 447.309 855.474 447.988 854.216 447.633L854.059 447.584L592.985 355.4C591.683 354.94 591 353.512 591.46 352.21Z" fill="white"/>
<path d="M798.263 315.94C798.848 314.69 800.337 314.151 801.587 314.737C802.785 315.298 803.33 316.688 802.858 317.903L802.791 318.061L723.885 486.575C723.299 487.826 721.811 488.365 720.561 487.779C719.362 487.218 718.817 485.828 719.289 484.612L719.357 484.455L798.263 315.94Z" fill="white"/>
<path d="M843.432 336.383C844.049 335.148 845.551 334.647 846.786 335.264C847.97 335.855 848.479 337.259 847.976 338.462L847.905 338.618L767.054 500.451C766.437 501.686 764.935 502.187 763.7 501.57C762.516 500.979 762.007 499.575 762.51 498.372L762.581 498.216L843.432 336.383Z" fill="white"/>
<path d="M881.141 351.933C881.753 350.696 883.253 350.189 884.49 350.802C885.676 351.39 886.19 352.792 885.692 353.996L885.621 354.152L806.991 512.887C806.378 514.124 804.879 514.63 803.641 514.017C802.456 513.43 801.941 512.028 802.44 510.823L802.511 510.667L881.141 351.933Z" fill="white"/>
<path fill-rule="evenodd" clip-rule="evenodd" d="M674.324 333.986C674.553 334.07 674.781 334.164 675.006 334.267C676.874 335.121 678.359 336.555 679.204 338.265L679.402 338.698C679.572 339.103 679.706 339.519 679.803 339.949C680.802 344.371 678.103 348.605 674.989 350.836C674.01 351.538 672.974 352.102 671.913 352.571L683.377 356.142C684.463 356.538 685.038 357.721 684.686 358.839C684.326 359.994 683.109 360.644 681.968 360.287L663.715 354.601C662.833 354.28 662.258 353.418 662.298 352.466C662.343 351.476 663.037 350.633 663.994 350.413L665.5 350.058C668.012 349.448 670.501 348.708 672.498 347.276C674.366 345.938 676.128 343.387 675.579 340.948C675.326 339.827 674.434 338.819 673.194 338.254C673.072 338.197 672.949 338.148 672.827 338.104C671.996 337.801 671.136 337.74 670.378 337.925L669.995 339.277C669.666 340.439 668.465 341.12 667.315 340.795L667.087 340.714L666.999 340.675C666.039 340.228 665.531 339.155 665.832 338.102L666.51 335.707C666.673 335.134 667.058 334.65 667.58 334.367C669.574 333.292 672.043 333.156 674.324 333.986ZM632.337 291.036C632.61 291.135 632.867 291.289 633.094 291.496L633.396 291.915L633.483 291.902C633.718 291.911 633.944 291.959 634.154 292.035C635.035 292.356 635.649 293.209 635.615 294.184L634.741 318.076C635.583 318.653 635.967 319.71 635.566 320.674C635.374 321.138 635.019 321.47 634.61 321.701L634.412 327.086L634.385 327.359L634.326 327.62C634.048 328.551 633.156 329.209 632.122 329.159C631.89 329.149 631.666 329.102 631.458 329.026C630.852 328.806 630.372 328.337 630.142 327.75C630.035 327.48 629.982 327.185 629.992 326.878L630.214 320.815L614.512 314.314L610.07 318.995C609.452 319.65 608.512 319.836 607.702 319.541C607.429 319.442 607.171 319.29 606.945 319.081C606.049 318.252 605.994 316.872 606.824 315.998L629.969 291.582C630.589 290.927 631.527 290.741 632.337 291.036ZM713.55 316.338C714.448 316.8 714.888 317.949 714.561 318.956L709.958 333.12C712.519 331.868 715.54 331.462 718.209 332.433C719.048 332.738 719.85 333.18 720.593 333.773C721.986 334.881 722.949 336.428 723.394 338.206L723.502 338.697C723.638 339.393 723.693 340.121 723.667 340.868C723.551 344.173 721.868 347.312 719.279 349.062C718.406 349.653 717.45 350.116 716.44 350.449L715.592 350.122C715.877 350.236 716.159 350.345 716.44 350.449C713.495 351.423 710.073 351.303 706.786 350.106C705.997 349.819 705.216 349.47 704.453 349.059C703.888 349.549 703.083 349.742 702.313 349.492L702.235 349.466C701.453 349.181 700.922 348.5 700.801 347.732C700.748 347.404 700.771 347.063 700.877 346.727L710.348 317.583C710.484 317.165 710.736 316.816 711.056 316.559C711.891 316.491 712.722 316.418 713.55 316.338ZM738.093 346.337C738.55 344.346 737.888 341.798 736.192 340.945L735.899 340.819C734.267 340.225 732.252 341.253 731.098 342.584C729.597 344.315 728.836 346.729 728.104 349.062C727.748 350.196 726.542 350.832 725.388 350.493L725.342 350.476C724.219 350.067 723.566 348.952 723.869 347.821L730.052 324.868C730.365 323.703 731.572 323.019 732.75 323.338L732.957 323.402C734.012 323.786 734.606 324.928 734.311 326.023L731.34 337.049C733.193 336.222 735.319 335.981 737.437 336.735C741.698 338.316 743.302 343.367 742.391 347.335C742.306 347.708 742.204 348.075 742.085 348.433C741.412 350.475 740.255 352.273 739.03 353.859C739.785 354.384 740.163 355.344 739.892 356.269C739.556 357.426 738.335 358.084 737.166 357.742L734.677 357.013L734.541 356.968C733.886 356.729 733.378 356.201 733.177 355.534C732.96 354.823 733.122 354.053 733.605 353.493C734.414 352.557 735.267 351.565 736.021 350.521C736.968 349.21 737.755 347.816 738.093 346.337ZM716.57 335.528C714.428 334.749 711.531 335.803 709.765 337.589C709.17 338.191 708.645 338.866 708.176 339.592L707.835 340.145C707.15 341.311 706.588 342.585 706.096 343.882L707.324 343.805C707.625 343.787 707.915 343.829 708.179 343.926C708.933 344.2 709.493 344.897 709.585 345.756C711.926 346.263 714.452 346.061 716.471 344.629C717.91 343.609 718.899 341.681 718.995 339.718L719.002 339.333L718.995 339.117L718.968 338.771C718.872 337.912 718.551 336.877 717.655 336.143C717.326 335.873 716.96 335.67 716.57 335.528ZM654.421 321.421C655.583 321.844 656.22 323.028 655.842 324.067C655.464 325.106 654.215 325.603 653.053 325.18L643.168 321.582C642.006 321.159 641.368 319.976 641.747 318.937C642.125 317.897 643.374 317.401 644.536 317.823L654.421 321.421ZM630.973 296.924L617.781 311.688L629.786 316.712L630.973 296.924ZM669.812 318.51L669.902 318.545L694.359 329.183C695.469 329.667 695.977 330.954 695.495 332.062C695.031 333.125 693.821 333.633 692.742 333.241L692.614 333.19L668.158 322.551C667.049 322.069 666.539 320.781 667.024 319.674C667.49 318.597 668.699 318.105 669.812 318.51ZM655.354 313.248C656.385 313.623 656.99 314.73 656.719 315.782C656.428 316.911 655.243 317.576 654.069 317.265L645.716 315.052L645.519 314.989C644.466 314.605 643.845 313.508 644.121 312.443C644.411 311.313 645.596 310.651 646.769 310.963L655.118 313.175C655.2 313.196 655.278 313.22 655.354 313.248ZM688.595 293.421C689.756 293.843 690.44 295.017 690.117 296.114L683.951 316.999C683.617 318.129 682.352 318.74 681.123 318.365L680.994 318.323C679.845 317.905 679.181 316.73 679.505 315.637L685.67 294.754C686.005 293.625 687.27 293.011 688.499 293.388L688.595 293.421ZM712.632 316.547C712.698 316.571 712.761 316.598 712.822 316.631C712.088 316.711 711.352 316.785 710.612 316.854C711.051 316.493 711.633 316.325 712.208 316.432L712.454 316.495C712.515 316.508 712.575 316.526 712.632 316.547Z" fill="white"/>
<path fill-rule="evenodd" clip-rule="evenodd" d="M857.511 526.535C856.868 510.388 854.393 494.868 850.087 479.974C845.78 465.081 844.622 453.004 846.613 443.744C847.51 435.923 849.169 431.275 851.59 429.802C855.221 427.591 865.68 441.84 867.682 457.762C867.682 457.762 868.893 461.627 871.315 469.358L877.896 457.762L901.806 416.318C911.097 446.371 916.151 467.589 916.968 479.974C917.569 489.102 910.122 514.902 910.122 519.725C910.122 534.363 908.622 546.025 905.62 554.713L857.511 526.535Z" fill="#F6A388"/>
<path d="M901.043 528.606L900.83 529.87L900.622 531.159C899.823 536.231 899.422 540.298 899.422 543.386C899.422 551.819 902.85 559.016 909.67 560.6C914.521 561.726 917.23 555.609 918.443 546.022C919.46 537.984 919.014 529.551 917.103 525.993C915.85 523.659 913.591 522.033 910.98 521.584C906.297 520.779 901.848 523.923 901.043 528.606ZM910.303 525.526C911.7 525.766 912.908 526.636 913.579 527.885C914.957 530.45 915.378 537.943 914.528 545.083L914.475 545.52C913.585 552.556 911.638 556.951 910.574 556.704C906.026 555.647 903.422 550.18 903.422 543.386C903.422 540.295 903.872 536.001 904.775 530.528L904.986 529.277C905.416 526.778 907.797 525.095 910.303 525.526Z" fill="white"/>
<path fill-rule="evenodd" clip-rule="evenodd" d="M899.725 530.985C885.989 531.684 875.126 530.347 867.136 526.973L859.35 543.562L884.923 548.92L901.823 544.175L902.861 534.294C903.034 532.647 901.839 531.171 900.191 530.997C900.036 530.981 899.88 530.977 899.725 530.985Z" fill="#2E363A"/>
<path fill-rule="evenodd" clip-rule="evenodd" d="M516.411 419.509C541.254 404.989 553.675 395.71 553.675 391.67C553.675 387.631 551.373 384.511 546.769 382.309H531.441L556.605 337.501C505.151 357.203 477.717 370.871 474.303 378.505C470.89 386.139 466.122 391.916 460 395.836L504.462 439.668L516.411 419.509Z" fill="#E49378"/>
<path fill-rule="evenodd" clip-rule="evenodd" d="M513.31 419.585L520.448 426.642L501.075 494.312L418 483.768V382.14L448.963 368.501L468.848 375.752L513.31 419.585Z" fill="#D19C49"/>
<path fill-rule="evenodd" clip-rule="evenodd" d="M514.383 416.318L573.256 675.295L573.302 680.931C574.102 771.556 578.125 838.69 585.372 882.333L585.81 884.915C587.723 896.007 590.701 910.705 594.742 929.009C598.085 944.151 591.632 959.771 578.576 968.138C529.355 999.682 465.387 1015.35 386.671 1015.16C307.73 1014.95 246.409 994.418 202.708 953.547L201.389 952.302C190.816 942.233 187.164 926.9 192.027 913.165L194.553 906.267C224.004 825.282 236.405 776.07 231.756 758.631C224.023 729.622 165.412 560.984 165.412 488.651C165.412 440.429 182.018 394.153 215.232 349.822C254.418 328.823 297.43 321.075 344.268 326.579C391.106 332.083 447.811 361.996 514.383 416.318Z" fill="#F6BE67"/>
<path fill-rule="evenodd" clip-rule="evenodd" d="M213.671 374.068C223.881 342.5 242.034 323.682 268.13 317.612C294.226 311.543 308.594 313.96 311.235 324.864L291.082 326.995C272.736 341.302 262.663 361.092 260.862 386.365L224.507 389.809L213.671 374.068Z" fill="#717569"/>
<path fill-rule="evenodd" clip-rule="evenodd" d="M217.075 364.729L262.46 374.144C261.696 378.064 261.164 382.138 260.862 386.365L224.507 389.809L213.671 374.068C214.721 370.82 215.856 367.707 217.075 364.729Z" fill="#626658"/>
<path fill-rule="evenodd" clip-rule="evenodd" d="M307.763 738.035L461.262 806.89C464.361 852.464 456.808 884.62 438.605 903.359C413.298 929.408 324.402 961.235 197.964 896.828V896.818L199.565 892.331C225.402 819.613 236.133 775.046 231.757 758.631L231.437 757.456C231.284 756.904 231.117 756.313 230.936 755.683L230.926 755.681C253.198 749.552 278.811 743.67 307.763 738.035Z" fill="#D19C49"/>
<path fill-rule="evenodd" clip-rule="evenodd" d="M516.515 544.638L557.665 606.711L573.256 675.296C572.21 699.805 571.993 724.001 572.606 747.884C500.878 625.884 481.836 558.265 515.479 545.023L516.515 544.638Z" fill="#D19C49"/>
<path fill-rule="evenodd" clip-rule="evenodd" d="M462.518 533.705V803.246C462.518 817.282 458.778 831.065 451.683 843.177C437.213 867.879 418.837 883.607 396.556 890.362C337.575 908.242 233.846 887.95 146.191 825.16C134.383 808.848 128.658 789.868 129.016 768.221C129.553 735.75 148.34 458.059 165.412 416.318C176.793 388.49 209.147 388.49 262.474 416.318L462.518 533.705Z" fill="#717569"/>
<path fill-rule="evenodd" clip-rule="evenodd" d="M462.518 550.448V803.246C462.518 817.282 458.778 831.065 451.683 843.177C437.213 867.879 418.837 883.607 396.556 890.362C370.853 898.154 336.65 898.697 298.983 891.631L309.45 889.351C316.337 887.865 322.171 886.646 323.322 886.52L323.553 886.504C325.097 886.356 337.589 882.569 361.031 875.144C370.989 867.357 380.046 858.863 388.201 849.661C396.193 840.643 402.428 802.757 406.905 736.003L407.177 731.88L424.206 550.448H462.518Z" fill="#626658"/>
<path fill-rule="evenodd" clip-rule="evenodd" d="M574.743 186.721L573.929 196.029C572.065 217.724 571.134 231.674 571.134 237.879C571.134 252.068 580.878 273.396 577.63 280.012C575.465 284.422 570.081 286.179 561.478 285.281L560.88 288.021C551.126 332.321 541.712 354.47 532.639 354.47C523.38 354.47 510.609 352.439 494.325 348.375L485.545 381.227L466.609 375.432C385.916 350.699 347.297 338.332 350.752 338.332C354.467 338.332 367.211 296.21 388.983 211.966L428.627 83.7969L436.321 84.4545C461.66 86.6409 540.996 93.66 542.877 95.9915L542.988 96.1362C544.11 97.665 548.653 105.289 556.615 119.009L561.734 127.853C572.023 145.67 576.566 166.227 574.743 186.721Z" fill="#F6A388"/>
<path fill-rule="evenodd" clip-rule="evenodd" d="M462.157 258.497C460.606 284.301 461.965 302.972 466.234 314.511C470.504 326.049 479.867 337.337 494.325 348.375L489.551 366.507L395.82 331.818C382.086 325.447 374.436 315.189 372.868 301.045C371.301 286.901 401.064 272.718 462.157 258.497Z" fill="#E49378"/>
<path fill-rule="evenodd" clip-rule="evenodd" d="M551.128 307.588C541.471 304.838 534.835 299.711 531.222 292.207C527.391 290.479 526.632 291.923 528.944 296.539C531.034 300.713 539.257 307.92 549.656 310.567C550.392 310.755 550.882 309.762 551.128 307.588Z" fill="#583E40"/>
<path d="M474.724 232.924C475.042 231.866 476.158 231.267 477.216 231.586C486.218 234.298 489.444 240.638 486.455 249.686C486.108 250.735 484.977 251.304 483.928 250.957C482.879 250.611 482.31 249.48 482.657 248.431C484.945 241.505 482.893 237.474 476.062 235.415C475.004 235.097 474.405 233.981 474.724 232.924Z" fill="#583E40"/>
<path fill-rule="evenodd" clip-rule="evenodd" d="M537.038 175.071C571.888 168.881 589.313 154.642 589.313 132.354C589.313 98.9221 518.391 17.8586 464.392 58.785C413.348 54.8003 375.243 74.1065 350.079 116.704C312.332 180.599 357.35 242.179 357.35 259.644V281.72C357.35 294.699 366.921 305.69 379.777 307.474L407.559 311.329C419.828 313.031 431.573 305.844 435.664 294.192L435.792 293.818C441.814 275.803 450.353 263.997 461.41 258.401C457.553 241.068 461.435 229.003 473.058 222.207C490.492 212.013 495.09 229.679 495.09 240.251C500.444 237.199 503.51 234.763 504.287 232.943L504.394 232.684C505.189 230.706 506.548 226.159 508.471 219.044L513.267 214.103C522.146 204.956 529.195 194.195 534.032 182.4L537.038 175.071Z" fill="#80424C"/>
<path fill-rule="evenodd" clip-rule="evenodd" d="M311.677 331.818C311.941 317.672 318.153 310.598 330.314 310.598C342.475 310.598 390.647 326.077 474.832 357.034C505.781 371.382 518.965 391.144 514.384 416.318C472.077 405.716 433.175 393.129 397.68 378.557C362.185 363.984 333.517 348.404 311.677 331.818Z" fill="#F6BE67"/>
<path d="M310.084 330.608C310.752 329.729 312.007 329.557 312.886 330.225C334.575 346.696 363.094 362.195 398.44 376.706C433.843 391.241 472.653 403.799 514.87 414.378C515.941 414.646 516.592 415.732 516.324 416.804C516.055 417.875 514.969 418.526 513.898 418.258C471.5 407.634 432.508 395.017 396.921 380.406C361.276 365.772 332.459 350.112 310.467 333.411C309.588 332.743 309.416 331.488 310.084 330.608Z" fill="#CA8E31"/>
<path fill-rule="evenodd" clip-rule="evenodd" d="M514.384 416.318L517.872 417.484C574.365 436.493 607.489 453.982 617.246 469.952C627.202 486.247 658.302 550.351 710.546 662.262L720.297 652.252C796.887 573.72 839.273 532.386 847.455 528.252C860.239 521.791 923.873 526.145 934.622 597.308L770.261 782.371C732.991 824.335 668.762 828.138 626.802 790.864C621.193 785.882 616.154 780.294 611.776 774.203L608.699 769.913C559.397 700.979 531.03 652.762 523.599 625.262L523.376 624.418C519.289 608.611 511.077 589.731 509.301 564.362L509.198 562.812C507.595 537.023 509.323 488.192 514.384 416.318Z" fill="#F6BE67"/>
<path fill-rule="evenodd" clip-rule="evenodd" d="M395.82 441.216C432.461 414.177 465.673 402.906 495.457 407.403C525.24 411.9 553.368 423.521 579.841 442.264C513.477 432.973 466.668 443.268 439.413 473.151L399.771 457.407L395.82 441.216Z" fill="#717569"/>
<path fill-rule="evenodd" clip-rule="evenodd" d="M407.289 433.193L453.591 460.599C448.389 464.306 443.663 468.49 439.413 473.15L399.771 457.407L395.82 441.216C399.681 438.366 403.504 435.692 407.289 433.193Z" fill="#626658"/>
<path d="M431.718 459.184C472.478 431.138 516.731 421.775 564.355 431.126C565.439 431.339 566.145 432.39 565.932 433.474C565.719 434.558 564.668 435.264 563.584 435.051C517.023 425.908 473.864 435.04 433.985 462.479C433.075 463.106 431.83 462.875 431.204 461.966C430.578 461.056 430.808 459.81 431.718 459.184Z" fill="#2E363A"/>
<path fill-rule="evenodd" clip-rule="evenodd" d="M909.186 625.947L770.261 782.371C743.169 812.875 701.834 823.215 665.161 812.271L720.474 788.958C730.818 784.598 740.355 778.527 748.684 771L909.186 625.947Z" fill="#D19C49"/>
<path fill-rule="evenodd" clip-rule="evenodd" d="M532.353 212.383C533.134 215.998 535.212 218.022 538.587 218.453C545.628 219.354 567.427 203.24 566.493 196.891C565.87 192.659 558.83 194.047 545.374 201.057L535.635 205.7C533.124 206.897 531.765 209.664 532.353 212.383Z" fill="#80424C"/>
<path fill-rule="evenodd" clip-rule="evenodd" d="M556.976 240.228C559.648 240.181 561.753 236.623 561.677 232.28C561.601 227.938 559.374 224.455 556.702 224.502C554.029 224.549 551.925 228.107 552.001 232.449C552.076 236.792 554.304 240.275 556.976 240.228Z" fill="#583E40"/>
<path d="M534.798 483.522C551.061 469.391 572.85 462.117 589.015 464.235C590.111 464.379 590.882 465.383 590.739 466.478C590.595 467.573 589.591 468.345 588.496 468.201C573.511 466.238 552.851 473.135 537.421 486.541C518.587 502.906 508.85 526.86 511.829 556.839C516.252 601.351 533.166 651.818 562.592 708.221C563.103 709.201 562.724 710.409 561.744 710.92C560.765 711.431 559.557 711.051 559.046 710.072C529.4 653.247 512.327 602.307 507.848 557.235C504.74 525.952 514.992 500.73 534.798 483.522Z" fill="#CA8E31"/>
<path d="M837.099 554.003C837.491 552.97 838.645 552.451 839.678 552.842C871.2 564.8 895.276 584.796 911.843 612.787C912.406 613.737 912.091 614.964 911.141 615.527C910.19 616.089 908.963 615.775 908.401 614.824C892.301 587.621 868.942 568.222 838.259 556.582C837.227 556.191 836.707 555.036 837.099 554.003Z" fill="#CA8E31"/>
<path fill-rule="evenodd" clip-rule="evenodd" d="M162.502 363.523C165.107 363.523 278.11 383.609 327.693 403.608C378.58 424.132 435.383 452.087 466.234 480.658L445.572 561.327C387.255 527.296 332.176 496.55 281.345 473.98L279.071 472.974C230.766 451.642 154.495 431.979 152.561 431.035L151.821 430.926L151.872 430.678C143.518 426.072 138.025 413.184 138.851 398.004C139.887 378.961 150.475 363.523 162.502 363.523Z" fill="#717569"/>
<path d="M455.14 564.362C469.17 564.362 480.544 544.591 480.544 520.202C480.544 495.813 469.17 476.042 455.14 476.042C441.109 476.042 429.735 495.813 429.735 520.202C429.735 544.591 441.109 564.362 455.14 564.362Z" fill="#717569"/>
<path d="M162.502 361.523C163.606 361.523 164.502 362.418 164.502 363.523C164.502 364.628 163.606 365.523 162.502 365.523C151.763 365.523 141.833 380.001 140.848 398.113C140.084 412.152 144.97 424.363 152.565 428.772L152.838 428.926L153.155 429.101L153.438 429.238C153.56 429.298 155.688 429.911 160.902 431.375L170.768 434.158C173.429 434.914 175.878 435.616 178.636 436.414L179.757 436.738C199.582 442.481 218.265 448.267 235.925 454.31L238.632 455.241C253.874 460.513 267.401 465.681 278.874 470.702L282.156 472.152L284.87 473.363C329.277 493.261 377.542 519.313 446.58 559.599C447.534 560.156 447.856 561.381 447.3 562.335C446.743 563.289 445.518 563.611 444.564 563.054L436.227 558.2C371.717 520.723 325.677 496.031 283.239 477.015L280.535 475.809L278.263 474.803L276.258 473.926C264.436 468.796 250.432 463.502 234.63 458.095C217.771 452.326 199.963 446.788 181.109 441.296L175.125 439.57C168.423 437.655 157.751 434.642 153.503 433.394L152.199 433.004L149.439 432.594L149.63 431.655L149.393 431.496C141.115 425.836 136.17 412.935 136.828 398.415L136.854 397.896C137.94 377.921 149.187 361.523 162.502 361.523Z" fill="#2E363A"/>
<path d="M455.14 474.042C470.571 474.042 482.544 494.854 482.544 520.202C482.544 545.55 470.571 566.362 455.14 566.362C451.805 566.362 448.562 565.379 445.534 563.498C444.596 562.915 444.308 561.682 444.891 560.744C445.473 559.806 446.706 559.517 447.645 560.1C450.057 561.598 452.575 562.362 455.14 562.362C467.769 562.362 478.544 543.633 478.544 520.202C478.544 496.771 467.769 478.042 455.14 478.042C442.51 478.042 431.735 496.771 431.735 520.202C431.735 525.93 432.379 531.497 433.612 536.66C433.869 537.735 433.206 538.814 432.132 539.07C431.057 539.327 429.978 538.664 429.722 537.59C428.415 532.119 427.735 526.24 427.735 520.202C427.735 494.854 439.708 474.042 455.14 474.042Z" fill="#2E363A"/>
<path d="M455.14 487.955C465.285 487.955 472.867 502.537 472.867 520.202C472.867 537.867 465.285 552.449 455.14 552.449C452.892 552.449 450.719 551.719 448.714 550.341C447.804 549.716 447.573 548.471 448.199 547.56C448.824 546.65 450.069 546.419 450.98 547.045C452.342 547.981 453.735 548.449 455.14 548.449C462.366 548.449 468.867 535.947 468.867 520.202C468.867 504.457 462.366 491.955 455.14 491.955C447.913 491.955 441.413 504.457 441.413 520.202C441.413 524.091 441.808 527.869 442.564 531.371C442.797 532.451 442.111 533.515 441.031 533.748C439.952 533.981 438.887 533.295 438.654 532.215C437.838 528.433 437.413 524.372 437.413 520.202C437.413 502.537 444.995 487.955 455.14 487.955Z" fill="#2E363A"/>
<path d="M455.14 501.264C456.423 501.264 457.593 501.836 458.59 502.833C459.371 503.614 459.37 504.881 458.589 505.662C457.849 506.401 456.673 506.44 455.888 505.778L455.761 505.661C455.462 505.362 455.261 505.264 455.14 505.264C454.625 505.264 453.617 506.457 452.746 508.897C451.701 511.822 451.091 515.865 451.091 520.202C451.091 524.539 451.701 528.582 452.746 531.507C453.617 533.947 454.625 535.14 455.14 535.14C455.654 535.14 456.662 533.947 457.533 531.507C458.578 528.582 459.188 524.539 459.188 520.202C459.188 518.042 459.038 515.945 458.75 514.004C458.588 512.912 459.342 511.895 460.435 511.733C461.528 511.571 462.545 512.325 462.707 513.418C463.024 515.555 463.188 517.848 463.188 520.202L463.182 521.02C463.027 531.061 460.013 539.14 455.14 539.14C450.134 539.14 447.091 530.619 447.091 520.202C447.091 509.785 450.134 501.264 455.14 501.264Z" fill="#2E363A"/>
<path d="M246.6 553.887C256.761 538.889 264.287 516.093 268.656 485.436L268.973 483.155L303.681 494.156C299.556 524.547 293.729 543.507 283.475 562.83L283.124 563.489C282.146 565.315 280.817 567.564 279.138 570.235C276.808 573.94 272.151 575.433 268.101 573.771L250.407 566.509C246.067 564.728 243.993 559.766 245.774 555.426C245.996 554.886 246.272 554.37 246.6 553.887Z" fill="#2E363A"/>
<path fill-rule="evenodd" clip-rule="evenodd" d="M266.07 462.38L261.924 486.218C261.318 489.702 263.406 493.09 266.79 494.116L297.09 503.299C300.79 504.42 304.698 502.33 305.82 498.63C305.912 498.325 305.984 498.013 306.034 497.697L310.2 471.454C310.781 467.791 308.404 464.31 304.78 463.518L274.433 456.888C270.656 456.063 266.925 458.456 266.1 462.232L266.07 462.38Z" fill="white"/>
<path d="M327.667 409.081C317.506 424.08 309.98 446.876 305.611 477.532L305.294 479.813L270.074 471.018C274.196 440.643 280.52 419.533 290.775 400.17L291.143 399.479C292.121 397.653 293.45 395.404 295.129 392.733C297.459 389.028 302.116 387.536 306.165 389.197L323.86 396.459C328.2 398.24 330.274 403.202 328.493 407.542C328.271 408.082 327.995 408.598 327.667 409.081Z" fill="#2E363A"/>
<path d="M269.415 479.041L268.13 486.541L300.725 495.294L302.672 487.298L269.415 479.041Z" fill="#2E363A"/>
<path d="M288.473 318.457C289.528 318.132 290.648 318.724 290.973 319.78C291.298 320.836 290.706 321.955 289.65 322.28C272.423 327.587 260.171 345.961 253.07 377.705C252.829 378.783 251.759 379.462 250.682 379.22C249.604 378.979 248.925 377.91 249.166 376.832C256.548 343.833 269.591 324.274 288.473 318.457Z" fill="#2E363A"/>
<path d="M424.198 562.511C425.297 562.62 426.099 563.6 425.99 564.699L421.749 607.344C408.271 743.052 401.403 814.295 401.253 819.858L401.251 820.019C401.251 827.264 396.74 841.157 388.405 852.962C375.846 870.751 356.158 883.171 328.305 887.477C327.214 887.646 326.192 886.898 326.023 885.807C325.854 884.715 326.603 883.693 327.694 883.524C354.463 879.385 373.197 867.567 385.138 850.655C392.881 839.689 397.119 826.831 397.248 820.319L397.251 820.019C397.251 815.234 405.453 730.55 422.01 564.303C422.114 563.253 423.012 562.475 424.049 562.5L424.198 562.511Z" fill="#2E363A"/>
<path fill-rule="evenodd" clip-rule="evenodd" d="M585.986 884.149L586.419 886.657C588.26 897.147 591.008 910.715 594.665 927.359L595.117 929.412C598.461 944.557 592.005 960.179 578.946 968.545C529.77 1000.05 465.865 1015.7 387.23 1015.5C378.258 1015.48 369.515 1015.19 361 1014.64C438.888 990.364 490.166 968.938 514.833 950.364C543.951 928.438 564.603 875.15 576.788 790.501L577.022 794.745C579.086 831.269 582.075 861.071 585.986 884.149Z" fill="#D19C49"/>
<path fill-rule="evenodd" clip-rule="evenodd" d="M290 825.501L335 835.223L331.103 853.501L290 843.909V825.501Z" fill="#2E363A"/>
<path d="M440.295 166.197C466.314 161.66 488.218 166.224 505.865 179.921C506.737 180.598 506.896 181.855 506.218 182.727C505.541 183.6 504.285 183.758 503.412 183.081C486.703 170.111 465.941 165.786 440.982 170.138C439.894 170.328 438.858 169.599 438.668 168.511C438.479 167.423 439.207 166.387 440.295 166.197Z" fill="white"/>
<path d="M439.117 208.204C451.942 193.155 472.986 188.321 501.992 193.52C503.079 193.715 503.802 194.754 503.607 195.842C503.412 196.929 502.373 197.652 501.286 197.457C473.55 192.486 453.927 196.994 442.161 210.798C441.444 211.639 440.182 211.74 439.341 211.023C438.501 210.307 438.4 209.044 439.117 208.204Z" fill="white"/>
<path d="M565.166 496.12L567.23 500.67C567.686 501.676 568.872 502.121 569.878 501.665C570.883 501.208 571.329 500.023 570.872 499.017L568.81 494.469C568.354 493.463 567.169 493.017 566.163 493.473C565.156 493.928 564.71 495.114 565.166 496.12ZM572.621 512.513L574.7 517.061C575.16 518.065 576.346 518.507 577.351 518.047C578.355 517.588 578.797 516.401 578.337 515.397L576.26 510.852C575.801 509.847 574.615 509.404 573.61 509.863C572.605 510.322 572.162 511.508 572.621 512.513ZM580.128 528.886L582.223 533.428C582.686 534.431 583.874 534.869 584.877 534.406C585.88 533.943 586.318 532.754 585.855 531.752L583.762 527.213C583.3 526.21 582.112 525.771 581.108 526.233C580.105 526.695 579.666 527.883 580.128 528.886ZM587.682 545.209L589.798 549.753C590.265 550.754 591.455 551.187 592.456 550.721C593.457 550.254 593.89 549.064 593.423 548.063L591.309 543.523C590.843 542.521 589.653 542.087 588.652 542.552C587.65 543.018 587.216 544.208 587.682 545.209ZM595.309 561.524L597.435 566.041C597.907 567.04 599.098 567.468 600.098 566.997C601.097 566.525 601.525 565.334 601.053 564.335L598.929 559.822C598.459 558.823 597.268 558.393 596.268 558.863C595.268 559.333 594.839 560.524 595.309 561.524ZM603.008 577.804L605.163 582.323C605.639 583.32 606.833 583.742 607.83 583.265C608.826 582.789 609.248 581.595 608.772 580.599L606.62 576.085C606.145 575.088 604.952 574.664 603.955 575.139C602.957 575.614 602.534 576.807 603.008 577.804ZM610.793 594.047L612.97 598.549C613.452 599.543 614.649 599.958 615.643 599.476C616.636 598.994 617.052 597.797 616.57 596.803L614.395 592.308C613.915 591.313 612.719 590.896 611.724 591.377C610.73 591.857 610.312 593.052 610.793 594.047ZM618.683 610.26L620.893 614.751C621.382 615.742 622.581 616.149 623.572 615.66C624.562 615.171 624.969 613.972 624.48 612.982L622.274 608.497C621.787 607.506 620.589 607.097 619.597 607.583C618.605 608.07 618.196 609.268 618.683 610.26ZM626.676 626.389L628.924 630.866C629.421 631.853 630.624 632.25 631.61 631.753C632.597 631.256 632.994 630.053 632.497 629.067L630.253 624.598C629.758 623.611 628.557 623.211 627.569 623.705C626.581 624.2 626.182 625.401 626.676 626.389ZM634.823 642.474C635.594 643.976 636.358 645.46 637.115 646.925C637.622 647.906 638.829 648.291 639.81 647.784C640.791 647.276 641.176 646.07 640.669 645.089L639.149 642.141C638.894 641.645 638.639 641.148 638.382 640.648C637.878 639.666 636.673 639.277 635.69 639.782C634.707 640.286 634.319 641.491 634.823 642.474ZM643.142 658.459L644.715 661.423C644.975 661.913 645.235 662.4 645.494 662.884C646.014 663.858 647.226 664.226 648.2 663.706C649.174 663.186 649.542 661.974 649.022 661L647.465 658.074C647.204 657.581 646.941 657.086 646.678 656.589C646.162 655.612 644.952 655.239 643.976 655.756C642.999 656.272 642.626 657.482 643.142 658.459ZM651.702 674.341L653.328 677.284C653.597 677.768 653.865 678.249 654.132 678.728C654.67 679.692 655.888 680.038 656.853 679.5C657.818 678.961 658.163 677.743 657.625 676.779L656.019 673.886C655.749 673.398 655.478 672.907 655.206 672.413C654.673 671.445 653.457 671.092 652.489 671.625C651.522 672.157 651.169 673.373 651.702 674.341ZM660.576 690.044C661.437 691.522 662.285 692.963 663.119 694.368C663.684 695.317 664.911 695.63 665.86 695.065C666.81 694.501 667.122 693.274 666.558 692.324L665.305 690.205C664.884 689.49 664.46 688.765 664.033 688.031C663.477 687.076 662.252 686.753 661.298 687.309C660.343 687.865 660.02 689.089 660.576 690.044ZM669.955 705.506C670.886 706.968 671.797 708.376 672.69 709.729C673.298 710.651 674.538 710.905 675.46 710.297C676.382 709.689 676.637 708.448 676.029 707.526C675.148 706.192 674.249 704.802 673.329 703.358C672.736 702.426 671.5 702.151 670.568 702.744C669.636 703.338 669.362 704.574 669.955 705.506ZM680.237 720.474C681.327 721.91 682.38 723.239 683.396 724.462C684.102 725.312 685.363 725.428 686.212 724.722C687.062 724.016 687.178 722.755 686.472 721.906C685.495 720.73 684.478 719.446 683.423 718.055C682.755 717.176 681.5 717.004 680.62 717.671C679.741 718.339 679.569 719.594 680.237 720.474ZM693.368 733.797C695.011 734.746 696.887 735.312 698.974 735.502C700.074 735.602 701.047 734.792 701.147 733.692C701.248 732.592 700.437 731.619 699.337 731.519C697.808 731.379 696.492 730.982 695.367 730.333C694.411 729.781 693.187 730.109 692.635 731.066C692.083 732.022 692.411 733.245 693.368 733.797ZM712.533 732.861C714.037 732.262 715.605 731.563 717.236 730.765C718.228 730.28 718.639 729.082 718.153 728.089C717.668 727.097 716.47 726.686 715.478 727.172C713.935 727.927 712.46 728.584 711.053 729.145C710.026 729.554 709.526 730.718 709.935 731.744C710.344 732.77 711.507 733.27 712.533 732.861ZM728.777 724.159C730.148 723.277 731.553 722.344 732.992 721.359C733.903 720.736 734.137 719.491 733.513 718.579C732.889 717.668 731.645 717.434 730.733 718.058C729.325 719.022 727.952 719.934 726.613 720.795C725.684 721.392 725.415 722.629 726.013 723.559C726.61 724.488 727.848 724.756 728.777 724.159ZM743.54 713.69C744.84 712.694 746.163 711.664 747.509 710.6C748.376 709.914 748.523 708.657 747.838 707.79C747.153 706.924 745.895 706.777 745.028 707.462C743.698 708.513 742.392 709.531 741.108 710.514C740.231 711.186 740.064 712.441 740.736 713.318C741.407 714.195 742.663 714.361 743.54 713.69ZM757.636 702.31C758.891 701.25 760.164 700.165 761.453 699.054C762.29 698.333 762.384 697.07 761.663 696.233C760.942 695.397 759.679 695.303 758.842 696.024C757.563 697.126 756.301 698.203 755.055 699.254C754.211 699.967 754.105 701.229 754.817 702.072C755.53 702.916 756.792 703.023 757.636 702.31ZM771.256 690.412C772.481 689.309 773.719 688.186 774.971 687.043C775.787 686.298 775.844 685.033 775.099 684.217C774.354 683.402 773.089 683.344 772.274 684.089C771.029 685.226 769.798 686.343 768.58 687.439C767.759 688.178 767.693 689.443 768.432 690.264C769.171 691.085 770.435 691.151 771.256 690.412ZM784.525 678.172C785.726 677.039 786.938 675.89 788.161 674.724C788.961 673.962 788.991 672.696 788.229 671.896C787.467 671.097 786.201 671.066 785.402 671.829C784.183 672.99 782.976 674.134 781.781 675.262C780.977 676.02 780.94 677.285 781.698 678.089C782.456 678.893 783.721 678.93 784.525 678.172ZM797.553 665.657L799.931 663.327C800.329 662.936 800.729 662.543 801.129 662.148C801.916 661.373 801.925 660.106 801.15 659.32C800.375 658.533 799.108 658.523 798.322 659.299C797.124 660.479 795.936 661.645 794.758 662.796C793.968 663.568 793.953 664.834 794.725 665.624C795.497 666.414 796.763 666.429 797.553 665.657ZM810.372 652.946L812.717 650.584C813.11 650.188 813.503 649.79 813.898 649.39C814.674 648.605 814.667 647.338 813.881 646.562C813.095 645.786 811.829 645.793 811.052 646.579L807.537 650.125C806.758 650.908 806.761 652.175 807.544 652.954C808.327 653.733 809.593 653.729 810.372 652.946ZM822.935 640.168L825.253 637.778C825.642 637.378 826.03 636.976 826.42 636.572C827.188 635.778 827.166 634.512 826.372 633.744C825.578 632.977 824.312 632.998 823.544 633.793L821.221 636.191C820.836 636.589 820.451 636.985 820.067 637.38C819.297 638.172 819.315 639.438 820.107 640.208C820.899 640.978 822.165 640.96 822.935 640.168ZM835.429 627.186L837.724 624.775C838.108 624.371 838.492 623.966 838.878 623.56C839.638 622.758 839.605 621.493 838.803 620.732C838.002 619.972 836.736 620.005 835.976 620.807L833.677 623.226C833.295 623.627 832.914 624.027 832.534 624.426C831.772 625.225 831.802 626.491 832.602 627.253C833.401 628.016 834.667 627.985 835.429 627.186ZM847.815 614.082L851.234 610.428C851.987 609.62 851.944 608.355 851.137 607.601C850.329 606.847 849.064 606.891 848.31 607.698C847.166 608.923 846.028 610.139 844.897 611.346C844.141 612.152 844.182 613.418 844.988 614.173C845.794 614.929 847.059 614.888 847.815 614.082ZM860.08 600.901L860.539 600.405C861.288 599.594 861.238 598.328 860.426 597.579C859.615 596.829 858.35 596.88 857.6 597.691L857.142 598.187C856.393 598.998 856.443 600.263 857.254 601.013C858.065 601.763 859.331 601.713 860.08 600.901Z" fill="#D19C49"/>
<path d="M528.902 660.483L528.883 665.472C528.878 666.576 529.77 667.475 530.874 667.48C531.979 667.485 532.878 666.593 532.883 665.488L532.902 660.498C532.906 659.394 532.014 658.495 530.91 658.491C529.805 658.487 528.906 659.379 528.902 660.483ZM528.821 678.484L528.793 683.473C528.787 684.577 529.677 685.478 530.782 685.484C531.886 685.491 532.787 684.6 532.793 683.496L532.821 678.505C532.827 677.401 531.936 676.501 530.832 676.495C529.727 676.489 528.827 677.38 528.821 678.484ZM528.71 696.487L528.673 701.488C528.665 702.593 529.554 703.495 530.658 703.504C531.763 703.512 532.665 702.623 532.673 701.519L532.71 696.515C532.718 695.41 531.828 694.508 530.724 694.501C529.619 694.493 528.718 695.382 528.71 696.487ZM528.566 714.465L528.52 719.459C528.509 720.564 529.396 721.468 530.501 721.478C531.605 721.489 532.509 720.602 532.52 719.498L532.566 714.501C532.576 713.396 531.688 712.493 530.584 712.483C529.479 712.473 528.576 713.361 528.566 714.465ZM528.387 732.459L528.33 737.464C528.317 738.568 529.202 739.474 530.307 739.487C531.411 739.5 532.317 738.615 532.33 737.511L532.386 732.503C532.399 731.398 531.513 730.493 530.409 730.481C529.304 730.469 528.399 731.354 528.387 732.459ZM528.168 750.469L528.1 755.467C528.084 756.572 528.967 757.479 530.072 757.495C531.176 757.51 532.084 756.627 532.099 755.523L532.168 750.522C532.182 749.418 531.299 748.51 530.194 748.496C529.09 748.481 528.183 749.364 528.168 750.469ZM527.906 768.463L527.825 773.465C527.807 774.57 528.687 775.48 529.792 775.498C530.896 775.516 531.806 774.636 531.825 773.532L531.906 768.526C531.923 767.422 531.042 766.512 529.938 766.495C528.833 766.478 527.924 767.359 527.906 768.463ZM527.597 786.452L527.502 791.448C527.48 792.553 528.358 793.465 529.462 793.487C530.567 793.508 531.479 792.631 531.501 791.526L531.596 786.527C531.617 785.422 530.738 784.51 529.634 784.49C528.529 784.469 527.617 785.348 527.597 786.452ZM527.234 804.432L527.123 809.425C527.098 810.529 527.972 811.445 529.077 811.47C530.181 811.495 531.097 810.62 531.122 809.516L531.233 804.519C531.257 803.415 530.381 802.5 529.277 802.476C528.173 802.452 527.258 803.328 527.234 804.432ZM526.81 822.43L526.68 827.432C526.651 828.536 527.522 829.455 528.627 829.484C529.731 829.513 530.65 828.642 530.679 827.537L530.809 822.532C530.837 821.428 529.964 820.51 528.86 820.482C527.756 820.454 526.838 821.326 526.81 822.43ZM526.317 840.406L526.166 845.399C526.132 846.503 527 847.425 528.104 847.459C529.208 847.493 530.131 846.626 530.165 845.522L530.315 840.524C530.348 839.42 529.479 838.499 528.375 838.466C527.271 838.434 526.35 839.302 526.317 840.406ZM525.744 858.382L525.569 863.372C525.529 864.476 526.392 865.403 527.496 865.443C528.6 865.482 529.526 864.619 529.566 863.516L529.741 858.52C529.779 857.416 528.915 856.49 527.811 856.452C526.707 856.414 525.782 857.278 525.744 858.382ZM525.076 876.361L524.871 881.354C524.825 882.457 525.682 883.389 526.786 883.436C527.889 883.482 528.821 882.625 528.868 881.521L529.073 876.521C529.117 875.418 528.258 874.487 527.154 874.443C526.051 874.399 525.12 875.257 525.076 876.361ZM524.294 894.334L524.054 899.321C524 900.424 524.85 901.362 525.953 901.417C527.056 901.471 527.995 900.621 528.049 899.518L528.21 896.199C528.237 895.642 528.264 895.083 528.29 894.522C528.342 893.419 527.49 892.482 526.386 892.43C525.283 892.378 524.346 893.23 524.294 894.334ZM523.374 912.292L523.184 915.631C523.152 916.183 523.12 916.733 523.088 917.28C523.024 918.383 523.865 919.329 524.968 919.394C526.07 919.458 527.017 918.617 527.081 917.514L527.367 912.515C527.429 911.412 526.585 910.468 525.482 910.406C524.379 910.345 523.435 911.189 523.374 912.292ZM522.275 930.233L522.047 933.57C522.009 934.121 521.97 934.669 521.931 935.214C521.853 936.315 522.683 937.272 523.785 937.35C524.887 937.428 525.843 936.599 525.921 935.497L526.152 932.183C526.19 931.625 526.228 931.065 526.266 930.501C526.34 929.399 525.507 928.446 524.405 928.372C523.303 928.298 522.349 929.131 522.275 930.233ZM520.939 948.157L520.728 950.666C520.657 951.495 520.586 952.316 520.514 953.128C520.417 954.228 521.23 955.199 522.33 955.296C523.431 955.393 524.401 954.58 524.499 953.48L524.714 951.007C524.785 950.175 524.855 949.335 524.926 948.487C525.017 947.386 524.198 946.42 523.098 946.329C521.997 946.237 521.03 947.056 520.939 948.157ZM519.265 966.03C519.085 967.725 518.902 969.376 518.717 970.982C518.59 972.079 519.377 973.071 520.475 973.198C521.572 973.324 522.564 972.537 522.691 971.44L522.969 968.98C523.061 968.149 523.152 967.306 523.243 966.453C523.359 965.355 522.564 964.37 521.465 964.253C520.367 964.136 519.382 964.932 519.265 966.03Z" fill="#D19C49"/>
<path d="M717 287.501C760.078 287.501 795 252.803 795 210.001C795 167.199 760.078 132.501 717 132.501C673.922 132.501 639 167.199 639 210.001C639 252.803 673.922 287.501 717 287.501Z" fill="#CB3E47"/>
<path fill-rule="evenodd" clip-rule="evenodd" d="M769.035 259.645L771.609 259.633L770.115 259.953C735.363 267.421 716.269 260.955 745.882 259.826C753.56 259.533 761.31 259.663 769.035 259.645ZM785.297 246.724C784.139 248.79 782.888 250.797 781.549 252.74L779.404 253.077C766.482 255.071 749.807 257.062 744.25 257.443L741.613 257.629C721.005 259.121 691.641 262.056 663.138 262.875C662.232 262.758 661.33 262.637 660.432 262.514C657.839 259.821 655.443 256.941 653.264 253.899C662.093 253.551 670.91 253.174 679.709 252.742C710.403 251.237 740.851 249.113 771.482 247.446L784.05 246.783L785.297 246.724ZM791.619 231.995C790.928 234.233 790.136 236.428 789.248 238.575L783.343 238.818C736.006 240.727 686.694 241.749 662.854 241.999L658.41 242.037C654.061 242.064 650.002 242.061 646.281 242.023C645.157 239.65 644.153 237.21 643.277 234.711C656.62 235.126 673.948 237.246 685.852 236.804L704.34 236.106C741.001 234.692 764.356 233.594 786.486 232.299L791.619 231.995ZM794.902 213.385C794.827 214.875 794.71 216.354 794.55 217.821L786.333 218.059C776.749 218.343 767.177 218.659 757.668 219.163C718.585 221.23 680.041 224.682 640.936 226.621C640.208 223.46 639.678 220.227 639.359 216.933C672.102 216.687 704.835 216.355 737.522 215.644C752.916 215.309 768.233 214.659 783.533 213.933L794.902 213.385ZM793.216 193.058L793.288 193.382C793.581 194.738 793.837 196.106 794.056 197.487C777.702 198.194 761.115 198.227 744.813 199.1C729.003 199.946 713.736 201.95 697.874 202.658C678.416 203.526 658.711 204.738 639.162 204.486C639.428 200.421 640.012 196.442 640.891 192.574L664.333 192.565C707.31 192.553 750.282 192.592 793.216 193.058ZM794.577 201.433C794.676 202.369 794.757 203.309 794.822 204.254L794.41 204.186C789.563 203.366 788.003 202.218 793.916 201.508L794.577 201.433ZM786.659 174.819C787.938 177.318 789.084 179.896 790.086 182.542C748.344 181.65 708.111 182.086 665.321 183.852L661.607 184.008C659.246 184.109 657.251 182.278 657.15 179.917C657.048 177.557 658.88 175.561 661.24 175.46L661.373 175.456L661.507 175.457C670.913 175.64 680.322 175.732 689.733 175.732L698.336 175.72C720.735 175.66 749.09 175.377 783.402 174.869L786.659 174.819ZM652.513 169.098L650.573 169.122C652.061 166.741 653.676 164.446 655.41 162.247L656.784 162.236C824.746 161.197 734.179 167.894 654.911 169.064L652.513 169.098ZM762.387 154.5C765.932 154.877 769.425 155.298 772.861 155.76C773.85 156.762 774.811 157.789 775.744 158.843C772.081 158.904 768.409 158.901 764.751 158.846L762.456 158.804L722.046 157.2C721.313 157.184 720.141 156.559 720.867 156.52C733.431 155.841 746.024 155.239 758.629 154.669L762.387 154.5Z" fill="#EF8389"/>
<path d="M851 169.501C880.271 169.501 904 145.996 904 117.001C904 88.006 880.271 64.501 851 64.501C821.729 64.501 798 88.006 798 117.001C798 145.996 821.729 169.501 851 169.501Z" fill="#3CB49F"/>
<path fill-rule="evenodd" clip-rule="evenodd" d="M853.935 164.705C850.116 166.097 846.284 167.466 842.446 168.822C840.513 168.51 838.616 168.096 836.759 167.584L853.18 164.3C853.558 164.213 854.298 164.573 853.935 164.705ZM897.836 141.596C896.453 144.176 894.858 146.627 893.076 148.928C890.55 149.698 888.016 150.443 885.469 151.153C790.688 177.574 855.464 152.81 897.317 141.732L897.836 141.596ZM882.835 135.974C883.499 137.902 882.474 140.004 880.545 140.667C880.427 140.708 880.307 140.743 880.185 140.771C875.3 141.915 870.434 143.136 865.588 144.434L861.549 145.525L856.323 146.96C845.739 149.889 832.924 153.565 817.878 157.987C815.822 156.356 813.893 154.576 812.105 152.664C833.745 147.685 854.293 141.808 875.845 134.47L878.142 133.683C880.07 133.02 882.172 134.045 882.835 135.974ZM903.701 113.355L903.874 113.344C903.957 114.552 904 115.771 904 117.001C904 117.709 903.986 118.414 903.958 119.115C871.356 127.83 838.801 136.757 806.073 144.864C805.424 143.841 804.811 142.795 804.235 141.727L803.247 142.088C812.704 138.544 822.666 135.986 832.173 132.53C840.079 129.656 847.448 125.892 855.411 123.127C866.771 119.182 878.198 114.804 890.003 112.447C894.868 111.476 898.954 113.559 903.701 113.355ZM803.628 138.415L802.733 138.719C802.249 137.665 801.799 136.591 801.384 135.501L801.761 135.438C807.69 134.48 811.793 135.568 803.628 138.415ZM896.156 89.5004C897.842 92.2108 899.286 95.0844 900.458 98.0917L889.932 101.038C870.635 106.442 851.352 111.89 832.214 117.751C821.126 121.147 810.258 125.052 799.371 128.915C799.071 127.633 798.818 126.334 798.614 125.018C806.14 122.591 813.717 120.266 821.115 117.585C842.54 109.821 863.263 100.762 884.877 93.3832L887.971 92.3409C889.331 91.8889 890.761 91.3951 892.239 90.8781L896.156 89.5004ZM886.628 82.0828L886.623 82.1554L885.25 83.5213C884.511 90.268 864.269 89.5969 853.947 93.0407L846.062 95.6796L838.347 98.2817C820.72 104.255 809.613 108.235 798.187 112.57C798.367 110.43 798.677 108.327 799.109 106.268L802.388 105.145C825.423 97.2959 849.812 89.8289 862.743 86.0837L864.562 85.5596C877.797 81.7696 886.658 80.0217 886.628 82.0828ZM866.875 66.8959L866.96 66.9229C870.348 67.9813 873.588 69.3677 876.644 71.0445L876.734 71.0154C868.972 73.5937 861.221 76.1941 853.536 78.925C838.498 84.2681 823.713 90.071 808.751 95.5527L801.508 98.1785C802.485 95.6592 803.653 93.2333 804.993 90.9183L806.625 90.0537C811.69 87.3958 816.959 84.8641 819.242 83.9439L820.715 83.3619L822.114 82.8004C833.27 78.2944 848.856 71.3217 864.022 66.9123C864.979 66.8953 865.93 66.8899 866.875 66.8959ZM818.075 82.1037C815.189 83.0719 812.231 83.8496 809.272 84.6288C810.101 83.5811 810.97 82.5656 811.876 81.5842L812.616 81.2076C824.586 75.2333 830.705 77.8657 818.075 82.1037Z" fill="#50C4B0"/>
<path fill-rule="evenodd" clip-rule="evenodd" d="M895.869 144.957C893.181 149.182 889.901 153.001 886.145 156.299L884.949 156.947C881.396 158.859 878.19 160.465 876.543 161.162L874.408 162.05L872.915 162.684C868.613 164.523 863.69 166.727 858.408 168.99C855.987 169.328 853.514 169.501 851 169.501C846.048 169.501 841.254 168.828 836.707 167.57C838.509 166.925 840.306 166.273 842.1 165.612C857.277 160.021 872.175 153.885 887.275 148.142L894.185 145.542C894.727 145.343 895.292 145.142 895.806 144.976L895.869 144.957ZM903.062 126.888C902.538 129.608 901.803 132.253 900.874 134.806L898.513 135.658C873.23 144.736 844.89 153.559 831.316 157.501L828.927 158.186L827.37 158.621C825.07 159.256 822.931 159.812 820.984 160.276C818.554 158.619 816.27 156.766 814.156 154.74C820.808 152.04 833.679 152.133 841.17 149.561L849.525 146.681C873.994 138.211 886.683 133.47 901.295 127.599L903.062 126.888ZM903.188 107.796C903.467 109.358 903.676 110.944 903.812 112.55C893.741 116.111 883.407 119.117 873.428 122.874C851.992 130.945 831.317 140.525 809.668 148.134L808.599 148.505C806.491 145.725 804.654 142.73 803.129 139.561C822.89 133.994 842.636 128.386 862.214 122.28C875.421 118.161 888.284 113.208 901.249 108.497L903.188 107.796ZM896.617 90.2566C897.088 91.0426 897.538 91.8418 897.968 92.6535L895.75 93.5872C893.724 94.4319 891.869 95.1834 890.577 95.6883C881.156 99.3694 871.191 101.913 861.717 105.492C853.838 108.469 846.534 112.476 838.594 115.327C827.267 119.395 815.888 123.952 804.054 126.199C802.229 126.546 800.498 126.41 798.796 126.108C798.272 123.151 798 120.107 798 117.001C798 116.631 798.004 116.262 798.012 115.894L821.072 109.699C844.133 103.511 867.209 97.3901 890.392 91.7564L896.617 90.2566ZM899.846 96.5925C900.52 98.1719 901.117 99.7907 901.635 101.445C899.67 101.751 897.802 102.098 896.075 102.507L894.79 102.824L894.358 102.924C887.321 104.488 881.045 103.059 890.857 99.6597L895.629 98.0201L899.846 96.5925ZM882.638 74.8771C885.296 76.8394 887.763 79.0428 890.004 81.4546C864.961 86.68 841.751 93.1823 817.287 101.788L815.257 102.506C813.054 103.289 810.632 102.138 809.849 99.9348C809.066 97.7313 810.217 95.3101 812.42 94.5268C812.575 94.4717 812.733 94.4258 812.893 94.3891C817.799 93.2653 822.681 92.0523 827.541 90.7501L830.888 89.8461L833.749 89.0632C844.953 85.9806 858.871 81.9626 875.504 77.0093L882.638 74.8771ZM805.62 89.8687C807.588 86.642 809.898 83.6434 812.499 80.9205L812.512 80.9172C891.041 59.159 847.451 77.422 808.027 89.1587L805.62 89.8687ZM851 64.501C853.51 64.501 855.98 64.6738 858.397 65.0082L839.346 68.6331C838.967 68.7188 838.208 68.2831 838.569 68.1461C841.753 66.9395 844.946 65.7511 848.146 64.5752C849.091 64.5261 850.042 64.501 851 64.501Z" fill="#229581"/>
<path opacity="0.592727" fill-rule="evenodd" clip-rule="evenodd" d="M872.39 68.9517C891.007 77.0957 904 95.5451 904 117.001C904 145.996 880.271 169.501 851 169.501C829.178 169.501 810.437 156.437 802.311 137.775C811.381 150.323 826.226 158.501 843 158.501C870.614 158.501 893 136.339 893 109.001C893 92.5977 884.941 78.0583 872.529 69.0512L872.39 68.9517Z" fill="#229581"/>
<path d="M993.25 322.643C994.087 320.9 996.178 320.167 997.92 321.004C999.603 321.812 1000.34 323.789 999.64 325.493L999.559 325.674L968.573 390.16C967.822 391.722 966.048 392.491 964.407 391.995L964.225 391.934L874.653 359.454L812.657 408.271C811.19 409.425 809.088 409.221 807.869 407.839L807.741 407.686C806.587 406.22 806.791 404.118 808.174 402.898L808.326 402.771L871.852 352.751C872.744 352.049 873.916 351.826 874.996 352.14L875.211 352.211L963.634 384.274L993.25 322.643Z" fill="#B9CDFF"/>
<path d="M963.11 386.013C964.511 384.783 966.617 384.874 967.909 386.184L968.049 386.335L1011.87 436.276C1013.15 437.729 1013 439.94 1011.55 441.215C1010.15 442.444 1008.04 442.354 1006.75 441.044L1006.61 440.893L962.788 390.952C961.513 389.499 961.657 387.288 963.11 386.013Z" fill="#B9CDFF"/>
<path d="M875.991 378.501C887.313 378.501 896.491 369.323 896.491 358.001C896.491 346.679 887.313 337.501 875.991 337.501C864.669 337.501 855.491 346.679 855.491 358.001C855.491 369.323 864.669 378.501 875.991 378.501Z" fill="#719CFD"/>
<path fill-rule="evenodd" clip-rule="evenodd" d="M857.491 351.001C857.491 363.427 867.565 373.501 879.991 373.501C884.888 373.501 889.419 371.936 893.113 369.28C889.445 374.835 883.146 378.501 875.991 378.501C864.669 378.501 855.491 369.323 855.491 358.001C855.491 354.76 856.243 351.694 857.583 348.969C857.522 349.638 857.491 350.316 857.491 351.001Z" fill="#547ACE"/>
<path fill-rule="evenodd" clip-rule="evenodd" d="M880.241 353.764C885.263 356.664 890.566 356.882 892.085 354.251C893.603 351.62 890.763 347.137 885.741 344.238C880.719 341.338 875.417 341.12 873.898 343.751C872.379 346.382 875.219 350.865 880.241 353.764Z" fill="#B9CDFF"/>
<path d="M995.991 340.501C1007.31 340.501 1016.49 331.323 1016.49 320.001C1016.49 308.679 1007.31 299.501 995.991 299.501C984.669 299.501 975.491 308.679 975.491 320.001C975.491 331.323 984.669 340.501 995.991 340.501Z" fill="#F6BE67"/>
<path fill-rule="evenodd" clip-rule="evenodd" d="M977.491 313.001C977.491 325.427 987.565 335.501 999.991 335.501C1004.89 335.501 1009.42 333.936 1013.11 331.28C1009.45 336.835 1003.15 340.501 995.991 340.501C984.669 340.501 975.491 331.323 975.491 320.001C975.491 316.76 976.243 313.694 977.583 310.969C977.522 311.638 977.491 312.316 977.491 313.001Z" fill="#D19C49"/>
<path fill-rule="evenodd" clip-rule="evenodd" d="M1000.24 315.764C1005.26 318.664 1010.57 318.882 1012.08 316.251C1013.6 313.62 1010.76 309.137 1005.74 306.238C1000.72 303.338 995.417 303.12 993.898 305.751C992.379 308.382 995.219 312.865 1000.24 315.764Z" fill="#F9D8A4"/>
<path d="M1013.99 461.501C1025.31 461.501 1034.49 452.323 1034.49 441.001C1034.49 429.679 1025.31 420.501 1013.99 420.501C1002.67 420.501 993.491 429.679 993.491 441.001C993.491 452.323 1002.67 461.501 1013.99 461.501Z" fill="#3CB49F"/>
<path fill-rule="evenodd" clip-rule="evenodd" d="M995.491 434.001C995.491 446.427 1005.56 456.501 1017.99 456.501C1022.89 456.501 1027.42 454.936 1031.11 452.28C1027.45 457.835 1021.15 461.501 1013.99 461.501C1002.67 461.501 993.491 452.323 993.491 441.001C993.491 437.76 994.243 434.694 995.583 431.969C995.522 432.638 995.491 433.316 995.491 434.001Z" fill="#229581"/>
<path fill-rule="evenodd" clip-rule="evenodd" d="M1018.24 436.764C1023.26 439.664 1028.57 439.882 1030.08 437.251C1031.6 434.62 1028.76 430.137 1023.74 427.238C1018.72 424.338 1013.42 424.12 1011.9 426.751C1010.38 429.382 1013.22 433.865 1018.24 436.764Z" fill="#50C4B0"/>
<path fill-rule="evenodd" clip-rule="evenodd" d="M828.487 413.497C836.493 405.491 836.493 392.511 828.487 384.505C820.481 376.5 807.501 376.5 799.496 384.505C791.49 392.511 791.49 405.491 799.496 413.497C807.501 421.502 820.481 421.502 828.487 413.497Z" fill="#F6BE67"/>
<path fill-rule="evenodd" clip-rule="evenodd" d="M795.96 407.133C804.747 415.92 818.993 415.92 827.78 407.133C831.242 403.67 833.341 399.36 834.074 394.87C835.408 401.391 833.546 408.437 828.487 413.497C820.481 421.502 807.501 421.502 799.496 413.497C797.204 411.205 795.568 408.505 794.588 405.632C795.018 406.148 795.476 406.648 795.96 407.133Z" fill="#D19C49"/>
<path fill-rule="evenodd" clip-rule="evenodd" d="M814 392.999C819.602 391.499 823.505 387.903 822.719 384.969C821.933 382.035 816.755 380.873 811.153 382.374C805.552 383.875 801.648 387.47 802.435 390.404C803.221 393.339 808.399 394.5 814 392.999Z" fill="#F9D8A4"/>
<path fill-rule="evenodd" clip-rule="evenodd" d="M979.487 401.497C987.493 393.491 987.493 380.511 979.487 372.505C971.481 364.5 958.501 364.5 950.496 372.505C942.49 380.511 942.49 393.491 950.496 401.497C958.501 409.502 971.481 409.502 979.487 401.497Z" fill="#E9525B"/>
<path fill-rule="evenodd" clip-rule="evenodd" d="M946.96 395.133C955.747 403.92 969.993 403.92 978.78 395.133C982.242 391.67 984.341 387.36 985.074 382.87C986.408 389.391 984.546 396.437 979.487 401.497C971.481 409.502 958.501 409.502 950.496 401.497C948.204 399.205 946.568 396.505 945.588 393.632C946.018 394.148 946.476 394.648 946.96 395.133Z" fill="#CB3E47"/>
<path fill-rule="evenodd" clip-rule="evenodd" d="M965 380.999C970.602 379.499 974.505 375.903 973.719 372.969C972.933 370.035 967.755 368.873 962.153 370.374C956.552 371.875 952.648 375.47 953.435 378.404C954.221 381.339 959.399 382.5 965 380.999Z" fill="#E98086"/>
<path fill-rule="evenodd" clip-rule="evenodd" d="M743.188 277.305L744.242 277.29L743.508 277.721C726.424 287.782 717.037 279.072 731.595 277.55C735.439 277.149 739.321 277.338 743.188 277.305ZM753.677 260.368L755.675 264.366C752.488 267.473 735.564 273.359 730.998 274.3L729.557 274.579C718.654 276.737 702.735 281.166 687.728 281.858C681.052 279.171 674.835 275.591 669.228 271.269L675.867 270.615C683.612 269.847 691.352 269.044 699.064 268.007C714.28 265.962 729.371 263.071 744.557 260.816L750.422 259.97C752.315 259.713 754.557 259.511 753.677 260.368ZM791.459 233.155C790.346 236.693 788.984 240.123 787.394 243.423C759.955 249.772 710.411 252.935 691.347 253.518L689.444 253.569C677.437 253.833 669.677 252.848 670.176 249.861L670.198 249.751L671.756 248.245C674.038 238.361 692.011 247.56 702.084 246.537L707.299 246.002C737.996 242.817 750.47 240.873 769.904 237.242L791.459 233.155ZM784.133 213.341L784.369 215.627C780.651 217.484 776.532 218.566 772.424 219.19C760.818 220.955 749.007 221.086 737.389 222.771C716.089 225.859 695.115 231.238 673.729 233.593L671.436 233.833C662.966 234.677 651.543 236.944 643.355 235.598C641.661 230.786 640.432 225.76 639.719 220.57C668.98 219.824 698.27 219.773 727.485 218.031C745.647 216.948 763.593 213.417 781.725 211.915C782.654 211.838 784.967 212.924 784.133 213.341ZM793.6 195.305C794.457 199.746 794.934 204.322 794.994 208.997L794.998 209.739C784.976 209.043 771.909 204.316 762.497 203.934L761.339 203.901C754.47 203.625 748.773 199.379 758.575 198.345C766.912 197.465 775.266 196.757 783.623 196.09L793.6 195.305ZM775.784 188.435L776.1 188.455C780.828 188.856 764.8 192.112 759.278 193.015C749.955 194.539 740.416 194.372 731.07 195.743C723.297 196.883 715.792 199.583 707.995 200.537C696.87 201.897 685.582 203.883 674.442 202.666C669.497 202.126 666.212 196.606 661.374 195.445C656.457 194.265 646.709 196.359 640.383 195.404C640.939 192.498 641.659 189.651 642.533 186.87C686.956 187.246 731.421 186.195 775.784 188.435ZM758.894 162.726L764.154 163.315C771.62 164.168 777.177 164.878 780.827 165.444C783.19 168.778 785.294 172.306 787.112 175.998L786.504 176.028C784.002 176.125 780.655 175.97 776.251 175.476L775.695 175.412C746.744 172.04 720.478 171.974 691.884 175.214L690.165 175.412C686.988 175.786 684.11 173.513 683.737 170.336C683.363 167.159 685.636 164.28 688.813 163.907C689.142 163.868 689.474 163.858 689.805 163.876C694.533 164.134 699.262 164.263 703.992 164.263L707.37 164.253C720.357 164.176 737.531 163.667 758.894 162.726ZM662.115 154.934L662.699 154.365C665.452 151.712 668.4 149.259 671.522 147.03C676.939 146.552 682.36 146.174 687.794 146.082C789.7 144.355 698.02 158.5 662.115 154.934ZM739.292 135.712C743.865 137.065 748.262 138.823 752.442 140.944L751.732 141.019L751.031 141.104C747.609 141.552 744.133 141.66 740.683 141.507L739.743 141.459L719.877 139.298C719.517 139.277 718.941 138.435 719.298 138.382C725.732 137.429 732.181 136.589 738.636 135.792L739.292 135.712Z" fill="#E9525B"/>
<path opacity="0.592727" fill-rule="evenodd" clip-rule="evenodd" d="M771.972 155.019C786.194 169.058 795 188.508 795 210.001C795 252.803 760.078 287.501 717 287.501C694.874 287.501 674.899 278.347 660.704 263.643C671.415 268.684 683.378 271.501 696 271.501C741.84 271.501 779 234.34 779 188.501C779 177.041 776.678 166.123 772.478 156.193L771.972 155.019Z" fill="#A43239"/>
<path d="M871.624 270.972L897.311 175.355L813.814 255.523L871.624 270.972ZM889.721 188.186L868.796 266.076L821.705 253.491L889.721 188.186Z" fill="#F0DECF"/>
<path d="M555.149 414.286C585.436 392.587 609.676 385.393 627.906 393.147C634.318 395.874 638.89 400.567 642.229 407.208L642.549 407.853C644.692 412.267 646.084 416.759 648.019 424.7L649.275 429.93C651.29 438.221 652.535 442.185 654.602 446.265C657.423 451.833 661.15 455.418 666.483 457.259C682.54 462.802 703.444 453.182 729.098 427.843C730.081 426.872 731.664 426.882 732.634 427.865C733.604 428.847 733.594 430.43 732.612 431.4C705.745 457.937 683.191 468.317 664.852 461.985C658.2 459.689 653.515 455.184 650.141 448.524L649.86 447.961C647.741 443.649 646.444 439.451 644.433 431.177L643.173 425.932C641.226 417.937 639.875 413.656 637.762 409.454C634.924 403.809 631.19 399.977 625.949 397.748C609.717 390.844 587.076 397.563 558.061 418.35C556.939 419.154 555.377 418.896 554.573 417.774C553.769 416.652 554.027 415.09 555.149 414.286Z" fill="white"/>
<path d="M1048.62 672.01V676.01H910.122V672.01H1048.62Z" fill="#F0DECF"/>
<path d="M1016.61 101.445C1019.03 101.445 1021 103.347 1021.11 105.733L1021.11 105.945V278.678C1021.11 281.163 1019.1 283.178 1016.61 283.178C1014.2 283.178 1012.23 281.277 1012.12 278.89L1012.11 278.678V105.945C1012.11 103.46 1014.13 101.445 1016.61 101.445Z" fill="#F0DECF"/>
<path d="M1094.36 187.945C1096.85 187.945 1098.86 189.96 1098.86 192.445C1098.86 194.86 1096.96 196.83 1094.57 196.94L1094.36 196.945H938.363C935.878 196.945 933.863 194.931 933.863 192.445C933.863 190.031 935.764 188.061 938.151 187.95L938.363 187.945H1094.36Z" fill="#F0DECF"/>
<path d="M1111.35 101.204C1113.73 100.466 1116.25 101.791 1116.99 104.164C1117.73 106.537 1116.4 109.059 1114.03 109.798C1064.45 125.218 1040.19 153.224 1040.19 194.376C1040.19 235.513 1064.44 263.26 1113.99 278.192C1116.37 278.909 1117.72 281.419 1117 283.799C1116.28 286.179 1113.77 287.526 1111.39 286.809C1058.28 270.805 1031.19 239.802 1031.19 194.376C1031.19 148.964 1058.26 117.72 1111.35 101.204Z" fill="#E9525B"/>
<path d="M915.703 104.164C916.442 101.791 918.964 100.466 921.337 101.204C974.431 117.72 1001.5 148.964 1001.5 194.376C1001.5 239.802 974.411 270.805 921.299 286.809C918.919 287.526 916.409 286.179 915.692 283.799C914.975 281.419 916.322 278.909 918.702 278.192C968.256 263.26 992.5 235.513 992.5 194.376C992.5 153.224 968.236 125.218 918.664 109.798C916.29 109.059 914.965 106.537 915.703 104.164Z" fill="#719CFD"/>
</svg>
