<svg width="42" height="42" viewBox="0 0 42 42" fill="none" xmlns="http://www.w3.org/2000/svg">
<path d="M20.75 3.66699C24.8277 3.66699 28.7384 5.28685 31.6218 8.17023C34.5051 11.0536 36.125 14.9643 36.125 19.042C36.125 24.2934 33.2618 28.5916 30.2449 31.6751C28.7373 33.1988 27.0927 34.5804 25.3318 35.8025L24.604 36.2979L24.2623 36.5251L23.6183 36.9351L23.0443 37.2853L22.3336 37.6987C21.851 37.9734 21.3053 38.1178 20.75 38.1178C20.1947 38.1178 19.649 37.9734 19.1664 37.6987L18.4557 37.2853L17.5674 36.7386L17.2394 36.5251L16.539 36.0587C14.6393 34.7729 12.8696 33.3047 11.2551 31.6751C8.23817 28.5882 5.375 24.2934 5.375 19.042C5.375 14.9643 6.99486 11.0536 9.87823 8.17023C12.7616 5.28685 16.6723 3.66699 20.75 3.66699ZM20.75 8.91699C20.077 8.91699 19.4105 9.04955 18.7887 9.30711C18.167 9.56467 17.602 9.94217 17.1261 10.4181C16.6502 10.894 16.2727 11.4589 16.0151 12.0807C15.7576 12.7025 15.625 13.369 15.625 14.042C15.625 14.715 15.7576 15.3815 16.0151 16.0032C16.2727 16.625 16.6502 17.19 17.1261 17.6659C17.602 18.1418 18.167 18.5193 18.7887 18.7769C19.4105 19.0344 20.077 19.167 20.75 19.167C22.1092 19.167 23.4128 18.627 24.3739 17.6659C25.335 16.7048 25.875 15.4012 25.875 14.042C25.875 12.6828 25.335 11.3792 24.3739 10.4181C23.4128 9.45695 22.1092 8.91699 20.75 8.91699Z" fill="#FF5630"/>
<path d="M17.9309 20.9785C16.0039 19.9053 14.69 17.7663 14.69 15.3028C14.69 11.7626 17.4034 8.89258 20.7506 8.89258C24.0978 8.89258 26.8112 11.7626 26.8112 15.3028C26.8112 17.7664 25.4973 19.9055 23.5701 20.9787C26.1509 22.0187 28.1214 24.4452 28.7318 27.4355C28.8162 27.8493 28.601 28.2742 28.2069 28.3497C26.7925 28.6203 24.4501 28.8926 20.7491 28.8926C17.0482 28.8926 14.7058 28.6203 13.2914 28.3497C12.8988 28.2745 12.684 27.8513 12.7681 27.4389C13.3777 24.4469 15.3489 22.0188 17.9309 20.9785Z" fill="white"/>
</svg>
