<svg width="475" height="312" viewBox="0 0 475 312" fill="none" xmlns="http://www.w3.org/2000/svg">
<g clip-path="url(#clip0_270_196735)">
<path d="M265.329 16.5227H372.198C379.814 16.5227 385.988 22.6937 385.988 30.3059V192.259C385.988 199.871 379.814 206.042 372.198 206.042H265.329C257.713 206.042 251.539 199.871 251.539 192.259V30.3059C251.539 22.6937 257.713 16.5227 265.329 16.5227Z" fill="white" stroke="#E3E3E8" stroke-miterlimit="10"/>
<path d="M319.126 134.834C342.844 134.834 362.08 115.607 362.08 91.8995C362.08 68.1924 342.844 48.9648 319.126 48.9648C295.408 48.9648 276.171 68.1924 276.171 91.8995C276.188 115.607 295.408 134.817 319.126 134.834ZM319.126 60.4566C336.501 60.4566 350.583 74.5499 350.566 91.9167C350.566 109.284 336.466 123.36 319.091 123.342C301.716 123.342 287.651 109.266 287.651 91.8995C287.668 74.5327 301.751 60.4738 319.126 60.4566Z" fill="#E3E3E8"/>
<path d="M283.445 108.25C283.997 108.25 284.548 108.164 285.083 108.009C288.116 107.113 289.857 103.925 288.961 100.876C283.997 84.2326 293.477 66.7107 310.128 61.766C313.041 60.9045 316.075 60.4566 319.126 60.4566C322.297 60.2843 324.728 57.5621 324.555 54.392C324.4 51.463 322.056 49.1199 319.126 48.9648C295.39 48.9993 276.154 68.2613 276.188 91.9857C276.188 96.0862 276.792 100.169 277.947 104.098C278.653 106.561 280.894 108.25 283.445 108.25Z" fill="#112DF2"/>
<path d="M342.671 126.426C343.999 126.426 345.291 125.979 346.308 125.134C364.614 110.145 367.355 83.1989 352.445 64.8328C350.445 62.369 346.826 62.0072 344.361 64.0058C341.896 66.0044 341.534 69.6224 343.533 72.0862C348.118 77.6684 350.618 84.6806 350.583 91.9168C350.6 101.358 346.36 110.3 339.034 116.261C336.587 118.26 336.208 121.878 338.224 124.342C339.31 125.686 340.948 126.461 342.671 126.444V126.426Z" fill="#E2445C"/>
<path d="M319.126 134.834H321.332C324.504 134.731 326.986 132.095 326.882 128.925C326.779 125.754 324.142 123.273 320.97 123.377C320.901 123.377 320.815 123.377 320.746 123.377H319.126C313.3 123.377 307.594 121.792 302.63 118.742C299.924 117.088 296.39 117.932 294.735 120.637C293.081 123.342 293.925 126.874 296.631 128.528C303.406 132.663 311.197 134.851 319.126 134.834Z" fill="#00C875"/>
<path d="M276.912 162.108H324.073C326.383 162.177 328.382 160.471 328.675 158.18C328.899 155.819 327.158 153.734 324.797 153.51C324.659 153.51 324.521 153.493 324.383 153.493H277.223C274.913 153.424 272.913 155.13 272.62 157.421C272.396 159.782 274.137 161.867 276.499 162.091C276.637 162.091 276.774 162.108 276.912 162.108Z" fill="#E3E3E8"/>
<path d="M312.179 94.9146H325.969C327.503 94.9663 328.882 94.0187 329.416 92.5887C330.037 90.7969 329.072 88.8328 327.279 88.2125C326.882 88.0747 326.469 88.0058 326.055 88.023H312.265C310.731 87.9369 309.318 88.8844 308.818 90.3489C308.198 92.1407 309.163 94.1048 310.955 94.7251C311.352 94.8629 311.766 94.9318 312.179 94.9146Z" fill="#E3E3E8"/>
<path d="M286.013 175.03H272.224" stroke="#E3E3E8" stroke-linecap="round" stroke-linejoin="round"/>
<path d="M330.83 175.03H294.632" stroke="#E3E3E8" stroke-linecap="round" stroke-linejoin="round"/>
<path d="M363.58 175.03H341.172" stroke="#E3E3E8" stroke-linecap="round" stroke-linejoin="round"/>
<path d="M308.422 185.367H272.224" stroke="#E3E3E8" stroke-linecap="round" stroke-linejoin="round"/>
<path d="M363.58 185.367H317.04" stroke="#E3E3E8" stroke-linecap="round" stroke-linejoin="round"/>
<path d="M347.308 162.108H359.512C361.822 162.177 363.821 160.471 364.114 158.18C364.321 155.802 362.58 153.717 360.202 153.511C360.064 153.511 359.926 153.493 359.788 153.511H347.618C345.309 153.442 343.309 155.147 343.016 157.439C342.809 159.816 344.55 161.901 346.929 162.108C347.05 162.108 347.188 162.108 347.308 162.108Z" fill="#C6C6D2"/>
<path d="M371.664 35.5436C369.713 35.5436 368.131 33.9623 368.131 32.0117C368.131 30.061 369.713 28.4797 371.664 28.4797C373.616 28.4797 375.198 30.061 375.198 32.0117C375.198 33.9623 373.616 35.5436 371.664 35.5436Z" fill="#E2445C"/>
<path d="M345.998 35.5436C344.047 35.5436 342.465 33.9623 342.465 32.0117C342.465 30.061 344.047 28.4797 345.998 28.4797C347.95 28.4797 349.532 30.061 349.532 32.0117C349.532 33.9623 347.95 35.5436 345.998 35.5436Z" fill="#00C875"/>
<path d="M358.84 35.5436C356.888 35.5436 355.306 33.9623 355.306 32.0117C355.306 30.061 356.888 28.4797 358.84 28.4797C360.791 28.4797 362.373 30.061 362.373 32.0117C362.373 33.9623 360.791 35.5436 358.84 35.5436Z" fill="#FDAB3D"/>
<path d="M467.002 311.139H6.77407" stroke="#E3E3E8" stroke-linecap="round" stroke-linejoin="round"/>
<path d="M392.883 54.4265H381.11L363.442 72.0862" stroke="#8E8EA4" stroke-linecap="round" stroke-linejoin="round"/>
<path d="M408.396 49.2578H398.054" stroke="#8E8EA4" stroke-linecap="round" stroke-linejoin="round"/>
<path d="M408.396 54.4265H398.054" stroke="#8E8EA4" stroke-linecap="round" stroke-linejoin="round"/>
<path d="M408.396 59.5952H398.054" stroke="#8E8EA4" stroke-linecap="round" stroke-linejoin="round"/>
<path d="M169.905 310.277H203.793L296.666 302.817C304.854 302.817 313.903 303.162 313.041 295.03C310.8 275.044 306.508 239.638 301.734 215.104C294.839 179.182 287.272 157.714 255.538 143.259C242.421 137.281 255.09 131.699 242.404 128.201C224.391 123.239 207.068 122.447 191.175 130.665C187.987 132.388 184.901 134.111 181.885 136.075C180.437 137.005 178.817 143.862 177.42 144.844C156.891 159.368 160.735 173.789 155.323 188.038C149.617 203.113 168.457 280.437 169.905 310.277Z" fill="#5D3DE3"/>
<path opacity="0.5" d="M241.008 149.634C241.008 149.634 232.562 211.469 215.531 271.529L235.544 306.091C235.544 306.091 278.86 308.106 278.86 302.817C278.86 297.528 280.722 214.484 280.722 214.484L247.971 165.967L241.008 149.634Z" fill="#38219E"/>
<path opacity="0.5" d="M142.498 302.111L169.905 310.277H180.247C200.501 191.052 182.729 144.879 182.729 144.879L177.662 139.004C157.132 153.51 165.061 173.823 159.649 188.072C153.909 203.113 141.085 272.27 142.498 302.111Z" fill="#38219E"/>
<path d="M121.176 310.277H169.905C172.335 293.427 181.281 230.335 183.298 201.579C184.625 179.75 184.16 157.852 181.936 136.109C169.664 144.138 158.77 154.079 149.652 165.553C144.05 172.342 139.482 179.94 136.103 188.072C134.38 192.517 132.311 202.337 130.208 214.76C125.192 244.514 120.176 289.223 121.176 310.277Z" fill="#00C875"/>
<path d="M175.093 152.925L159.287 178.475L168.63 190.553L161.252 199.012L170.595 239.139" stroke="#02975A" stroke-linecap="round" stroke-linejoin="round"/>
<path d="M163.682 47.9311C164.613 51.7043 165.286 55.5464 165.699 59.4057C167.423 76.1867 163.476 87.2305 168.492 99.9455C171.905 108.836 180.23 114.918 189.745 115.452C190.003 119.828 189.745 124.204 188.952 128.511C188.435 132.078 187.797 135.403 187.401 137.419C187.125 138.728 187.642 140.055 188.693 140.864C196.226 146.619 205.965 148.6 215.152 146.274C227.666 143.19 232.786 137.47 234.63 134.61C235.251 133.645 235.337 132.422 234.871 131.371C230.028 120 226.132 108.233 223.236 96.2068C221.168 87.7474 220.306 82.1996 220.306 82.1996C224.029 81.6828 227.477 79.9254 230.097 77.2205C233.992 72.8615 234.854 67.8307 232.906 63.6957C231.682 60.8357 228.804 59.0611 225.701 59.2334C225.701 59.2334 225.581 54.3231 228.735 52.6864C231.889 51.0496 236.543 45.3468 231.769 37.5248C228.7 32.5112 233.337 28.9103 232.01 25.275C229.166 17.7287 223.202 18.2456 221.547 14.9376C219.617 11.2334 219.082 4.03165 211.205 1.15441C199.311 -3.04947 199.639 5.94407 184.832 0.861514C172.577 -3.34236 173.128 9.47602 163.596 13.6971C153.668 18.125 165.199 26.9979 158.546 33.0625C158.305 33.2865 158.063 33.5105 157.839 33.7517C152.892 39.2994 157.357 46.2255 163.682 47.9311Z" fill="#FFACAB"/>
<path d="M222.461 71.5865C222.461 71.5865 223.598 65.6253 227.839 66.6763" stroke="#F28586" stroke-linecap="round" stroke-linejoin="round"/>
<path d="M226.701 72.603C226.891 73.6195 226.598 74.6533 225.891 75.4114" stroke="#F28586" stroke-linecap="round" stroke-linejoin="round"/>
<path d="M188.866 128.563C205.448 125.927 211.791 111.196 211.981 110.679C205.12 114.211 197.45 115.882 189.745 115.503C189.969 119.879 189.676 124.256 188.866 128.563Z" fill="#F28586"/>
<path d="M163.683 47.9312C164.613 51.7043 165.286 55.5464 165.699 59.4057C183.04 53.4789 187.487 35.2851 187.487 35.2851L183.298 24.4136L170.215 26.7567L164.045 34.2341C159.149 39.5406 157.357 46.2255 163.683 47.9312Z" fill="#F28586"/>
<path d="M161.011 51.1185C164.717 52.7035 170.388 52.5829 183.419 42.4006C193.589 34.4925 197.588 35.509 198.139 39.1615C198.915 44.2441 202.673 43.0036 204.741 44.537C207.344 46.4666 206.568 49.7057 208.188 52.6518C208.999 54.0991 210.188 55.2879 211.636 56.0976C217.927 59.7157 218.065 66.6418 218.41 70.3805C219.375 65.9526 221.909 62.0244 225.529 59.3022C225.529 59.3022 225.408 54.4092 228.563 52.7724C231.717 51.1357 236.371 45.4157 231.596 37.6109C229.338 33.9239 231.234 30.9778 231.889 28.2556C232.182 27.308 232.182 26.3087 231.889 25.3611C229.045 17.8148 223.081 18.3144 221.426 15.0237C221.013 14.1106 220.668 13.1802 220.392 12.2154C219.031 8.42499 217.341 3.60087 211.153 1.37833C203.862 -1.22325 201.156 1.17158 196.743 2.22255C194.226 2.80834 191.624 2.80834 189.107 2.22255C187.642 1.92966 186.194 1.53339 184.781 1.03375C175.197 -2.25699 173.439 4.84136 168.595 10.1134C167.199 11.7157 165.475 13.0251 163.545 13.9383C153.616 18.3834 165.148 27.2391 158.494 33.3037C152.496 38.6619 155.96 48.9648 161.011 51.1185Z" fill="#741648"/>
<path d="M214.842 85.2148C216.704 89.5048 219.582 93.2952 223.236 96.2241C221.168 87.7647 220.306 82.217 220.306 82.217C219.289 82.2514 218.289 82.1825 217.29 82.0102C216.031 81.8207 214.859 82.6649 214.67 83.9226C214.601 84.3706 214.67 84.8185 214.842 85.2148Z" fill="#F28586"/>
<path d="M208.309 52.1695C209.119 53.6168 210.309 54.8056 211.756 55.6153C218.048 59.2334 218.186 66.1595 218.531 69.8809C219.496 65.4186 222.047 61.4732 225.701 58.7338C225.701 58.7338 225.581 53.858 228.735 52.204C231.889 50.55 236.543 44.8644 231.769 37.0425C229.511 33.3727 231.407 30.4265 232.062 27.7043C232.062 27.7043 227.304 46.1394 208.309 52.1695Z" fill="#571036"/>
<path d="M196.743 2.17098C199.105 4.25569 203.086 5.04823 207.637 5.61679C212.187 6.18534 217.583 9.92404 220.392 12.2155C219.03 8.42511 217.341 3.60099 211.153 1.37845C203.862 -1.27482 201.156 1.12001 196.743 2.17098Z" fill="#571036"/>
<path d="M168.595 10.1134C172.249 10.5614 175.903 9.33813 178.524 6.77101C180.954 4.34172 185.849 2.92894 189.124 2.22255C187.659 1.92966 186.211 1.53339 184.798 1.03375C175.197 -2.25699 173.352 4.84136 168.595 10.1134Z" fill="#571036"/>
<path d="M179.006 40.2642C179.006 40.2642 171.974 46.794 166.44 47.4487C160.907 48.1034 158.856 40.7983 160.942 37.0251" stroke="#571036" stroke-linecap="round" stroke-linejoin="round"/>
<path d="M228.804 28.1867C228.804 28.1867 228.994 24.0345 223.236 21.2951C217.479 18.5557 216.79 15.9369 216.548 14.0762" stroke="#571036" stroke-linecap="round" stroke-linejoin="round"/>
<path d="M163.924 30.685C164.579 28.876 164.579 26.8946 163.924 25.0856C162.683 21.1574 161.752 18.5558 168.871 15.2134C169.491 14.9205 170.06 14.5587 170.594 14.1279" stroke="#571036" stroke-linecap="round" stroke-linejoin="round"/>
<path d="M235.544 144.5C235.544 144.5 218.617 162.694 189.004 149.668" stroke="#38219E" stroke-linecap="round" stroke-linejoin="round"/>
<path d="M130.26 214.725C135.31 210.246 141.119 203.785 143.946 196.032C147.721 185.694 149.117 172.79 149.703 165.519C144.101 172.307 139.533 179.905 136.155 188.037C134.414 192.482 132.311 202.303 130.26 214.725Z" fill="#02975A"/>
<path d="M151.324 272.925H156.684C159.356 272.925 161.752 272.787 161.752 272.787C164.079 269.841 167.216 267.635 170.767 266.447C168.371 266.171 165.958 266.016 163.545 266.016C161.597 266.033 159.649 266.154 157.701 266.395C150.083 267.325 147.911 272.787 151.324 272.925Z" fill="#F78489"/>
<path d="M158.58 297.803C159.684 295.788 163.596 289.516 168.698 287.862C172.129 286.708 175.835 286.777 179.213 288.069C181.419 288.965 183.677 289.723 185.97 290.343C188.9 290.86 191.899 290.688 194.744 289.844C199.156 288.603 203.448 287.001 207.585 285.054V274.096C207.585 274.096 204.81 273.321 200.88 272.373L194.537 270.771C189.624 269.582 184.35 268.376 180.747 267.79C177.145 267.205 174.163 266.757 171.25 266.447C167.699 267.635 164.562 269.823 162.235 272.77C162.235 272.77 155.547 279.454 153.202 283.968C150.858 288.482 157.494 299.836 158.58 297.803Z" fill="#FFACAB"/>
<path d="M160.476 280.247C156.684 283.779 153.84 288.207 152.237 293.134" stroke="#F78489" stroke-linecap="round" stroke-linejoin="round"/>
<path d="M162.717 284.606C158.236 288.293 154.926 293.22 153.22 298.768" stroke="#F78489" stroke-linecap="round" stroke-linejoin="round"/>
<path d="M194.744 289.843C199.156 288.603 203.448 287.001 207.585 285.054V274.096C207.585 274.096 204.81 273.321 200.88 272.373C201.621 278.834 199.363 285.278 194.744 289.843Z" fill="#F78489"/>
<path d="M147.876 272.925H156.684C158.494 270.185 160.838 267.842 163.579 266.033C161.683 266.033 156.322 266.171 154.288 266.412C146.618 267.325 144.446 272.787 147.876 272.925Z" fill="#FFACAB"/>
<path d="M203.724 310.277H325.038C332.657 310.225 338.776 304.006 338.724 296.391C338.724 295.943 338.69 295.495 338.655 295.064C337.811 287.483 336.673 277.68 335.329 267.101C333.122 249.872 330.347 230.49 327.4 215.414C324.486 200.528 321.504 188.141 316.764 177.7H317.454C310.559 162.711 300.217 151.667 281.256 143.052C272.862 139.228 264.45 135.558 256.176 132.457C251.315 130.734 246.489 129.011 241.714 127.736H242.404C237.233 217.172 227.321 274.561 227.321 274.561L203.69 271.116C203.69 271.116 206.999 294.771 203.724 310.277Z" fill="#00C875"/>
<path d="M227.356 274.579L233.423 275.785L277.378 284.399C279.981 272.597 281.773 260.64 282.79 248.597C283.169 244.256 283.48 239.638 283.652 234.814C284.048 225.579 283.876 216.327 283.135 207.11" stroke="#02975A" stroke-linecap="round" stroke-linejoin="round"/>
<path d="M233.423 275.819L277.378 284.434C279.981 272.632 281.773 260.675 282.79 248.632C283.169 244.29 283.48 239.673 283.652 234.849C275.43 269.686 258.951 279.575 233.423 275.819Z" fill="#02975A"/>
<path d="M277.378 284.434L296.666 289.051" stroke="#02975A" stroke-linecap="round" stroke-linejoin="round"/>
<path d="M299.389 310.277H325.038C332.657 310.312 338.862 304.178 338.897 296.563C338.897 296.046 338.879 295.547 338.828 295.047C337.983 287.449 336.845 277.611 335.501 266.998C331.933 291.325 323.831 305.781 299.389 310.277Z" fill="#02975A"/>
<path d="M249.902 144.844L268.104 173.393L252.729 184.798L260.279 195.808L241.215 237.278" stroke="#02975A" stroke-linecap="round" stroke-linejoin="round"/>
<path d="M210.171 276.457C212.946 286.139 212.946 296.408 210.171 306.09" stroke="#02975A" stroke-linecap="round" stroke-linejoin="round"/>
<path d="M256.624 132.818C260.968 140.675 270.311 149.617 285.548 155.664C306.905 164.123 316.799 177.286 316.799 177.286C310.094 162.556 299.838 151.701 281.273 143.242C273 139.486 264.709 135.885 256.624 132.818Z" fill="#02975A"/>
<path d="M210.636 301.663H159.563L130.863 226.975C129.795 224.235 127.175 222.426 124.227 222.409H116.936C116.936 223.184 117.056 223.96 117.056 224.787C117.056 234.797 107.68 246.357 96.7857 245.048C73.602 242.257 49.8149 245.565 26.4588 245.048C28.0273 248.391 29.9062 251.94 31.8195 255.713C36.9906 266.24 39.2142 277.249 43.2993 288L44.2474 288.172C48.6428 288.879 53.0555 289.516 57.8301 290.171C81.7378 293.496 106.818 296.391 130.949 296.787C139.447 296.614 146.997 302.145 149.41 310.277H210.705C212.377 310.312 213.894 309.33 214.566 307.813C215.566 305.625 214.601 303.058 212.429 302.059C211.86 301.8 211.257 301.663 210.636 301.663Z" fill="#C6C6D2"/>
<path d="M0.241318 228.973L29.7338 305.711C30.8025 308.468 33.4398 310.277 36.3873 310.277H151.255L118.194 224.132H3.56804C1.60303 224.132 -3.05176e-05 225.734 -3.05176e-05 227.698C-3.05176e-05 228.129 0.0861816 228.56 0.241318 228.973Z" fill="#E9EAEE"/>
<path d="M66.1728 269.599C67.569 275.233 73.2572 278.662 78.8765 277.266C83.4615 276.129 86.7193 272.08 86.8572 267.36C86.8917 267.17 86.7882 266.981 86.5986 266.946C86.409 266.912 86.2194 267.015 86.1849 267.205C84.4785 270.823 80.152 272.391 76.5322 270.685C72.9125 268.979 71.3439 264.655 73.0503 261.037C73.7743 259.503 74.9981 258.28 76.5322 257.556C76.7218 257.505 76.808 257.315 76.7563 257.126C76.7046 256.971 76.5495 256.867 76.3943 256.884C70.5855 256.919 65.9142 261.657 65.9315 267.446C65.9315 268.169 66.0177 268.893 66.1728 269.599Z" fill="#AAAABB"/>
<path d="M359.926 249.976L360.684 254.921L368.768 307.676C368.992 309.175 370.285 310.277 371.802 310.277H391.866C393.383 310.277 394.676 309.175 394.9 307.676L402.984 254.921L403.742 249.976H359.926Z" fill="#E2445C"/>
<path d="M357.064 246.53L357.288 245.479C357.875 245.548 358.443 245.479 359.012 245.341C362.46 244.411 366.579 245.203 370.182 245.203C374.198 245.203 378.231 245.1 382.248 244.876C388.763 244.514 398.726 241.223 404.656 244.428C405.138 244.686 405.673 244.859 406.224 244.945L406.569 246.53L406.776 247.478C407.017 248.58 406.328 249.683 405.225 249.924C405.087 249.958 404.932 249.976 404.794 249.976H358.857C357.719 249.976 356.806 249.045 356.806 247.925C356.806 247.788 356.806 247.633 356.858 247.495L357.064 246.53Z" fill="#C0C7FC"/>
<path d="M363.184 238.036C363.477 238.036 363.701 238.191 364.407 237.588C374.146 229.37 389.625 230.524 400.243 237.588C400.295 237.605 400.329 237.605 400.381 237.588L400.571 238.467L401.208 241.361H362.46L363.097 238.484L363.184 238.036Z" fill="#C0C7FC"/>
<path d="M363.097 237.915H400.571L400.071 235.521C400.019 234.797 399.381 234.246 398.657 234.28C398.45 234.28 398.244 234.349 398.071 234.47H365.597C364.959 234.091 364.149 234.297 363.787 234.935C363.683 235.107 363.614 235.314 363.597 235.521L363.097 237.915Z" fill="#DFE3FD"/>
<path d="M357.064 246.53H406.604L405.656 242.378C405.449 241.43 404.621 240.758 403.656 241.361H360.029C359.047 240.758 358.305 241.361 358.012 242.378L357.064 246.53Z" fill="#DFE3FD"/>
<path d="M358.926 249.976L359.719 255.145H403.949L404.742 249.976H358.926Z" fill="#BB3354"/>
<path opacity="0.4" d="M381.834 284.296C376.789 284.296 372.698 280.208 372.698 275.165C372.698 270.121 376.789 266.033 381.834 266.033C386.879 266.033 390.97 270.121 390.97 275.165C390.97 280.208 386.879 284.296 381.834 284.296Z" fill="white"/>
<path d="M473.276 211.589C473.655 211.589 474.017 211.469 474.31 211.245C475.069 210.676 475.224 209.591 474.655 208.833L413.291 126.719C412.792 125.91 411.723 125.668 410.913 126.185C410.103 126.702 409.861 127.753 410.378 128.563C410.43 128.632 410.482 128.718 410.534 128.77L471.897 210.9C472.225 211.331 472.742 211.589 473.276 211.589Z" fill="#0085FF"/>
<path d="M436.372 308.554C437.182 308.571 437.906 308.037 438.095 307.245L469.122 180.68C469.381 179.767 468.864 178.82 467.95 178.544C467.036 178.286 466.088 178.802 465.813 179.716C465.813 179.75 465.795 179.802 465.778 179.853L434.752 306.418C434.527 307.348 435.079 308.278 436.01 308.502L436.372 308.554Z" fill="#0085FF"/>
<path d="M400.329 130.148L405.5 137.195L415.998 129.373C417.928 127.925 418.342 125.186 416.894 123.239C415.412 121.344 412.671 120.999 410.758 122.481L400.329 130.148Z" fill="#0A1BA6"/>
<path d="M370.371 148.445C370.371 154.785 375.491 159.954 381.851 159.954C388.194 159.954 393.365 154.837 393.365 148.479C393.365 142.708 389.108 137.832 383.385 137.074C382.885 137.005 382.368 136.97 381.868 136.97C375.525 136.97 370.389 142.105 370.371 148.445Z" fill="#FDAB3D"/>
<path d="M370.371 148.445C370.371 152.373 372.371 156.026 375.68 158.128C382.73 156.904 387.436 150.202 386.212 143.156C385.816 140.916 384.85 138.814 383.385 137.074C382.885 137.005 382.368 136.97 381.868 136.97C375.525 136.97 370.389 142.105 370.371 148.445Z" fill="#FFCB00"/>
<path d="M394.486 146.825C394.089 145.895 393.883 144.12 393.228 141.795C392.573 139.469 391.797 137.711 391.366 135.523C391.366 135.265 391.366 135.006 391.245 134.731L392.297 135.024C397.709 136.281 403.173 133.214 404.931 127.942L405.431 128.528C415.808 141.571 413.946 160.505 401.208 171.256C400.777 171.618 400.14 171.566 399.778 171.135C399.76 171.101 399.726 171.084 399.709 171.049L390.745 158.248L390.642 158.11C393.986 155.44 396.158 150.822 394.486 146.825Z" fill="#0A1BA6"/>
<path d="M365.976 120.999C367.01 120.396 368.096 119.862 369.199 119.397H369.337C370.009 119.879 370.819 120.155 371.647 120.155C379.438 120.224 387.195 120.948 394.865 122.343C395.917 122.584 397.002 122.395 397.916 121.826L398.123 121.947C400.898 123.756 403.363 125.996 405.431 128.58C405.552 129.665 405.604 130.768 405.604 131.871C405.604 142.673 399.984 152.683 390.745 158.3L365.666 122.481C365.338 122.033 365.424 121.396 365.89 121.068C365.924 121.051 365.959 121.034 365.976 120.999Z" fill="#112DF2"/>
<path d="M369.199 119.397C377.232 126.512 388.987 127.529 398.123 121.895C389.504 116.296 378.662 115.365 369.199 119.397Z" fill="#0085FF"/>
<path d="M463.124 204.026C458.821 204.026 455.332 200.539 455.332 196.238C455.332 191.937 458.821 188.451 463.124 188.451C467.427 188.451 470.915 191.937 470.915 196.238C470.915 200.539 467.427 204.026 463.124 204.026Z" fill="#0A1BA6"/>
<path d="M463.124 199.339C461.41 199.339 460.021 197.951 460.021 196.238C460.021 194.525 461.41 193.137 463.124 193.137C464.837 193.137 466.226 194.525 466.226 196.238C466.226 197.951 464.837 199.339 463.124 199.339Z" fill="#0085FF"/>
<path d="M419.6 310.277H452.35V309.278C452.35 306.022 449.713 303.385 446.455 303.385H425.495C422.237 303.385 419.6 306.022 419.6 309.278V310.277Z" fill="#112DF2"/>
<path d="M77.4458 69.9326H86.5125L97.096 80.5112" stroke="#8E8EA4" stroke-linecap="round" stroke-linejoin="round"/>
<path d="M61.9325 64.7639H72.2747" stroke="#8E8EA4" stroke-linecap="round" stroke-linejoin="round"/>
<path d="M61.9325 69.9326H72.2747" stroke="#8E8EA4" stroke-linecap="round" stroke-linejoin="round"/>
<path d="M61.9325 75.1013H72.2747" stroke="#8E8EA4" stroke-linecap="round" stroke-linejoin="round"/>
<path d="M143.808 104.011C140.947 104.011 138.637 106.32 138.637 109.18V130.51C138.637 133.37 140.947 135.678 143.808 135.678C146.67 135.678 148.979 133.37 148.979 130.51V109.18C148.979 106.32 146.67 104.011 143.808 104.011Z" fill="#00C875"/>
<path d="M124.848 110.214C121.986 110.214 119.676 112.523 119.676 115.383V144.689C119.676 147.549 121.986 149.858 124.848 149.858C127.709 149.858 130.019 147.549 130.019 144.689V115.383C130.019 112.523 127.709 110.214 124.848 110.214Z" fill="#C6C6D2"/>
<path d="M105.887 87.0754C103.026 87.0754 100.716 89.3841 100.716 92.2441V136.385C100.716 139.245 103.026 141.554 105.887 141.554C108.748 141.554 111.058 139.245 111.058 136.385V92.2441C111.058 89.3841 108.748 87.0754 105.887 87.0754Z" fill="#FDAB3D"/>
<path d="M85.2025 97.0684C82.3412 97.0684 80.0314 99.377 80.0314 102.237V126.168C80.0314 129.028 82.3412 131.337 85.2025 131.337C88.0638 131.337 90.3736 129.028 90.3736 126.168V102.237C90.3736 99.377 88.0638 97.0684 85.2025 97.0684Z" fill="#0085FF"/>
<path d="M66.2418 104.115C63.3805 104.115 61.0707 106.424 61.0707 109.284V134.076C61.0707 136.936 63.3805 139.245 66.2418 139.245C69.1031 139.245 71.4129 136.936 71.4129 134.076V109.284C71.4129 106.424 69.1031 104.115 66.2418 104.115Z" fill="#C6C6D2"/>
<path d="M61.8118 177.614H43.8337C42.8856 177.614 42.11 176.838 42.11 175.891V157.921C42.11 156.973 42.8684 156.198 43.8164 156.181C43.8854 156.181 43.9371 156.181 44.006 156.181C54.3827 157.094 62.6048 165.312 63.5183 175.684C63.6217 176.632 62.9495 177.476 62.0014 177.579C61.9325 177.579 61.8808 177.579 61.8118 177.579V177.614Z" fill="#3149F4"/>
<path d="M58.4162 185.384C57.7784 201.373 39.6623 212.864 22.6494 201.286C21.6842 200.632 20.8568 199.805 20.2017 198.84C8.56677 181.818 20.0639 163.676 36.0598 163.038C36.5424 163.038 36.9216 163.4 36.9389 163.882V183.661C36.9389 184.126 37.3181 184.505 37.7835 184.505H57.5543C58.037 184.505 58.4162 184.884 58.4162 185.367V185.384Z" fill="#E3E3E8"/>
<path d="M17.1163 138.849H25.8383L38.5936 151.598" stroke="#AAAABB" stroke-linecap="round" stroke-linejoin="round"/>
<path d="M3.3267 135.403H10.2215" stroke="#AAAABB" stroke-linecap="round" stroke-linejoin="round"/>
<path d="M3.3267 138.849H10.2215" stroke="#AAAABB" stroke-linecap="round" stroke-linejoin="round"/>
<path d="M3.3267 144.017H10.2215" stroke="#AAAABB" stroke-linecap="round" stroke-linejoin="round"/>
</g>
<defs>
<clipPath id="clip0_270_196735">
<rect width="475" height="312" fill="white" transform="matrix(-1 0 0 1 475 0)"/>
</clipPath>
</defs>
</svg>
