<svg width="469" height="402" viewBox="0 0 469 402" fill="none" xmlns="http://www.w3.org/2000/svg">
<g clip-path="url(#clip0_272_197801)">
<path d="M423.038 112.857C422.03 89.5966 414.924 65.7964 398.885 48.9135C373.23 21.8306 331.747 18.2899 294.509 19.814C248.406 21.7133 202.631 28.6775 158.053 40.6362C119.079 51.1177 80.2459 65.8667 49.5264 92.0352C18.8069 118.204 -2.86087 157.55 0.304876 197.788C2.74368 225.34 17.3765 250.359 40.1699 266.023C54.9199 275.683 68.005 287.666 78.9327 301.477C99.5687 328.067 122.667 352.618 150.549 371.212C189.101 397.006 238.299 410.043 282.666 396.654C325.064 383.874 357.706 348.678 377.662 309.121C397.618 269.563 406.412 225.504 415.065 182.077C419.521 159.238 424.046 136.118 423.038 112.857Z" fill="#EFF1FE"/>
<path d="M276.382 0H117.86C108.872 0 101.585 7.28577 101.585 16.2732V242.574C101.585 251.562 108.872 258.847 117.86 258.847H276.382C285.37 258.847 292.656 251.562 292.656 242.574V16.2732C292.656 7.28577 285.37 0 276.382 0Z" fill="#DFE3FD"/>
<path d="M292.656 16.2732V242.551C292.656 251.555 285.386 258.894 276.382 258.965H117.86C108.855 258.894 101.585 251.555 101.585 242.551V158.136L178.22 0H276.382C277.202 0 278.047 0.0703453 278.867 0.187587C286.793 1.40691 292.656 8.25385 292.656 16.2732Z" fill="#CFD5FC"/>
<path d="M292.656 16.2731V242.551C292.656 251.555 285.386 258.894 276.382 258.964H211.589L278.867 0.1875C286.793 1.40682 292.656 8.25376 292.656 16.2731Z" fill="#C0C7FC"/>
<path d="M257.059 205.924H170.012C167.137 205.924 164.807 208.255 164.807 211.13V212.935C164.807 215.81 167.137 218.141 170.012 218.141H257.059C259.934 218.141 262.265 215.81 262.265 212.935V211.13C262.265 208.255 259.934 205.924 257.059 205.924Z" fill="white"/>
<path d="M257.035 164.608H137.206C134.331 164.608 132 166.939 132 169.813V171.619C132 174.494 134.331 176.825 137.206 176.825H257.035C259.911 176.825 262.241 174.494 262.241 171.619V169.813C262.241 166.939 259.911 164.608 257.035 164.608Z" fill="white"/>
<path d="M257.059 123.315H170.012C167.137 123.315 164.807 125.646 164.807 128.521V130.327C164.807 133.201 167.137 135.532 170.012 135.532H257.059C259.934 135.532 262.265 133.201 262.265 130.327V128.521C262.265 125.646 259.934 123.315 257.059 123.315Z" fill="white"/>
<path d="M257.035 82.0227H194.424C191.549 82.0227 189.218 84.3533 189.218 87.2283V89.0338C189.218 91.9087 191.549 94.2393 194.424 94.2393H257.035C259.911 94.2393 262.241 91.9087 262.241 89.0338V87.2283C262.241 84.3533 259.911 82.0227 257.035 82.0227Z" fill="white"/>
<path d="M257.035 40.7065H137.206C134.331 40.7065 132 43.0371 132 45.9121V47.7176C132 50.5926 134.331 52.9232 137.206 52.9232H257.035C259.911 52.9232 262.241 50.5926 262.241 47.7176V45.9121C262.241 43.0371 259.911 40.7065 257.035 40.7065Z" fill="white"/>
<path d="M469 111.497V227.145C469 236.22 461.66 243.559 452.585 243.559H419.638C416.12 243.559 412.814 245.247 410.75 248.108L389.176 277.794C387.371 280.256 383.9 280.772 381.438 278.966C380.992 278.638 380.594 278.239 380.265 277.794L369.056 262.623L360.731 251.203L358.574 248.225C356.51 245.365 353.18 243.676 349.663 243.676H210.159C201.084 243.676 193.744 236.337 193.744 227.262V111.497C193.744 102.423 201.084 95.0835 210.159 95.0835H452.585C461.66 95.0835 469 102.423 469 111.497Z" fill="#816DFC"/>
<path d="M469 111.497V227.145C469 236.22 461.66 243.559 452.585 243.559H419.638C416.12 243.559 412.814 245.247 410.75 248.108L389.176 277.794C387.371 280.256 383.9 280.772 381.438 278.966C380.992 278.638 380.594 278.239 380.265 277.794L369.056 262.623L360.731 251.203L358.574 248.225C356.51 245.365 353.18 243.676 349.663 243.676H214.075L313.902 95.0132H452.585C461.66 95.0132 469 102.353 469 111.427V111.497Z" fill="#5D3DE3"/>
<path d="M469 111.497V227.145C469 236.22 461.66 243.559 452.585 243.559H419.638C416.12 243.559 412.814 245.247 410.75 248.108L389.176 277.794C387.371 280.256 383.9 280.772 381.438 278.966C380.992 278.638 380.593 278.239 380.265 277.794L369.056 262.623L360.731 251.203L412.321 95.0132H452.585C461.66 95.0132 469 102.353 469 111.427V111.497Z" fill="#38219E"/>
<path d="M274.248 184.797C282.795 184.797 289.725 177.868 289.725 169.321C289.725 160.774 282.795 153.845 274.248 153.845C265.7 153.845 258.771 160.774 258.771 169.321C258.771 177.868 265.7 184.797 274.248 184.797Z" fill="white"/>
<path d="M331.325 184.797C339.873 184.797 346.802 177.868 346.802 169.321C346.802 160.774 339.873 153.845 331.325 153.845C322.777 153.845 315.848 160.774 315.848 169.321C315.848 177.868 322.777 184.797 331.325 184.797Z" fill="white"/>
<path d="M388.379 184.797C396.927 184.797 403.856 177.868 403.856 169.321C403.856 160.774 396.927 153.845 388.379 153.845C379.831 153.845 372.902 160.774 372.902 169.321C372.902 177.868 379.831 184.797 388.379 184.797Z" fill="white"/>
<path d="M316.2 206.839V322.486C316.2 331.561 308.86 338.9 299.785 338.9H147.993C144.475 338.9 141.146 340.589 139.082 343.449L117.531 373.135C115.702 375.597 112.232 376.113 109.769 374.307C109.324 373.979 108.925 373.581 108.597 373.135L97.5051 357.847L89.11 346.521L86.9526 343.543C85.2642 341.245 82.7316 339.698 79.9176 339.205C79.2845 339.064 78.6279 338.994 77.9713 338.994H57.3587C48.2836 338.994 40.9437 331.655 40.9437 322.58V206.839C41.0141 197.811 48.3305 190.495 57.3587 190.425H299.668C308.743 190.425 316.129 197.764 316.2 206.839Z" fill="#DEA95B"/>
<path d="M316.2 206.839V322.486C316.2 331.561 308.86 338.9 299.785 338.9H147.993C144.475 338.9 141.146 340.589 139.082 343.449L117.531 373.135C115.702 375.597 112.232 376.113 109.769 374.307C109.324 373.979 108.925 373.581 108.597 373.135L97.5051 357.847L89.11 346.521L86.9526 343.543C85.2642 341.245 82.7316 339.698 79.9176 339.205L151.346 190.331H299.668C308.79 190.331 316.176 197.717 316.2 206.839Z" fill="#D1913E"/>
<path d="M316.2 206.839V322.486C316.2 331.561 308.86 338.9 299.785 338.9H214.849L262.077 190.237H299.597C308.719 190.19 316.153 197.576 316.2 206.698C316.2 206.745 316.2 206.792 316.2 206.839Z" fill="#C47921"/>
<path d="M121.471 280.138C130.019 280.138 136.948 273.21 136.948 264.663C136.948 256.115 130.019 249.187 121.471 249.187C112.923 249.187 105.994 256.115 105.994 264.663C105.994 273.21 112.923 280.138 121.471 280.138Z" fill="white"/>
<path d="M178.525 280.138C187.073 280.138 194.002 273.21 194.002 264.663C194.002 256.115 187.073 249.187 178.525 249.187C169.977 249.187 163.048 256.115 163.048 264.663C163.048 273.21 169.977 280.138 178.525 280.138Z" fill="white"/>
<path d="M235.602 280.138C244.15 280.138 251.079 273.21 251.079 264.663C251.079 256.115 244.15 249.187 235.602 249.187C227.054 249.187 220.125 256.115 220.125 264.663C220.125 273.21 227.054 280.138 235.602 280.138Z" fill="white"/>
<path d="M207.978 72.6198L168.817 74.0267L18.6662 79.4199L120.299 9.9187L153.551 33.7189L59.6334 66.8515L168.418 44.3176L207.978 72.6198Z" fill="#00C875"/>
<path d="M153.551 33.7188L149.447 48.2568L59.6334 66.8514L153.551 33.7188Z" fill="#037F4C"/>
<path d="M168.84 74.0266L164.15 90.4405C163.118 94.075 159.601 96.4199 155.849 95.9743L18.76 79.4197L168.84 74.0266Z" fill="#037F4C"/>
<path d="M340.048 52.9231H322.578V70.3922H340.048V52.9231Z" fill="#FF642E"/>
<path d="M237.267 357.143L259.545 370.016L237.267 382.889V357.143Z" fill="#00C875"/>
<path d="M57.9684 161.794C62.8121 161.794 66.7387 157.868 66.7387 153.025C66.7387 148.181 62.8121 144.255 57.9684 144.255C53.1247 144.255 49.1981 148.181 49.1981 153.025C49.1981 157.868 53.1247 161.794 57.9684 161.794Z" fill="#816DFC"/>
</g>
<defs>
<clipPath id="clip0_272_197801">
<rect width="469" height="402" fill="white"/>
</clipPath>
</defs>
</svg>
