<svg width="97" height="96" viewBox="0 0 97 96" fill="none" xmlns="http://www.w3.org/2000/svg">
<path d="M80.976 16.0003C78.9762 14.0003 32.4318 51.833 28.7074 59.652C28.7074 59.652 28.552 88.901 33.9176 89.7454C36.8204 89.7454 42.1446 74.3352 43.2662 70.9898C43.4096 70.5622 43.6058 70.1856 43.8792 69.8268C55.5758 54.484 82.9528 17.9773 80.976 16.0003Z" fill="#007867"/>
<path d="M11.6672 39.0989C9.15667 40.8149 9.06069 44.0419 11.3482 46.0457C14.4083 48.726 19.7201 53.0631 28.707 59.6654C28.7071 59.6564 28.7071 59.6519 28.7071 59.6519C32.4315 51.8329 78.9759 14.0002 80.9757 16.0002C82.9525 17.9772 55.5755 54.4839 43.8789 69.8267C43.6055 70.1855 43.4093 70.5621 43.2659 70.9897C42.1843 74.2158 37.1946 88.6612 34.2369 89.6877C40.5619 88.4685 46.8589 83.4096 52.6943 76.4228C60.0974 81.3099 65.3374 84.457 68.5228 86.2839C70.7514 87.5621 73.4852 87.0873 74.6568 84.8009C81.4214 71.5993 89.0442 32.4781 90.478 11.9828C90.7092 8.67713 88.031 6.03095 84.7714 6.62737C64.4762 10.3409 25.5572 29.6039 11.6672 39.0989Z" fill="#00A76F"/>
<path d="M33.9173 89.7453C33.9172 89.7451 33.9174 89.7455 33.9173 89.7453V89.7453Z" fill="#00A76F"/>
<g style="mix-blend-mode:overlay" filter="url(#filter0_i_270_197262)">
<path d="M11.6672 39.0989C9.15667 40.8149 9.06069 44.0419 11.3482 46.0457C14.4083 48.726 19.7201 53.0631 28.707 59.6654C28.7071 59.6564 28.7071 59.6519 28.7071 59.6519C32.4315 51.8329 78.9759 14.0002 80.9757 16.0002C82.9525 17.9772 55.5755 54.4839 43.8789 69.8267C43.6055 70.1855 43.4093 70.5621 43.2659 70.9897C42.1843 74.2158 37.1946 88.6612 34.2369 89.6877C40.5619 88.4685 46.8589 83.4096 52.6943 76.4228C60.0974 81.3099 65.3374 84.457 68.5228 86.2839C70.7514 87.5621 73.4852 87.0873 74.6568 84.8009C81.4214 71.5993 89.0442 32.4781 90.478 11.9828C90.7092 8.67713 88.031 6.03095 84.7714 6.62737C64.4762 10.3409 25.5572 29.6039 11.6672 39.0989Z" fill="white" fill-opacity="0.08"/>
<path d="M33.9173 89.7453C33.9172 89.7451 33.9174 89.7455 33.9173 89.7453V89.7453Z" fill="white" fill-opacity="0.08"/>
</g>
<defs>
<filter id="filter0_i_270_197262" x="7.70508" y="4.54297" width="82.7869" height="85.2024" filterUnits="userSpaceOnUse" color-interpolation-filters="sRGB">
<feFlood flood-opacity="0" result="BackgroundImageFix"/>
<feBlend mode="normal" in="SourceGraphic" in2="BackgroundImageFix" result="shape"/>
<feColorMatrix in="SourceAlpha" type="matrix" values="0 0 0 0 0 0 0 0 0 0 0 0 0 0 0 0 0 0 127 0" result="hardAlpha"/>
<feOffset dx="-2" dy="-2"/>
<feGaussianBlur stdDeviation="2"/>
<feComposite in2="hardAlpha" operator="arithmetic" k2="-1" k3="1"/>
<feColorMatrix type="matrix" values="0 0 0 0 0 0 0 0 0 0 0 0 0 0 0 0 0 0 0.24 0"/>
<feBlend mode="normal" in2="shape" result="effect1_innerShadow_270_197262"/>
</filter>
</defs>
</svg>
