<?xml version="1.0" encoding="UTF-8"?>
<svg id="Layer_2" data-name="Layer 2" xmlns="http://www.w3.org/2000/svg" xmlns:xlink="http://www.w3.org/1999/xlink" viewBox="0 0 921.53 249.25">
  <defs>
    <style>
      .cls-1 {
        fill: url(#linear-gradient-2);
      }

      .cls-2 {
        fill: url(#linear-gradient-8);
      }

      .cls-2, .cls-3 {
        opacity: .6;
      }

      .cls-4 {
        clip-path: url(#clippath-2);
      }

      .cls-5 {
        clip-path: url(#clippath-6);
      }

      .cls-6 {
        clip-path: url(#clippath-7);
      }

      .cls-7 {
        clip-path: url(#clippath-1);
      }

      .cls-8 {
        clip-path: url(#clippath-4);
      }

      .cls-9 {
        fill: #8d8d8d;
        fill-rule: evenodd;
      }

      .cls-3 {
        fill: url(#linear-gradient-6);
      }

      .cls-10 {
        fill: url(#linear-gradient-5);
      }

      .cls-11 {
        clip-path: url(#clippath-9);
      }

      .cls-12 {
        clip-path: url(#clippath);
      }

      .cls-13 {
        fill: none;
      }

      .cls-14 {
        clip-path: url(#clippath-3);
      }

      .cls-15 {
        fill: url(#linear-gradient-7);
      }

      .cls-16 {
        clip-path: url(#clippath-8);
      }

      .cls-17 {
        fill: url(#linear-gradient-3);
      }

      .cls-18 {
        clip-path: url(#clippath-5);
      }

      .cls-19 {
        fill: url(#linear-gradient);
      }

      .cls-20 {
        fill: url(#linear-gradient-4);
      }
    </style>
    <clipPath id="clippath">
      <path class="cls-13" d="m592.9,7.59c15.85,0,28.7,12.85,28.7,28.7s-12.85,28.7-28.7,28.7-28.7-12.85-28.7-28.7,12.85-28.7,28.7-28.7"/>
    </clipPath>
    <linearGradient id="linear-gradient" x1="650.45" y1="-39.07" x2="570.54" y2="65.57" gradientUnits="userSpaceOnUse">
      <stop offset="0" stop-color="#113ba7"/>
      <stop offset=".07" stop-color="#1044ab"/>
      <stop offset="1" stop-color="#08b9e9"/>
    </linearGradient>
    <clipPath id="clippath-1">
      <path class="cls-13" d="m710.77,0c15.85,0,28.7,12.85,28.7,28.7s-12.85,28.7-28.7,28.7-28.7-12.85-28.7-28.7,12.85-28.7,28.7-28.7"/>
    </clipPath>
    <linearGradient id="linear-gradient-2" x1="710.77" y1="28.71" x2="710.77" y2="237.47" gradientUnits="userSpaceOnUse">
      <stop offset="0" stop-color="#08b9e9"/>
      <stop offset=".93" stop-color="#1044ab"/>
      <stop offset="1" stop-color="#113ba7"/>
    </linearGradient>
    <clipPath id="clippath-2">
      <path class="cls-13" d="m828.63,7.59c15.85,0,28.7,12.85,28.7,28.7s-12.85,28.7-28.7,28.7-28.7-12.85-28.7-28.7,12.85-28.7,28.7-28.7"/>
    </clipPath>
    <linearGradient id="linear-gradient-3" x1="780.16" y1="-21.17" x2="847.06" y2="58.13" xlink:href="#linear-gradient"/>
    <clipPath id="clippath-3">
      <path class="cls-13" d="m787.53,106.33c-25.16,35.75-22.35,66.15-35.38,96.32-1.57,3.59-3.31,6.91-5.2,10.04-9.24,15.31-22.02,24.79-36.17,24.79s-26.94-9.47-36.17-24.79c-1.88-3.11-3.75-6.34-5.31-9.9-13.03-30.17-10.21-60.57-35.38-96.32,6.12-8.24,13.17-15.03,21.71-20.84h0c16.29-10.88,35.01-16.44,53.79-16.7,19.68-.27,39.43,5.3,56.51,16.7h0c6.93,4.71,17.27,13.89,21.6,20.7"/>
    </clipPath>
    <linearGradient id="linear-gradient-4" x1="710.72" y1="85.91" x2="710.72" y2="367.99" gradientUnits="userSpaceOnUse">
      <stop offset="0" stop-color="#08b9e9"/>
      <stop offset=".81" stop-color="#0f54b4"/>
      <stop offset="1" stop-color="#113ba7"/>
    </linearGradient>
    <clipPath id="clippath-4">
      <path class="cls-13" d="m797.41,236.83c-12.46-1.01-23.15-7.36-32.12-16.33h0c-5.22-5.31-9.44-11.22-13.14-17.85,13.03-30.17,10.21-60.57,35.38-96.32,11.89-16.89,30.21-29.79,51.69-30.35,13.71-.18,25.41,7.26,32.56,19.36,10.14,17.14,10.45,40.5,5.54,61.29-5.23,22.18-16.32,42.27-30.01,56.81-14.51,15.4-32.59,25.18-49.9,23.39"/>
    </clipPath>
    <linearGradient id="linear-gradient-5" x1="884.44" y1="165.31" x2="757.96" y2="150.08" xlink:href="#linear-gradient-2"/>
    <clipPath id="clippath-5">
      <path class="cls-13" d="m797.41,236.83c-12.46-1.01-23.15-7.36-32.12-16.33h0c-5.22-5.31-9.44-11.22-13.14-17.85,13.03-30.17,10.21-60.57,35.38-96.32,11.89-16.89,30.21-29.79,51.69-30.35,13.71-.18,25.41,7.26,32.56,19.36,10.14,17.14,10.45,40.5,5.54,61.29-5.23,22.18-16.32,42.27-30.01,56.81-14.51,15.4-32.59,25.18-49.9,23.39"/>
    </clipPath>
    <clipPath id="clippath-6">
      <path class="cls-13" d="m757.98,75.85c9.85,10.16,23.68,21.85,29.55,30.48,15.23,22.43,47.8,69.4,91.7,40.42,42.3-27.92,13.17,9.05,13.17,9.05l-23.67,76.83s-103.24,16.46-105.3,16.46-25.38-14.41-25.38-14.41l5.49-92.95,14.44-65.89Z"/>
    </clipPath>
    <linearGradient id="linear-gradient-6" x1="714.86" y1="340.44" x2="884.78" y2="77.33" xlink:href="#linear-gradient"/>
    <clipPath id="clippath-7">
      <path class="cls-13" d="m624.04,236.97c12.46-1.01,23.15-7.36,32.12-16.33h0c5.22-5.31,9.44-11.22,13.14-17.85-13.03-30.17-10.21-60.57-35.38-96.32-11.89-16.89-30.21-29.79-51.69-30.35-13.71-.18-25.41,7.26-32.56,19.36-10.14,17.13-10.45,40.5-5.54,61.29,5.23,22.18,16.32,42.27,30.01,56.8,14.51,15.41,32.59,25.18,49.9,23.39"/>
    </clipPath>
    <linearGradient id="linear-gradient-7" x1="537" y1="165.43" x2="663.48" y2="150.24" xlink:href="#linear-gradient-2"/>
    <clipPath id="clippath-8">
      <path class="cls-13" d="m624.04,236.97c12.46-1.01,23.15-7.36,32.12-16.33h0c5.22-5.31,9.44-11.22,13.14-17.85-13.03-30.17-10.21-60.57-35.38-96.32-11.89-16.89-30.21-29.79-51.69-30.35-13.71-.18-25.41,7.26-32.56,19.36-10.14,17.13-10.45,40.5-5.54,61.29,5.23,22.18,16.32,42.27,30.01,56.8,14.51,15.41,32.59,25.18,49.9,23.39"/>
    </clipPath>
    <clipPath id="clippath-9">
      <path class="cls-13" d="m663.47,76c-9.85,10.16-23.68,21.85-29.55,30.48-15.23,22.43-47.8,69.4-91.7,40.43-42.3-27.92-13.17,9.05-13.17,9.05l23.67,76.83s103.24,16.46,105.3,16.46,25.38-14.41,25.38-14.41l-5.49-92.95-14.44-65.89Z"/>
    </clipPath>
    <linearGradient id="linear-gradient-8" x1="706.59" y1="340.55" x2="536.67" y2="77.49" xlink:href="#linear-gradient"/>
  </defs>
  <g id="Layer_1-2" data-name="Layer 1">
    <g>
      <path class="cls-9" d="m141.8,189.65c11.8,0,21.36,9.57,21.36,21.36s-9.56,21.36-21.36,21.36-21.36-9.56-21.36-21.36,9.56-21.36,21.36-21.36m0-5.1c14.61,0,26.46,11.85,26.46,26.46s-11.85,26.46-26.46,26.46-26.46-11.85-26.46-26.46,11.85-26.46,26.46-26.46Zm145.79,50.78l1.03,2.14h-5.58l-.33-.63c-.55-1.33-2.22-5.03-4.51-10.13l-.33-.78c-3.18-7.1-5.17-9.65-6.32-10.53-1.59-1.22-3.62-1.85-6.06-1.85h-24.36v-5.1h27.83c3.77,0,6.69-.7,8.65-2.14,1.85-1.37,2.77-3.81,2.77-7.21s-.96-5.99-2.84-7.32c-1.96-1.4-4.95-2.14-8.94-2.14h-27.46v-5.1h27.46c5.1,0,9.2,1.11,12.23,3.25,3.1,2.29,4.66,6.1,4.66,11.31,0,4.4-1.11,7.8-3.29,10.13-1.63,1.74-3.66,2.96-6.06,3.62.74.78,1.44,1.7,2.22,2.88,1.29,2.03,3.03,5.47,5.14,10.2l.92,2.03c1.59,3.62,2.66,6.02,3.18,7.35Zm111.64-17.7c1.22,1.81,1.85,4.03,1.85,6.62,0,2.96-.89,5.43-2.66,7.47-1.78,1.92-4.1,3.4-6.99,4.36-2.85.92-5.91,1.4-9.2,1.4-3.7,0-6.95-.48-9.72-1.4-2.59-.85-4.88-1.92-6.65-3.14-1.81-1.22-2.96-2.14-3.62-2.92l-.74-.81,3.73-3.62.78.96c.44.52,1.37,1.26,2.62,2.11,1.33.89,3.21,1.77,5.43,2.55,2.29.78,5.03,1.14,8.17,1.14,4.25,0,7.69-.77,10.2-2.25,2.4-1.44,3.55-3.36,3.55-5.84s-.81-4.18-2.48-5.58c-1.77-1.44-4.44-2.85-7.95-4.14l-7.13-2.88c-2.66-1-5.14-2.18-7.32-3.47-2.25-1.37-3.99-2.88-5.21-4.55-1.33-1.74-2-3.88-2-6.39,0-4.03,1.85-7.21,5.47-9.43,3.51-2.14,7.72-3.25,12.57-3.25,3.51,0,6.91.63,10.13,1.88,3.25,1.26,5.88,3.11,7.83,5.47l.7.89-3.92,3.18-.7-.81c-1.4-1.59-3.36-2.92-5.88-3.92-2.59-1.03-5.32-1.59-8.17-1.59-3.95,0-7.17.78-9.54,2.26-2.29,1.4-3.4,3.14-3.4,5.32,0,2,.85,3.66,2.55,5.06,1.85,1.55,4.84,3.14,8.8,4.66l2.88,1.11c1.4.55,2.85,1.11,4.32,1.7,2.55,1.03,4.84,2.14,6.73,3.36,2.07,1.26,3.73,2.77,4.95,4.51Zm74.72-33.08h5.14v52.93h-5.14v-52.93ZM15.48,149.04c1.74.47,3.56.7,5.43.7h28.19c1.9,0,3.73-.23,5.48-.7,1.75-.47,3.42-1.17,5.02-2.1,1.6-.93,3.03-2.03,4.3-3.29,1.27-1.26,2.38-2.69,3.32-4.27.93-1.59,1.64-3.26,2.11-5.01.47-1.74.71-3.56.71-5.45,0-1.12-.14-2.25-.42-3.38-.28-1.14-.7-2.29-1.26-3.45l-.23-.49h16.39c20.16.02,45.97.05,77.42.06l.5-.07h69.69c4.14,0,8.11-.95,11.81-2.85,3.66-1.9,6.72-4.58,9.16-7.87l.95-1.29.85,1.39c1.56,2.51,4.17,4.92,7.84,7.2,3.63,2.31,7.13,3.43,10.35,3.43,3.53,0,6.75-.81,9.84-2.48,3.02-1.63,5.43-3.84,7.37-6.69l.81-1.19.98,1.12c2.04,2.44,4.68,4.58,7.97,6.48,3.29,1.83,6.42,2.75,9.33,2.75,3.87,0,7.43-.95,10.62-2.89,1.49-.87,3.35-2.5,5.01-4.32,3.56-3.89,5.07-8.15,5.2-13.7.04-1.57.07-3.12.07-4.68v-25.15h-5.43v29.87c0,3.84-1.36,7.3-3.94,10.11-1.03,1.14-2.22,2.11-3.5,2.9-2.42,1.48-5.2,2.3-8.04,2.3-4.21,0-7.8-1.53-10.79-4.55-3.02-2.95-4.55-6.58-4.55-10.76v-29.87h-5.53v29.87c0,3.84-1.32,7.3-3.94,10.11-2.99,3.29-7.2,5.19-11.54,5.19s-7.81-1.53-10.79-4.55c-2.99-2.95-4.52-6.58-4.52-10.76v-29.87h-5.43v25.15c0,3.63-.92,7.06-2.75,10.08-1.76,3.02-4.24,5.46-7.3,7.26-3.12,1.8-6.52,2.68-10.15,2.68H31.39v.1h-.62v5.47h31.82l.1.18c.61,1.1,1.06,2.25,1.36,3.43.3,1.2.45,2.43.45,3.71,0,1.38-.18,2.72-.52,4-.35,1.28-.87,2.52-1.56,3.7-.69,1.17-1.5,2.23-2.43,3.16-.94.94-1.99,1.76-3.17,2.46-1.19.69-2.42,1.21-3.7,1.56-1.28.35-2.62.52-4.01.52h-28.19c-1.38,0-2.71-.18-3.99-.52-1.28-.35-2.52-.87-3.7-1.56-1.18-.7-2.24-1.52-3.17-2.47-.93-.93-1.74-1.99-2.41-3.16-.68-1.18-1.2-2.42-1.55-3.71-.34-1.28-.52-2.61-.52-3.99v-30.3l-5.57,1.33v28.97c0,1.9.24,3.73.71,5.47.47,1.74,1.17,3.4,2.11,4.98.94,1.59,2.05,3.01,3.32,4.27,1.27,1.26,2.71,2.36,4.32,3.29,1.6.93,3.28,1.63,5.02,2.1Zm359.09-27.43c-4.51,0-8.82-1.12-12.83-3.43-2.88-1.68-5.35-3.83-7.36-6.41v18.31c0,10.62-5.12,20.53-13.71,26.71l-3.19-4.68c7.09-5.06,11.3-13.17,11.3-21.96v-59.28h5.6v25.15c0,3.63.95,7.06,2.75,10.08,1.8,3.09,4.24,5.46,7.37,7.26,3.05,1.8,6.45,2.69,10.08,2.69h83.63c1.39,0,2.73-.17,4.01-.51,1.28-.34,2.51-.85,3.69-1.53,1.18-.69,2.24-1.5,3.18-2.43.93-.93,1.75-1.98,2.45-3.16.69-1.19,1.21-2.42,1.56-3.7.35-1.28.52-2.62.52-4.01s-.18-2.73-.52-4.01c-.35-1.28-.87-2.51-1.56-3.68-.7-1.19-1.52-2.25-2.45-3.18-.93-.93-1.99-1.75-3.18-2.45-1.18-.69-2.41-1.21-3.68-1.56-1.28-.35-2.62-.52-4.01-.52h-64.32v-5.69l42.03-26.94,3.17,4.76-35.73,22.4h54.85c3.79,0,7.3.93,10.5,2.8,1.6.93,3.03,2.03,4.29,3.29,1.26,1.26,2.36,2.69,3.29,4.29.93,1.6,1.63,3.27,2.1,5.02.46,1.75.7,3.58.7,5.48,0,3.77-.93,7.24-2.8,10.43-.94,1.6-2.04,3.04-3.31,4.31-1.26,1.26-2.69,2.35-4.27,3.27-1.59.93-3.27,1.63-5.02,2.1-1.75.47-3.58.7-5.48.7-88.95,0,5.27.09-83.63.09ZM42.47,237.48v-4c0-4.55-.7-8.87-2.11-12.83-1.44-4.07-3.77-7.36-6.87-9.83-.57-.45-1.18-.86-1.81-1.24.63-.37,1.24-.79,1.81-1.24,3.1-2.48,5.43-5.76,6.87-9.83,1.4-3.95,2.11-8.28,2.11-12.83v-1.13h-5.1v1.13c0,4.1-.59,7.84-1.74,11.09-1.15,3.14-2.92,5.69-5.28,7.5-2.29,1.81-5.43,2.73-9.24,2.73H5.14v-22.46H0v52.93h5.14v-25.33h15.97c3.81,0,6.95.92,9.24,2.73,2.37,1.81,4.14,4.36,5.28,7.5,1.15,3.25,1.74,6.99,1.74,11.09v4h5.1Z"/>
      <g class="cls-12">
        <rect class="cls-19" x="564.2" y="7.59" width="57.4" height="57.4"/>
      </g>
      <g class="cls-7">
        <rect class="cls-1" x="682.07" y="0" width="57.4" height="57.4"/>
      </g>
      <g class="cls-4">
        <rect class="cls-17" x="799.94" y="7.59" width="57.4" height="57.4"/>
      </g>
      <g class="cls-14">
        <rect class="cls-20" x="633.92" y="68.67" width="153.6" height="168.81"/>
      </g>
      <g class="cls-8">
        <rect class="cls-10" x="752.15" y="75.81" width="130.08" height="162.8"/>
      </g>
      <g class="cls-18">
        <g class="cls-5">
          <rect class="cls-3" x="738.05" y="75.85" width="183.48" height="173.25"/>
        </g>
      </g>
      <g class="cls-6">
        <rect class="cls-15" x="539.22" y="75.95" width="130.08" height="162.8"/>
      </g>
      <g class="cls-16">
        <g class="cls-11">
          <rect class="cls-2" x="499.92" y="76" width="183.48" height="173.25"/>
        </g>
      </g>
    </g>
  </g>
</svg>