<svg width="48" height="48" viewBox="0 0 48 48" fill="none" xmlns="http://www.w3.org/2000/svg">
<path d="M31.172 3.99023C31.7022 3.99023 32.2107 4.20074 32.5857 4.57549L44.4137 16.3946C44.7891 16.7697 45 17.2786 45 17.8093V39.3236C45 41.9009 42.8689 43.9902 40.24 43.9902H15.76C13.1311 43.9902 11 41.9009 11 39.3236V8.6569C11 6.07957 13.1311 3.99023 15.76 3.99023H31.172Z" fill="#00A76F" fill-opacity="0.48"/>
<g filter="url(#filter0_d_1737_70205)">
<path d="M43.1548 16.1284C43.4678 16.4439 43.2443 16.9805 42.7998 16.9805H37C34.4227 16.9805 32.0976 14.7135 32.0976 12.2005V6.19458C32.0976 5.74814 32.6382 5.52551 32.9526 5.84248L43.1548 16.1284Z" fill="white" fill-opacity="0.24" shape-rendering="crispEdges"/>
</g>
<defs>
<filter id="filter0_d_1737_70205" x="30.0977" y="5.6936" width="15.2031" height="15.2869" filterUnits="userSpaceOnUse" color-interpolation-filters="sRGB">
<feFlood flood-opacity="0" result="BackgroundImageFix"/>
<feColorMatrix in="SourceAlpha" type="matrix" values="0 0 0 0 0 0 0 0 0 0 0 0 0 0 0 0 0 0 127 0" result="hardAlpha"/>
<feOffset dy="2"/>
<feGaussianBlur stdDeviation="1"/>
<feComposite in2="hardAlpha" operator="out"/>
<feColorMatrix type="matrix" values="0 0 0 0 0 0 0 0 0 0 0 0 0 0 0 0 0 0 0.04 0"/>
<feBlend mode="normal" in2="BackgroundImageFix" result="effect1_dropShadow_1737_70205"/>
<feBlend mode="normal" in="SourceGraphic" in2="effect1_dropShadow_1737_70205" result="shape"/>
</filter>
</defs>
</svg>
